M48
; DRILL file KiCad 10.0.6 date 2026-09-25T21:22:56
; FORMAT={-:-/ absolute / metric / decimal}
; #@! TF.CreationDate,2026-09-25T21:22:56-04:00
; #@! TF.GenerationSoftware,Kicad,Pcbnew,10.0.6
; #@! TF.FileFunction,Plated,1,2,PTH
FMAT,2
METRIC
; #@! TA.AperFunction,Plated,PTH,ViaDrill
T1C0.300
; #@! TA.AperFunction,Plated,PTH,ComponentDrill
T2C0.800
; #@! TA.AperFunction,Plated,PTH,ComponentDrill
T3C1.000
; #@! TA.AperFunction,Plated,PTH,ComponentDrill
T4C1.300
%
G90
G05
T1
X98.0Y-85.0
X100.5Y-78.5
X101.0Y-89.54
X103.0Y-85.25
X107.0Y-67.5
X110.0Y-70.5
X112.0Y-74.0
X114.15Y-69.0
X115.0Y-91.0
X115.0Y-94.0
X115.5Y-74.0
X116.65Y-69.0
X121.5Y-101.0
X125.5Y-77.5
X125.5Y-83.5
X125.62Y-98.5
X130.5Y-91.5
X131.5Y-85.0
X145.46Y-77.0
X149.42Y-64.0
X150.0Y-101.0
X152.0Y-98.0
X152.16Y-83.5
X152.92Y-64.0
X155.0Y-72.5
X155.0Y-78.5
X160.0Y-85.5
T2
X103.63Y-81.0
X104.69Y-95.5
X107.73Y-103.5
X111.25Y-81.0
X112.31Y-95.5
X115.35Y-103.5
X117.13Y-88.25
X124.75Y-88.25
X130.69Y-74.0
X131.19Y-81.0
X131.19Y-95.5
X136.19Y-104.0
X138.31Y-74.0
X138.81Y-81.0
X138.81Y-95.5
X143.81Y-104.0
X144.84Y-88.5
X152.46Y-88.5
X158.15Y-74.0
X158.5Y-95.5
X158.69Y-81.0
X165.77Y-74.0
X166.12Y-95.5
X166.31Y-81.0
T3
X98.0Y-74.69
X98.0Y-77.23
X98.0Y-79.77
X98.0Y-82.31
X104.25Y-74.0
X106.79Y-74.0
X109.33Y-74.0
X111.61Y-66.0
X114.15Y-66.0
X116.69Y-66.0
X125.38Y-66.0
X127.92Y-66.0
X130.46Y-66.0
X133.0Y-66.0
X135.54Y-66.0
X138.08Y-66.0
X147.38Y-66.5
X149.92Y-66.5
X152.46Y-66.5
T4
X98.0Y-90.96
X98.0Y-96.04
X104.5Y-88.25
X109.58Y-88.25
X118.42Y-74.0
X119.0Y-81.0
X119.12Y-95.5
X122.42Y-104.0
X123.5Y-74.0
X124.08Y-81.0
X124.2Y-95.5
X127.5Y-104.0
X131.96Y-88.5
X137.04Y-88.5
X145.96Y-74.0
X146.27Y-81.0
X146.42Y-95.5
X150.46Y-104.0
X151.04Y-74.0
X151.35Y-81.0
X151.5Y-95.5
X155.54Y-104.0
X160.42Y-88.5
X165.5Y-88.5
M30
