%TF.GenerationSoftware,KiCad,Pcbnew,10.0.6*%
%TF.CreationDate,2026-09-25T21:22:58-04:00*%
%TF.ProjectId,sensing_audio_visual_PCB,73656e73-696e-4675-9f61-7564696f5f76,rev?*%
%TF.SameCoordinates,Original*%
%TF.FileFunction,Copper,L1,Top*%
%TF.FilePolarity,Positive*%
%FSLAX46Y46*%
G04 Gerber Fmt 4.6, Leading zero omitted, Abs format (unit mm)*
G04 Created by KiCad (PCBNEW 10.0.6) date 2026-09-25 21:22:58*
%MOMM*%
%LPD*%
G01*
G04 APERTURE LIST*
G04 Aperture macros list*
%AMRoundRect*
0 Rectangle with rounded corners*
0 $1 Rounding radius*
0 $2 $3 $4 $5 $6 $7 $8 $9 X,Y pos of 4 corners*
0 Add a 4 corners polygon primitive as box body*
4,1,4,$2,$3,$4,$5,$6,$7,$8,$9,$2,$3,0*
0 Add four circle primitives for the rounded corners*
1,1,$1+$1,$2,$3*
1,1,$1+$1,$4,$5*
1,1,$1+$1,$6,$7*
1,1,$1+$1,$8,$9*
0 Add four rect primitives between the rounded corners*
20,1,$1+$1,$2,$3,$4,$5,0*
20,1,$1+$1,$4,$5,$6,$7,0*
20,1,$1+$1,$6,$7,$8,$9,0*
20,1,$1+$1,$8,$9,$2,$3,0*%
G04 Aperture macros list end*
%TA.AperFunction,ComponentPad*%
%ADD10R,1.700000X1.700000*%
%TD*%
%TA.AperFunction,ComponentPad*%
%ADD11C,1.700000*%
%TD*%
%TA.AperFunction,ComponentPad*%
%ADD12C,1.600000*%
%TD*%
%TA.AperFunction,ComponentPad*%
%ADD13RoundRect,0.650000X0.650000X0.650000X-0.650000X0.650000X-0.650000X-0.650000X0.650000X-0.650000X0*%
%TD*%
%TA.AperFunction,ComponentPad*%
%ADD14C,2.600000*%
%TD*%
%TA.AperFunction,ComponentPad*%
%ADD15RoundRect,0.650000X-0.650000X-0.650000X0.650000X-0.650000X0.650000X0.650000X-0.650000X0.650000X0*%
%TD*%
%TA.AperFunction,ComponentPad*%
%ADD16RoundRect,0.650000X0.650000X-0.650000X0.650000X0.650000X-0.650000X0.650000X-0.650000X-0.650000X0*%
%TD*%
%TA.AperFunction,ViaPad*%
%ADD17C,0.600000*%
%TD*%
%TA.AperFunction,Conductor*%
%ADD18C,0.200000*%
%TD*%
G04 APERTURE END LIST*
D10*
%TO.P,Amplifier,1,Pin_1_1*%
%TO.N,/Signal*%
X147380000Y-66500000D03*
D11*
%TO.P,Amplifier,2,Pin_2_2*%
%TO.N,/3V3*%
X149920000Y-66500000D03*
%TO.P,Amplifier,3,Pin_3_3*%
%TO.N,/GND*%
X152460000Y-66500000D03*
%TD*%
D12*
%TO.P,R_for_emitter,1,Pin_1_1*%
%TO.N,/5V*%
X104690000Y-95500000D03*
%TO.P,R_for_emitter,2,Pin_2_2*%
%TO.N,Net-(J3-Pin_1)*%
X112310000Y-95500000D03*
%TD*%
D13*
%TO.P,LED,1,Pin_1_1*%
%TO.N,Net-(J27-Pin_2)*%
X165500000Y-88500000D03*
D14*
%TO.P,LED,2,Pin_2_2*%
%TO.N,/GND*%
X160420000Y-88500000D03*
%TD*%
D12*
%TO.P,R_for_PhotoR,1,Pin_1_1*%
%TO.N,/3V3*%
X138310000Y-74000000D03*
%TO.P,R_for_PhotoR,2,Pin_2_2*%
%TO.N,Net-(J22-Pin_2)*%
X130690000Y-74000000D03*
%TD*%
%TO.P,R_for_emitter,1,Pin_1_1*%
%TO.N,/5V*%
X124750000Y-88250000D03*
%TO.P,R_for_emitter,2,Pin_2_2*%
%TO.N,Net-(J18-Pin_2)*%
X117130000Y-88250000D03*
%TD*%
%TO.P,R_for_PhotoR,1,Pin_1_1*%
%TO.N,/3V3*%
X158150000Y-74000000D03*
%TO.P,R_for_PhotoR,2,Pin_2_2*%
%TO.N,Net-(J25-Pin_2)*%
X165770000Y-74000000D03*
%TD*%
%TO.P,R_for_emitter,1,Pin_1_1*%
%TO.N,/5V*%
X103630000Y-81000000D03*
%TO.P,R_for_emitter,2,Pin_2_2*%
%TO.N,Net-(J14-Pin_2)*%
X111250000Y-81000000D03*
%TD*%
%TO.P,R_for_receiver,1,Pin_1_1*%
%TO.N,/3V3*%
X152460000Y-88500000D03*
%TO.P,R_for_receiver,2,Pin_2_2*%
%TO.N,Net-(J6-Pin_1)*%
X144840000Y-88500000D03*
%TD*%
%TO.P,R_for_receiver,1,Pin_1_1*%
%TO.N,/3V3*%
X131190000Y-81000000D03*
%TO.P,R_for_receiver,2,Pin_2_2*%
%TO.N,Net-(J12-Pin_2)*%
X138810000Y-81000000D03*
%TD*%
D13*
%TO.P,IR Emitter,1,Pin_1_1*%
%TO.N,Net-(J18-Pin_2)*%
X109580000Y-88250000D03*
D14*
%TO.P,IR Emitter,2,Pin_2_2*%
%TO.N,/GND*%
X104500000Y-88250000D03*
%TD*%
D13*
%TO.P,IR Receiver 1,1,Pin_1_1*%
%TO.N,Net-(J16-Pin_2)*%
X127500000Y-104000000D03*
D14*
%TO.P,IR Receiver 1,2,Pin_2_2*%
%TO.N,/GND*%
X122420000Y-104000000D03*
%TD*%
D15*
%TO.P,IR Receiver 4,1,Pin_1_1*%
%TO.N,Net-(J12-Pin_2)*%
X146270000Y-81000000D03*
D14*
%TO.P,IR Receiver 4,2,Pin_2_2*%
%TO.N,/GND*%
X151350000Y-81000000D03*
%TD*%
D15*
%TO.P,IR Receiver 2,1,Pin_1_1*%
%TO.N,Net-(J19-Pin_2)*%
X146420000Y-95500000D03*
D14*
%TO.P,IR Receiver 2,2,Pin_2_2*%
%TO.N,/GND*%
X151500000Y-95500000D03*
%TD*%
D12*
%TO.P,R_for_receiver,1,Pin_1_1*%
%TO.N,/3V3*%
X143810000Y-104000000D03*
%TO.P,R_for_receiver,2,Pin_2_2*%
%TO.N,Net-(J16-Pin_2)*%
X136190000Y-104000000D03*
%TD*%
D13*
%TO.P,LED,1,Pin_1_1*%
%TO.N,Net-(J29-Pin_2)*%
X155540000Y-104000000D03*
D14*
%TO.P,LED,2,Pin_2_2*%
%TO.N,/GND*%
X150460000Y-104000000D03*
%TD*%
D12*
%TO.P,R_for_LED,1,Pin_1_1*%
%TO.N,/3V3*%
X158690000Y-81000000D03*
%TO.P,R_for_LED,2,Pin_2_2*%
%TO.N,Net-(J27-Pin_2)*%
X166310000Y-81000000D03*
%TD*%
%TO.P,R_for_receiver,1,Pin_1_1*%
%TO.N,/3V3*%
X131190000Y-95500000D03*
%TO.P,R_for_receiver,2,Pin_2_2*%
%TO.N,Net-(J19-Pin_2)*%
X138810000Y-95500000D03*
%TD*%
D10*
%TO.P,Power & GND,1,Pin_1_1*%
%TO.N,/5V*%
X111610000Y-66000000D03*
D11*
%TO.P,Power & GND,2,Pin_2_2*%
%TO.N,/GND*%
X114150000Y-66000000D03*
%TO.P,Power & GND,3,Pin_3_3*%
%TO.N,/3V3*%
X116690000Y-66000000D03*
%TD*%
D13*
%TO.P,IR Receiver 3,1,Pin_1_1*%
%TO.N,Net-(J6-Pin_1)*%
X137040000Y-88500000D03*
D14*
%TO.P,IR Receiver 3,2,Pin_2_2*%
%TO.N,/GND*%
X131960000Y-88500000D03*
%TD*%
D10*
%TO.P,Light Strip,1,Pin_1_1*%
%TO.N,/5V*%
X104250000Y-74000000D03*
D11*
%TO.P,Light Strip,2,Pin_2_2*%
%TO.N,/DIN*%
X106790000Y-74000000D03*
%TO.P,Light Strip,3,Pin_3_3*%
%TO.N,/GND*%
X109330000Y-74000000D03*
%TD*%
D13*
%TO.P,Photoresistor 6,1,Pin_1_1*%
%TO.N,Net-(J25-Pin_2)*%
X151040000Y-74000000D03*
D14*
%TO.P,Photoresistor 6,2,Pin_2_2*%
%TO.N,/GND*%
X145960000Y-74000000D03*
%TD*%
D12*
%TO.P,R_for_LED,1,Pin_1_1*%
%TO.N,/3V3*%
X158500000Y-95500000D03*
%TO.P,R_for_LED,2,Pin_2_2*%
%TO.N,Net-(J29-Pin_2)*%
X166120000Y-95500000D03*
%TD*%
D10*
%TO.P,GPIO Pins 1\u002C 2\u002C 3\u002C 4\u002C 5\u002C 6,1,Pin_1_1*%
%TO.N,Net-(J16-Pin_2)*%
X125380000Y-66000000D03*
D11*
%TO.P,GPIO Pins 1\u002C 2\u002C 3\u002C 4\u002C 5\u002C 6,2,Pin_2_2*%
%TO.N,Net-(J19-Pin_2)*%
X127920000Y-66000000D03*
%TO.P,GPIO Pins 1\u002C 2\u002C 3\u002C 4\u002C 5\u002C 6,3,Pin_3_3*%
%TO.N,Net-(J6-Pin_1)*%
X130460000Y-66000000D03*
%TO.P,GPIO Pins 1\u002C 2\u002C 3\u002C 4\u002C 5\u002C 6,4,Pin_4_4*%
%TO.N,Net-(J12-Pin_2)*%
X133000000Y-66000000D03*
%TO.P,GPIO Pins 1\u002C 2\u002C 3\u002C 4\u002C 5\u002C 6,5,Pin_5_5*%
%TO.N,Net-(J22-Pin_2)*%
X135540000Y-66000000D03*
%TO.P,GPIO Pins 1\u002C 2\u002C 3\u002C 4\u002C 5\u002C 6,6,Pin_6_6*%
%TO.N,Net-(J25-Pin_2)*%
X138080000Y-66000000D03*
%TD*%
D12*
%TO.P,R_for_emitter,1,Pin_1_1*%
%TO.N,/5V*%
X115350000Y-103500000D03*
%TO.P,R_for_emitter,2,Pin_2_2*%
%TO.N,Net-(J10-Pin_2)*%
X107730000Y-103500000D03*
%TD*%
D13*
%TO.P,Photoresistor 5,1,Pin_1_1*%
%TO.N,Net-(J22-Pin_2)*%
X123500000Y-74000000D03*
D14*
%TO.P,Photoresistor 5,2,Pin_2_2*%
%TO.N,/GND*%
X118420000Y-74000000D03*
%TD*%
D16*
%TO.P,IR Emitter,1,Pin_1_1*%
%TO.N,Net-(J10-Pin_2)*%
X98000000Y-96040000D03*
D14*
%TO.P,IR Emitter,2,Pin_2_2*%
%TO.N,/GND*%
X98000000Y-90960000D03*
%TD*%
D15*
%TO.P,IR Emitter,1,Pin_1_1*%
%TO.N,Net-(J3-Pin_1)*%
X119120000Y-95500000D03*
D14*
%TO.P,IR Emitter,2,Pin_2_2*%
%TO.N,/GND*%
X124200000Y-95500000D03*
%TD*%
D10*
%TO.P,OLED Display,1,Pin_1_1*%
%TO.N,/SDA*%
X98000000Y-74690000D03*
D11*
%TO.P,OLED Display,2,Pin_2_2*%
%TO.N,/SCL*%
X98000000Y-77230000D03*
%TO.P,OLED Display,3,Pin_3_3*%
%TO.N,/3V3*%
X98000000Y-79770000D03*
%TO.P,OLED Display,4,Pin_4_4*%
%TO.N,/GND*%
X98000000Y-82310000D03*
%TD*%
D15*
%TO.P,IR Emitter,1,Pin_1_1*%
%TO.N,Net-(J14-Pin_2)*%
X119000000Y-81000000D03*
D14*
%TO.P,IR Emitter,2,Pin_2_2*%
%TO.N,/GND*%
X124080000Y-81000000D03*
%TD*%
D17*
%TO.N,/3V3*%
X116650000Y-69000000D03*
X131500000Y-85000000D03*
X100500000Y-78500000D03*
X110000000Y-70500000D03*
X149420000Y-64000000D03*
X107000000Y-67500000D03*
X155000000Y-72500000D03*
X115000000Y-91000000D03*
X115000000Y-94000000D03*
X125500000Y-77500000D03*
X155000000Y-78500000D03*
%TO.N,/GND*%
X98000000Y-85000000D03*
X160000000Y-85500000D03*
X101000000Y-89540000D03*
X150000000Y-101000000D03*
X152920000Y-64000000D03*
X152000000Y-98000000D03*
X112000000Y-74000000D03*
X125500000Y-83500000D03*
X114150000Y-69000000D03*
X121500000Y-101000000D03*
X125620000Y-98500000D03*
X115500000Y-74000000D03*
X145460000Y-77000000D03*
X130500000Y-91500000D03*
X152160000Y-83500000D03*
X103000000Y-85250000D03*
%TD*%
%TO.N,/3V3*%
D18*
X116690000Y-68960000D02*
X116650000Y-69000000D01*
X138310000Y-74000000D02*
X140500000Y-74000000D01*
X149920000Y-64500000D02*
X149420000Y-64000000D01*
X116690000Y-66000000D02*
X116690000Y-68960000D01*
X149920000Y-66500000D02*
X149920000Y-64500000D01*
X157960000Y-73810000D02*
X158150000Y-74000000D01*
X98000000Y-79770000D02*
X99270000Y-78500000D01*
X99270000Y-78500000D02*
X100500000Y-78500000D01*
%TO.N,/GND*%
X125620000Y-96920000D02*
X125620000Y-98500000D01*
X131960000Y-88500000D02*
X130500000Y-89960000D01*
X160420000Y-85920000D02*
X160000000Y-85500000D01*
X150460000Y-104000000D02*
X150460000Y-101460000D01*
X130500000Y-89960000D02*
X130500000Y-91500000D01*
X160420000Y-88500000D02*
X160420000Y-85920000D01*
X145960000Y-74000000D02*
X145960000Y-76500000D01*
X152460000Y-64460000D02*
X152920000Y-64000000D01*
X151500000Y-97500000D02*
X151500000Y-95500000D01*
X122420000Y-104000000D02*
X122420000Y-101920000D01*
X103000000Y-86750000D02*
X104500000Y-88250000D01*
X98000000Y-90960000D02*
X99420000Y-89540000D01*
X145960000Y-76500000D02*
X145460000Y-77000000D01*
X99420000Y-89540000D02*
X101000000Y-89540000D01*
X109330000Y-74000000D02*
X112000000Y-74000000D01*
X125500000Y-82420000D02*
X125500000Y-83500000D01*
X98000000Y-82310000D02*
X98000000Y-85000000D01*
X152000000Y-98000000D02*
X151500000Y-97500000D01*
X124080000Y-81000000D02*
X125500000Y-82420000D01*
X124200000Y-95500000D02*
X125620000Y-96920000D01*
X151350000Y-81000000D02*
X151350000Y-82690000D01*
X150460000Y-101460000D02*
X150000000Y-101000000D01*
X122420000Y-101920000D02*
X121500000Y-101000000D01*
X114150000Y-66000000D02*
X114150000Y-69000000D01*
X103000000Y-85250000D02*
X103000000Y-86750000D01*
X152460000Y-66500000D02*
X152460000Y-64460000D01*
X151350000Y-82690000D02*
X152160000Y-83500000D01*
X118420000Y-74000000D02*
X115500000Y-74000000D01*
%TO.N,/5V*%
X120500000Y-92500000D02*
X106000000Y-92500000D01*
X124870000Y-88370000D02*
X124750000Y-88250000D01*
X106000000Y-92500000D02*
X104690000Y-93810000D01*
X115350000Y-101850000D02*
X115350000Y-103500000D01*
X103630000Y-82380000D02*
X105250000Y-84000000D01*
X122000000Y-84000000D02*
X124750000Y-86750000D01*
X111610000Y-66000000D02*
X111610000Y-66640000D01*
X113000000Y-99500000D02*
X115350000Y-101850000D01*
X104250000Y-74000000D02*
X104250000Y-75500000D01*
X104690000Y-95500000D02*
X104690000Y-97190000D01*
X124750000Y-88250000D02*
X120500000Y-92500000D01*
X107000000Y-99500000D02*
X113000000Y-99500000D01*
X115470000Y-103620000D02*
X115350000Y-103500000D01*
X111610000Y-66640000D02*
X104250000Y-74000000D01*
X104690000Y-93810000D02*
X104690000Y-95500000D01*
X105250000Y-84000000D02*
X122000000Y-84000000D01*
X124750000Y-86750000D02*
X124750000Y-88250000D01*
X103630000Y-76120000D02*
X103630000Y-81000000D01*
X104250000Y-75500000D02*
X103630000Y-76120000D01*
X103630000Y-81000000D02*
X103630000Y-82380000D01*
X104690000Y-97190000D02*
X107000000Y-99500000D01*
%TO.N,Net-(J3-Pin_1)*%
X118120000Y-95500000D02*
X111560000Y-95500000D01*
%TO.N,Net-(J27-Pin_2)*%
X166770000Y-87230000D02*
X165500000Y-88500000D01*
X166770000Y-81000000D02*
X166770000Y-87230000D01*
%TO.N,Net-(J18-Pin_2)*%
X117130000Y-88250000D02*
X109580000Y-88250000D01*
%TO.N,Net-(J25-Pin_2)*%
X163770000Y-76000000D02*
X153040000Y-76000000D01*
X165770000Y-74000000D02*
X163770000Y-76000000D01*
X153040000Y-76000000D02*
X151040000Y-74000000D01*
X142580000Y-70500000D02*
X149960000Y-70500000D01*
X149960000Y-70500000D02*
X151040000Y-71580000D01*
X138080000Y-66000000D02*
X142580000Y-70500000D01*
X151040000Y-71580000D02*
X151040000Y-74000000D01*
%TO.N,Net-(J14-Pin_2)*%
X118000000Y-81000000D02*
X111250000Y-81000000D01*
%TO.N,Net-(J6-Pin_1)*%
X133540000Y-72540000D02*
X130460000Y-69460000D01*
X137040000Y-86540000D02*
X133540000Y-83040000D01*
X133540000Y-83040000D02*
X133540000Y-72540000D01*
X137040000Y-88500000D02*
X137040000Y-86540000D01*
X137040000Y-88500000D02*
X144340000Y-88500000D01*
X130460000Y-69460000D02*
X130460000Y-66000000D01*
%TO.N,Net-(J12-Pin_2)*%
X133000000Y-68500000D02*
X133000000Y-66000000D01*
X138810000Y-79810000D02*
X135500000Y-76500000D01*
X135500000Y-76500000D02*
X135500000Y-71000000D01*
X135500000Y-71000000D02*
X133000000Y-68500000D01*
X138810000Y-81000000D02*
X146270000Y-81000000D01*
X138810000Y-81000000D02*
X138810000Y-79810000D01*
%TO.N,Net-(J16-Pin_2)*%
X127500000Y-104000000D02*
X135690000Y-104000000D01*
X128000000Y-96000000D02*
X128000000Y-72500000D01*
X128000000Y-72500000D02*
X125380000Y-69880000D01*
X127500000Y-96500000D02*
X128000000Y-96000000D01*
X125380000Y-69880000D02*
X125380000Y-66000000D01*
X127500000Y-104000000D02*
X127500000Y-96500000D01*
%TO.N,Net-(J19-Pin_2)*%
X138810000Y-95500000D02*
X136310000Y-93000000D01*
X127920000Y-69420000D02*
X127920000Y-66000000D01*
X138810000Y-95500000D02*
X145920000Y-95500000D01*
X129000000Y-70500000D02*
X127920000Y-69420000D01*
X129000000Y-92000000D02*
X129000000Y-70500000D01*
X136310000Y-93000000D02*
X130000000Y-93000000D01*
X130000000Y-93000000D02*
X129000000Y-92000000D01*
%TO.N,Net-(J29-Pin_2)*%
X163620000Y-98000000D02*
X166120000Y-95500000D01*
X155540000Y-104000000D02*
X161540000Y-98000000D01*
X161540000Y-98000000D02*
X163620000Y-98000000D01*
%TO.N,Net-(J10-Pin_2)*%
X100270000Y-96040000D02*
X107730000Y-103500000D01*
X98000000Y-96040000D02*
X100270000Y-96040000D01*
%TD*%
%TA.AperFunction,Conductor*%
%TO.N,/3V3*%
G36*
X168942539Y-62020185D02*
G01*
X168988294Y-62072989D01*
X168999500Y-62124500D01*
X168999500Y-107375500D01*
X168979815Y-107442539D01*
X168927011Y-107488294D01*
X168875500Y-107499500D01*
X94124500Y-107499500D01*
X94057461Y-107479815D01*
X94011706Y-107427011D01*
X94000500Y-107375500D01*
X94000500Y-102878711D01*
X97149500Y-102878711D01*
X97149500Y-103121288D01*
X97176225Y-103324292D01*
X97181162Y-103361789D01*
X97191267Y-103399500D01*
X97243947Y-103596104D01*
X97336773Y-103820205D01*
X97336776Y-103820212D01*
X97458064Y-104030289D01*
X97458066Y-104030292D01*
X97458067Y-104030293D01*
X97605733Y-104222736D01*
X97605739Y-104222743D01*
X97777256Y-104394260D01*
X97777262Y-104394265D01*
X97969711Y-104541936D01*
X98179788Y-104663224D01*
X98403900Y-104756054D01*
X98638211Y-104818838D01*
X98818586Y-104842584D01*
X98878711Y-104850500D01*
X98878712Y-104850500D01*
X99121289Y-104850500D01*
X99169388Y-104844167D01*
X99361789Y-104818838D01*
X99596100Y-104756054D01*
X99820212Y-104663224D01*
X100030289Y-104541936D01*
X100222738Y-104394265D01*
X100394265Y-104222738D01*
X100541936Y-104030289D01*
X100663224Y-103820212D01*
X100756054Y-103596100D01*
X100818838Y-103361789D01*
X100850500Y-103121288D01*
X100850500Y-102878712D01*
X100818838Y-102638211D01*
X100756054Y-102403900D01*
X100663224Y-102179788D01*
X100541936Y-101969711D01*
X100394265Y-101777262D01*
X100394260Y-101777256D01*
X100222743Y-101605739D01*
X100222736Y-101605733D01*
X100030293Y-101458067D01*
X100030292Y-101458066D01*
X100030289Y-101458064D01*
X99820212Y-101336776D01*
X99820205Y-101336773D01*
X99596104Y-101243947D01*
X99361785Y-101181161D01*
X99121289Y-101149500D01*
X99121288Y-101149500D01*
X98878712Y-101149500D01*
X98878711Y-101149500D01*
X98638214Y-101181161D01*
X98403895Y-101243947D01*
X98179794Y-101336773D01*
X98179785Y-101336777D01*
X97969706Y-101458067D01*
X97777263Y-101605733D01*
X97777256Y-101605739D01*
X97605739Y-101777256D01*
X97605733Y-101777263D01*
X97458067Y-101969706D01*
X97336777Y-102179785D01*
X97336773Y-102179794D01*
X97243947Y-102403895D01*
X97181161Y-102638214D01*
X97149500Y-102878711D01*
X94000500Y-102878711D01*
X94000500Y-95318984D01*
X96199500Y-95318984D01*
X96199500Y-96761015D01*
X96205650Y-96849624D01*
X96205652Y-96849640D01*
X96254465Y-97057176D01*
X96254467Y-97057182D01*
X96254468Y-97057185D01*
X96340591Y-97252237D01*
X96369869Y-97294977D01*
X96461088Y-97428141D01*
X96461093Y-97428147D01*
X96611852Y-97578906D01*
X96611858Y-97578911D01*
X96787763Y-97699409D01*
X96982815Y-97785532D01*
X96982821Y-97785533D01*
X96982823Y-97785534D01*
X97190359Y-97834347D01*
X97190364Y-97834347D01*
X97190370Y-97834349D01*
X97239602Y-97837766D01*
X97278984Y-97840500D01*
X97278988Y-97840500D01*
X98721016Y-97840500D01*
X98756459Y-97838039D01*
X98809630Y-97834349D01*
X98809636Y-97834347D01*
X98809640Y-97834347D01*
X99017176Y-97785534D01*
X99017174Y-97785534D01*
X99017185Y-97785532D01*
X99212237Y-97699409D01*
X99388142Y-97578911D01*
X99538911Y-97428142D01*
X99659409Y-97252237D01*
X99745532Y-97057185D01*
X99764254Y-96977584D01*
X99794347Y-96849640D01*
X99794347Y-96849636D01*
X99794349Y-96849630D01*
X99800500Y-96761012D01*
X99800500Y-96760991D01*
X99800529Y-96760180D01*
X99800565Y-96760069D01*
X99800649Y-96758869D01*
X99800957Y-96758890D01*
X99822537Y-96693867D01*
X99876903Y-96649980D01*
X99924454Y-96640500D01*
X99969903Y-96640500D01*
X100036942Y-96660185D01*
X100057584Y-96676819D01*
X106435922Y-103055157D01*
X106469407Y-103116480D01*
X106466173Y-103181155D01*
X106461522Y-103195468D01*
X106429500Y-103397648D01*
X106429500Y-103602351D01*
X106461522Y-103804534D01*
X106524781Y-103999223D01*
X106617715Y-104181613D01*
X106738028Y-104347213D01*
X106882786Y-104491971D01*
X107032166Y-104600500D01*
X107048390Y-104612287D01*
X107158135Y-104668205D01*
X107230776Y-104705218D01*
X107230778Y-104705218D01*
X107230781Y-104705220D01*
X107335137Y-104739127D01*
X107425465Y-104768477D01*
X107526557Y-104784488D01*
X107627648Y-104800500D01*
X107627649Y-104800500D01*
X107832351Y-104800500D01*
X107832352Y-104800500D01*
X108034534Y-104768477D01*
X108229219Y-104705220D01*
X108411610Y-104612287D01*
X108567231Y-104499223D01*
X108577213Y-104491971D01*
X108577215Y-104491968D01*
X108577219Y-104491966D01*
X108721966Y-104347219D01*
X108721968Y-104347215D01*
X108721971Y-104347213D01*
X108774732Y-104274590D01*
X108842287Y-104181610D01*
X108935220Y-103999219D01*
X108998477Y-103804534D01*
X109030500Y-103602352D01*
X109030500Y-103397648D01*
X108998477Y-103195466D01*
X108996821Y-103190370D01*
X108945313Y-103031845D01*
X108935220Y-103000781D01*
X108935218Y-103000778D01*
X108935218Y-103000776D01*
X108877610Y-102887715D01*
X108842287Y-102818390D01*
X108825134Y-102794781D01*
X108721971Y-102652786D01*
X108577213Y-102508028D01*
X108411613Y-102387715D01*
X108411612Y-102387714D01*
X108411610Y-102387713D01*
X108354653Y-102358691D01*
X108229223Y-102294781D01*
X108034534Y-102231522D01*
X107859995Y-102203878D01*
X107832352Y-102199500D01*
X107627648Y-102199500D01*
X107589599Y-102205526D01*
X107425468Y-102231522D01*
X107416717Y-102234365D01*
X107411154Y-102236173D01*
X107341313Y-102238167D01*
X107285157Y-102205922D01*
X100757590Y-95678355D01*
X100757588Y-95678352D01*
X100638717Y-95559481D01*
X100638716Y-95559480D01*
X100551904Y-95509360D01*
X100551904Y-95509359D01*
X100551900Y-95509358D01*
X100501785Y-95480423D01*
X100349057Y-95439499D01*
X100190943Y-95439499D01*
X100183347Y-95439499D01*
X100183331Y-95439500D01*
X99924454Y-95439500D01*
X99857415Y-95419815D01*
X99811660Y-95367011D01*
X99800835Y-95321118D01*
X99800649Y-95321131D01*
X99800570Y-95319994D01*
X99800529Y-95319820D01*
X99800500Y-95319008D01*
X99800500Y-95318988D01*
X99794349Y-95230370D01*
X99794347Y-95230364D01*
X99794347Y-95230359D01*
X99745534Y-95022823D01*
X99745532Y-95022817D01*
X99745532Y-95022815D01*
X99659409Y-94827763D01*
X99538911Y-94651858D01*
X99538906Y-94651852D01*
X99388147Y-94501093D01*
X99388141Y-94501088D01*
X99223267Y-94388147D01*
X99212237Y-94380591D01*
X99017185Y-94294468D01*
X99017183Y-94294467D01*
X99017182Y-94294467D01*
X99017176Y-94294465D01*
X98809640Y-94245652D01*
X98809624Y-94245650D01*
X98721016Y-94239500D01*
X98721012Y-94239500D01*
X97278988Y-94239500D01*
X97278984Y-94239500D01*
X97190375Y-94245650D01*
X97190359Y-94245652D01*
X96982823Y-94294465D01*
X96982817Y-94294467D01*
X96787761Y-94380592D01*
X96611858Y-94501088D01*
X96611852Y-94501093D01*
X96461093Y-94651852D01*
X96461088Y-94651858D01*
X96340592Y-94827761D01*
X96254467Y-95022817D01*
X96254465Y-95022823D01*
X96205652Y-95230359D01*
X96205650Y-95230375D01*
X96199500Y-95318984D01*
X94000500Y-95318984D01*
X94000500Y-90841995D01*
X96199500Y-90841995D01*
X96199500Y-91078004D01*
X96199501Y-91078020D01*
X96230306Y-91312010D01*
X96291394Y-91539993D01*
X96381714Y-91758045D01*
X96381719Y-91758056D01*
X96442414Y-91863181D01*
X96499727Y-91962450D01*
X96499729Y-91962453D01*
X96499730Y-91962454D01*
X96643406Y-92149697D01*
X96643412Y-92149704D01*
X96810295Y-92316587D01*
X96810301Y-92316592D01*
X96997550Y-92460273D01*
X97128918Y-92536118D01*
X97201943Y-92578280D01*
X97201948Y-92578282D01*
X97201951Y-92578284D01*
X97420007Y-92668606D01*
X97647986Y-92729693D01*
X97881989Y-92760500D01*
X97881996Y-92760500D01*
X98118004Y-92760500D01*
X98118011Y-92760500D01*
X98352014Y-92729693D01*
X98579993Y-92668606D01*
X98798049Y-92578284D01*
X99002450Y-92460273D01*
X99189699Y-92316592D01*
X99356592Y-92149699D01*
X99500273Y-91962450D01*
X99618284Y-91758049D01*
X99708606Y-91539993D01*
X99769693Y-91312014D01*
X99800500Y-91078011D01*
X99800500Y-90841989D01*
X99769693Y-90607986D01*
X99708606Y-90380007D01*
X99699211Y-90357327D01*
X99680417Y-90311952D01*
X99672948Y-90242483D01*
X99704223Y-90180004D01*
X99764312Y-90144352D01*
X99794978Y-90140500D01*
X100420234Y-90140500D01*
X100487273Y-90160185D01*
X100489125Y-90161398D01*
X100620814Y-90249390D01*
X100620827Y-90249397D01*
X100766498Y-90309735D01*
X100766503Y-90309737D01*
X100921153Y-90340499D01*
X100921156Y-90340500D01*
X100921158Y-90340500D01*
X101078844Y-90340500D01*
X101078845Y-90340499D01*
X101233497Y-90309737D01*
X101379179Y-90249394D01*
X101510289Y-90161789D01*
X101621789Y-90050289D01*
X101709394Y-89919179D01*
X101769737Y-89773497D01*
X101800500Y-89618842D01*
X101800500Y-89461158D01*
X101800500Y-89461155D01*
X101800499Y-89461153D01*
X101797193Y-89444534D01*
X101769737Y-89306503D01*
X101757741Y-89277542D01*
X101709397Y-89160827D01*
X101709390Y-89160814D01*
X101621789Y-89029711D01*
X101621786Y-89029707D01*
X101510292Y-88918213D01*
X101510288Y-88918210D01*
X101379185Y-88830609D01*
X101379172Y-88830602D01*
X101233501Y-88770264D01*
X101233489Y-88770261D01*
X101078845Y-88739500D01*
X101078842Y-88739500D01*
X100921158Y-88739500D01*
X100921155Y-88739500D01*
X100766510Y-88770261D01*
X100766498Y-88770264D01*
X100620827Y-88830602D01*
X100620814Y-88830609D01*
X100489125Y-88918602D01*
X100422447Y-88939480D01*
X100420234Y-88939500D01*
X99499057Y-88939500D01*
X99340942Y-88939500D01*
X99188215Y-88980423D01*
X99188214Y-88980423D01*
X99188212Y-88980424D01*
X99188209Y-88980425D01*
X99138096Y-89009359D01*
X99138095Y-89009360D01*
X99102853Y-89029707D01*
X99051285Y-89059479D01*
X99051282Y-89059481D01*
X98990579Y-89120185D01*
X98939480Y-89171284D01*
X98939478Y-89171286D01*
X98884843Y-89225921D01*
X98836128Y-89274636D01*
X98774805Y-89308120D01*
X98705113Y-89303136D01*
X98701014Y-89301523D01*
X98579993Y-89251394D01*
X98352014Y-89190307D01*
X98352013Y-89190306D01*
X98352010Y-89190306D01*
X98118020Y-89159501D01*
X98118017Y-89159500D01*
X98118011Y-89159500D01*
X97881989Y-89159500D01*
X97881983Y-89159500D01*
X97881979Y-89159501D01*
X97647989Y-89190306D01*
X97420006Y-89251394D01*
X97201954Y-89341714D01*
X97201943Y-89341719D01*
X96997545Y-89459730D01*
X96810302Y-89603406D01*
X96810295Y-89603412D01*
X96643412Y-89770295D01*
X96643406Y-89770302D01*
X96499730Y-89957545D01*
X96381719Y-90161943D01*
X96381714Y-90161954D01*
X96291394Y-90380006D01*
X96230306Y-90607989D01*
X96199501Y-90841979D01*
X96199500Y-90841995D01*
X94000500Y-90841995D01*
X94000500Y-73792135D01*
X96649500Y-73792135D01*
X96649500Y-75587870D01*
X96649501Y-75587876D01*
X96655908Y-75647483D01*
X96706202Y-75782328D01*
X96706206Y-75782335D01*
X96792452Y-75897544D01*
X96792455Y-75897547D01*
X96907664Y-75983793D01*
X96907671Y-75983797D01*
X97039082Y-76032810D01*
X97095016Y-76074681D01*
X97119433Y-76140145D01*
X97104582Y-76208418D01*
X97083431Y-76236673D01*
X96969889Y-76350215D01*
X96844951Y-76522179D01*
X96748444Y-76711585D01*
X96682753Y-76913760D01*
X96671060Y-76987590D01*
X96649500Y-77123713D01*
X96649500Y-77336287D01*
X96682754Y-77546243D01*
X96735766Y-77709397D01*
X96748444Y-77748414D01*
X96844951Y-77937820D01*
X96969890Y-78109786D01*
X97120213Y-78260109D01*
X97292179Y-78385048D01*
X97292181Y-78385049D01*
X97292184Y-78385051D01*
X97301493Y-78389794D01*
X97352290Y-78437766D01*
X97369087Y-78505587D01*
X97346552Y-78571722D01*
X97301505Y-78610760D01*
X97292446Y-78615376D01*
X97292440Y-78615380D01*
X97238282Y-78654727D01*
X97238282Y-78654728D01*
X97870591Y-79287037D01*
X97807007Y-79304075D01*
X97692993Y-79369901D01*
X97599901Y-79462993D01*
X97534075Y-79577007D01*
X97517037Y-79640591D01*
X96884728Y-79008282D01*
X96884727Y-79008282D01*
X96845380Y-79062439D01*
X96748904Y-79251782D01*
X96683242Y-79453869D01*
X96683242Y-79453872D01*
X96650000Y-79663753D01*
X96650000Y-79876246D01*
X96683242Y-80086127D01*
X96683242Y-80086130D01*
X96748904Y-80288217D01*
X96845375Y-80477550D01*
X96884728Y-80531716D01*
X97517037Y-79899408D01*
X97534075Y-79962993D01*
X97599901Y-80077007D01*
X97692993Y-80170099D01*
X97807007Y-80235925D01*
X97870590Y-80252962D01*
X97238282Y-80885269D01*
X97238282Y-80885270D01*
X97292452Y-80924626D01*
X97292451Y-80924626D01*
X97301495Y-80929234D01*
X97352292Y-80977208D01*
X97369087Y-81045029D01*
X97346550Y-81111164D01*
X97301499Y-81150202D01*
X97292182Y-81154949D01*
X97120213Y-81279890D01*
X96969890Y-81430213D01*
X96844951Y-81602179D01*
X96748444Y-81791585D01*
X96682753Y-81993760D01*
X96649500Y-82203713D01*
X96649500Y-82416286D01*
X96682445Y-82624297D01*
X96682754Y-82626243D01*
X96737579Y-82794977D01*
X96748444Y-82828414D01*
X96844951Y-83017820D01*
X96969890Y-83189786D01*
X97120213Y-83340109D01*
X97292184Y-83465051D01*
X97292184Y-83465052D01*
X97331793Y-83485233D01*
X97382590Y-83533206D01*
X97399500Y-83595718D01*
X97399500Y-84420234D01*
X97379815Y-84487273D01*
X97378602Y-84489125D01*
X97290609Y-84620814D01*
X97290602Y-84620827D01*
X97230264Y-84766498D01*
X97230261Y-84766510D01*
X97199500Y-84921153D01*
X97199500Y-85078846D01*
X97230261Y-85233489D01*
X97230264Y-85233501D01*
X97290602Y-85379172D01*
X97290609Y-85379185D01*
X97378210Y-85510288D01*
X97378213Y-85510292D01*
X97489707Y-85621786D01*
X97489711Y-85621789D01*
X97620814Y-85709390D01*
X97620827Y-85709397D01*
X97749577Y-85762726D01*
X97766503Y-85769737D01*
X97921153Y-85800499D01*
X97921156Y-85800500D01*
X97921158Y-85800500D01*
X98078844Y-85800500D01*
X98078845Y-85800499D01*
X98233497Y-85769737D01*
X98379179Y-85709394D01*
X98510289Y-85621789D01*
X98621789Y-85510289D01*
X98709394Y-85379179D01*
X98769737Y-85233497D01*
X98782138Y-85171153D01*
X102199500Y-85171153D01*
X102199500Y-85328846D01*
X102230261Y-85483489D01*
X102230264Y-85483501D01*
X102290602Y-85629172D01*
X102290609Y-85629185D01*
X102378602Y-85760874D01*
X102399480Y-85827551D01*
X102399500Y-85829765D01*
X102399500Y-86663330D01*
X102399499Y-86663348D01*
X102399499Y-86829054D01*
X102399498Y-86829054D01*
X102440423Y-86981787D01*
X102449910Y-86998217D01*
X102449909Y-86998217D01*
X102449911Y-86998219D01*
X102519475Y-87118709D01*
X102519481Y-87118717D01*
X102638349Y-87237585D01*
X102638355Y-87237590D01*
X102814635Y-87413870D01*
X102848120Y-87475193D01*
X102843136Y-87544885D01*
X102841515Y-87549003D01*
X102791394Y-87670006D01*
X102730306Y-87897989D01*
X102699501Y-88131979D01*
X102699500Y-88131995D01*
X102699500Y-88368004D01*
X102699501Y-88368020D01*
X102723809Y-88552661D01*
X102730307Y-88602014D01*
X102769751Y-88749219D01*
X102791394Y-88829993D01*
X102881714Y-89048045D01*
X102881719Y-89048056D01*
X102942810Y-89153867D01*
X102999727Y-89252450D01*
X102999729Y-89252453D01*
X102999730Y-89252454D01*
X103143406Y-89439697D01*
X103143412Y-89439704D01*
X103310295Y-89606587D01*
X103310302Y-89606593D01*
X103351418Y-89638142D01*
X103497550Y-89750273D01*
X103583680Y-89800000D01*
X103701943Y-89868280D01*
X103701948Y-89868282D01*
X103701951Y-89868284D01*
X103920007Y-89958606D01*
X104147986Y-90019693D01*
X104381989Y-90050500D01*
X104381996Y-90050500D01*
X104618004Y-90050500D01*
X104618011Y-90050500D01*
X104852014Y-90019693D01*
X105079993Y-89958606D01*
X105298049Y-89868284D01*
X105502450Y-89750273D01*
X105689699Y-89606592D01*
X105856592Y-89439699D01*
X106000273Y-89252450D01*
X106118284Y-89048049D01*
X106208606Y-88829993D01*
X106269693Y-88602014D01*
X106300500Y-88368011D01*
X106300500Y-88131989D01*
X106269693Y-87897986D01*
X106208606Y-87670007D01*
X106187537Y-87619141D01*
X106168960Y-87574292D01*
X106150192Y-87528984D01*
X107779500Y-87528984D01*
X107779500Y-88971015D01*
X107785650Y-89059624D01*
X107785652Y-89059640D01*
X107834465Y-89267176D01*
X107834467Y-89267182D01*
X107834468Y-89267185D01*
X107920591Y-89462237D01*
X107953715Y-89510592D01*
X108041088Y-89638141D01*
X108041093Y-89638147D01*
X108191852Y-89788906D01*
X108191858Y-89788911D01*
X108367763Y-89909409D01*
X108562815Y-89995532D01*
X108562821Y-89995533D01*
X108562823Y-89995534D01*
X108770359Y-90044347D01*
X108770364Y-90044347D01*
X108770370Y-90044349D01*
X108819602Y-90047766D01*
X108858984Y-90050500D01*
X108858988Y-90050500D01*
X110301016Y-90050500D01*
X110336459Y-90048039D01*
X110389630Y-90044349D01*
X110389636Y-90044347D01*
X110389640Y-90044347D01*
X110545468Y-90007695D01*
X110597185Y-89995532D01*
X110792237Y-89909409D01*
X110968142Y-89788911D01*
X111118911Y-89638142D01*
X111239409Y-89462237D01*
X111325532Y-89267185D01*
X111348087Y-89171287D01*
X111374347Y-89059640D01*
X111374347Y-89059636D01*
X111374349Y-89059630D01*
X111380500Y-88971012D01*
X111380500Y-88970991D01*
X111380529Y-88970180D01*
X111380565Y-88970069D01*
X111380649Y-88968869D01*
X111380957Y-88968890D01*
X111402537Y-88903867D01*
X111456903Y-88859980D01*
X111504454Y-88850500D01*
X115900398Y-88850500D01*
X115967437Y-88870185D01*
X116010882Y-88918204D01*
X116010886Y-88918211D01*
X116017715Y-88931614D01*
X116138028Y-89097213D01*
X116282786Y-89241971D01*
X116437749Y-89354556D01*
X116448390Y-89362287D01*
X116564607Y-89421503D01*
X116630776Y-89455218D01*
X116630778Y-89455218D01*
X116630781Y-89455220D01*
X116705446Y-89479480D01*
X116825465Y-89518477D01*
X116926557Y-89534488D01*
X117027648Y-89550500D01*
X117027649Y-89550500D01*
X117232351Y-89550500D01*
X117232352Y-89550500D01*
X117434534Y-89518477D01*
X117629219Y-89455220D01*
X117811610Y-89362287D01*
X117904590Y-89294732D01*
X117977213Y-89241971D01*
X117977215Y-89241968D01*
X117977219Y-89241966D01*
X118121966Y-89097219D01*
X118121968Y-89097215D01*
X118121971Y-89097213D01*
X118185799Y-89009360D01*
X118242287Y-88931610D01*
X118335220Y-88749219D01*
X118398477Y-88554534D01*
X118430500Y-88352352D01*
X118430500Y-88147648D01*
X118398477Y-87945466D01*
X118335220Y-87750781D01*
X118335218Y-87750778D01*
X118335218Y-87750776D01*
X118301503Y-87684607D01*
X118242287Y-87568390D01*
X118214391Y-87529994D01*
X118121971Y-87402786D01*
X117977213Y-87258028D01*
X117811613Y-87137715D01*
X117811612Y-87137714D01*
X117811610Y-87137713D01*
X117754653Y-87108691D01*
X117629223Y-87044781D01*
X117434534Y-86981522D01*
X117259995Y-86953878D01*
X117232352Y-86949500D01*
X117027648Y-86949500D01*
X117003329Y-86953351D01*
X116825465Y-86981522D01*
X116630776Y-87044781D01*
X116448386Y-87137715D01*
X116282786Y-87258028D01*
X116138028Y-87402786D01*
X116017715Y-87568385D01*
X116010883Y-87581795D01*
X115962909Y-87632591D01*
X115900398Y-87649500D01*
X111504454Y-87649500D01*
X111437415Y-87629815D01*
X111391660Y-87577011D01*
X111380835Y-87531118D01*
X111380649Y-87531131D01*
X111380570Y-87529994D01*
X111380529Y-87529820D01*
X111380500Y-87529008D01*
X111380500Y-87528988D01*
X111374349Y-87440370D01*
X111374347Y-87440364D01*
X111374347Y-87440359D01*
X111325534Y-87232823D01*
X111325532Y-87232817D01*
X111325532Y-87232815D01*
X111239409Y-87037763D01*
X111118911Y-86861858D01*
X111118906Y-86861852D01*
X110968147Y-86711093D01*
X110968141Y-86711088D01*
X110880189Y-86650840D01*
X110792237Y-86590591D01*
X110597185Y-86504468D01*
X110597183Y-86504467D01*
X110597182Y-86504467D01*
X110597176Y-86504465D01*
X110389640Y-86455652D01*
X110389624Y-86455650D01*
X110301016Y-86449500D01*
X110301012Y-86449500D01*
X108858988Y-86449500D01*
X108858984Y-86449500D01*
X108770375Y-86455650D01*
X108770359Y-86455652D01*
X108562823Y-86504465D01*
X108562817Y-86504467D01*
X108367761Y-86590592D01*
X108191858Y-86711088D01*
X108191852Y-86711093D01*
X108041093Y-86861852D01*
X108041088Y-86861858D01*
X107920592Y-87037761D01*
X107834467Y-87232817D01*
X107834465Y-87232823D01*
X107785652Y-87440359D01*
X107785650Y-87440375D01*
X107779500Y-87528984D01*
X106150192Y-87528984D01*
X106118285Y-87451954D01*
X106118280Y-87451943D01*
X106076118Y-87378918D01*
X106000273Y-87247550D01*
X105915992Y-87137713D01*
X105856593Y-87060302D01*
X105856587Y-87060295D01*
X105689704Y-86893412D01*
X105689697Y-86893406D01*
X105502454Y-86749730D01*
X105502453Y-86749729D01*
X105502450Y-86749727D01*
X105396045Y-86688294D01*
X105298056Y-86631719D01*
X105298045Y-86631714D01*
X105079993Y-86541394D01*
X104942180Y-86504467D01*
X104852014Y-86480307D01*
X104852013Y-86480306D01*
X104852010Y-86480306D01*
X104618020Y-86449501D01*
X104618017Y-86449500D01*
X104618011Y-86449500D01*
X104381989Y-86449500D01*
X104381983Y-86449500D01*
X104381979Y-86449501D01*
X104147989Y-86480306D01*
X103920006Y-86541394D01*
X103799003Y-86591515D01*
X103729534Y-86598984D01*
X103667055Y-86567708D01*
X103663870Y-86564635D01*
X103636819Y-86537584D01*
X103603334Y-86476261D01*
X103600500Y-86449903D01*
X103600500Y-85829765D01*
X103620185Y-85762726D01*
X103621398Y-85760874D01*
X103709390Y-85629185D01*
X103709390Y-85629184D01*
X103709394Y-85629179D01*
X103769737Y-85483497D01*
X103800500Y-85328842D01*
X103800500Y-85171158D01*
X103800500Y-85171155D01*
X103800499Y-85171153D01*
X103769738Y-85016510D01*
X103769737Y-85016503D01*
X103769735Y-85016498D01*
X103709397Y-84870827D01*
X103709390Y-84870814D01*
X103621789Y-84739711D01*
X103621786Y-84739707D01*
X103510292Y-84628213D01*
X103510288Y-84628210D01*
X103379185Y-84540609D01*
X103379172Y-84540602D01*
X103233501Y-84480264D01*
X103233489Y-84480261D01*
X103078845Y-84449500D01*
X103078842Y-84449500D01*
X102921158Y-84449500D01*
X102921155Y-84449500D01*
X102766510Y-84480261D01*
X102766498Y-84480264D01*
X102620827Y-84540602D01*
X102620814Y-84540609D01*
X102489711Y-84628210D01*
X102489707Y-84628213D01*
X102378213Y-84739707D01*
X102378210Y-84739711D01*
X102290609Y-84870814D01*
X102290602Y-84870827D01*
X102230264Y-85016498D01*
X102230261Y-85016510D01*
X102199500Y-85171153D01*
X98782138Y-85171153D01*
X98792151Y-85120814D01*
X98800500Y-85078844D01*
X98800500Y-84921155D01*
X98800499Y-84921153D01*
X98774531Y-84790606D01*
X98769737Y-84766503D01*
X98769735Y-84766498D01*
X98709397Y-84620827D01*
X98709390Y-84620814D01*
X98621398Y-84489125D01*
X98600520Y-84422447D01*
X98600500Y-84420234D01*
X98600500Y-83595718D01*
X98620185Y-83528679D01*
X98668207Y-83485233D01*
X98707815Y-83465052D01*
X98707815Y-83465051D01*
X98707816Y-83465051D01*
X98825134Y-83379815D01*
X98879786Y-83340109D01*
X98879788Y-83340106D01*
X98879792Y-83340104D01*
X99030104Y-83189792D01*
X99030106Y-83189788D01*
X99030109Y-83189786D01*
X99155048Y-83017820D01*
X99155047Y-83017820D01*
X99155051Y-83017816D01*
X99251557Y-82828412D01*
X99317246Y-82626243D01*
X99350500Y-82416287D01*
X99350500Y-82203713D01*
X99317246Y-81993757D01*
X99251557Y-81791588D01*
X99155051Y-81602184D01*
X99155049Y-81602181D01*
X99155048Y-81602179D01*
X99030109Y-81430213D01*
X98879786Y-81279890D01*
X98707817Y-81154949D01*
X98698504Y-81150204D01*
X98647707Y-81102230D01*
X98630912Y-81034409D01*
X98653449Y-80968274D01*
X98662149Y-80957304D01*
X98715215Y-80897648D01*
X102329500Y-80897648D01*
X102329500Y-81102351D01*
X102361522Y-81304534D01*
X102424781Y-81499223D01*
X102465935Y-81579990D01*
X102517585Y-81681359D01*
X102517715Y-81681613D01*
X102638028Y-81847213D01*
X102638034Y-81847219D01*
X102782781Y-81991966D01*
X102948390Y-82112287D01*
X102961793Y-82119116D01*
X103012589Y-82167088D01*
X103029500Y-82229601D01*
X103029500Y-82293330D01*
X103029499Y-82293348D01*
X103029499Y-82459054D01*
X103029498Y-82459054D01*
X103040608Y-82500514D01*
X103070423Y-82611785D01*
X103093517Y-82651784D01*
X103121418Y-82700111D01*
X103149479Y-82748715D01*
X103268349Y-82867585D01*
X103268355Y-82867590D01*
X104765139Y-84364374D01*
X104765149Y-84364385D01*
X104769479Y-84368715D01*
X104769480Y-84368716D01*
X104881284Y-84480520D01*
X104968095Y-84530639D01*
X104968097Y-84530641D01*
X105006151Y-84552611D01*
X105018215Y-84559577D01*
X105170943Y-84600501D01*
X105170946Y-84600501D01*
X105336653Y-84600501D01*
X105336669Y-84600500D01*
X121699903Y-84600500D01*
X121766942Y-84620185D01*
X121787584Y-84636819D01*
X124093630Y-86942865D01*
X124127115Y-87004188D01*
X124122131Y-87073880D01*
X124080259Y-87129813D01*
X124070738Y-87136274D01*
X124068385Y-87137715D01*
X123902786Y-87258028D01*
X123758028Y-87402786D01*
X123637715Y-87568386D01*
X123544781Y-87750776D01*
X123481522Y-87945465D01*
X123449500Y-88147648D01*
X123449500Y-88352351D01*
X123481523Y-88554535D01*
X123486172Y-88568845D01*
X123488165Y-88638687D01*
X123455921Y-88694841D01*
X120287584Y-91863181D01*
X120226261Y-91896666D01*
X120199903Y-91899500D01*
X106086670Y-91899500D01*
X106086654Y-91899499D01*
X106079058Y-91899499D01*
X105920943Y-91899499D01*
X105844579Y-91919961D01*
X105768214Y-91940423D01*
X105768209Y-91940426D01*
X105631290Y-92019475D01*
X105631282Y-92019481D01*
X104209481Y-93441282D01*
X104209479Y-93441285D01*
X104159361Y-93528094D01*
X104159359Y-93528096D01*
X104130425Y-93578209D01*
X104130424Y-93578210D01*
X104124451Y-93600501D01*
X104089499Y-93730943D01*
X104089499Y-93730945D01*
X104089499Y-93899046D01*
X104089500Y-93899059D01*
X104089500Y-94270397D01*
X104069815Y-94337436D01*
X104021800Y-94380879D01*
X104008389Y-94387712D01*
X103842786Y-94508028D01*
X103698028Y-94652786D01*
X103577715Y-94818386D01*
X103484781Y-95000776D01*
X103421522Y-95195465D01*
X103389500Y-95397648D01*
X103389500Y-95602351D01*
X103421522Y-95804534D01*
X103484781Y-95999223D01*
X103525935Y-96079990D01*
X103577585Y-96181359D01*
X103577715Y-96181613D01*
X103698028Y-96347213D01*
X103698034Y-96347219D01*
X103842781Y-96491966D01*
X104008390Y-96612287D01*
X104021793Y-96619116D01*
X104072589Y-96667088D01*
X104089500Y-96729601D01*
X104089500Y-97103330D01*
X104089499Y-97103348D01*
X104089499Y-97269054D01*
X104089498Y-97269054D01*
X104130423Y-97421785D01*
X104159358Y-97471900D01*
X104159359Y-97471904D01*
X104159360Y-97471904D01*
X104209479Y-97558714D01*
X104209481Y-97558717D01*
X104328349Y-97677585D01*
X104328355Y-97677590D01*
X106515139Y-99864374D01*
X106515149Y-99864385D01*
X106519479Y-99868715D01*
X106519480Y-99868716D01*
X106631284Y-99980520D01*
X106631286Y-99980521D01*
X106631290Y-99980524D01*
X106768209Y-100059573D01*
X106768216Y-100059577D01*
X106880019Y-100089534D01*
X106920942Y-100100500D01*
X106920943Y-100100500D01*
X112699903Y-100100500D01*
X112766942Y-100120185D01*
X112787584Y-100136819D01*
X114713181Y-102062416D01*
X114746666Y-102123739D01*
X114749500Y-102150097D01*
X114749500Y-102270397D01*
X114729815Y-102337436D01*
X114681800Y-102380879D01*
X114668389Y-102387712D01*
X114502786Y-102508028D01*
X114358028Y-102652786D01*
X114237715Y-102818386D01*
X114144781Y-103000776D01*
X114081522Y-103195465D01*
X114049500Y-103397648D01*
X114049500Y-103602351D01*
X114081522Y-103804534D01*
X114144781Y-103999223D01*
X114237715Y-104181613D01*
X114358028Y-104347213D01*
X114502786Y-104491971D01*
X114652166Y-104600500D01*
X114668390Y-104612287D01*
X114778135Y-104668205D01*
X114850776Y-104705218D01*
X114850778Y-104705218D01*
X114850781Y-104705220D01*
X114955137Y-104739127D01*
X115045465Y-104768477D01*
X115146557Y-104784488D01*
X115247648Y-104800500D01*
X115247649Y-104800500D01*
X115452351Y-104800500D01*
X115452352Y-104800500D01*
X115654534Y-104768477D01*
X115849219Y-104705220D01*
X116031610Y-104612287D01*
X116187231Y-104499223D01*
X116197213Y-104491971D01*
X116197215Y-104491968D01*
X116197219Y-104491966D01*
X116341966Y-104347219D01*
X116341968Y-104347215D01*
X116341971Y-104347213D01*
X116394732Y-104274590D01*
X116462287Y-104181610D01*
X116555220Y-103999219D01*
X116593308Y-103881995D01*
X120619500Y-103881995D01*
X120619500Y-104118004D01*
X120619501Y-104118020D01*
X120649675Y-104347219D01*
X120650307Y-104352014D01*
X120689700Y-104499031D01*
X120711394Y-104579993D01*
X120801714Y-104798045D01*
X120801719Y-104798056D01*
X120872677Y-104920957D01*
X120919727Y-105002450D01*
X120919729Y-105002453D01*
X120919730Y-105002454D01*
X121063406Y-105189697D01*
X121063412Y-105189704D01*
X121230295Y-105356587D01*
X121230302Y-105356593D01*
X121271418Y-105388142D01*
X121417550Y-105500273D01*
X121548918Y-105576118D01*
X121621943Y-105618280D01*
X121621948Y-105618282D01*
X121621951Y-105618284D01*
X121840007Y-105708606D01*
X122067986Y-105769693D01*
X122301989Y-105800500D01*
X122301996Y-105800500D01*
X122538004Y-105800500D01*
X122538011Y-105800500D01*
X122772014Y-105769693D01*
X122999993Y-105708606D01*
X123218049Y-105618284D01*
X123422450Y-105500273D01*
X123609699Y-105356592D01*
X123776592Y-105189699D01*
X123920273Y-105002450D01*
X124038284Y-104798049D01*
X124128606Y-104579993D01*
X124189693Y-104352014D01*
X124220500Y-104118011D01*
X124220500Y-103881989D01*
X124189693Y-103647986D01*
X124128606Y-103420007D01*
X124038284Y-103201951D01*
X124038282Y-103201948D01*
X124038280Y-103201943D01*
X123968270Y-103080684D01*
X123920273Y-102997550D01*
X123776592Y-102810301D01*
X123776587Y-102810295D01*
X123609704Y-102643412D01*
X123609697Y-102643406D01*
X123422454Y-102499730D01*
X123422453Y-102499729D01*
X123422450Y-102499727D01*
X123340957Y-102452677D01*
X123218056Y-102381719D01*
X123218049Y-102381716D01*
X123097046Y-102331594D01*
X123042643Y-102287752D01*
X123020579Y-102221458D01*
X123020500Y-102217033D01*
X123020500Y-101840945D01*
X123020500Y-101840943D01*
X122979577Y-101688216D01*
X122941224Y-101621786D01*
X122900524Y-101551290D01*
X122900521Y-101551286D01*
X122900520Y-101551284D01*
X122788716Y-101439480D01*
X122788715Y-101439479D01*
X122784385Y-101435149D01*
X122784374Y-101435139D01*
X122334574Y-100985339D01*
X122301089Y-100924016D01*
X122300638Y-100921849D01*
X122269738Y-100766510D01*
X122269737Y-100766503D01*
X122269735Y-100766498D01*
X122209397Y-100620827D01*
X122209390Y-100620814D01*
X122121789Y-100489711D01*
X122121786Y-100489707D01*
X122010292Y-100378213D01*
X122010288Y-100378210D01*
X121879185Y-100290609D01*
X121879172Y-100290602D01*
X121733501Y-100230264D01*
X121733489Y-100230261D01*
X121578845Y-100199500D01*
X121578842Y-100199500D01*
X121421158Y-100199500D01*
X121421155Y-100199500D01*
X121266510Y-100230261D01*
X121266498Y-100230264D01*
X121120827Y-100290602D01*
X121120814Y-100290609D01*
X120989711Y-100378210D01*
X120989707Y-100378213D01*
X120878213Y-100489707D01*
X120878210Y-100489711D01*
X120790609Y-100620814D01*
X120790602Y-100620827D01*
X120730264Y-100766498D01*
X120730261Y-100766510D01*
X120699500Y-100921153D01*
X120699500Y-101078846D01*
X120730261Y-101233489D01*
X120730264Y-101233501D01*
X120790602Y-101379172D01*
X120790609Y-101379185D01*
X120878210Y-101510288D01*
X120878213Y-101510292D01*
X120989707Y-101621786D01*
X120989711Y-101621789D01*
X121120814Y-101709390D01*
X121120827Y-101709397D01*
X121266498Y-101769735D01*
X121266503Y-101769737D01*
X121304339Y-101777263D01*
X121421849Y-101800638D01*
X121483760Y-101833023D01*
X121485339Y-101834574D01*
X121781015Y-102130250D01*
X121814500Y-102191573D01*
X121809516Y-102261265D01*
X121767644Y-102317198D01*
X121740787Y-102332492D01*
X121621954Y-102381714D01*
X121621943Y-102381719D01*
X121417545Y-102499730D01*
X121230302Y-102643406D01*
X121230295Y-102643412D01*
X121063412Y-102810295D01*
X121063406Y-102810302D01*
X120919730Y-102997545D01*
X120919727Y-102997549D01*
X120919727Y-102997550D01*
X120917862Y-103000781D01*
X120801719Y-103201943D01*
X120801714Y-103201954D01*
X120711394Y-103420006D01*
X120650306Y-103647989D01*
X120619501Y-103881979D01*
X120619500Y-103881995D01*
X116593308Y-103881995D01*
X116618477Y-103804534D01*
X116650500Y-103602352D01*
X116650500Y-103397648D01*
X116618477Y-103195466D01*
X116616821Y-103190370D01*
X116565313Y-103031845D01*
X116555220Y-103000781D01*
X116555218Y-103000778D01*
X116555218Y-103000776D01*
X116497610Y-102887715D01*
X116462287Y-102818390D01*
X116445134Y-102794781D01*
X116341971Y-102652786D01*
X116197213Y-102508028D01*
X116031610Y-102387712D01*
X116018200Y-102380879D01*
X115967406Y-102332903D01*
X115950500Y-102270397D01*
X115950500Y-101939059D01*
X115950501Y-101939046D01*
X115950501Y-101770945D01*
X115950501Y-101770943D01*
X115909577Y-101618215D01*
X115863875Y-101539057D01*
X115830520Y-101481284D01*
X115718716Y-101369480D01*
X115718715Y-101369479D01*
X115714385Y-101365149D01*
X115714374Y-101365139D01*
X113487590Y-99138355D01*
X113487588Y-99138352D01*
X113368717Y-99019481D01*
X113368716Y-99019480D01*
X113281904Y-98969360D01*
X113281904Y-98969359D01*
X113281900Y-98969358D01*
X113231785Y-98940423D01*
X113079057Y-98899499D01*
X112920943Y-98899499D01*
X112913347Y-98899499D01*
X112913331Y-98899500D01*
X107300097Y-98899500D01*
X107233058Y-98879815D01*
X107212416Y-98863181D01*
X105326819Y-96977584D01*
X105293334Y-96916261D01*
X105290500Y-96889903D01*
X105290500Y-96729601D01*
X105310185Y-96662562D01*
X105358206Y-96619116D01*
X105371610Y-96612287D01*
X105537219Y-96491966D01*
X105681966Y-96347219D01*
X105681968Y-96347215D01*
X105681971Y-96347213D01*
X105765833Y-96231785D01*
X105802287Y-96181610D01*
X105895220Y-95999219D01*
X105958477Y-95804534D01*
X105990500Y-95602352D01*
X105990500Y-95420943D01*
X110959500Y-95420943D01*
X110959500Y-95579057D01*
X110979687Y-95654394D01*
X111000423Y-95731783D01*
X111000426Y-95731790D01*
X111033843Y-95789671D01*
X111044387Y-95813351D01*
X111104781Y-95999223D01*
X111145935Y-96079990D01*
X111197585Y-96181359D01*
X111197715Y-96181613D01*
X111318028Y-96347213D01*
X111462786Y-96491971D01*
X111583226Y-96579474D01*
X111628390Y-96612287D01*
X111702367Y-96649980D01*
X111810776Y-96705218D01*
X111810778Y-96705218D01*
X111810781Y-96705220D01*
X111885818Y-96729601D01*
X112005465Y-96768477D01*
X112106557Y-96784488D01*
X112207648Y-96800500D01*
X112207649Y-96800500D01*
X112412351Y-96800500D01*
X112412352Y-96800500D01*
X112614534Y-96768477D01*
X112809219Y-96705220D01*
X112991610Y-96612287D01*
X113122512Y-96517182D01*
X113157213Y-96491971D01*
X113157215Y-96491968D01*
X113157219Y-96491966D01*
X113301966Y-96347219D01*
X113301968Y-96347215D01*
X113301971Y-96347213D01*
X113422284Y-96181614D01*
X113422285Y-96181613D01*
X113422287Y-96181610D01*
X113429117Y-96168204D01*
X113477091Y-96117409D01*
X113539602Y-96100500D01*
X117195546Y-96100500D01*
X117262585Y-96120185D01*
X117308340Y-96172989D01*
X117319164Y-96218881D01*
X117319351Y-96218869D01*
X117319429Y-96220005D01*
X117319471Y-96220180D01*
X117319500Y-96221019D01*
X117325650Y-96309624D01*
X117325652Y-96309640D01*
X117374465Y-96517176D01*
X117374467Y-96517182D01*
X117374468Y-96517185D01*
X117460591Y-96712237D01*
X117460592Y-96712238D01*
X117581088Y-96888141D01*
X117581093Y-96888147D01*
X117731852Y-97038906D01*
X117731858Y-97038911D01*
X117907763Y-97159409D01*
X118102815Y-97245532D01*
X118102821Y-97245533D01*
X118102823Y-97245534D01*
X118310359Y-97294347D01*
X118310364Y-97294347D01*
X118310370Y-97294349D01*
X118359602Y-97297766D01*
X118398984Y-97300500D01*
X118398988Y-97300500D01*
X119841016Y-97300500D01*
X119876459Y-97298039D01*
X119929630Y-97294349D01*
X119929636Y-97294347D01*
X119929640Y-97294347D01*
X120137176Y-97245534D01*
X120137174Y-97245534D01*
X120137185Y-97245532D01*
X120332237Y-97159409D01*
X120508142Y-97038911D01*
X120658911Y-96888142D01*
X120779409Y-96712237D01*
X120865532Y-96517185D01*
X120905508Y-96347219D01*
X120914347Y-96309640D01*
X120914347Y-96309636D01*
X120914349Y-96309630D01*
X120920500Y-96221012D01*
X120920500Y-95381995D01*
X122399500Y-95381995D01*
X122399500Y-95618004D01*
X122399501Y-95618020D01*
X122430306Y-95852010D01*
X122491394Y-96079993D01*
X122581714Y-96298045D01*
X122581719Y-96298056D01*
X122622516Y-96368717D01*
X122699727Y-96502450D01*
X122699729Y-96502453D01*
X122699730Y-96502454D01*
X122843406Y-96689697D01*
X122843412Y-96689704D01*
X123010295Y-96856587D01*
X123010302Y-96856593D01*
X123051418Y-96888142D01*
X123197550Y-97000273D01*
X123324698Y-97073682D01*
X123401943Y-97118280D01*
X123401948Y-97118282D01*
X123401951Y-97118284D01*
X123620007Y-97208606D01*
X123847986Y-97269693D01*
X124081989Y-97300500D01*
X124081996Y-97300500D01*
X124318004Y-97300500D01*
X124318011Y-97300500D01*
X124552014Y-97269693D01*
X124779993Y-97208606D01*
X124848049Y-97180415D01*
X124917515Y-97172947D01*
X124979995Y-97204221D01*
X125015648Y-97264310D01*
X125019500Y-97294977D01*
X125019500Y-97920234D01*
X124999815Y-97987273D01*
X124998602Y-97989125D01*
X124910609Y-98120814D01*
X124910602Y-98120827D01*
X124850264Y-98266498D01*
X124850261Y-98266510D01*
X124819500Y-98421153D01*
X124819500Y-98578846D01*
X124850261Y-98733489D01*
X124850264Y-98733501D01*
X124910602Y-98879172D01*
X124910609Y-98879185D01*
X124998210Y-99010288D01*
X124998213Y-99010292D01*
X125109707Y-99121786D01*
X125109711Y-99121789D01*
X125240814Y-99209390D01*
X125240827Y-99209397D01*
X125386498Y-99269735D01*
X125386503Y-99269737D01*
X125541153Y-99300499D01*
X125541156Y-99300500D01*
X125541158Y-99300500D01*
X125698844Y-99300500D01*
X125698845Y-99300499D01*
X125853497Y-99269737D01*
X125999179Y-99209394D01*
X126130289Y-99121789D01*
X126241789Y-99010289D01*
X126329394Y-98879179D01*
X126389737Y-98733497D01*
X126420500Y-98578842D01*
X126420500Y-98421158D01*
X126420500Y-98421155D01*
X126420499Y-98421153D01*
X126412148Y-98379172D01*
X126389737Y-98266503D01*
X126376062Y-98233489D01*
X126329397Y-98120827D01*
X126329390Y-98120814D01*
X126241398Y-97989125D01*
X126220520Y-97922447D01*
X126220500Y-97920234D01*
X126220500Y-96840945D01*
X126220498Y-96840936D01*
X126215233Y-96821284D01*
X126179577Y-96688215D01*
X126150639Y-96638095D01*
X126100520Y-96551284D01*
X125988716Y-96439480D01*
X125988715Y-96439479D01*
X125984385Y-96435149D01*
X125984374Y-96435139D01*
X125885364Y-96336129D01*
X125851879Y-96274806D01*
X125856863Y-96205114D01*
X125858468Y-96201033D01*
X125908606Y-96079993D01*
X125969693Y-95852014D01*
X126000500Y-95618011D01*
X126000500Y-95381989D01*
X125969693Y-95147986D01*
X125908606Y-94920007D01*
X125818284Y-94701951D01*
X125818282Y-94701948D01*
X125818280Y-94701943D01*
X125776118Y-94628918D01*
X125700273Y-94497550D01*
X125615992Y-94387713D01*
X125556593Y-94310302D01*
X125556587Y-94310295D01*
X125389704Y-94143412D01*
X125389697Y-94143406D01*
X125202454Y-93999730D01*
X125202453Y-93999729D01*
X125202450Y-93999727D01*
X125120957Y-93952677D01*
X124998056Y-93881719D01*
X124998045Y-93881714D01*
X124779993Y-93791394D01*
X124642180Y-93754467D01*
X124552014Y-93730307D01*
X124552013Y-93730306D01*
X124552010Y-93730306D01*
X124318020Y-93699501D01*
X124318017Y-93699500D01*
X124318011Y-93699500D01*
X124081989Y-93699500D01*
X124081983Y-93699500D01*
X124081979Y-93699501D01*
X123847989Y-93730306D01*
X123620006Y-93791394D01*
X123401954Y-93881714D01*
X123401943Y-93881719D01*
X123197545Y-93999730D01*
X123010302Y-94143406D01*
X123010295Y-94143412D01*
X122843412Y-94310295D01*
X122843406Y-94310302D01*
X122699730Y-94497545D01*
X122699727Y-94497549D01*
X122699727Y-94497550D01*
X122693678Y-94508028D01*
X122581719Y-94701943D01*
X122581714Y-94701954D01*
X122491394Y-94920006D01*
X122430306Y-95147989D01*
X122399501Y-95381979D01*
X122399500Y-95381995D01*
X120920500Y-95381995D01*
X120920500Y-94778988D01*
X120920499Y-94778980D01*
X120914349Y-94690375D01*
X120914349Y-94690370D01*
X120914347Y-94690364D01*
X120914347Y-94690359D01*
X120865534Y-94482823D01*
X120865532Y-94482817D01*
X120865532Y-94482815D01*
X120779409Y-94287763D01*
X120658911Y-94111858D01*
X120658906Y-94111852D01*
X120508147Y-93961093D01*
X120508141Y-93961088D01*
X120332238Y-93840592D01*
X120332239Y-93840592D01*
X120332237Y-93840591D01*
X120137185Y-93754468D01*
X120137183Y-93754467D01*
X120137182Y-93754467D01*
X120137176Y-93754465D01*
X119929640Y-93705652D01*
X119929624Y-93705650D01*
X119841016Y-93699500D01*
X119841012Y-93699500D01*
X118398988Y-93699500D01*
X118398984Y-93699500D01*
X118310375Y-93705650D01*
X118310359Y-93705652D01*
X118102823Y-93754465D01*
X118102817Y-93754467D01*
X117907761Y-93840592D01*
X117731858Y-93961088D01*
X117731852Y-93961093D01*
X117581093Y-94111852D01*
X117581088Y-94111858D01*
X117472487Y-94270397D01*
X117460591Y-94287763D01*
X117434707Y-94346385D01*
X117374467Y-94482817D01*
X117374465Y-94482823D01*
X117325652Y-94690359D01*
X117325650Y-94690375D01*
X117319500Y-94778980D01*
X117319471Y-94779820D01*
X117319434Y-94779930D01*
X117319351Y-94781131D01*
X117319042Y-94781109D01*
X117297463Y-94846133D01*
X117243097Y-94890020D01*
X117195546Y-94899500D01*
X113539602Y-94899500D01*
X113472563Y-94879815D01*
X113429117Y-94831795D01*
X113427063Y-94827763D01*
X113422287Y-94818390D01*
X113422285Y-94818387D01*
X113422284Y-94818385D01*
X113301971Y-94652786D01*
X113157213Y-94508028D01*
X112991613Y-94387715D01*
X112991612Y-94387714D01*
X112991610Y-94387713D01*
X112934653Y-94358691D01*
X112809223Y-94294781D01*
X112614534Y-94231522D01*
X112439995Y-94203878D01*
X112412352Y-94199500D01*
X112207648Y-94199500D01*
X112183329Y-94203351D01*
X112005465Y-94231522D01*
X111810776Y-94294781D01*
X111628386Y-94387715D01*
X111462786Y-94508028D01*
X111318028Y-94652786D01*
X111197715Y-94818386D01*
X111104781Y-95000776D01*
X111044389Y-95186643D01*
X111033847Y-95210322D01*
X111000423Y-95268216D01*
X110959500Y-95420943D01*
X105990500Y-95420943D01*
X105990500Y-95397648D01*
X105988018Y-95381979D01*
X105958477Y-95195465D01*
X105902379Y-95022815D01*
X105895220Y-95000781D01*
X105895218Y-95000778D01*
X105895218Y-95000776D01*
X105861503Y-94934607D01*
X105802287Y-94818390D01*
X105775201Y-94781109D01*
X105681971Y-94652786D01*
X105537213Y-94508028D01*
X105371610Y-94387712D01*
X105358200Y-94380879D01*
X105307406Y-94332903D01*
X105290500Y-94270397D01*
X105290500Y-94110097D01*
X105310185Y-94043058D01*
X105326819Y-94022416D01*
X106212417Y-93136819D01*
X106273740Y-93103334D01*
X106300098Y-93100500D01*
X120413331Y-93100500D01*
X120413347Y-93100501D01*
X120420943Y-93100501D01*
X120579054Y-93100501D01*
X120579057Y-93100501D01*
X120731785Y-93059577D01*
X120781904Y-93030639D01*
X120868716Y-92980520D01*
X120980520Y-92868716D01*
X120980520Y-92868714D01*
X120990728Y-92858507D01*
X120990729Y-92858504D01*
X124305159Y-89544075D01*
X124366480Y-89510592D01*
X124431154Y-89513826D01*
X124445466Y-89518477D01*
X124647648Y-89550500D01*
X124647649Y-89550500D01*
X124852351Y-89550500D01*
X124852352Y-89550500D01*
X125054534Y-89518477D01*
X125249219Y-89455220D01*
X125431610Y-89362287D01*
X125524590Y-89294732D01*
X125597213Y-89241971D01*
X125597215Y-89241968D01*
X125597219Y-89241966D01*
X125741966Y-89097219D01*
X125741968Y-89097215D01*
X125741971Y-89097213D01*
X125805799Y-89009360D01*
X125862287Y-88931610D01*
X125955220Y-88749219D01*
X126018477Y-88554534D01*
X126050500Y-88352352D01*
X126050500Y-88147648D01*
X126018477Y-87945466D01*
X125955220Y-87750781D01*
X125955218Y-87750778D01*
X125955218Y-87750776D01*
X125921503Y-87684607D01*
X125862287Y-87568390D01*
X125834391Y-87529994D01*
X125741971Y-87402786D01*
X125597213Y-87258028D01*
X125431610Y-87137712D01*
X125418200Y-87130879D01*
X125367406Y-87082903D01*
X125350500Y-87020397D01*
X125350500Y-86670943D01*
X125350499Y-86670939D01*
X125348154Y-86662187D01*
X125339396Y-86629500D01*
X125309577Y-86518215D01*
X125269904Y-86449500D01*
X125230520Y-86381284D01*
X125118716Y-86269480D01*
X125114385Y-86265149D01*
X125114374Y-86265139D01*
X122487590Y-83638355D01*
X122487588Y-83638352D01*
X122368717Y-83519481D01*
X122368716Y-83519480D01*
X122274441Y-83465051D01*
X122274440Y-83465050D01*
X122231783Y-83440422D01*
X122159877Y-83421155D01*
X122079057Y-83399499D01*
X121920943Y-83399499D01*
X121913347Y-83399499D01*
X121913331Y-83399500D01*
X105550097Y-83399500D01*
X105483058Y-83379815D01*
X105462416Y-83363181D01*
X104356301Y-82257066D01*
X104322816Y-82195743D01*
X104327800Y-82126051D01*
X104369672Y-82070118D01*
X104371027Y-82069118D01*
X104477219Y-81991966D01*
X104621966Y-81847219D01*
X104621968Y-81847215D01*
X104621971Y-81847213D01*
X104709935Y-81726139D01*
X104742287Y-81681610D01*
X104835220Y-81499219D01*
X104898477Y-81304534D01*
X104930500Y-81102352D01*
X104930500Y-80897648D01*
X109949500Y-80897648D01*
X109949500Y-81102351D01*
X109981522Y-81304534D01*
X110044781Y-81499223D01*
X110085935Y-81579990D01*
X110137585Y-81681359D01*
X110137715Y-81681613D01*
X110258028Y-81847213D01*
X110402786Y-81991971D01*
X110523226Y-82079474D01*
X110568390Y-82112287D01*
X110649499Y-82153614D01*
X110750776Y-82205218D01*
X110750778Y-82205218D01*
X110750781Y-82205220D01*
X110825818Y-82229601D01*
X110945465Y-82268477D01*
X111004896Y-82277890D01*
X111147648Y-82300500D01*
X111147649Y-82300500D01*
X111352351Y-82300500D01*
X111352352Y-82300500D01*
X111554534Y-82268477D01*
X111749219Y-82205220D01*
X111931610Y-82112287D01*
X112062512Y-82017182D01*
X112097213Y-81991971D01*
X112097215Y-81991968D01*
X112097219Y-81991966D01*
X112241966Y-81847219D01*
X112241968Y-81847215D01*
X112241971Y-81847213D01*
X112362284Y-81681614D01*
X112362286Y-81681611D01*
X112362287Y-81681610D01*
X112369117Y-81668204D01*
X112417091Y-81617409D01*
X112479602Y-81600500D01*
X117075546Y-81600500D01*
X117142585Y-81620185D01*
X117188340Y-81672989D01*
X117199164Y-81718881D01*
X117199351Y-81718869D01*
X117199429Y-81720005D01*
X117199471Y-81720180D01*
X117199500Y-81721019D01*
X117205650Y-81809624D01*
X117205652Y-81809640D01*
X117254465Y-82017176D01*
X117254467Y-82017182D01*
X117254468Y-82017185D01*
X117340591Y-82212237D01*
X117396141Y-82293330D01*
X117461088Y-82388141D01*
X117461093Y-82388147D01*
X117611852Y-82538906D01*
X117611858Y-82538911D01*
X117787763Y-82659409D01*
X117982815Y-82745532D01*
X117982821Y-82745533D01*
X117982823Y-82745534D01*
X118190359Y-82794347D01*
X118190364Y-82794347D01*
X118190370Y-82794349D01*
X118239602Y-82797766D01*
X118278984Y-82800500D01*
X118278988Y-82800500D01*
X119721016Y-82800500D01*
X119756459Y-82798039D01*
X119809630Y-82794349D01*
X119809636Y-82794347D01*
X119809640Y-82794347D01*
X119965468Y-82757695D01*
X120017185Y-82745532D01*
X120212237Y-82659409D01*
X120388142Y-82538911D01*
X120538911Y-82388142D01*
X120659409Y-82212237D01*
X120745532Y-82017185D01*
X120785508Y-81847219D01*
X120794347Y-81809640D01*
X120794347Y-81809636D01*
X120794349Y-81809630D01*
X120800500Y-81721012D01*
X120800500Y-80881995D01*
X122279500Y-80881995D01*
X122279500Y-81118004D01*
X122279501Y-81118020D01*
X122310306Y-81352010D01*
X122371394Y-81579993D01*
X122461714Y-81798045D01*
X122461719Y-81798056D01*
X122490104Y-81847219D01*
X122579727Y-82002450D01*
X122579729Y-82002453D01*
X122579730Y-82002454D01*
X122723406Y-82189697D01*
X122723412Y-82189704D01*
X122890295Y-82356587D01*
X122890302Y-82356593D01*
X122968096Y-82416286D01*
X123077550Y-82500273D01*
X123192522Y-82566652D01*
X123281943Y-82618280D01*
X123281948Y-82618282D01*
X123281951Y-82618284D01*
X123500007Y-82708606D01*
X123727986Y-82769693D01*
X123961989Y-82800500D01*
X123961996Y-82800500D01*
X124198004Y-82800500D01*
X124198011Y-82800500D01*
X124432014Y-82769693D01*
X124659993Y-82708606D01*
X124728049Y-82680415D01*
X124797515Y-82672947D01*
X124859995Y-82704221D01*
X124895648Y-82764310D01*
X124899500Y-82794977D01*
X124899500Y-82920234D01*
X124879815Y-82987273D01*
X124878602Y-82989125D01*
X124790609Y-83120814D01*
X124790602Y-83120827D01*
X124730264Y-83266498D01*
X124730261Y-83266510D01*
X124699500Y-83421153D01*
X124699500Y-83578846D01*
X124730261Y-83733489D01*
X124730264Y-83733501D01*
X124790602Y-83879172D01*
X124790609Y-83879185D01*
X124878210Y-84010288D01*
X124878213Y-84010292D01*
X124989707Y-84121786D01*
X124989711Y-84121789D01*
X125120814Y-84209390D01*
X125120827Y-84209397D01*
X125266498Y-84269735D01*
X125266503Y-84269737D01*
X125421153Y-84300499D01*
X125421156Y-84300500D01*
X125421158Y-84300500D01*
X125578844Y-84300500D01*
X125578845Y-84300499D01*
X125733497Y-84269737D01*
X125879179Y-84209394D01*
X126010289Y-84121789D01*
X126121789Y-84010289D01*
X126209394Y-83879179D01*
X126269737Y-83733497D01*
X126300500Y-83578842D01*
X126300500Y-83421158D01*
X126300500Y-83421155D01*
X126300499Y-83421153D01*
X126269737Y-83266503D01*
X126237960Y-83189786D01*
X126209397Y-83120827D01*
X126209390Y-83120814D01*
X126121398Y-82989125D01*
X126100520Y-82922447D01*
X126100500Y-82920234D01*
X126100500Y-82340945D01*
X126100498Y-82340936D01*
X126095233Y-82321284D01*
X126059577Y-82188215D01*
X126030639Y-82138095D01*
X125980520Y-82051284D01*
X125868716Y-81939480D01*
X125868715Y-81939479D01*
X125864385Y-81935149D01*
X125864374Y-81935139D01*
X125765364Y-81836129D01*
X125731879Y-81774806D01*
X125736863Y-81705114D01*
X125738468Y-81701033D01*
X125788606Y-81579993D01*
X125849693Y-81352014D01*
X125880500Y-81118011D01*
X125880500Y-80881989D01*
X125849693Y-80647986D01*
X125788606Y-80420007D01*
X125698284Y-80201951D01*
X125698282Y-80201948D01*
X125698280Y-80201943D01*
X125653021Y-80123554D01*
X125580273Y-79997550D01*
X125495992Y-79887713D01*
X125436593Y-79810302D01*
X125436587Y-79810295D01*
X125269704Y-79643412D01*
X125269697Y-79643406D01*
X125082454Y-79499730D01*
X125082453Y-79499729D01*
X125082450Y-79499727D01*
X124981224Y-79441284D01*
X124878056Y-79381719D01*
X124878045Y-79381714D01*
X124659993Y-79291394D01*
X124522180Y-79254467D01*
X124432014Y-79230307D01*
X124432013Y-79230306D01*
X124432010Y-79230306D01*
X124198020Y-79199501D01*
X124198017Y-79199500D01*
X124198011Y-79199500D01*
X123961989Y-79199500D01*
X123961983Y-79199500D01*
X123961979Y-79199501D01*
X123727989Y-79230306D01*
X123500006Y-79291394D01*
X123281954Y-79381714D01*
X123281943Y-79381719D01*
X123077545Y-79499730D01*
X122890302Y-79643406D01*
X122890295Y-79643412D01*
X122723412Y-79810295D01*
X122723406Y-79810302D01*
X122579730Y-79997545D01*
X122461719Y-80201943D01*
X122461714Y-80201954D01*
X122371394Y-80420006D01*
X122310306Y-80647989D01*
X122279501Y-80881979D01*
X122279500Y-80881995D01*
X120800500Y-80881995D01*
X120800500Y-80278988D01*
X120800499Y-80278980D01*
X120794349Y-80190375D01*
X120794349Y-80190370D01*
X120794347Y-80190364D01*
X120794347Y-80190359D01*
X120745534Y-79982823D01*
X120745532Y-79982817D01*
X120745532Y-79982815D01*
X120659409Y-79787763D01*
X120538911Y-79611858D01*
X120538906Y-79611852D01*
X120388147Y-79461093D01*
X120388141Y-79461088D01*
X120212238Y-79340592D01*
X120212239Y-79340592D01*
X120212237Y-79340591D01*
X120017185Y-79254468D01*
X120017183Y-79254467D01*
X120017182Y-79254467D01*
X120017176Y-79254465D01*
X119809640Y-79205652D01*
X119809624Y-79205650D01*
X119721016Y-79199500D01*
X119721012Y-79199500D01*
X118278988Y-79199500D01*
X118278984Y-79199500D01*
X118190375Y-79205650D01*
X118190359Y-79205652D01*
X117982823Y-79254465D01*
X117982817Y-79254467D01*
X117787761Y-79340592D01*
X117611858Y-79461088D01*
X117611852Y-79461093D01*
X117461093Y-79611852D01*
X117461088Y-79611858D01*
X117352759Y-79770000D01*
X117340591Y-79787763D01*
X117314707Y-79846385D01*
X117254467Y-79982817D01*
X117254465Y-79982823D01*
X117205652Y-80190359D01*
X117205650Y-80190375D01*
X117199500Y-80278980D01*
X117199471Y-80279820D01*
X117199434Y-80279930D01*
X117199351Y-80281131D01*
X117199042Y-80281109D01*
X117177463Y-80346133D01*
X117123097Y-80390020D01*
X117075546Y-80399500D01*
X112479602Y-80399500D01*
X112412563Y-80379815D01*
X112369117Y-80331795D01*
X112362284Y-80318385D01*
X112241971Y-80152786D01*
X112097213Y-80008028D01*
X111931613Y-79887715D01*
X111931612Y-79887714D01*
X111931610Y-79887713D01*
X111874653Y-79858691D01*
X111749223Y-79794781D01*
X111554534Y-79731522D01*
X111379995Y-79703878D01*
X111352352Y-79699500D01*
X111147648Y-79699500D01*
X111123329Y-79703351D01*
X110945465Y-79731522D01*
X110750776Y-79794781D01*
X110568386Y-79887715D01*
X110402786Y-80008028D01*
X110258028Y-80152786D01*
X110137715Y-80318386D01*
X110044781Y-80500776D01*
X109981522Y-80695465D01*
X109949500Y-80897648D01*
X104930500Y-80897648D01*
X104922257Y-80845606D01*
X104898477Y-80695465D01*
X104867458Y-80600000D01*
X104835220Y-80500781D01*
X104835218Y-80500778D01*
X104835218Y-80500776D01*
X104801503Y-80434607D01*
X104742287Y-80318390D01*
X104715201Y-80281109D01*
X104621971Y-80152786D01*
X104477213Y-80008028D01*
X104311610Y-79887712D01*
X104298200Y-79880879D01*
X104247406Y-79832903D01*
X104230500Y-79770397D01*
X104230500Y-76420096D01*
X104250185Y-76353057D01*
X104266815Y-76332419D01*
X104608506Y-75990727D01*
X104608511Y-75990724D01*
X104618714Y-75980520D01*
X104618716Y-75980520D01*
X104730520Y-75868716D01*
X104809577Y-75731784D01*
X104850500Y-75579057D01*
X104850500Y-75474499D01*
X104870185Y-75407460D01*
X104922989Y-75361705D01*
X104974500Y-75350499D01*
X105147871Y-75350499D01*
X105147872Y-75350499D01*
X105207483Y-75344091D01*
X105342331Y-75293796D01*
X105457546Y-75207546D01*
X105543796Y-75092331D01*
X105592810Y-74960916D01*
X105634681Y-74904984D01*
X105700145Y-74880566D01*
X105768418Y-74895417D01*
X105796673Y-74916569D01*
X105910213Y-75030109D01*
X106082179Y-75155048D01*
X106082181Y-75155049D01*
X106082184Y-75155051D01*
X106271588Y-75251557D01*
X106473757Y-75317246D01*
X106683713Y-75350500D01*
X106683714Y-75350500D01*
X106896286Y-75350500D01*
X106896287Y-75350500D01*
X107106243Y-75317246D01*
X107308412Y-75251557D01*
X107497816Y-75155051D01*
X107584138Y-75092335D01*
X107669786Y-75030109D01*
X107669788Y-75030106D01*
X107669792Y-75030104D01*
X107820104Y-74879792D01*
X107820106Y-74879788D01*
X107820109Y-74879786D01*
X107943902Y-74709397D01*
X107945051Y-74707816D01*
X107949514Y-74699054D01*
X107997488Y-74648259D01*
X108065308Y-74631463D01*
X108131444Y-74653999D01*
X108170486Y-74699056D01*
X108174951Y-74707820D01*
X108299890Y-74879786D01*
X108450213Y-75030109D01*
X108622179Y-75155048D01*
X108622181Y-75155049D01*
X108622184Y-75155051D01*
X108811588Y-75251557D01*
X109013757Y-75317246D01*
X109223713Y-75350500D01*
X109223714Y-75350500D01*
X109436286Y-75350500D01*
X109436287Y-75350500D01*
X109646243Y-75317246D01*
X109848412Y-75251557D01*
X110037816Y-75155051D01*
X110124138Y-75092335D01*
X110209786Y-75030109D01*
X110209788Y-75030106D01*
X110209792Y-75030104D01*
X110360104Y-74879792D01*
X110360106Y-74879788D01*
X110360109Y-74879786D01*
X110440063Y-74769737D01*
X110485051Y-74707816D01*
X110485349Y-74707230D01*
X110505235Y-74668205D01*
X110553209Y-74617409D01*
X110615719Y-74600500D01*
X111420234Y-74600500D01*
X111487273Y-74620185D01*
X111489125Y-74621398D01*
X111620814Y-74709390D01*
X111620827Y-74709397D01*
X111766498Y-74769735D01*
X111766503Y-74769737D01*
X111908816Y-74798045D01*
X111921153Y-74800499D01*
X111921156Y-74800500D01*
X111921158Y-74800500D01*
X112078844Y-74800500D01*
X112078845Y-74800499D01*
X112233497Y-74769737D01*
X112351130Y-74721012D01*
X112379172Y-74709397D01*
X112379172Y-74709396D01*
X112379179Y-74709394D01*
X112510289Y-74621789D01*
X112621789Y-74510289D01*
X112709394Y-74379179D01*
X112769737Y-74233497D01*
X112800500Y-74078842D01*
X112800500Y-73921158D01*
X112800500Y-73921155D01*
X112800499Y-73921153D01*
X114699500Y-73921153D01*
X114699500Y-74078846D01*
X114730261Y-74233489D01*
X114730264Y-74233501D01*
X114790602Y-74379172D01*
X114790609Y-74379185D01*
X114878210Y-74510288D01*
X114878213Y-74510292D01*
X114989707Y-74621786D01*
X114989711Y-74621789D01*
X115120814Y-74709390D01*
X115120827Y-74709397D01*
X115266498Y-74769735D01*
X115266503Y-74769737D01*
X115408816Y-74798045D01*
X115421153Y-74800499D01*
X115421156Y-74800500D01*
X115421158Y-74800500D01*
X115578844Y-74800500D01*
X115578845Y-74800499D01*
X115733497Y-74769737D01*
X115851130Y-74721012D01*
X115879172Y-74709397D01*
X115879172Y-74709396D01*
X115879179Y-74709394D01*
X115920761Y-74681610D01*
X116010875Y-74621398D01*
X116077553Y-74600520D01*
X116079766Y-74600500D01*
X116637034Y-74600500D01*
X116704073Y-74620185D01*
X116749828Y-74672989D01*
X116751595Y-74677047D01*
X116801714Y-74798045D01*
X116801719Y-74798056D01*
X116859349Y-74897872D01*
X116919727Y-75002450D01*
X116919729Y-75002453D01*
X116919730Y-75002454D01*
X117063406Y-75189697D01*
X117063412Y-75189704D01*
X117230295Y-75356587D01*
X117230302Y-75356593D01*
X117338908Y-75439929D01*
X117417550Y-75500273D01*
X117548918Y-75576118D01*
X117621943Y-75618280D01*
X117621948Y-75618282D01*
X117621951Y-75618284D01*
X117840007Y-75708606D01*
X118067986Y-75769693D01*
X118301989Y-75800500D01*
X118301996Y-75800500D01*
X118538004Y-75800500D01*
X118538011Y-75800500D01*
X118772014Y-75769693D01*
X118999993Y-75708606D01*
X119218049Y-75618284D01*
X119422450Y-75500273D01*
X119609699Y-75356592D01*
X119776592Y-75189699D01*
X119920273Y-75002450D01*
X120036869Y-74800500D01*
X120038280Y-74798056D01*
X120038280Y-74798055D01*
X120038284Y-74798049D01*
X120128606Y-74579993D01*
X120189693Y-74352014D01*
X120220500Y-74118011D01*
X120220500Y-73881989D01*
X120189693Y-73647986D01*
X120128606Y-73420007D01*
X120111294Y-73378213D01*
X120088960Y-73324292D01*
X120070192Y-73278984D01*
X121699500Y-73278984D01*
X121699500Y-74721015D01*
X121705650Y-74809624D01*
X121705652Y-74809640D01*
X121754465Y-75017176D01*
X121754467Y-75017182D01*
X121754468Y-75017185D01*
X121840591Y-75212237D01*
X121840592Y-75212238D01*
X121961088Y-75388141D01*
X121961093Y-75388147D01*
X122111852Y-75538906D01*
X122111858Y-75538911D01*
X122287763Y-75659409D01*
X122482815Y-75745532D01*
X122482821Y-75745533D01*
X122482823Y-75745534D01*
X122690359Y-75794347D01*
X122690364Y-75794347D01*
X122690370Y-75794349D01*
X122739602Y-75797766D01*
X122778984Y-75800500D01*
X122778988Y-75800500D01*
X124221016Y-75800500D01*
X124256459Y-75798039D01*
X124309630Y-75794349D01*
X124309636Y-75794347D01*
X124309640Y-75794347D01*
X124492729Y-75751284D01*
X124517185Y-75745532D01*
X124712237Y-75659409D01*
X124888142Y-75538911D01*
X125038911Y-75388142D01*
X125159409Y-75212237D01*
X125245532Y-75017185D01*
X125273594Y-74897873D01*
X125294347Y-74809640D01*
X125294347Y-74809636D01*
X125294349Y-74809630D01*
X125300500Y-74721012D01*
X125300500Y-73278988D01*
X125294349Y-73190370D01*
X125294347Y-73190360D01*
X125294347Y-73190359D01*
X125245534Y-72982823D01*
X125245533Y-72982821D01*
X125245532Y-72982815D01*
X125159409Y-72787763D01*
X125038911Y-72611858D01*
X125038906Y-72611852D01*
X124888147Y-72461093D01*
X124888141Y-72461088D01*
X124712238Y-72340592D01*
X124712239Y-72340592D01*
X124712237Y-72340591D01*
X124517185Y-72254468D01*
X124517183Y-72254467D01*
X124517182Y-72254467D01*
X124517176Y-72254465D01*
X124309640Y-72205652D01*
X124309624Y-72205650D01*
X124221016Y-72199500D01*
X124221012Y-72199500D01*
X122778988Y-72199500D01*
X122778984Y-72199500D01*
X122690375Y-72205650D01*
X122690359Y-72205652D01*
X122482823Y-72254465D01*
X122482817Y-72254467D01*
X122287761Y-72340592D01*
X122111858Y-72461088D01*
X122111852Y-72461093D01*
X121961093Y-72611852D01*
X121961088Y-72611858D01*
X121840592Y-72787761D01*
X121754467Y-72982817D01*
X121754465Y-72982823D01*
X121705652Y-73190359D01*
X121705650Y-73190375D01*
X121699500Y-73278984D01*
X120070192Y-73278984D01*
X120038285Y-73201954D01*
X120038280Y-73201943D01*
X119996118Y-73128918D01*
X119920273Y-72997550D01*
X119776592Y-72810301D01*
X119776587Y-72810295D01*
X119609704Y-72643412D01*
X119609697Y-72643406D01*
X119422454Y-72499730D01*
X119422453Y-72499729D01*
X119422450Y-72499727D01*
X119340957Y-72452677D01*
X119218056Y-72381719D01*
X119218045Y-72381714D01*
X118999993Y-72291394D01*
X118862180Y-72254467D01*
X118772014Y-72230307D01*
X118772013Y-72230306D01*
X118772010Y-72230306D01*
X118538020Y-72199501D01*
X118538017Y-72199500D01*
X118538011Y-72199500D01*
X118301989Y-72199500D01*
X118301983Y-72199500D01*
X118301979Y-72199501D01*
X118067989Y-72230306D01*
X117840006Y-72291394D01*
X117621954Y-72381714D01*
X117621943Y-72381719D01*
X117417545Y-72499730D01*
X117230302Y-72643406D01*
X117230295Y-72643412D01*
X117063412Y-72810295D01*
X117063406Y-72810302D01*
X116919730Y-72997545D01*
X116801719Y-73201943D01*
X116801714Y-73201954D01*
X116751595Y-73322953D01*
X116707754Y-73377356D01*
X116641460Y-73399421D01*
X116637034Y-73399500D01*
X116079766Y-73399500D01*
X116012727Y-73379815D01*
X116010875Y-73378602D01*
X115879185Y-73290609D01*
X115879172Y-73290602D01*
X115733501Y-73230264D01*
X115733489Y-73230261D01*
X115578845Y-73199500D01*
X115578842Y-73199500D01*
X115421158Y-73199500D01*
X115421155Y-73199500D01*
X115266510Y-73230261D01*
X115266498Y-73230264D01*
X115120827Y-73290602D01*
X115120814Y-73290609D01*
X114989711Y-73378210D01*
X114989707Y-73378213D01*
X114878213Y-73489707D01*
X114878210Y-73489711D01*
X114790609Y-73620814D01*
X114790602Y-73620827D01*
X114730264Y-73766498D01*
X114730261Y-73766510D01*
X114699500Y-73921153D01*
X112800499Y-73921153D01*
X112769737Y-73766503D01*
X112740313Y-73695466D01*
X112709397Y-73620827D01*
X112709390Y-73620814D01*
X112621789Y-73489711D01*
X112621786Y-73489707D01*
X112510292Y-73378213D01*
X112510288Y-73378210D01*
X112379185Y-73290609D01*
X112379172Y-73290602D01*
X112233501Y-73230264D01*
X112233489Y-73230261D01*
X112078845Y-73199500D01*
X112078842Y-73199500D01*
X111921158Y-73199500D01*
X111921155Y-73199500D01*
X111766510Y-73230261D01*
X111766498Y-73230264D01*
X111620827Y-73290602D01*
X111620814Y-73290609D01*
X111489125Y-73378602D01*
X111422447Y-73399480D01*
X111420234Y-73399500D01*
X110615719Y-73399500D01*
X110548680Y-73379815D01*
X110505235Y-73331795D01*
X110485052Y-73292185D01*
X110485051Y-73292184D01*
X110360109Y-73120213D01*
X110209786Y-72969890D01*
X110037820Y-72844951D01*
X109848414Y-72748444D01*
X109848413Y-72748443D01*
X109848412Y-72748443D01*
X109646243Y-72682754D01*
X109646241Y-72682753D01*
X109646240Y-72682753D01*
X109484957Y-72657208D01*
X109436287Y-72649500D01*
X109223713Y-72649500D01*
X109175042Y-72657208D01*
X109013760Y-72682753D01*
X108811585Y-72748444D01*
X108622179Y-72844951D01*
X108450213Y-72969890D01*
X108299890Y-73120213D01*
X108174949Y-73292182D01*
X108170484Y-73300946D01*
X108122509Y-73351742D01*
X108054688Y-73368536D01*
X107988553Y-73345998D01*
X107949516Y-73300946D01*
X107945050Y-73292182D01*
X107820109Y-73120213D01*
X107669786Y-72969890D01*
X107497820Y-72844951D01*
X107308414Y-72748444D01*
X107308413Y-72748443D01*
X107308412Y-72748443D01*
X107106243Y-72682754D01*
X107106241Y-72682753D01*
X107106240Y-72682753D01*
X106944957Y-72657208D01*
X106896287Y-72649500D01*
X106749096Y-72649500D01*
X106682057Y-72629815D01*
X106636302Y-72577011D01*
X106626358Y-72507853D01*
X106655383Y-72444297D01*
X106661415Y-72437819D01*
X111712416Y-67386818D01*
X111773739Y-67353333D01*
X111800097Y-67350499D01*
X112507871Y-67350499D01*
X112507872Y-67350499D01*
X112567483Y-67344091D01*
X112702331Y-67293796D01*
X112817546Y-67207546D01*
X112903796Y-67092331D01*
X112952810Y-66960916D01*
X112994681Y-66904984D01*
X113060145Y-66880566D01*
X113128418Y-66895417D01*
X113156673Y-66916569D01*
X113270213Y-67030109D01*
X113442184Y-67155051D01*
X113442184Y-67155052D01*
X113481793Y-67175233D01*
X113532590Y-67223206D01*
X113549500Y-67285718D01*
X113549500Y-68420234D01*
X113529815Y-68487273D01*
X113528602Y-68489125D01*
X113440609Y-68620814D01*
X113440602Y-68620827D01*
X113380264Y-68766498D01*
X113380261Y-68766510D01*
X113349500Y-68921153D01*
X113349500Y-69078846D01*
X113380261Y-69233489D01*
X113380264Y-69233501D01*
X113440602Y-69379172D01*
X113440609Y-69379185D01*
X113528210Y-69510288D01*
X113528213Y-69510292D01*
X113639707Y-69621786D01*
X113639711Y-69621789D01*
X113770814Y-69709390D01*
X113770827Y-69709397D01*
X113916498Y-69769735D01*
X113916503Y-69769737D01*
X114035203Y-69793348D01*
X114071153Y-69800499D01*
X114071156Y-69800500D01*
X114071158Y-69800500D01*
X114228844Y-69800500D01*
X114228845Y-69800499D01*
X114383497Y-69769737D01*
X114529179Y-69709394D01*
X114660289Y-69621789D01*
X114771789Y-69510289D01*
X114859394Y-69379179D01*
X114919737Y-69233497D01*
X114950500Y-69078842D01*
X114950500Y-68921158D01*
X114950500Y-68921155D01*
X114950499Y-68921153D01*
X114940069Y-68868717D01*
X114919737Y-68766503D01*
X114905357Y-68731786D01*
X114859397Y-68620827D01*
X114859390Y-68620814D01*
X114771398Y-68489125D01*
X114750520Y-68422447D01*
X114750500Y-68420234D01*
X114750500Y-67285718D01*
X114770185Y-67218679D01*
X114818207Y-67175233D01*
X114857815Y-67155052D01*
X114857815Y-67155051D01*
X114857816Y-67155051D01*
X114958777Y-67081699D01*
X115029786Y-67030109D01*
X115029788Y-67030106D01*
X115029792Y-67030104D01*
X115180104Y-66879792D01*
X115180106Y-66879788D01*
X115180109Y-66879786D01*
X115265890Y-66761717D01*
X115305051Y-66707816D01*
X115309793Y-66698508D01*
X115357763Y-66647711D01*
X115425583Y-66630911D01*
X115491719Y-66653445D01*
X115530763Y-66698500D01*
X115535373Y-66707547D01*
X115574728Y-66761716D01*
X116207037Y-66129408D01*
X116224075Y-66192993D01*
X116289901Y-66307007D01*
X116382993Y-66400099D01*
X116497007Y-66465925D01*
X116560590Y-66482962D01*
X115928282Y-67115269D01*
X115928282Y-67115270D01*
X115982449Y-67154624D01*
X116171782Y-67251095D01*
X116373870Y-67316757D01*
X116583754Y-67350000D01*
X116796246Y-67350000D01*
X117006127Y-67316757D01*
X117006130Y-67316757D01*
X117208217Y-67251095D01*
X117397554Y-67154622D01*
X117451716Y-67115270D01*
X117451717Y-67115270D01*
X116819408Y-66482962D01*
X116882993Y-66465925D01*
X116997007Y-66400099D01*
X117090099Y-66307007D01*
X117155925Y-66192993D01*
X117172962Y-66129408D01*
X117805270Y-66761717D01*
X117805270Y-66761716D01*
X117844622Y-66707554D01*
X117941095Y-66518217D01*
X118006757Y-66316130D01*
X118006757Y-66316127D01*
X118040000Y-66106246D01*
X118040000Y-65893753D01*
X118006757Y-65683872D01*
X118006757Y-65683869D01*
X117941095Y-65481782D01*
X117844624Y-65292449D01*
X117805270Y-65238282D01*
X117805269Y-65238282D01*
X117172962Y-65870590D01*
X117155925Y-65807007D01*
X117090099Y-65692993D01*
X116997007Y-65599901D01*
X116882993Y-65534075D01*
X116819409Y-65517037D01*
X117234310Y-65102135D01*
X124029500Y-65102135D01*
X124029500Y-66897870D01*
X124029501Y-66897876D01*
X124035908Y-66957483D01*
X124086202Y-67092328D01*
X124086206Y-67092335D01*
X124172452Y-67207544D01*
X124172455Y-67207547D01*
X124287664Y-67293793D01*
X124287671Y-67293797D01*
X124308354Y-67301511D01*
X124422517Y-67344091D01*
X124482127Y-67350500D01*
X124655500Y-67350499D01*
X124722539Y-67370183D01*
X124768294Y-67422987D01*
X124779500Y-67474499D01*
X124779500Y-69793330D01*
X124779499Y-69793348D01*
X124779499Y-69959054D01*
X124779498Y-69959054D01*
X124779499Y-69959057D01*
X124820423Y-70111785D01*
X124820424Y-70111786D01*
X124831680Y-70131284D01*
X124831681Y-70131285D01*
X124899475Y-70248709D01*
X124899481Y-70248717D01*
X125018349Y-70367585D01*
X125018355Y-70367590D01*
X127363181Y-72712416D01*
X127396666Y-72773739D01*
X127399500Y-72800097D01*
X127399500Y-95699901D01*
X127379815Y-95766940D01*
X127363181Y-95787582D01*
X127124214Y-96026548D01*
X127124215Y-96026549D01*
X127019478Y-96131286D01*
X126990426Y-96181608D01*
X126990425Y-96181610D01*
X126940423Y-96268214D01*
X126940423Y-96268215D01*
X126899499Y-96420943D01*
X126899499Y-96420945D01*
X126899499Y-96589046D01*
X126899500Y-96589059D01*
X126899500Y-102075546D01*
X126879815Y-102142585D01*
X126827011Y-102188340D01*
X126781118Y-102199164D01*
X126781131Y-102199351D01*
X126779994Y-102199429D01*
X126779820Y-102199471D01*
X126778980Y-102199500D01*
X126690375Y-102205650D01*
X126690359Y-102205652D01*
X126482823Y-102254465D01*
X126482817Y-102254467D01*
X126482815Y-102254468D01*
X126294909Y-102337436D01*
X126287761Y-102340592D01*
X126111858Y-102461088D01*
X126111852Y-102461093D01*
X125961093Y-102611852D01*
X125961088Y-102611858D01*
X125840592Y-102787761D01*
X125840591Y-102787763D01*
X125797529Y-102885289D01*
X125754467Y-102982817D01*
X125754465Y-102982823D01*
X125705652Y-103190359D01*
X125705650Y-103190375D01*
X125699500Y-103278984D01*
X125699500Y-104721015D01*
X125705650Y-104809624D01*
X125705652Y-104809640D01*
X125754465Y-105017176D01*
X125754467Y-105017182D01*
X125754468Y-105017185D01*
X125840591Y-105212237D01*
X125840592Y-105212238D01*
X125961088Y-105388141D01*
X125961093Y-105388147D01*
X126111852Y-105538906D01*
X126111858Y-105538911D01*
X126287763Y-105659409D01*
X126482815Y-105745532D01*
X126482821Y-105745533D01*
X126482823Y-105745534D01*
X126690359Y-105794347D01*
X126690364Y-105794347D01*
X126690370Y-105794349D01*
X126739602Y-105797766D01*
X126778984Y-105800500D01*
X126778988Y-105800500D01*
X128221016Y-105800500D01*
X128256459Y-105798039D01*
X128309630Y-105794349D01*
X128309636Y-105794347D01*
X128309640Y-105794347D01*
X128517176Y-105745534D01*
X128517174Y-105745534D01*
X128517185Y-105745532D01*
X128712237Y-105659409D01*
X128888142Y-105538911D01*
X129038911Y-105388142D01*
X129159409Y-105212237D01*
X129245532Y-105017185D01*
X129262620Y-104944534D01*
X129294347Y-104809640D01*
X129294347Y-104809636D01*
X129294349Y-104809630D01*
X129300500Y-104721012D01*
X129300500Y-104720991D01*
X129300529Y-104720180D01*
X129300565Y-104720069D01*
X129300649Y-104718869D01*
X129300957Y-104718890D01*
X129322537Y-104653867D01*
X129376903Y-104609980D01*
X129424454Y-104600500D01*
X134960398Y-104600500D01*
X135027437Y-104620185D01*
X135070883Y-104668205D01*
X135077715Y-104681614D01*
X135198028Y-104847213D01*
X135342786Y-104991971D01*
X135463226Y-105079474D01*
X135508390Y-105112287D01*
X135624607Y-105171503D01*
X135690776Y-105205218D01*
X135690778Y-105205218D01*
X135690781Y-105205220D01*
X135795137Y-105239127D01*
X135885465Y-105268477D01*
X135986557Y-105284488D01*
X136087648Y-105300500D01*
X136087649Y-105300500D01*
X136292351Y-105300500D01*
X136292352Y-105300500D01*
X136494534Y-105268477D01*
X136689219Y-105205220D01*
X136871610Y-105112287D01*
X137002512Y-105017182D01*
X137037213Y-104991971D01*
X137037215Y-104991968D01*
X137037219Y-104991966D01*
X137181966Y-104847219D01*
X137181968Y-104847215D01*
X137181971Y-104847213D01*
X137248202Y-104756052D01*
X137302287Y-104681610D01*
X137395220Y-104499219D01*
X137458477Y-104304534D01*
X137490500Y-104102352D01*
X137490500Y-103897682D01*
X142510000Y-103897682D01*
X142510000Y-104102317D01*
X142542009Y-104304417D01*
X142605244Y-104499031D01*
X142698141Y-104681350D01*
X142698147Y-104681359D01*
X142730523Y-104725921D01*
X142730524Y-104725922D01*
X143410000Y-104046446D01*
X143410000Y-104052661D01*
X143437259Y-104154394D01*
X143489920Y-104245606D01*
X143564394Y-104320080D01*
X143655606Y-104372741D01*
X143757339Y-104400000D01*
X143763553Y-104400000D01*
X143084076Y-105079474D01*
X143128650Y-105111859D01*
X143310968Y-105204755D01*
X143505582Y-105267990D01*
X143707683Y-105300000D01*
X143912317Y-105300000D01*
X144114417Y-105267990D01*
X144309031Y-105204755D01*
X144491349Y-105111859D01*
X144535921Y-105079474D01*
X143856447Y-104400000D01*
X143862661Y-104400000D01*
X143964394Y-104372741D01*
X144055606Y-104320080D01*
X144130080Y-104245606D01*
X144182741Y-104154394D01*
X144210000Y-104052661D01*
X144210000Y-104046447D01*
X144889474Y-104725921D01*
X144921859Y-104681349D01*
X145014755Y-104499031D01*
X145077990Y-104304417D01*
X145110000Y-104102317D01*
X145110000Y-103897683D01*
X145109943Y-103897324D01*
X145109943Y-103897322D01*
X145107515Y-103881995D01*
X148659500Y-103881995D01*
X148659500Y-104118004D01*
X148659501Y-104118020D01*
X148689675Y-104347219D01*
X148690307Y-104352014D01*
X148729700Y-104499031D01*
X148751394Y-104579993D01*
X148841714Y-104798045D01*
X148841719Y-104798056D01*
X148912677Y-104920957D01*
X148959727Y-105002450D01*
X148959729Y-105002453D01*
X148959730Y-105002454D01*
X149103406Y-105189697D01*
X149103412Y-105189704D01*
X149270295Y-105356587D01*
X149270302Y-105356593D01*
X149311418Y-105388142D01*
X149457550Y-105500273D01*
X149588918Y-105576118D01*
X149661943Y-105618280D01*
X149661948Y-105618282D01*
X149661951Y-105618284D01*
X149880007Y-105708606D01*
X150107986Y-105769693D01*
X150341989Y-105800500D01*
X150341996Y-105800500D01*
X150578004Y-105800500D01*
X150578011Y-105800500D01*
X150812014Y-105769693D01*
X151039993Y-105708606D01*
X151258049Y-105618284D01*
X151462450Y-105500273D01*
X151649699Y-105356592D01*
X151816592Y-105189699D01*
X151960273Y-105002450D01*
X152078284Y-104798049D01*
X152168606Y-104579993D01*
X152229693Y-104352014D01*
X152260500Y-104118011D01*
X152260500Y-103881989D01*
X152229693Y-103647986D01*
X152168606Y-103420007D01*
X152144490Y-103361785D01*
X152128960Y-103324292D01*
X152110192Y-103278984D01*
X153739500Y-103278984D01*
X153739500Y-104721015D01*
X153745650Y-104809624D01*
X153745652Y-104809640D01*
X153794465Y-105017176D01*
X153794467Y-105017182D01*
X153794468Y-105017185D01*
X153880591Y-105212237D01*
X153880592Y-105212238D01*
X154001088Y-105388141D01*
X154001093Y-105388147D01*
X154151852Y-105538906D01*
X154151858Y-105538911D01*
X154327763Y-105659409D01*
X154522815Y-105745532D01*
X154522821Y-105745533D01*
X154522823Y-105745534D01*
X154730359Y-105794347D01*
X154730364Y-105794347D01*
X154730370Y-105794349D01*
X154779602Y-105797766D01*
X154818984Y-105800500D01*
X154818988Y-105800500D01*
X156261016Y-105800500D01*
X156296459Y-105798039D01*
X156349630Y-105794349D01*
X156349636Y-105794347D01*
X156349640Y-105794347D01*
X156557176Y-105745534D01*
X156557174Y-105745534D01*
X156557185Y-105745532D01*
X156752237Y-105659409D01*
X156928142Y-105538911D01*
X157078911Y-105388142D01*
X157199409Y-105212237D01*
X157285532Y-105017185D01*
X157302620Y-104944534D01*
X157334347Y-104809640D01*
X157334347Y-104809636D01*
X157334349Y-104809630D01*
X157340500Y-104721012D01*
X157340500Y-103278988D01*
X157340499Y-103278980D01*
X157334703Y-103195468D01*
X157334349Y-103190370D01*
X157324363Y-103147914D01*
X157328175Y-103078152D01*
X157357386Y-103031847D01*
X157510522Y-102878711D01*
X162149500Y-102878711D01*
X162149500Y-103121288D01*
X162176225Y-103324292D01*
X162181162Y-103361789D01*
X162191267Y-103399500D01*
X162243947Y-103596104D01*
X162336773Y-103820205D01*
X162336776Y-103820212D01*
X162458064Y-104030289D01*
X162458066Y-104030292D01*
X162458067Y-104030293D01*
X162605733Y-104222736D01*
X162605739Y-104222743D01*
X162777256Y-104394260D01*
X162777262Y-104394265D01*
X162969711Y-104541936D01*
X163179788Y-104663224D01*
X163403900Y-104756054D01*
X163638211Y-104818838D01*
X163818586Y-104842584D01*
X163878711Y-104850500D01*
X163878712Y-104850500D01*
X164121289Y-104850500D01*
X164169388Y-104844167D01*
X164361789Y-104818838D01*
X164596100Y-104756054D01*
X164820212Y-104663224D01*
X165030289Y-104541936D01*
X165222738Y-104394265D01*
X165394265Y-104222738D01*
X165541936Y-104030289D01*
X165663224Y-103820212D01*
X165756054Y-103596100D01*
X165818838Y-103361789D01*
X165850500Y-103121288D01*
X165850500Y-102878712D01*
X165818838Y-102638211D01*
X165756054Y-102403900D01*
X165663224Y-102179788D01*
X165541936Y-101969711D01*
X165394265Y-101777262D01*
X165394260Y-101777256D01*
X165222743Y-101605739D01*
X165222736Y-101605733D01*
X165030293Y-101458067D01*
X165030292Y-101458066D01*
X165030289Y-101458064D01*
X164820212Y-101336776D01*
X164820205Y-101336773D01*
X164596104Y-101243947D01*
X164361785Y-101181161D01*
X164121289Y-101149500D01*
X164121288Y-101149500D01*
X163878712Y-101149500D01*
X163878711Y-101149500D01*
X163638214Y-101181161D01*
X163403895Y-101243947D01*
X163179794Y-101336773D01*
X163179785Y-101336777D01*
X162969706Y-101458067D01*
X162777263Y-101605733D01*
X162777256Y-101605739D01*
X162605739Y-101777256D01*
X162605733Y-101777263D01*
X162458067Y-101969706D01*
X162336777Y-102179785D01*
X162336773Y-102179794D01*
X162243947Y-102403895D01*
X162181161Y-102638214D01*
X162149500Y-102878711D01*
X157510522Y-102878711D01*
X161752416Y-98636819D01*
X161813739Y-98603334D01*
X161840097Y-98600500D01*
X163533331Y-98600500D01*
X163533347Y-98600501D01*
X163540943Y-98600501D01*
X163699054Y-98600501D01*
X163699057Y-98600501D01*
X163851785Y-98559577D01*
X163901904Y-98530639D01*
X163988716Y-98480520D01*
X164100520Y-98368716D01*
X164100520Y-98368714D01*
X164110728Y-98358507D01*
X164110730Y-98358504D01*
X165675158Y-96794075D01*
X165736479Y-96760592D01*
X165801151Y-96763825D01*
X165815466Y-96768477D01*
X166017648Y-96800500D01*
X166017649Y-96800500D01*
X166222351Y-96800500D01*
X166222352Y-96800500D01*
X166424534Y-96768477D01*
X166619219Y-96705220D01*
X166801610Y-96612287D01*
X166932512Y-96517182D01*
X166967213Y-96491971D01*
X166967215Y-96491968D01*
X166967219Y-96491966D01*
X167111966Y-96347219D01*
X167111968Y-96347215D01*
X167111971Y-96347213D01*
X167195833Y-96231785D01*
X167232287Y-96181610D01*
X167325220Y-95999219D01*
X167388477Y-95804534D01*
X167420500Y-95602352D01*
X167420500Y-95397648D01*
X167418018Y-95381979D01*
X167388477Y-95195465D01*
X167332379Y-95022815D01*
X167325220Y-95000781D01*
X167325218Y-95000778D01*
X167325218Y-95000776D01*
X167291503Y-94934607D01*
X167232287Y-94818390D01*
X167205201Y-94781109D01*
X167111971Y-94652786D01*
X166967213Y-94508028D01*
X166801613Y-94387715D01*
X166801612Y-94387714D01*
X166801610Y-94387713D01*
X166744653Y-94358691D01*
X166619223Y-94294781D01*
X166424534Y-94231522D01*
X166249995Y-94203878D01*
X166222352Y-94199500D01*
X166017648Y-94199500D01*
X165993329Y-94203351D01*
X165815465Y-94231522D01*
X165620776Y-94294781D01*
X165438386Y-94387715D01*
X165272786Y-94508028D01*
X165128028Y-94652786D01*
X165007715Y-94818386D01*
X164914781Y-95000776D01*
X164851522Y-95195465D01*
X164819500Y-95397648D01*
X164819500Y-95602351D01*
X164851522Y-95804534D01*
X164856173Y-95818848D01*
X164858165Y-95888690D01*
X164825921Y-95944842D01*
X163407584Y-97363181D01*
X163346261Y-97396666D01*
X163319903Y-97399500D01*
X161460940Y-97399500D01*
X161420019Y-97410464D01*
X161420019Y-97410465D01*
X161409260Y-97413348D01*
X161308214Y-97440423D01*
X161308209Y-97440426D01*
X161171290Y-97519475D01*
X161171282Y-97519481D01*
X161059478Y-97631286D01*
X156508153Y-102182610D01*
X156446830Y-102216095D01*
X156392082Y-102215635D01*
X156349640Y-102205652D01*
X156349624Y-102205650D01*
X156261016Y-102199500D01*
X156261012Y-102199500D01*
X154818988Y-102199500D01*
X154818984Y-102199500D01*
X154730375Y-102205650D01*
X154730359Y-102205652D01*
X154522823Y-102254465D01*
X154522817Y-102254467D01*
X154522815Y-102254468D01*
X154334909Y-102337436D01*
X154327761Y-102340592D01*
X154151858Y-102461088D01*
X154151852Y-102461093D01*
X154001093Y-102611852D01*
X154001088Y-102611858D01*
X153880592Y-102787761D01*
X153880591Y-102787763D01*
X153837529Y-102885289D01*
X153794467Y-102982817D01*
X153794465Y-102982823D01*
X153745652Y-103190359D01*
X153745650Y-103190375D01*
X153739500Y-103278984D01*
X152110192Y-103278984D01*
X152078285Y-103201954D01*
X152078280Y-103201943D01*
X152008270Y-103080684D01*
X151960273Y-102997550D01*
X151816592Y-102810301D01*
X151816587Y-102810295D01*
X151649704Y-102643412D01*
X151649697Y-102643406D01*
X151462454Y-102499730D01*
X151462453Y-102499729D01*
X151462450Y-102499727D01*
X151380957Y-102452677D01*
X151258056Y-102381719D01*
X151258049Y-102381716D01*
X151137046Y-102331594D01*
X151082643Y-102287752D01*
X151060579Y-102221458D01*
X151060500Y-102217033D01*
X151060500Y-101380943D01*
X151060028Y-101379179D01*
X151019577Y-101228215D01*
X150990639Y-101178095D01*
X150940520Y-101091284D01*
X150834572Y-100985336D01*
X150801088Y-100924013D01*
X150800637Y-100921846D01*
X150769738Y-100766510D01*
X150769737Y-100766503D01*
X150769735Y-100766498D01*
X150709397Y-100620827D01*
X150709390Y-100620814D01*
X150621789Y-100489711D01*
X150621786Y-100489707D01*
X150510292Y-100378213D01*
X150510288Y-100378210D01*
X150379185Y-100290609D01*
X150379172Y-100290602D01*
X150233501Y-100230264D01*
X150233489Y-100230261D01*
X150078845Y-100199500D01*
X150078842Y-100199500D01*
X149921158Y-100199500D01*
X149921155Y-100199500D01*
X149766510Y-100230261D01*
X149766498Y-100230264D01*
X149620827Y-100290602D01*
X149620814Y-100290609D01*
X149489711Y-100378210D01*
X149489707Y-100378213D01*
X149378213Y-100489707D01*
X149378210Y-100489711D01*
X149290609Y-100620814D01*
X149290602Y-100620827D01*
X149230264Y-100766498D01*
X149230261Y-100766510D01*
X149199500Y-100921153D01*
X149199500Y-101078846D01*
X149230261Y-101233489D01*
X149230264Y-101233501D01*
X149290602Y-101379172D01*
X149290609Y-101379185D01*
X149378210Y-101510288D01*
X149378213Y-101510292D01*
X149489707Y-101621786D01*
X149489711Y-101621789D01*
X149620814Y-101709390D01*
X149620827Y-101709397D01*
X149766503Y-101769737D01*
X149771500Y-101771253D01*
X149829937Y-101809553D01*
X149858391Y-101873366D01*
X149859500Y-101889912D01*
X149859500Y-102217033D01*
X149839815Y-102284072D01*
X149787011Y-102329827D01*
X149782954Y-102331594D01*
X149661950Y-102381716D01*
X149661943Y-102381719D01*
X149457545Y-102499730D01*
X149270302Y-102643406D01*
X149270295Y-102643412D01*
X149103412Y-102810295D01*
X149103406Y-102810302D01*
X148959730Y-102997545D01*
X148959727Y-102997549D01*
X148959727Y-102997550D01*
X148957862Y-103000781D01*
X148841719Y-103201943D01*
X148841714Y-103201954D01*
X148751394Y-103420006D01*
X148690306Y-103647989D01*
X148659501Y-103881979D01*
X148659500Y-103881995D01*
X145107515Y-103881995D01*
X145077990Y-103695582D01*
X145014755Y-103500968D01*
X144921859Y-103318650D01*
X144889474Y-103274077D01*
X144889474Y-103274076D01*
X144210000Y-103953551D01*
X144210000Y-103947339D01*
X144182741Y-103845606D01*
X144130080Y-103754394D01*
X144055606Y-103679920D01*
X143964394Y-103627259D01*
X143862661Y-103600000D01*
X143856446Y-103600000D01*
X144535922Y-102920524D01*
X144535921Y-102920523D01*
X144491359Y-102888147D01*
X144491350Y-102888141D01*
X144309031Y-102795244D01*
X144114417Y-102732009D01*
X143912317Y-102700000D01*
X143707683Y-102700000D01*
X143505582Y-102732009D01*
X143310968Y-102795244D01*
X143128644Y-102888143D01*
X143084077Y-102920523D01*
X143084077Y-102920524D01*
X143763554Y-103600000D01*
X143757339Y-103600000D01*
X143655606Y-103627259D01*
X143564394Y-103679920D01*
X143489920Y-103754394D01*
X143437259Y-103845606D01*
X143410000Y-103947339D01*
X143410000Y-103953553D01*
X142730524Y-103274077D01*
X142730523Y-103274077D01*
X142698143Y-103318644D01*
X142605244Y-103500968D01*
X142542009Y-103695582D01*
X142510000Y-103897682D01*
X137490500Y-103897682D01*
X137490500Y-103897648D01*
X137481308Y-103839610D01*
X137458477Y-103695465D01*
X137426191Y-103596100D01*
X137395220Y-103500781D01*
X137395218Y-103500778D01*
X137395218Y-103500776D01*
X137361503Y-103434607D01*
X137302287Y-103318390D01*
X137274391Y-103279994D01*
X137181971Y-103152786D01*
X137037213Y-103008028D01*
X136871613Y-102887715D01*
X136871612Y-102887714D01*
X136871610Y-102887713D01*
X136814653Y-102858691D01*
X136689223Y-102794781D01*
X136494534Y-102731522D01*
X136319995Y-102703878D01*
X136292352Y-102699500D01*
X136087648Y-102699500D01*
X136063329Y-102703351D01*
X135885465Y-102731522D01*
X135690776Y-102794781D01*
X135508386Y-102887715D01*
X135342786Y-103008028D01*
X135198028Y-103152786D01*
X135077715Y-103318385D01*
X135070883Y-103331795D01*
X135022909Y-103382591D01*
X134960398Y-103399500D01*
X129424454Y-103399500D01*
X129357415Y-103379815D01*
X129311660Y-103327011D01*
X129300835Y-103281118D01*
X129300649Y-103281131D01*
X129300570Y-103279994D01*
X129300529Y-103279820D01*
X129300500Y-103279008D01*
X129300500Y-103278988D01*
X129294349Y-103190370D01*
X129294347Y-103190364D01*
X129294347Y-103190359D01*
X129245534Y-102982823D01*
X129245532Y-102982817D01*
X129245532Y-102982815D01*
X129159409Y-102787763D01*
X129038911Y-102611858D01*
X129038906Y-102611852D01*
X128888147Y-102461093D01*
X128888141Y-102461088D01*
X128712238Y-102340592D01*
X128712239Y-102340592D01*
X128712237Y-102340591D01*
X128517185Y-102254468D01*
X128517183Y-102254467D01*
X128517182Y-102254467D01*
X128517176Y-102254465D01*
X128309640Y-102205652D01*
X128309624Y-102205650D01*
X128221019Y-102199500D01*
X128220180Y-102199471D01*
X128220069Y-102199434D01*
X128218869Y-102199351D01*
X128218890Y-102199042D01*
X128153867Y-102177463D01*
X128109980Y-102123097D01*
X128100500Y-102075546D01*
X128100500Y-96800097D01*
X128120185Y-96733058D01*
X128136819Y-96712416D01*
X128404702Y-96444534D01*
X128428293Y-96420943D01*
X128480520Y-96368716D01*
X128559577Y-96231784D01*
X128600501Y-96079057D01*
X128600501Y-95920942D01*
X128600501Y-95913347D01*
X128600500Y-95913329D01*
X128600500Y-95397682D01*
X129890000Y-95397682D01*
X129890000Y-95602317D01*
X129922009Y-95804417D01*
X129985244Y-95999031D01*
X130078141Y-96181350D01*
X130078147Y-96181359D01*
X130110523Y-96225921D01*
X130110524Y-96225922D01*
X130790000Y-95546446D01*
X130790000Y-95552661D01*
X130817259Y-95654394D01*
X130869920Y-95745606D01*
X130944394Y-95820080D01*
X131035606Y-95872741D01*
X131137339Y-95900000D01*
X131143553Y-95900000D01*
X130464076Y-96579474D01*
X130508650Y-96611859D01*
X130690968Y-96704755D01*
X130885582Y-96767990D01*
X131087683Y-96800000D01*
X131292317Y-96800000D01*
X131494417Y-96767990D01*
X131689031Y-96704755D01*
X131871349Y-96611859D01*
X131915921Y-96579474D01*
X131236447Y-95900000D01*
X131242661Y-95900000D01*
X131344394Y-95872741D01*
X131435606Y-95820080D01*
X131510080Y-95745606D01*
X131562741Y-95654394D01*
X131590000Y-95552661D01*
X131590000Y-95546447D01*
X132269474Y-96225921D01*
X132301859Y-96181349D01*
X132394755Y-95999031D01*
X132457990Y-95804417D01*
X132490000Y-95602317D01*
X132490000Y-95397682D01*
X132457990Y-95195582D01*
X132394755Y-95000968D01*
X132301859Y-94818650D01*
X132269474Y-94774077D01*
X132269474Y-94774076D01*
X131590000Y-95453551D01*
X131590000Y-95447339D01*
X131562741Y-95345606D01*
X131510080Y-95254394D01*
X131435606Y-95179920D01*
X131344394Y-95127259D01*
X131242661Y-95100000D01*
X131236446Y-95100000D01*
X131915922Y-94420524D01*
X131915921Y-94420523D01*
X131871359Y-94388147D01*
X131871350Y-94388141D01*
X131689031Y-94295244D01*
X131494417Y-94232009D01*
X131292317Y-94200000D01*
X131087683Y-94200000D01*
X130885582Y-94232009D01*
X130690968Y-94295244D01*
X130508644Y-94388143D01*
X130464077Y-94420523D01*
X130464077Y-94420524D01*
X131143554Y-95100000D01*
X131137339Y-95100000D01*
X131035606Y-95127259D01*
X130944394Y-95179920D01*
X130869920Y-95254394D01*
X130817259Y-95345606D01*
X130790000Y-95447339D01*
X130790000Y-95453553D01*
X130110524Y-94774077D01*
X130110523Y-94774077D01*
X130078143Y-94818644D01*
X129985244Y-95000968D01*
X129922009Y-95195582D01*
X129890000Y-95397682D01*
X128600500Y-95397682D01*
X128600500Y-92749097D01*
X128620185Y-92682058D01*
X128672989Y-92636303D01*
X128742147Y-92626359D01*
X128805703Y-92655384D01*
X128812178Y-92661413D01*
X129631284Y-93480520D01*
X129631286Y-93480521D01*
X129631290Y-93480524D01*
X129768209Y-93559573D01*
X129768216Y-93559577D01*
X129920943Y-93600501D01*
X129920945Y-93600501D01*
X130086654Y-93600501D01*
X130086670Y-93600500D01*
X136009903Y-93600500D01*
X136076942Y-93620185D01*
X136097584Y-93636819D01*
X137515922Y-95055157D01*
X137549407Y-95116480D01*
X137546173Y-95181155D01*
X137541522Y-95195468D01*
X137509500Y-95397648D01*
X137509500Y-95602351D01*
X137541522Y-95804534D01*
X137604781Y-95999223D01*
X137645935Y-96079990D01*
X137697585Y-96181359D01*
X137697715Y-96181613D01*
X137818028Y-96347213D01*
X137962786Y-96491971D01*
X138083226Y-96579474D01*
X138128390Y-96612287D01*
X138202367Y-96649980D01*
X138310776Y-96705218D01*
X138310778Y-96705218D01*
X138310781Y-96705220D01*
X138385818Y-96729601D01*
X138505465Y-96768477D01*
X138606557Y-96784488D01*
X138707648Y-96800500D01*
X138707649Y-96800500D01*
X138912351Y-96800500D01*
X138912352Y-96800500D01*
X139114534Y-96768477D01*
X139309219Y-96705220D01*
X139491610Y-96612287D01*
X139622512Y-96517182D01*
X139657213Y-96491971D01*
X139657215Y-96491968D01*
X139657219Y-96491966D01*
X139801966Y-96347219D01*
X139801968Y-96347215D01*
X139801971Y-96347213D01*
X139922284Y-96181614D01*
X139922285Y-96181613D01*
X139922287Y-96181610D01*
X139929117Y-96168204D01*
X139977091Y-96117409D01*
X140039602Y-96100500D01*
X144495546Y-96100500D01*
X144562585Y-96120185D01*
X144608340Y-96172989D01*
X144619164Y-96218881D01*
X144619351Y-96218869D01*
X144619429Y-96220005D01*
X144619471Y-96220180D01*
X144619500Y-96221019D01*
X144625650Y-96309624D01*
X144625652Y-96309640D01*
X144674465Y-96517176D01*
X144674467Y-96517182D01*
X144674468Y-96517185D01*
X144760591Y-96712237D01*
X144760592Y-96712238D01*
X144881088Y-96888141D01*
X144881093Y-96888147D01*
X145031852Y-97038906D01*
X145031858Y-97038911D01*
X145207763Y-97159409D01*
X145402815Y-97245532D01*
X145402821Y-97245533D01*
X145402823Y-97245534D01*
X145610359Y-97294347D01*
X145610364Y-97294347D01*
X145610370Y-97294349D01*
X145659602Y-97297766D01*
X145698984Y-97300500D01*
X145698988Y-97300500D01*
X147141016Y-97300500D01*
X147176459Y-97298039D01*
X147229630Y-97294349D01*
X147229636Y-97294347D01*
X147229640Y-97294347D01*
X147437176Y-97245534D01*
X147437174Y-97245534D01*
X147437185Y-97245532D01*
X147632237Y-97159409D01*
X147808142Y-97038911D01*
X147958911Y-96888142D01*
X148079409Y-96712237D01*
X148165532Y-96517185D01*
X148205508Y-96347219D01*
X148214347Y-96309640D01*
X148214347Y-96309636D01*
X148214349Y-96309630D01*
X148220500Y-96221012D01*
X148220500Y-95381995D01*
X149699500Y-95381995D01*
X149699500Y-95618004D01*
X149699501Y-95618020D01*
X149730306Y-95852010D01*
X149791394Y-96079993D01*
X149881714Y-96298045D01*
X149881719Y-96298056D01*
X149922516Y-96368717D01*
X149999727Y-96502450D01*
X149999729Y-96502453D01*
X149999730Y-96502454D01*
X150143406Y-96689697D01*
X150143412Y-96689704D01*
X150310295Y-96856587D01*
X150310302Y-96856593D01*
X150351418Y-96888142D01*
X150497550Y-97000273D01*
X150701951Y-97118284D01*
X150701956Y-97118286D01*
X150701962Y-97118289D01*
X150822952Y-97168404D01*
X150877356Y-97212244D01*
X150899421Y-97278538D01*
X150899500Y-97282965D01*
X150899500Y-97413330D01*
X150899499Y-97413348D01*
X150899499Y-97579054D01*
X150899498Y-97579054D01*
X150899499Y-97579057D01*
X150940423Y-97731785D01*
X150960468Y-97766503D01*
X150999637Y-97834347D01*
X151019479Y-97868715D01*
X151131284Y-97980520D01*
X151165425Y-98014660D01*
X151198911Y-98075983D01*
X151199362Y-98078151D01*
X151230261Y-98233491D01*
X151230264Y-98233501D01*
X151290602Y-98379172D01*
X151290609Y-98379185D01*
X151378210Y-98510288D01*
X151378213Y-98510292D01*
X151489707Y-98621786D01*
X151489711Y-98621789D01*
X151620814Y-98709390D01*
X151620827Y-98709397D01*
X151766498Y-98769735D01*
X151766503Y-98769737D01*
X151921153Y-98800499D01*
X151921156Y-98800500D01*
X151921158Y-98800500D01*
X152078844Y-98800500D01*
X152078845Y-98800499D01*
X152233497Y-98769737D01*
X152379179Y-98709394D01*
X152510289Y-98621789D01*
X152621789Y-98510289D01*
X152709394Y-98379179D01*
X152769737Y-98233497D01*
X152800500Y-98078842D01*
X152800500Y-97921158D01*
X152800500Y-97921155D01*
X152800499Y-97921153D01*
X152800316Y-97920234D01*
X152769737Y-97766503D01*
X152769735Y-97766498D01*
X152709397Y-97620827D01*
X152709390Y-97620814D01*
X152621789Y-97489711D01*
X152621786Y-97489707D01*
X152510292Y-97378213D01*
X152510288Y-97378210D01*
X152379171Y-97290600D01*
X152378838Y-97290422D01*
X152378696Y-97290282D01*
X152374114Y-97287221D01*
X152374694Y-97286351D01*
X152328997Y-97241456D01*
X152313543Y-97173317D01*
X152337380Y-97107639D01*
X152375296Y-97073685D01*
X152502450Y-97000273D01*
X152689699Y-96856592D01*
X152856592Y-96689699D01*
X153000273Y-96502450D01*
X153118284Y-96298049D01*
X153208606Y-96079993D01*
X153269693Y-95852014D01*
X153300500Y-95618011D01*
X153300500Y-95397682D01*
X157200000Y-95397682D01*
X157200000Y-95602317D01*
X157232009Y-95804417D01*
X157295244Y-95999031D01*
X157388141Y-96181350D01*
X157388147Y-96181359D01*
X157420523Y-96225921D01*
X157420524Y-96225922D01*
X158100000Y-95546446D01*
X158100000Y-95552661D01*
X158127259Y-95654394D01*
X158179920Y-95745606D01*
X158254394Y-95820080D01*
X158345606Y-95872741D01*
X158447339Y-95900000D01*
X158453553Y-95900000D01*
X157774076Y-96579474D01*
X157818650Y-96611859D01*
X158000968Y-96704755D01*
X158195582Y-96767990D01*
X158397683Y-96800000D01*
X158602317Y-96800000D01*
X158804417Y-96767990D01*
X158999031Y-96704755D01*
X159181349Y-96611859D01*
X159225921Y-96579474D01*
X158546447Y-95900000D01*
X158552661Y-95900000D01*
X158654394Y-95872741D01*
X158745606Y-95820080D01*
X158820080Y-95745606D01*
X158872741Y-95654394D01*
X158900000Y-95552661D01*
X158900000Y-95546447D01*
X159579474Y-96225921D01*
X159611859Y-96181349D01*
X159704755Y-95999031D01*
X159767990Y-95804417D01*
X159800000Y-95602317D01*
X159800000Y-95397682D01*
X159767990Y-95195582D01*
X159704755Y-95000968D01*
X159611859Y-94818650D01*
X159579474Y-94774077D01*
X159579474Y-94774076D01*
X158900000Y-95453551D01*
X158900000Y-95447339D01*
X158872741Y-95345606D01*
X158820080Y-95254394D01*
X158745606Y-95179920D01*
X158654394Y-95127259D01*
X158552661Y-95100000D01*
X158546446Y-95100000D01*
X159225922Y-94420524D01*
X159225921Y-94420523D01*
X159181359Y-94388147D01*
X159181350Y-94388141D01*
X158999031Y-94295244D01*
X158804417Y-94232009D01*
X158602317Y-94200000D01*
X158397683Y-94200000D01*
X158195582Y-94232009D01*
X158000968Y-94295244D01*
X157818644Y-94388143D01*
X157774077Y-94420523D01*
X157774077Y-94420524D01*
X158453554Y-95100000D01*
X158447339Y-95100000D01*
X158345606Y-95127259D01*
X158254394Y-95179920D01*
X158179920Y-95254394D01*
X158127259Y-95345606D01*
X158100000Y-95447339D01*
X158100000Y-95453553D01*
X157420524Y-94774077D01*
X157420523Y-94774077D01*
X157388143Y-94818644D01*
X157295244Y-95000968D01*
X157232009Y-95195582D01*
X157200000Y-95397682D01*
X153300500Y-95397682D01*
X153300500Y-95381989D01*
X153269693Y-95147986D01*
X153208606Y-94920007D01*
X153118284Y-94701951D01*
X153000273Y-94497550D01*
X152915992Y-94387713D01*
X152856593Y-94310302D01*
X152856587Y-94310295D01*
X152689704Y-94143412D01*
X152689697Y-94143406D01*
X152502454Y-93999730D01*
X152502453Y-93999729D01*
X152502450Y-93999727D01*
X152420957Y-93952677D01*
X152298056Y-93881719D01*
X152298045Y-93881714D01*
X152079993Y-93791394D01*
X151942180Y-93754467D01*
X151852014Y-93730307D01*
X151852013Y-93730306D01*
X151852010Y-93730306D01*
X151618020Y-93699501D01*
X151618017Y-93699500D01*
X151618011Y-93699500D01*
X151381989Y-93699500D01*
X151381983Y-93699500D01*
X151381979Y-93699501D01*
X151147989Y-93730306D01*
X150920006Y-93791394D01*
X150701954Y-93881714D01*
X150701943Y-93881719D01*
X150497545Y-93999730D01*
X150310302Y-94143406D01*
X150310295Y-94143412D01*
X150143412Y-94310295D01*
X150143406Y-94310302D01*
X149999730Y-94497545D01*
X149999727Y-94497549D01*
X149999727Y-94497550D01*
X149993678Y-94508028D01*
X149881719Y-94701943D01*
X149881714Y-94701954D01*
X149791394Y-94920006D01*
X149730306Y-95147989D01*
X149699501Y-95381979D01*
X149699500Y-95381995D01*
X148220500Y-95381995D01*
X148220500Y-94778988D01*
X148220499Y-94778980D01*
X148214349Y-94690375D01*
X148214349Y-94690370D01*
X148214347Y-94690364D01*
X148214347Y-94690359D01*
X148165534Y-94482823D01*
X148165532Y-94482817D01*
X148165532Y-94482815D01*
X148079409Y-94287763D01*
X147958911Y-94111858D01*
X147958906Y-94111852D01*
X147808147Y-93961093D01*
X147808141Y-93961088D01*
X147632238Y-93840592D01*
X147632239Y-93840592D01*
X147632237Y-93840591D01*
X147437185Y-93754468D01*
X147437183Y-93754467D01*
X147437182Y-93754467D01*
X147437176Y-93754465D01*
X147229640Y-93705652D01*
X147229624Y-93705650D01*
X147141016Y-93699500D01*
X147141012Y-93699500D01*
X145698988Y-93699500D01*
X145698984Y-93699500D01*
X145610375Y-93705650D01*
X145610359Y-93705652D01*
X145402823Y-93754465D01*
X145402817Y-93754467D01*
X145207761Y-93840592D01*
X145031858Y-93961088D01*
X145031852Y-93961093D01*
X144881093Y-94111852D01*
X144881088Y-94111858D01*
X144772487Y-94270397D01*
X144760591Y-94287763D01*
X144734707Y-94346385D01*
X144674467Y-94482817D01*
X144674465Y-94482823D01*
X144625652Y-94690359D01*
X144625650Y-94690375D01*
X144619500Y-94778980D01*
X144619471Y-94779820D01*
X144619434Y-94779930D01*
X144619351Y-94781131D01*
X144619042Y-94781109D01*
X144597463Y-94846133D01*
X144543097Y-94890020D01*
X144495546Y-94899500D01*
X140039602Y-94899500D01*
X139972563Y-94879815D01*
X139929117Y-94831795D01*
X139927063Y-94827763D01*
X139922287Y-94818390D01*
X139922285Y-94818387D01*
X139922284Y-94818385D01*
X139801971Y-94652786D01*
X139657213Y-94508028D01*
X139491613Y-94387715D01*
X139491612Y-94387714D01*
X139491610Y-94387713D01*
X139434653Y-94358691D01*
X139309223Y-94294781D01*
X139114534Y-94231522D01*
X138939995Y-94203878D01*
X138912352Y-94199500D01*
X138707648Y-94199500D01*
X138669599Y-94205526D01*
X138505468Y-94231522D01*
X138496717Y-94234365D01*
X138491154Y-94236173D01*
X138421313Y-94238167D01*
X138365157Y-94205922D01*
X136797590Y-92638355D01*
X136797588Y-92638352D01*
X136678717Y-92519481D01*
X136678712Y-92519477D01*
X136576166Y-92460273D01*
X136576165Y-92460272D01*
X136541790Y-92440425D01*
X136541789Y-92440424D01*
X136529263Y-92437067D01*
X136389057Y-92399499D01*
X136230943Y-92399499D01*
X136223347Y-92399499D01*
X136223331Y-92399500D01*
X131003439Y-92399500D01*
X130936400Y-92379815D01*
X130890645Y-92327011D01*
X130880701Y-92257853D01*
X130909726Y-92194297D01*
X130934548Y-92172398D01*
X130968522Y-92149697D01*
X131010289Y-92121789D01*
X131121789Y-92010289D01*
X131209394Y-91879179D01*
X131269737Y-91733497D01*
X131300500Y-91578842D01*
X131300500Y-91421158D01*
X131300500Y-91421155D01*
X131300499Y-91421153D01*
X131269737Y-91266503D01*
X131269735Y-91266498D01*
X131209397Y-91120827D01*
X131209390Y-91120814D01*
X131121398Y-90989125D01*
X131100520Y-90922447D01*
X131100500Y-90920234D01*
X131100500Y-90278408D01*
X131120185Y-90211369D01*
X131172989Y-90165614D01*
X131242147Y-90155670D01*
X131271944Y-90163844D01*
X131380007Y-90208606D01*
X131607986Y-90269693D01*
X131841989Y-90300500D01*
X131841996Y-90300500D01*
X132078004Y-90300500D01*
X132078011Y-90300500D01*
X132312014Y-90269693D01*
X132539993Y-90208606D01*
X132758049Y-90118284D01*
X132962450Y-90000273D01*
X133149699Y-89856592D01*
X133316592Y-89689699D01*
X133460273Y-89502450D01*
X133578284Y-89298049D01*
X133668606Y-89079993D01*
X133729693Y-88852014D01*
X133760500Y-88618011D01*
X133760500Y-88381989D01*
X133729693Y-88147986D01*
X133668606Y-87920007D01*
X133578284Y-87701951D01*
X133578282Y-87701948D01*
X133578280Y-87701943D01*
X133530474Y-87619141D01*
X133460273Y-87497550D01*
X133316592Y-87310301D01*
X133316587Y-87310295D01*
X133149704Y-87143412D01*
X133149697Y-87143406D01*
X132962454Y-86999730D01*
X132962453Y-86999729D01*
X132962450Y-86999727D01*
X132863962Y-86942865D01*
X132758056Y-86881719D01*
X132758045Y-86881714D01*
X132539993Y-86791394D01*
X132402176Y-86754466D01*
X132312014Y-86730307D01*
X132312013Y-86730306D01*
X132312010Y-86730306D01*
X132078020Y-86699501D01*
X132078017Y-86699500D01*
X132078011Y-86699500D01*
X131841989Y-86699500D01*
X131841983Y-86699500D01*
X131841979Y-86699501D01*
X131607989Y-86730306D01*
X131380006Y-86791394D01*
X131161954Y-86881714D01*
X131161943Y-86881719D01*
X130989082Y-86981522D01*
X130960166Y-86998217D01*
X130957545Y-86999730D01*
X130770302Y-87143406D01*
X130770295Y-87143412D01*
X130603412Y-87310295D01*
X130603406Y-87310302D01*
X130459730Y-87497545D01*
X130341719Y-87701943D01*
X130341714Y-87701954D01*
X130251394Y-87920006D01*
X130190306Y-88147989D01*
X130159501Y-88381979D01*
X130159500Y-88381995D01*
X130159500Y-88618004D01*
X130159501Y-88618020D01*
X130190107Y-88850500D01*
X130190307Y-88852014D01*
X130251394Y-89079993D01*
X130297087Y-89190306D01*
X130301515Y-89200994D01*
X130308984Y-89270463D01*
X130277709Y-89332943D01*
X130274636Y-89336128D01*
X130131286Y-89479478D01*
X130131284Y-89479480D01*
X130100172Y-89510592D01*
X130019481Y-89591282D01*
X130019480Y-89591284D01*
X130001648Y-89622171D01*
X129940423Y-89728215D01*
X129899499Y-89880943D01*
X129899499Y-89880945D01*
X129899499Y-90049046D01*
X129899500Y-90049059D01*
X129899500Y-90920234D01*
X129879815Y-90987273D01*
X129878602Y-90989125D01*
X129827602Y-91065451D01*
X129773989Y-91110256D01*
X129704664Y-91118963D01*
X129641637Y-91088808D01*
X129604918Y-91029365D01*
X129600500Y-90996560D01*
X129600500Y-80897682D01*
X129890000Y-80897682D01*
X129890000Y-81102317D01*
X129922009Y-81304417D01*
X129985244Y-81499031D01*
X130078141Y-81681350D01*
X130078147Y-81681359D01*
X130110523Y-81725921D01*
X130110524Y-81725922D01*
X130790000Y-81046446D01*
X130790000Y-81052661D01*
X130817259Y-81154394D01*
X130869920Y-81245606D01*
X130944394Y-81320080D01*
X131035606Y-81372741D01*
X131137339Y-81400000D01*
X131143553Y-81400000D01*
X130464076Y-82079474D01*
X130508650Y-82111859D01*
X130690968Y-82204755D01*
X130885582Y-82267990D01*
X131087683Y-82300000D01*
X131292317Y-82300000D01*
X131494417Y-82267990D01*
X131689031Y-82204755D01*
X131871349Y-82111859D01*
X131915921Y-82079474D01*
X131236447Y-81400000D01*
X131242661Y-81400000D01*
X131344394Y-81372741D01*
X131435606Y-81320080D01*
X131510080Y-81245606D01*
X131562741Y-81154394D01*
X131590000Y-81052661D01*
X131590000Y-81046447D01*
X132269474Y-81725921D01*
X132301859Y-81681349D01*
X132394755Y-81499031D01*
X132457990Y-81304417D01*
X132490000Y-81102317D01*
X132490000Y-80897682D01*
X132457990Y-80695582D01*
X132394755Y-80500968D01*
X132301859Y-80318650D01*
X132269474Y-80274077D01*
X132269474Y-80274076D01*
X131590000Y-80953551D01*
X131590000Y-80947339D01*
X131562741Y-80845606D01*
X131510080Y-80754394D01*
X131435606Y-80679920D01*
X131344394Y-80627259D01*
X131242661Y-80600000D01*
X131236446Y-80600000D01*
X131915922Y-79920524D01*
X131915921Y-79920523D01*
X131871359Y-79888147D01*
X131871350Y-79888141D01*
X131689031Y-79795244D01*
X131494417Y-79732009D01*
X131292317Y-79700000D01*
X131087683Y-79700000D01*
X130885582Y-79732009D01*
X130690968Y-79795244D01*
X130508644Y-79888143D01*
X130464077Y-79920523D01*
X130464077Y-79920524D01*
X131143554Y-80600000D01*
X131137339Y-80600000D01*
X131035606Y-80627259D01*
X130944394Y-80679920D01*
X130869920Y-80754394D01*
X130817259Y-80845606D01*
X130790000Y-80947339D01*
X130790000Y-80953553D01*
X130110524Y-80274077D01*
X130110523Y-80274077D01*
X130078143Y-80318644D01*
X129985244Y-80500968D01*
X129922009Y-80695582D01*
X129890000Y-80897682D01*
X129600500Y-80897682D01*
X129600500Y-75049047D01*
X129620185Y-74982008D01*
X129672989Y-74936253D01*
X129742147Y-74926309D01*
X129805703Y-74955334D01*
X129812181Y-74961366D01*
X129842786Y-74991971D01*
X129980928Y-75092335D01*
X130008390Y-75112287D01*
X130124607Y-75171503D01*
X130190776Y-75205218D01*
X130190778Y-75205218D01*
X130190781Y-75205220D01*
X130214692Y-75212989D01*
X130385465Y-75268477D01*
X130463332Y-75280810D01*
X130587648Y-75300500D01*
X130587649Y-75300500D01*
X130792351Y-75300500D01*
X130792352Y-75300500D01*
X130994534Y-75268477D01*
X131189219Y-75205220D01*
X131371610Y-75112287D01*
X131502512Y-75017182D01*
X131537213Y-74991971D01*
X131537215Y-74991968D01*
X131537219Y-74991966D01*
X131681966Y-74847219D01*
X131681968Y-74847215D01*
X131681971Y-74847213D01*
X131738259Y-74769738D01*
X131802287Y-74681610D01*
X131895220Y-74499219D01*
X131958477Y-74304534D01*
X131990500Y-74102352D01*
X131990500Y-73897648D01*
X131973785Y-73792116D01*
X131958477Y-73695465D01*
X131926699Y-73597664D01*
X131895220Y-73500781D01*
X131895218Y-73500778D01*
X131895218Y-73500776D01*
X131861503Y-73434607D01*
X131802287Y-73318390D01*
X131783248Y-73292185D01*
X131681971Y-73152786D01*
X131537213Y-73008028D01*
X131371613Y-72887715D01*
X131371612Y-72887714D01*
X131371610Y-72887713D01*
X131287681Y-72844949D01*
X131189223Y-72794781D01*
X130994534Y-72731522D01*
X130819995Y-72703878D01*
X130792352Y-72699500D01*
X130587648Y-72699500D01*
X130563329Y-72703351D01*
X130385465Y-72731522D01*
X130190776Y-72794781D01*
X130008386Y-72887715D01*
X129842786Y-73008028D01*
X129842782Y-73008032D01*
X129812181Y-73038634D01*
X129750858Y-73072119D01*
X129681166Y-73067135D01*
X129625233Y-73025263D01*
X129600816Y-72959799D01*
X129600500Y-72950953D01*
X129600500Y-70589060D01*
X129600501Y-70589047D01*
X129600501Y-70420944D01*
X129600501Y-70420943D01*
X129559577Y-70268216D01*
X129548315Y-70248709D01*
X129480524Y-70131290D01*
X129480521Y-70131286D01*
X129480520Y-70131284D01*
X128556819Y-69207583D01*
X128523334Y-69146260D01*
X128520500Y-69119902D01*
X128520500Y-67285718D01*
X128540185Y-67218679D01*
X128588207Y-67175233D01*
X128627815Y-67155052D01*
X128627815Y-67155051D01*
X128627816Y-67155051D01*
X128728777Y-67081699D01*
X128799786Y-67030109D01*
X128799788Y-67030106D01*
X128799792Y-67030104D01*
X128950104Y-66879792D01*
X128950106Y-66879788D01*
X128950109Y-66879786D01*
X129075048Y-66707820D01*
X129075047Y-66707820D01*
X129075051Y-66707816D01*
X129079514Y-66699054D01*
X129127488Y-66648259D01*
X129195308Y-66631463D01*
X129261444Y-66653999D01*
X129300486Y-66699056D01*
X129304951Y-66707820D01*
X129429890Y-66879786D01*
X129580213Y-67030109D01*
X129752184Y-67155051D01*
X129752184Y-67155052D01*
X129791793Y-67175233D01*
X129842590Y-67223206D01*
X129859500Y-67285718D01*
X129859500Y-69373330D01*
X129859499Y-69373348D01*
X129859499Y-69539054D01*
X129859498Y-69539054D01*
X129876794Y-69603602D01*
X129900423Y-69691785D01*
X129900424Y-69691786D01*
X129910590Y-69709394D01*
X129910591Y-69709397D01*
X129979475Y-69828709D01*
X129979481Y-69828717D01*
X130098349Y-69947585D01*
X130098355Y-69947590D01*
X132903181Y-72752416D01*
X132936666Y-72813739D01*
X132939500Y-72840097D01*
X132939500Y-82953330D01*
X132939499Y-82953348D01*
X132939499Y-83119054D01*
X132939498Y-83119054D01*
X132980423Y-83271786D01*
X132980424Y-83271787D01*
X133002775Y-83310500D01*
X133059480Y-83408716D01*
X133059482Y-83408718D01*
X133178349Y-83527585D01*
X133178355Y-83527590D01*
X136174997Y-86524232D01*
X136208482Y-86585555D01*
X136203498Y-86655247D01*
X136161626Y-86711180D01*
X136115707Y-86732619D01*
X136022821Y-86754466D01*
X136022817Y-86754467D01*
X136022815Y-86754468D01*
X135848140Y-86831594D01*
X135827761Y-86840592D01*
X135651858Y-86961088D01*
X135651852Y-86961093D01*
X135501093Y-87111852D01*
X135501088Y-87111858D01*
X135380592Y-87287761D01*
X135380591Y-87287763D01*
X135297834Y-87475193D01*
X135294469Y-87482813D01*
X135294465Y-87482823D01*
X135245652Y-87690359D01*
X135245650Y-87690375D01*
X135239500Y-87778984D01*
X135239500Y-89221015D01*
X135245650Y-89309624D01*
X135245652Y-89309640D01*
X135294465Y-89517176D01*
X135294467Y-89517182D01*
X135294468Y-89517185D01*
X135380591Y-89712237D01*
X135418783Y-89767990D01*
X135501088Y-89888141D01*
X135501093Y-89888147D01*
X135651852Y-90038906D01*
X135651858Y-90038911D01*
X135827763Y-90159409D01*
X136022815Y-90245532D01*
X136022821Y-90245533D01*
X136022823Y-90245534D01*
X136230359Y-90294347D01*
X136230364Y-90294347D01*
X136230370Y-90294349D01*
X136279602Y-90297766D01*
X136318984Y-90300500D01*
X136318988Y-90300500D01*
X137761016Y-90300500D01*
X137796459Y-90298039D01*
X137849630Y-90294349D01*
X137849636Y-90294347D01*
X137849640Y-90294347D01*
X138057176Y-90245534D01*
X138057174Y-90245534D01*
X138057185Y-90245532D01*
X138252237Y-90159409D01*
X138428142Y-90038911D01*
X138578911Y-89888142D01*
X138699409Y-89712237D01*
X138785532Y-89517185D01*
X138825509Y-89347217D01*
X138834347Y-89309640D01*
X138834347Y-89309636D01*
X138834349Y-89309630D01*
X138840500Y-89221012D01*
X138840500Y-89220991D01*
X138840529Y-89220180D01*
X138840565Y-89220069D01*
X138840649Y-89218869D01*
X138840957Y-89218890D01*
X138862537Y-89153867D01*
X138916903Y-89109980D01*
X138964454Y-89100500D01*
X143610398Y-89100500D01*
X143677437Y-89120185D01*
X143720883Y-89168205D01*
X143727715Y-89181614D01*
X143848028Y-89347213D01*
X143992786Y-89491971D01*
X144147749Y-89604556D01*
X144158390Y-89612287D01*
X144274607Y-89671503D01*
X144340776Y-89705218D01*
X144340778Y-89705218D01*
X144340781Y-89705220D01*
X144445137Y-89739127D01*
X144535465Y-89768477D01*
X144636557Y-89784488D01*
X144737648Y-89800500D01*
X144737649Y-89800500D01*
X144942351Y-89800500D01*
X144942352Y-89800500D01*
X145144534Y-89768477D01*
X145339219Y-89705220D01*
X145521610Y-89612287D01*
X145615494Y-89544077D01*
X145687213Y-89491971D01*
X145687215Y-89491968D01*
X145687219Y-89491966D01*
X145831966Y-89347219D01*
X145831968Y-89347215D01*
X145831971Y-89347213D01*
X145901586Y-89251394D01*
X145952287Y-89181610D01*
X146045220Y-88999219D01*
X146108477Y-88804534D01*
X146140500Y-88602352D01*
X146140500Y-88397682D01*
X151160000Y-88397682D01*
X151160000Y-88602317D01*
X151192009Y-88804417D01*
X151255244Y-88999031D01*
X151348141Y-89181350D01*
X151348147Y-89181359D01*
X151380523Y-89225921D01*
X151380524Y-89225922D01*
X152060000Y-88546446D01*
X152060000Y-88552661D01*
X152087259Y-88654394D01*
X152139920Y-88745606D01*
X152214394Y-88820080D01*
X152305606Y-88872741D01*
X152407339Y-88900000D01*
X152413553Y-88900000D01*
X151734076Y-89579474D01*
X151778650Y-89611859D01*
X151960968Y-89704755D01*
X152155582Y-89767990D01*
X152357683Y-89800000D01*
X152562317Y-89800000D01*
X152764417Y-89767990D01*
X152959031Y-89704755D01*
X153141349Y-89611859D01*
X153185921Y-89579474D01*
X152506447Y-88900000D01*
X152512661Y-88900000D01*
X152614394Y-88872741D01*
X152705606Y-88820080D01*
X152780080Y-88745606D01*
X152832741Y-88654394D01*
X152860000Y-88552661D01*
X152860000Y-88546447D01*
X153539474Y-89225921D01*
X153571859Y-89181349D01*
X153664755Y-88999031D01*
X153727990Y-88804417D01*
X153760000Y-88602317D01*
X153760000Y-88397683D01*
X153759943Y-88397324D01*
X153759943Y-88397322D01*
X153757515Y-88381995D01*
X158619500Y-88381995D01*
X158619500Y-88618004D01*
X158619501Y-88618020D01*
X158650107Y-88850500D01*
X158650307Y-88852014D01*
X158684715Y-88980425D01*
X158711394Y-89079993D01*
X158801714Y-89298045D01*
X158801719Y-89298056D01*
X158872677Y-89420957D01*
X158919727Y-89502450D01*
X158919729Y-89502453D01*
X158919730Y-89502454D01*
X159063406Y-89689697D01*
X159063412Y-89689704D01*
X159230295Y-89856587D01*
X159230302Y-89856593D01*
X159311857Y-89919172D01*
X159417550Y-90000273D01*
X159504546Y-90050500D01*
X159621943Y-90118280D01*
X159621948Y-90118282D01*
X159621951Y-90118284D01*
X159840007Y-90208606D01*
X160067986Y-90269693D01*
X160301989Y-90300500D01*
X160301996Y-90300500D01*
X160538004Y-90300500D01*
X160538011Y-90300500D01*
X160772014Y-90269693D01*
X160999993Y-90208606D01*
X161218049Y-90118284D01*
X161422450Y-90000273D01*
X161609699Y-89856592D01*
X161776592Y-89689699D01*
X161920273Y-89502450D01*
X162038284Y-89298049D01*
X162128606Y-89079993D01*
X162189693Y-88852014D01*
X162220500Y-88618011D01*
X162220500Y-88381989D01*
X162189693Y-88147986D01*
X162128606Y-87920007D01*
X162111958Y-87879815D01*
X162088960Y-87824292D01*
X162070192Y-87778984D01*
X163699500Y-87778984D01*
X163699500Y-89221015D01*
X163705650Y-89309624D01*
X163705652Y-89309640D01*
X163754465Y-89517176D01*
X163754467Y-89517182D01*
X163754468Y-89517185D01*
X163840591Y-89712237D01*
X163878783Y-89767990D01*
X163961088Y-89888141D01*
X163961093Y-89888147D01*
X164111852Y-90038906D01*
X164111858Y-90038911D01*
X164287763Y-90159409D01*
X164482815Y-90245532D01*
X164482821Y-90245533D01*
X164482823Y-90245534D01*
X164690359Y-90294347D01*
X164690364Y-90294347D01*
X164690370Y-90294349D01*
X164739602Y-90297766D01*
X164778984Y-90300500D01*
X164778988Y-90300500D01*
X166221016Y-90300500D01*
X166256459Y-90298039D01*
X166309630Y-90294349D01*
X166309636Y-90294347D01*
X166309640Y-90294347D01*
X166517176Y-90245534D01*
X166517174Y-90245534D01*
X166517185Y-90245532D01*
X166712237Y-90159409D01*
X166888142Y-90038911D01*
X167038911Y-89888142D01*
X167159409Y-89712237D01*
X167245532Y-89517185D01*
X167285509Y-89347217D01*
X167294347Y-89309640D01*
X167294347Y-89309636D01*
X167294349Y-89309630D01*
X167300500Y-89221012D01*
X167300500Y-87778988D01*
X167300499Y-87778980D01*
X167294349Y-87690375D01*
X167294349Y-87690370D01*
X167277595Y-87619137D01*
X167281407Y-87549375D01*
X167290911Y-87528755D01*
X167317435Y-87482815D01*
X167329577Y-87461785D01*
X167370500Y-87309058D01*
X167370500Y-87150943D01*
X167370500Y-81793178D01*
X167390185Y-81726139D01*
X167394171Y-81720308D01*
X167422287Y-81681610D01*
X167515220Y-81499219D01*
X167578477Y-81304534D01*
X167610500Y-81102352D01*
X167610500Y-80897648D01*
X167602257Y-80845606D01*
X167578477Y-80695465D01*
X167547458Y-80600000D01*
X167515220Y-80500781D01*
X167515218Y-80500778D01*
X167515218Y-80500776D01*
X167481503Y-80434607D01*
X167422287Y-80318390D01*
X167395201Y-80281109D01*
X167301971Y-80152786D01*
X167157213Y-80008028D01*
X166991613Y-79887715D01*
X166991612Y-79887714D01*
X166991610Y-79887713D01*
X166934653Y-79858691D01*
X166809223Y-79794781D01*
X166614534Y-79731522D01*
X166439995Y-79703878D01*
X166412352Y-79699500D01*
X166207648Y-79699500D01*
X166183329Y-79703351D01*
X166005465Y-79731522D01*
X165810776Y-79794781D01*
X165628386Y-79887715D01*
X165462786Y-80008028D01*
X165318028Y-80152786D01*
X165197715Y-80318386D01*
X165104781Y-80500776D01*
X165041522Y-80695465D01*
X165009500Y-80897648D01*
X165009500Y-81102351D01*
X165041522Y-81304534D01*
X165104781Y-81499223D01*
X165145935Y-81579990D01*
X165197585Y-81681359D01*
X165197715Y-81681613D01*
X165318028Y-81847213D01*
X165462786Y-81991971D01*
X165583226Y-82079474D01*
X165628390Y-82112287D01*
X165709499Y-82153614D01*
X165810776Y-82205218D01*
X165810778Y-82205218D01*
X165810781Y-82205220D01*
X165885818Y-82229601D01*
X166005465Y-82268477D01*
X166064897Y-82277890D01*
X166128032Y-82307819D01*
X166164964Y-82367130D01*
X166169500Y-82400363D01*
X166169500Y-86575500D01*
X166149815Y-86642539D01*
X166097011Y-86688294D01*
X166045500Y-86699500D01*
X164778984Y-86699500D01*
X164690375Y-86705650D01*
X164690359Y-86705652D01*
X164482823Y-86754465D01*
X164482817Y-86754467D01*
X164482815Y-86754468D01*
X164308140Y-86831594D01*
X164287761Y-86840592D01*
X164111858Y-86961088D01*
X164111852Y-86961093D01*
X163961093Y-87111852D01*
X163961088Y-87111858D01*
X163840592Y-87287761D01*
X163840591Y-87287763D01*
X163757834Y-87475193D01*
X163754469Y-87482813D01*
X163754465Y-87482823D01*
X163705652Y-87690359D01*
X163705650Y-87690375D01*
X163699500Y-87778984D01*
X162070192Y-87778984D01*
X162038285Y-87701954D01*
X162038280Y-87701943D01*
X161990474Y-87619141D01*
X161920273Y-87497550D01*
X161776592Y-87310301D01*
X161776587Y-87310295D01*
X161609704Y-87143412D01*
X161609697Y-87143406D01*
X161422454Y-86999730D01*
X161422453Y-86999729D01*
X161422450Y-86999727D01*
X161323962Y-86942865D01*
X161218056Y-86881719D01*
X161218049Y-86881716D01*
X161097046Y-86831594D01*
X161042643Y-86787752D01*
X161020579Y-86721458D01*
X161020500Y-86717033D01*
X161020500Y-86009060D01*
X161020501Y-86009047D01*
X161020501Y-85840944D01*
X161017506Y-85829765D01*
X160979577Y-85688216D01*
X160945496Y-85629185D01*
X160900524Y-85551290D01*
X160900518Y-85551282D01*
X160834573Y-85485337D01*
X160801088Y-85424014D01*
X160800637Y-85421847D01*
X160769738Y-85266510D01*
X160769737Y-85266503D01*
X160717701Y-85140875D01*
X160709397Y-85120827D01*
X160709390Y-85120814D01*
X160621789Y-84989711D01*
X160621786Y-84989707D01*
X160510292Y-84878213D01*
X160510288Y-84878210D01*
X160379185Y-84790609D01*
X160379172Y-84790602D01*
X160233501Y-84730264D01*
X160233489Y-84730261D01*
X160078845Y-84699500D01*
X160078842Y-84699500D01*
X159921158Y-84699500D01*
X159921155Y-84699500D01*
X159766510Y-84730261D01*
X159766498Y-84730264D01*
X159620827Y-84790602D01*
X159620814Y-84790609D01*
X159489711Y-84878210D01*
X159489707Y-84878213D01*
X159378213Y-84989707D01*
X159378210Y-84989711D01*
X159290609Y-85120814D01*
X159290602Y-85120827D01*
X159230264Y-85266498D01*
X159230261Y-85266510D01*
X159199500Y-85421153D01*
X159199500Y-85578846D01*
X159230261Y-85733489D01*
X159230264Y-85733501D01*
X159290602Y-85879172D01*
X159290609Y-85879185D01*
X159378210Y-86010288D01*
X159378213Y-86010292D01*
X159489707Y-86121786D01*
X159489711Y-86121789D01*
X159620814Y-86209390D01*
X159620827Y-86209397D01*
X159742952Y-86259982D01*
X159797356Y-86303822D01*
X159819421Y-86370116D01*
X159819500Y-86374543D01*
X159819500Y-86717033D01*
X159799815Y-86784072D01*
X159747011Y-86829827D01*
X159742954Y-86831594D01*
X159621950Y-86881716D01*
X159621943Y-86881719D01*
X159449082Y-86981522D01*
X159420166Y-86998217D01*
X159417545Y-86999730D01*
X159230302Y-87143406D01*
X159230295Y-87143412D01*
X159063412Y-87310295D01*
X159063406Y-87310302D01*
X158919730Y-87497545D01*
X158801719Y-87701943D01*
X158801714Y-87701954D01*
X158711394Y-87920006D01*
X158650306Y-88147989D01*
X158619501Y-88381979D01*
X158619500Y-88381995D01*
X153757515Y-88381995D01*
X153727990Y-88195582D01*
X153664755Y-88000968D01*
X153571859Y-87818650D01*
X153539474Y-87774077D01*
X153539474Y-87774076D01*
X152860000Y-88453551D01*
X152860000Y-88447339D01*
X152832741Y-88345606D01*
X152780080Y-88254394D01*
X152705606Y-88179920D01*
X152614394Y-88127259D01*
X152512661Y-88100000D01*
X152506446Y-88100000D01*
X153185922Y-87420524D01*
X153185921Y-87420523D01*
X153141359Y-87388147D01*
X153141350Y-87388141D01*
X152959031Y-87295244D01*
X152764417Y-87232009D01*
X152562317Y-87200000D01*
X152357683Y-87200000D01*
X152155582Y-87232009D01*
X151960968Y-87295244D01*
X151778644Y-87388143D01*
X151734077Y-87420523D01*
X151734077Y-87420524D01*
X152413554Y-88100000D01*
X152407339Y-88100000D01*
X152305606Y-88127259D01*
X152214394Y-88179920D01*
X152139920Y-88254394D01*
X152087259Y-88345606D01*
X152060000Y-88447339D01*
X152060000Y-88453553D01*
X151380524Y-87774077D01*
X151380523Y-87774077D01*
X151348143Y-87818644D01*
X151255244Y-88000968D01*
X151192009Y-88195582D01*
X151160000Y-88397682D01*
X146140500Y-88397682D01*
X146140500Y-88397648D01*
X146132257Y-88345606D01*
X146108477Y-88195465D01*
X146077458Y-88100000D01*
X146045220Y-88000781D01*
X146045218Y-88000778D01*
X146045218Y-88000776D01*
X146011503Y-87934607D01*
X145952287Y-87818390D01*
X145924391Y-87779994D01*
X145831971Y-87652786D01*
X145687213Y-87508028D01*
X145521613Y-87387715D01*
X145521612Y-87387714D01*
X145521610Y-87387713D01*
X145464653Y-87358691D01*
X145339223Y-87294781D01*
X145144534Y-87231522D01*
X144969995Y-87203878D01*
X144942352Y-87199500D01*
X144737648Y-87199500D01*
X144713329Y-87203351D01*
X144535465Y-87231522D01*
X144340776Y-87294781D01*
X144158386Y-87387715D01*
X143992786Y-87508028D01*
X143848028Y-87652786D01*
X143727715Y-87818385D01*
X143720883Y-87831795D01*
X143672909Y-87882591D01*
X143610398Y-87899500D01*
X138964454Y-87899500D01*
X138897415Y-87879815D01*
X138851660Y-87827011D01*
X138840835Y-87781118D01*
X138840649Y-87781131D01*
X138840570Y-87779994D01*
X138840529Y-87779820D01*
X138840500Y-87779008D01*
X138840500Y-87778988D01*
X138834349Y-87690370D01*
X138834347Y-87690364D01*
X138834347Y-87690359D01*
X138785534Y-87482823D01*
X138785531Y-87482813D01*
X138785530Y-87482810D01*
X138699409Y-87287763D01*
X138578911Y-87111858D01*
X138578906Y-87111852D01*
X138428147Y-86961093D01*
X138428141Y-86961088D01*
X138252238Y-86840592D01*
X138252239Y-86840592D01*
X138252237Y-86840591D01*
X138057185Y-86754468D01*
X138057183Y-86754467D01*
X138057182Y-86754467D01*
X138057176Y-86754465D01*
X137849640Y-86705652D01*
X137849624Y-86705650D01*
X137761019Y-86699500D01*
X137760180Y-86699471D01*
X137760069Y-86699434D01*
X137758869Y-86699351D01*
X137758890Y-86699042D01*
X137693867Y-86677463D01*
X137649980Y-86623097D01*
X137640500Y-86575546D01*
X137640500Y-86460945D01*
X137640500Y-86460943D01*
X137599577Y-86308216D01*
X137583447Y-86280278D01*
X137520524Y-86171290D01*
X137520521Y-86171286D01*
X137520520Y-86171284D01*
X137408716Y-86059480D01*
X137408715Y-86059479D01*
X137404385Y-86055149D01*
X137404374Y-86055139D01*
X134176819Y-82827584D01*
X134143334Y-82766261D01*
X134140500Y-82739903D01*
X134140500Y-72629060D01*
X134140501Y-72629047D01*
X134140501Y-72460944D01*
X134140501Y-72460943D01*
X134099577Y-72308216D01*
X134068546Y-72254468D01*
X134020524Y-72171290D01*
X134020518Y-72171282D01*
X131096819Y-69247583D01*
X131063334Y-69186260D01*
X131060500Y-69159902D01*
X131060500Y-67285718D01*
X131080185Y-67218679D01*
X131128207Y-67175233D01*
X131167815Y-67155052D01*
X131167815Y-67155051D01*
X131167816Y-67155051D01*
X131268777Y-67081699D01*
X131339786Y-67030109D01*
X131339788Y-67030106D01*
X131339792Y-67030104D01*
X131490104Y-66879792D01*
X131490106Y-66879788D01*
X131490109Y-66879786D01*
X131615048Y-66707820D01*
X131615047Y-66707820D01*
X131615051Y-66707816D01*
X131619514Y-66699054D01*
X131667488Y-66648259D01*
X131735308Y-66631463D01*
X131801444Y-66653999D01*
X131840486Y-66699056D01*
X131844951Y-66707820D01*
X131969890Y-66879786D01*
X132120213Y-67030109D01*
X132292184Y-67155051D01*
X132292184Y-67155052D01*
X132331793Y-67175233D01*
X132382590Y-67223206D01*
X132399500Y-67285718D01*
X132399500Y-68413330D01*
X132399499Y-68413348D01*
X132399499Y-68579054D01*
X132399498Y-68579054D01*
X132399499Y-68579057D01*
X132440423Y-68731785D01*
X132440424Y-68731786D01*
X132454434Y-68756054D01*
X132454435Y-68756055D01*
X132519475Y-68868709D01*
X132519481Y-68868717D01*
X132638349Y-68987585D01*
X132638355Y-68987590D01*
X134863181Y-71212416D01*
X134896666Y-71273739D01*
X134899500Y-71300097D01*
X134899500Y-76413330D01*
X134899499Y-76413348D01*
X134899499Y-76579054D01*
X134899498Y-76579054D01*
X134899499Y-76579057D01*
X134940423Y-76731785D01*
X134960468Y-76766503D01*
X134999809Y-76834645D01*
X135019479Y-76868715D01*
X135138349Y-76987585D01*
X135138355Y-76987590D01*
X137973651Y-79822886D01*
X138007136Y-79884209D01*
X138002152Y-79953901D01*
X137965978Y-80004276D01*
X137966486Y-80004870D01*
X137962778Y-80008036D01*
X137818028Y-80152786D01*
X137697715Y-80318386D01*
X137604781Y-80500776D01*
X137541522Y-80695465D01*
X137509500Y-80897648D01*
X137509500Y-81102351D01*
X137541522Y-81304534D01*
X137604781Y-81499223D01*
X137645935Y-81579990D01*
X137697585Y-81681359D01*
X137697715Y-81681613D01*
X137818028Y-81847213D01*
X137962786Y-81991971D01*
X138083226Y-82079474D01*
X138128390Y-82112287D01*
X138209499Y-82153614D01*
X138310776Y-82205218D01*
X138310778Y-82205218D01*
X138310781Y-82205220D01*
X138385818Y-82229601D01*
X138505465Y-82268477D01*
X138564896Y-82277890D01*
X138707648Y-82300500D01*
X138707649Y-82300500D01*
X138912351Y-82300500D01*
X138912352Y-82300500D01*
X139114534Y-82268477D01*
X139309219Y-82205220D01*
X139491610Y-82112287D01*
X139622512Y-82017182D01*
X139657213Y-81991971D01*
X139657215Y-81991968D01*
X139657219Y-81991966D01*
X139801966Y-81847219D01*
X139801968Y-81847215D01*
X139801971Y-81847213D01*
X139922284Y-81681614D01*
X139922286Y-81681611D01*
X139922287Y-81681610D01*
X139929117Y-81668204D01*
X139977091Y-81617409D01*
X140039602Y-81600500D01*
X144345546Y-81600500D01*
X144412585Y-81620185D01*
X144458340Y-81672989D01*
X144469164Y-81718881D01*
X144469351Y-81718869D01*
X144469429Y-81720005D01*
X144469471Y-81720180D01*
X144469500Y-81721019D01*
X144475650Y-81809624D01*
X144475652Y-81809640D01*
X144524465Y-82017176D01*
X144524467Y-82017182D01*
X144524468Y-82017185D01*
X144610591Y-82212237D01*
X144666141Y-82293330D01*
X144731088Y-82388141D01*
X144731093Y-82388147D01*
X144881852Y-82538906D01*
X144881858Y-82538911D01*
X145057763Y-82659409D01*
X145252815Y-82745532D01*
X145252821Y-82745533D01*
X145252823Y-82745534D01*
X145460359Y-82794347D01*
X145460364Y-82794347D01*
X145460370Y-82794349D01*
X145509602Y-82797766D01*
X145548984Y-82800500D01*
X145548988Y-82800500D01*
X146991016Y-82800500D01*
X147026459Y-82798039D01*
X147079630Y-82794349D01*
X147079636Y-82794347D01*
X147079640Y-82794347D01*
X147235468Y-82757695D01*
X147287185Y-82745532D01*
X147482237Y-82659409D01*
X147658142Y-82538911D01*
X147808911Y-82388142D01*
X147929409Y-82212237D01*
X148015532Y-82017185D01*
X148055508Y-81847219D01*
X148064347Y-81809640D01*
X148064347Y-81809636D01*
X148064349Y-81809630D01*
X148070500Y-81721012D01*
X148070500Y-80881995D01*
X149549500Y-80881995D01*
X149549500Y-81118004D01*
X149549501Y-81118020D01*
X149580306Y-81352010D01*
X149641394Y-81579993D01*
X149731714Y-81798045D01*
X149731719Y-81798056D01*
X149760104Y-81847219D01*
X149849727Y-82002450D01*
X149849729Y-82002453D01*
X149849730Y-82002454D01*
X149993406Y-82189697D01*
X149993412Y-82189704D01*
X150160295Y-82356587D01*
X150160302Y-82356593D01*
X150238096Y-82416286D01*
X150347550Y-82500273D01*
X150462522Y-82566652D01*
X150551943Y-82618280D01*
X150551959Y-82618288D01*
X150632827Y-82651784D01*
X150673756Y-82668737D01*
X150728160Y-82712577D01*
X150747001Y-82761311D01*
X150747396Y-82761206D01*
X150748379Y-82764876D01*
X150749243Y-82767110D01*
X150749499Y-82769054D01*
X150749499Y-82769057D01*
X150790423Y-82921785D01*
X150805433Y-82947782D01*
X150845867Y-83017816D01*
X150869479Y-83058715D01*
X150988349Y-83177585D01*
X150988355Y-83177590D01*
X151325425Y-83514660D01*
X151358910Y-83575983D01*
X151359361Y-83578149D01*
X151390261Y-83733491D01*
X151390264Y-83733501D01*
X151450602Y-83879172D01*
X151450609Y-83879185D01*
X151538210Y-84010288D01*
X151538213Y-84010292D01*
X151649707Y-84121786D01*
X151649711Y-84121789D01*
X151780814Y-84209390D01*
X151780827Y-84209397D01*
X151926498Y-84269735D01*
X151926503Y-84269737D01*
X152081153Y-84300499D01*
X152081156Y-84300500D01*
X152081158Y-84300500D01*
X152238844Y-84300500D01*
X152238845Y-84300499D01*
X152393497Y-84269737D01*
X152539179Y-84209394D01*
X152670289Y-84121789D01*
X152781789Y-84010289D01*
X152869394Y-83879179D01*
X152929737Y-83733497D01*
X152960500Y-83578842D01*
X152960500Y-83421158D01*
X152960500Y-83421155D01*
X152960499Y-83421153D01*
X152929737Y-83266503D01*
X152897960Y-83189786D01*
X152869397Y-83120827D01*
X152869390Y-83120814D01*
X152781789Y-82989711D01*
X152781786Y-82989707D01*
X152670292Y-82878213D01*
X152670288Y-82878210D01*
X152539185Y-82790609D01*
X152539172Y-82790602D01*
X152393501Y-82730264D01*
X152393493Y-82730262D01*
X152389809Y-82729529D01*
X152388059Y-82728613D01*
X152387665Y-82728494D01*
X152387687Y-82728419D01*
X152327901Y-82697139D01*
X152293331Y-82636421D01*
X152297075Y-82566652D01*
X152337945Y-82509983D01*
X152352007Y-82500528D01*
X152352450Y-82500273D01*
X152539699Y-82356592D01*
X152706592Y-82189699D01*
X152850273Y-82002450D01*
X152968284Y-81798049D01*
X153058606Y-81579993D01*
X153119693Y-81352014D01*
X153150500Y-81118011D01*
X153150500Y-80897682D01*
X157390000Y-80897682D01*
X157390000Y-81102317D01*
X157422009Y-81304417D01*
X157485244Y-81499031D01*
X157578141Y-81681350D01*
X157578147Y-81681359D01*
X157610523Y-81725921D01*
X157610524Y-81725922D01*
X158290000Y-81046446D01*
X158290000Y-81052661D01*
X158317259Y-81154394D01*
X158369920Y-81245606D01*
X158444394Y-81320080D01*
X158535606Y-81372741D01*
X158637339Y-81400000D01*
X158643553Y-81400000D01*
X157964076Y-82079474D01*
X158008650Y-82111859D01*
X158190968Y-82204755D01*
X158385582Y-82267990D01*
X158587683Y-82300000D01*
X158792317Y-82300000D01*
X158994417Y-82267990D01*
X159189031Y-82204755D01*
X159371349Y-82111859D01*
X159415921Y-82079474D01*
X158736447Y-81400000D01*
X158742661Y-81400000D01*
X158844394Y-81372741D01*
X158935606Y-81320080D01*
X159010080Y-81245606D01*
X159062741Y-81154394D01*
X159090000Y-81052661D01*
X159090000Y-81046447D01*
X159769474Y-81725921D01*
X159801859Y-81681349D01*
X159894755Y-81499031D01*
X159957990Y-81304417D01*
X159990000Y-81102317D01*
X159990000Y-80897682D01*
X159957990Y-80695582D01*
X159894755Y-80500968D01*
X159801859Y-80318650D01*
X159769474Y-80274077D01*
X159769474Y-80274076D01*
X159090000Y-80953551D01*
X159090000Y-80947339D01*
X159062741Y-80845606D01*
X159010080Y-80754394D01*
X158935606Y-80679920D01*
X158844394Y-80627259D01*
X158742661Y-80600000D01*
X158736446Y-80600000D01*
X159415922Y-79920524D01*
X159415921Y-79920523D01*
X159371359Y-79888147D01*
X159371350Y-79888141D01*
X159189031Y-79795244D01*
X158994417Y-79732009D01*
X158792317Y-79700000D01*
X158587683Y-79700000D01*
X158385582Y-79732009D01*
X158190968Y-79795244D01*
X158008644Y-79888143D01*
X157964077Y-79920523D01*
X157964077Y-79920524D01*
X158643554Y-80600000D01*
X158637339Y-80600000D01*
X158535606Y-80627259D01*
X158444394Y-80679920D01*
X158369920Y-80754394D01*
X158317259Y-80845606D01*
X158290000Y-80947339D01*
X158290000Y-80953553D01*
X157610524Y-80274077D01*
X157610523Y-80274077D01*
X157578143Y-80318644D01*
X157485244Y-80500968D01*
X157422009Y-80695582D01*
X157390000Y-80897682D01*
X153150500Y-80897682D01*
X153150500Y-80881989D01*
X153119693Y-80647986D01*
X153058606Y-80420007D01*
X152968284Y-80201951D01*
X152850273Y-79997550D01*
X152765992Y-79887713D01*
X152706593Y-79810302D01*
X152706587Y-79810295D01*
X152539704Y-79643412D01*
X152539697Y-79643406D01*
X152352454Y-79499730D01*
X152352453Y-79499729D01*
X152352450Y-79499727D01*
X152251224Y-79441284D01*
X152148056Y-79381719D01*
X152148045Y-79381714D01*
X151929993Y-79291394D01*
X151792180Y-79254467D01*
X151702014Y-79230307D01*
X151702013Y-79230306D01*
X151702010Y-79230306D01*
X151468020Y-79199501D01*
X151468017Y-79199500D01*
X151468011Y-79199500D01*
X151231989Y-79199500D01*
X151231983Y-79199500D01*
X151231979Y-79199501D01*
X150997989Y-79230306D01*
X150770006Y-79291394D01*
X150551954Y-79381714D01*
X150551943Y-79381719D01*
X150347545Y-79499730D01*
X150160302Y-79643406D01*
X150160295Y-79643412D01*
X149993412Y-79810295D01*
X149993406Y-79810302D01*
X149849730Y-79997545D01*
X149731719Y-80201943D01*
X149731714Y-80201954D01*
X149641394Y-80420006D01*
X149580306Y-80647989D01*
X149549501Y-80881979D01*
X149549500Y-80881995D01*
X148070500Y-80881995D01*
X148070500Y-80278988D01*
X148070499Y-80278980D01*
X148064349Y-80190375D01*
X148064349Y-80190370D01*
X148064347Y-80190364D01*
X148064347Y-80190359D01*
X148015534Y-79982823D01*
X148015532Y-79982817D01*
X148015532Y-79982815D01*
X147929409Y-79787763D01*
X147808911Y-79611858D01*
X147808906Y-79611852D01*
X147658147Y-79461093D01*
X147658141Y-79461088D01*
X147482238Y-79340592D01*
X147482239Y-79340592D01*
X147482237Y-79340591D01*
X147287185Y-79254468D01*
X147287183Y-79254467D01*
X147287182Y-79254467D01*
X147287176Y-79254465D01*
X147079640Y-79205652D01*
X147079624Y-79205650D01*
X146991016Y-79199500D01*
X146991012Y-79199500D01*
X145548988Y-79199500D01*
X145548984Y-79199500D01*
X145460375Y-79205650D01*
X145460359Y-79205652D01*
X145252823Y-79254465D01*
X145252817Y-79254467D01*
X145057761Y-79340592D01*
X144881858Y-79461088D01*
X144881852Y-79461093D01*
X144731093Y-79611852D01*
X144731088Y-79611858D01*
X144622759Y-79770000D01*
X144610591Y-79787763D01*
X144584707Y-79846385D01*
X144524467Y-79982817D01*
X144524465Y-79982823D01*
X144475652Y-80190359D01*
X144475650Y-80190375D01*
X144469500Y-80278980D01*
X144469471Y-80279820D01*
X144469434Y-80279930D01*
X144469351Y-80281131D01*
X144469042Y-80281109D01*
X144447463Y-80346133D01*
X144393097Y-80390020D01*
X144345546Y-80399500D01*
X140039602Y-80399500D01*
X139972563Y-80379815D01*
X139929117Y-80331795D01*
X139922284Y-80318385D01*
X139801971Y-80152786D01*
X139657213Y-80008028D01*
X139491613Y-79887714D01*
X139478204Y-79880882D01*
X139427409Y-79832906D01*
X139410501Y-79770398D01*
X139410501Y-79730945D01*
X139410501Y-79730943D01*
X139369577Y-79578215D01*
X139340639Y-79528095D01*
X139290520Y-79441284D01*
X139178716Y-79329480D01*
X139178715Y-79329479D01*
X139174385Y-79325149D01*
X139174374Y-79325139D01*
X136136819Y-76287584D01*
X136103334Y-76226261D01*
X136100500Y-76199903D01*
X136100500Y-73897682D01*
X137010000Y-73897682D01*
X137010000Y-74102317D01*
X137042009Y-74304417D01*
X137105244Y-74499031D01*
X137198141Y-74681350D01*
X137198147Y-74681359D01*
X137230523Y-74725921D01*
X137230524Y-74725922D01*
X137910000Y-74046446D01*
X137910000Y-74052661D01*
X137937259Y-74154394D01*
X137989920Y-74245606D01*
X138064394Y-74320080D01*
X138155606Y-74372741D01*
X138257339Y-74400000D01*
X138263553Y-74400000D01*
X137584076Y-75079474D01*
X137628650Y-75111859D01*
X137810968Y-75204755D01*
X138005582Y-75267990D01*
X138207683Y-75300000D01*
X138412317Y-75300000D01*
X138614417Y-75267990D01*
X138809031Y-75204755D01*
X138991349Y-75111859D01*
X139035921Y-75079474D01*
X138356447Y-74400000D01*
X138362661Y-74400000D01*
X138464394Y-74372741D01*
X138555606Y-74320080D01*
X138630080Y-74245606D01*
X138682741Y-74154394D01*
X138710000Y-74052661D01*
X138710000Y-74046447D01*
X139389474Y-74725921D01*
X139421859Y-74681349D01*
X139514755Y-74499031D01*
X139577990Y-74304417D01*
X139610000Y-74102317D01*
X139610000Y-73897683D01*
X139609943Y-73897324D01*
X139609943Y-73897322D01*
X139607515Y-73881995D01*
X144159500Y-73881995D01*
X144159500Y-74118004D01*
X144159501Y-74118020D01*
X144186102Y-74320080D01*
X144190307Y-74352014D01*
X144200134Y-74388690D01*
X144251394Y-74579993D01*
X144341714Y-74798045D01*
X144341719Y-74798056D01*
X144399349Y-74897872D01*
X144459727Y-75002450D01*
X144459729Y-75002453D01*
X144459730Y-75002454D01*
X144603406Y-75189697D01*
X144603412Y-75189704D01*
X144770295Y-75356587D01*
X144770302Y-75356593D01*
X144878908Y-75439929D01*
X144957550Y-75500273D01*
X145161951Y-75618284D01*
X145161956Y-75618286D01*
X145161962Y-75618289D01*
X145282952Y-75668404D01*
X145337356Y-75712244D01*
X145359421Y-75778538D01*
X145359500Y-75782965D01*
X145359500Y-76102044D01*
X145339815Y-76169083D01*
X145287011Y-76214838D01*
X145259691Y-76223661D01*
X145226510Y-76230261D01*
X145226498Y-76230264D01*
X145080827Y-76290602D01*
X145080814Y-76290609D01*
X144949711Y-76378210D01*
X144949707Y-76378213D01*
X144838213Y-76489707D01*
X144838210Y-76489711D01*
X144750609Y-76620814D01*
X144750602Y-76620827D01*
X144690264Y-76766498D01*
X144690261Y-76766510D01*
X144659500Y-76921153D01*
X144659500Y-77078846D01*
X144690261Y-77233489D01*
X144690264Y-77233501D01*
X144750602Y-77379172D01*
X144750609Y-77379185D01*
X144838210Y-77510288D01*
X144838213Y-77510292D01*
X144949707Y-77621786D01*
X144949711Y-77621789D01*
X145080814Y-77709390D01*
X145080827Y-77709397D01*
X145175024Y-77748414D01*
X145226503Y-77769737D01*
X145381153Y-77800499D01*
X145381156Y-77800500D01*
X145381158Y-77800500D01*
X145538844Y-77800500D01*
X145538845Y-77800499D01*
X145693497Y-77769737D01*
X145839179Y-77709394D01*
X145970289Y-77621789D01*
X146081789Y-77510289D01*
X146169394Y-77379179D01*
X146229737Y-77233497D01*
X146251575Y-77123713D01*
X146260638Y-77078151D01*
X146293023Y-77016240D01*
X146294510Y-77014724D01*
X146440520Y-76868716D01*
X146519577Y-76731784D01*
X146560501Y-76579057D01*
X146560501Y-76420942D01*
X146560501Y-76413339D01*
X146560500Y-76413329D01*
X146560500Y-75782965D01*
X146580185Y-75715926D01*
X146632989Y-75670171D01*
X146637048Y-75668404D01*
X146758037Y-75618289D01*
X146758037Y-75618288D01*
X146758049Y-75618284D01*
X146962450Y-75500273D01*
X147149699Y-75356592D01*
X147316592Y-75189699D01*
X147460273Y-75002450D01*
X147576869Y-74800500D01*
X147578280Y-74798056D01*
X147578280Y-74798055D01*
X147578284Y-74798049D01*
X147668606Y-74579993D01*
X147729693Y-74352014D01*
X147760500Y-74118011D01*
X147760500Y-73881989D01*
X147729693Y-73647986D01*
X147668606Y-73420007D01*
X147578284Y-73201951D01*
X147578282Y-73201948D01*
X147578280Y-73201943D01*
X147536118Y-73128918D01*
X147460273Y-72997550D01*
X147316592Y-72810301D01*
X147316587Y-72810295D01*
X147149704Y-72643412D01*
X147149697Y-72643406D01*
X146962454Y-72499730D01*
X146962453Y-72499729D01*
X146962450Y-72499727D01*
X146880957Y-72452677D01*
X146758056Y-72381719D01*
X146758045Y-72381714D01*
X146539993Y-72291394D01*
X146402180Y-72254467D01*
X146312014Y-72230307D01*
X146312013Y-72230306D01*
X146312010Y-72230306D01*
X146078020Y-72199501D01*
X146078017Y-72199500D01*
X146078011Y-72199500D01*
X145841989Y-72199500D01*
X145841983Y-72199500D01*
X145841979Y-72199501D01*
X145607989Y-72230306D01*
X145380006Y-72291394D01*
X145161954Y-72381714D01*
X145161943Y-72381719D01*
X144957545Y-72499730D01*
X144770302Y-72643406D01*
X144770295Y-72643412D01*
X144603412Y-72810295D01*
X144603406Y-72810302D01*
X144459730Y-72997545D01*
X144341719Y-73201943D01*
X144341714Y-73201954D01*
X144251394Y-73420006D01*
X144190306Y-73647989D01*
X144159501Y-73881979D01*
X144159500Y-73881995D01*
X139607515Y-73881995D01*
X139577990Y-73695582D01*
X139514755Y-73500968D01*
X139421859Y-73318650D01*
X139389474Y-73274077D01*
X139389474Y-73274076D01*
X138710000Y-73953551D01*
X138710000Y-73947339D01*
X138682741Y-73845606D01*
X138630080Y-73754394D01*
X138555606Y-73679920D01*
X138464394Y-73627259D01*
X138362661Y-73600000D01*
X138356446Y-73600000D01*
X139035922Y-72920524D01*
X139035921Y-72920523D01*
X138991359Y-72888147D01*
X138991350Y-72888141D01*
X138809031Y-72795244D01*
X138614417Y-72732009D01*
X138412317Y-72700000D01*
X138207683Y-72700000D01*
X138005582Y-72732009D01*
X137810968Y-72795244D01*
X137628644Y-72888143D01*
X137584077Y-72920523D01*
X137584077Y-72920524D01*
X138263554Y-73600000D01*
X138257339Y-73600000D01*
X138155606Y-73627259D01*
X138064394Y-73679920D01*
X137989920Y-73754394D01*
X137937259Y-73845606D01*
X137910000Y-73947339D01*
X137910000Y-73953553D01*
X137230524Y-73274077D01*
X137230523Y-73274077D01*
X137198143Y-73318644D01*
X137105244Y-73500968D01*
X137042009Y-73695582D01*
X137010000Y-73897682D01*
X136100500Y-73897682D01*
X136100500Y-71089059D01*
X136100501Y-71089046D01*
X136100501Y-70920945D01*
X136100501Y-70920943D01*
X136059577Y-70768215D01*
X136030639Y-70718095D01*
X135980520Y-70631284D01*
X135868716Y-70519480D01*
X135868715Y-70519479D01*
X135864385Y-70515149D01*
X135864374Y-70515139D01*
X133636819Y-68287584D01*
X133603334Y-68226261D01*
X133600500Y-68199903D01*
X133600500Y-67285718D01*
X133620185Y-67218679D01*
X133668207Y-67175233D01*
X133707815Y-67155052D01*
X133707815Y-67155051D01*
X133707816Y-67155051D01*
X133808777Y-67081699D01*
X133879786Y-67030109D01*
X133879788Y-67030106D01*
X133879792Y-67030104D01*
X134030104Y-66879792D01*
X134030106Y-66879788D01*
X134030109Y-66879786D01*
X134155048Y-66707820D01*
X134155047Y-66707820D01*
X134155051Y-66707816D01*
X134159514Y-66699054D01*
X134207488Y-66648259D01*
X134275308Y-66631463D01*
X134341444Y-66653999D01*
X134380486Y-66699056D01*
X134384951Y-66707820D01*
X134509890Y-66879786D01*
X134660213Y-67030109D01*
X134832179Y-67155048D01*
X134832181Y-67155049D01*
X134832184Y-67155051D01*
X135021588Y-67251557D01*
X135223757Y-67317246D01*
X135433713Y-67350500D01*
X135433714Y-67350500D01*
X135646286Y-67350500D01*
X135646287Y-67350500D01*
X135856243Y-67317246D01*
X136058412Y-67251557D01*
X136247816Y-67155051D01*
X136302572Y-67115269D01*
X136419786Y-67030109D01*
X136419788Y-67030106D01*
X136419792Y-67030104D01*
X136570104Y-66879792D01*
X136570106Y-66879788D01*
X136570109Y-66879786D01*
X136695048Y-66707820D01*
X136695047Y-66707820D01*
X136695051Y-66707816D01*
X136699514Y-66699054D01*
X136747488Y-66648259D01*
X136815308Y-66631463D01*
X136881444Y-66653999D01*
X136920486Y-66699056D01*
X136924951Y-66707820D01*
X137049890Y-66879786D01*
X137200213Y-67030109D01*
X137372179Y-67155048D01*
X137372181Y-67155049D01*
X137372184Y-67155051D01*
X137561588Y-67251557D01*
X137763757Y-67317246D01*
X137973713Y-67350500D01*
X137973714Y-67350500D01*
X138186286Y-67350500D01*
X138186287Y-67350500D01*
X138396243Y-67317246D01*
X138438523Y-67303507D01*
X138508362Y-67301511D01*
X138564522Y-67333757D01*
X142095139Y-70864374D01*
X142095149Y-70864385D01*
X142099479Y-70868715D01*
X142099480Y-70868716D01*
X142211284Y-70980520D01*
X142211286Y-70980521D01*
X142211290Y-70980524D01*
X142280394Y-71020421D01*
X142280398Y-71020422D01*
X142280399Y-71020423D01*
X142348213Y-71059576D01*
X142348214Y-71059576D01*
X142348215Y-71059577D01*
X142500943Y-71100501D01*
X142500946Y-71100501D01*
X142666653Y-71100501D01*
X142666669Y-71100500D01*
X149659903Y-71100500D01*
X149726942Y-71120185D01*
X149747584Y-71136819D01*
X150403181Y-71792416D01*
X150436666Y-71853739D01*
X150439500Y-71880097D01*
X150439500Y-72075546D01*
X150419815Y-72142585D01*
X150367011Y-72188340D01*
X150321118Y-72199164D01*
X150321131Y-72199351D01*
X150319994Y-72199429D01*
X150319820Y-72199471D01*
X150318980Y-72199500D01*
X150230375Y-72205650D01*
X150230359Y-72205652D01*
X150022823Y-72254465D01*
X150022817Y-72254467D01*
X149827761Y-72340592D01*
X149651858Y-72461088D01*
X149651852Y-72461093D01*
X149501093Y-72611852D01*
X149501088Y-72611858D01*
X149380592Y-72787761D01*
X149294467Y-72982817D01*
X149294465Y-72982823D01*
X149245652Y-73190359D01*
X149245650Y-73190375D01*
X149239500Y-73278984D01*
X149239500Y-74721015D01*
X149245650Y-74809624D01*
X149245652Y-74809640D01*
X149294465Y-75017176D01*
X149294467Y-75017182D01*
X149294468Y-75017185D01*
X149380591Y-75212237D01*
X149380592Y-75212238D01*
X149501088Y-75388141D01*
X149501093Y-75388147D01*
X149651852Y-75538906D01*
X149651858Y-75538911D01*
X149827763Y-75659409D01*
X150022815Y-75745532D01*
X150022821Y-75745533D01*
X150022823Y-75745534D01*
X150230359Y-75794347D01*
X150230364Y-75794347D01*
X150230370Y-75794349D01*
X150279602Y-75797766D01*
X150318984Y-75800500D01*
X150318988Y-75800500D01*
X151761016Y-75800500D01*
X151790551Y-75798449D01*
X151849630Y-75794349D01*
X151892084Y-75784363D01*
X151961844Y-75788175D01*
X152008153Y-75817388D01*
X152555139Y-76364374D01*
X152555149Y-76364385D01*
X152559479Y-76368715D01*
X152559480Y-76368716D01*
X152671284Y-76480520D01*
X152671286Y-76480521D01*
X152671287Y-76480522D01*
X152687203Y-76489711D01*
X152743449Y-76522184D01*
X152808215Y-76559577D01*
X152960943Y-76600500D01*
X153119057Y-76600500D01*
X163683331Y-76600500D01*
X163683347Y-76600501D01*
X163690943Y-76600501D01*
X163849054Y-76600501D01*
X163849057Y-76600501D01*
X164001785Y-76559577D01*
X164066551Y-76522184D01*
X164138716Y-76480520D01*
X164250520Y-76368716D01*
X164250520Y-76368714D01*
X164260724Y-76358511D01*
X164260728Y-76358506D01*
X165325158Y-75294075D01*
X165386479Y-75260592D01*
X165451151Y-75263825D01*
X165465466Y-75268477D01*
X165667648Y-75300500D01*
X165667649Y-75300500D01*
X165872351Y-75300500D01*
X165872352Y-75300500D01*
X166074534Y-75268477D01*
X166269219Y-75205220D01*
X166451610Y-75112287D01*
X166582512Y-75017182D01*
X166617213Y-74991971D01*
X166617215Y-74991968D01*
X166617219Y-74991966D01*
X166761966Y-74847219D01*
X166761968Y-74847215D01*
X166761971Y-74847213D01*
X166818259Y-74769738D01*
X166882287Y-74681610D01*
X166975220Y-74499219D01*
X167038477Y-74304534D01*
X167070500Y-74102352D01*
X167070500Y-73897648D01*
X167053785Y-73792116D01*
X167038477Y-73695465D01*
X167006699Y-73597664D01*
X166975220Y-73500781D01*
X166975218Y-73500778D01*
X166975218Y-73500776D01*
X166941503Y-73434607D01*
X166882287Y-73318390D01*
X166863248Y-73292185D01*
X166761971Y-73152786D01*
X166617213Y-73008028D01*
X166451613Y-72887715D01*
X166451612Y-72887714D01*
X166451610Y-72887713D01*
X166367681Y-72844949D01*
X166269223Y-72794781D01*
X166074534Y-72731522D01*
X165899995Y-72703878D01*
X165872352Y-72699500D01*
X165667648Y-72699500D01*
X165643329Y-72703351D01*
X165465465Y-72731522D01*
X165270776Y-72794781D01*
X165088386Y-72887715D01*
X164922786Y-73008028D01*
X164778028Y-73152786D01*
X164657715Y-73318386D01*
X164564781Y-73500776D01*
X164501522Y-73695465D01*
X164469500Y-73897648D01*
X164469500Y-74102351D01*
X164501522Y-74304534D01*
X164506173Y-74318848D01*
X164508165Y-74388690D01*
X164475921Y-74444842D01*
X163557584Y-75363181D01*
X163496261Y-75396666D01*
X163469903Y-75399500D01*
X158783321Y-75399500D01*
X158716282Y-75379815D01*
X158670527Y-75327011D01*
X158660583Y-75257853D01*
X158689608Y-75194297D01*
X158727026Y-75165015D01*
X158831349Y-75111859D01*
X158875921Y-75079474D01*
X158196447Y-74400000D01*
X158202661Y-74400000D01*
X158304394Y-74372741D01*
X158395606Y-74320080D01*
X158470080Y-74245606D01*
X158522741Y-74154394D01*
X158550000Y-74052661D01*
X158550000Y-74046448D01*
X159229474Y-74725922D01*
X159229474Y-74725921D01*
X159261859Y-74681349D01*
X159354755Y-74499031D01*
X159417990Y-74304417D01*
X159450000Y-74102317D01*
X159450000Y-73897682D01*
X159417990Y-73695582D01*
X159354755Y-73500968D01*
X159261859Y-73318650D01*
X159229474Y-73274077D01*
X159229474Y-73274076D01*
X158550000Y-73953551D01*
X158550000Y-73947339D01*
X158522741Y-73845606D01*
X158470080Y-73754394D01*
X158395606Y-73679920D01*
X158304394Y-73627259D01*
X158202661Y-73600000D01*
X158196446Y-73600000D01*
X158875922Y-72920524D01*
X158875921Y-72920523D01*
X158831359Y-72888147D01*
X158831350Y-72888141D01*
X158649031Y-72795244D01*
X158454417Y-72732009D01*
X158252317Y-72700000D01*
X158047683Y-72700000D01*
X157845582Y-72732009D01*
X157650968Y-72795244D01*
X157468644Y-72888143D01*
X157424077Y-72920523D01*
X157424077Y-72920524D01*
X158103554Y-73600000D01*
X158097339Y-73600000D01*
X157995606Y-73627259D01*
X157904394Y-73679920D01*
X157829920Y-73754394D01*
X157777259Y-73845606D01*
X157750000Y-73947339D01*
X157750000Y-73953553D01*
X157070524Y-73274077D01*
X157070523Y-73274077D01*
X157038143Y-73318644D01*
X156945244Y-73500968D01*
X156882009Y-73695582D01*
X156850000Y-73897682D01*
X156850000Y-74102317D01*
X156882009Y-74304417D01*
X156945244Y-74499031D01*
X157038141Y-74681350D01*
X157038147Y-74681359D01*
X157070523Y-74725921D01*
X157070524Y-74725922D01*
X157750000Y-74046446D01*
X157750000Y-74052661D01*
X157777259Y-74154394D01*
X157829920Y-74245606D01*
X157904394Y-74320080D01*
X157995606Y-74372741D01*
X158097339Y-74400000D01*
X158103553Y-74400000D01*
X157424076Y-75079474D01*
X157468650Y-75111859D01*
X157572974Y-75165015D01*
X157623770Y-75212989D01*
X157640565Y-75280810D01*
X157618028Y-75346945D01*
X157563313Y-75390397D01*
X157516679Y-75399500D01*
X153340097Y-75399500D01*
X153273058Y-75379815D01*
X153252416Y-75363181D01*
X152857388Y-74968153D01*
X152823903Y-74906830D01*
X152824362Y-74852085D01*
X152834349Y-74809630D01*
X152840500Y-74721012D01*
X152840500Y-73278988D01*
X152834349Y-73190370D01*
X152834346Y-73190359D01*
X152788674Y-72996173D01*
X152788674Y-72996172D01*
X152788673Y-72996170D01*
X152785533Y-72982818D01*
X152785532Y-72982817D01*
X152785532Y-72982815D01*
X152699409Y-72787763D01*
X152578911Y-72611858D01*
X152578906Y-72611852D01*
X152428147Y-72461093D01*
X152428141Y-72461088D01*
X152252238Y-72340592D01*
X152252239Y-72340592D01*
X152252237Y-72340591D01*
X152057185Y-72254468D01*
X152057183Y-72254467D01*
X152057182Y-72254467D01*
X152057176Y-72254465D01*
X151849640Y-72205652D01*
X151849624Y-72205650D01*
X151761019Y-72199500D01*
X151760180Y-72199471D01*
X151760069Y-72199434D01*
X151758869Y-72199351D01*
X151758890Y-72199042D01*
X151693867Y-72177463D01*
X151649980Y-72123097D01*
X151640500Y-72075546D01*
X151640500Y-71669060D01*
X151640501Y-71669047D01*
X151640501Y-71500944D01*
X151599576Y-71348214D01*
X151599573Y-71348209D01*
X151520524Y-71211290D01*
X151520518Y-71211282D01*
X150447590Y-70138355D01*
X150447588Y-70138352D01*
X150328717Y-70019481D01*
X150328716Y-70019480D01*
X150241904Y-69969360D01*
X150241904Y-69969359D01*
X150241900Y-69969358D01*
X150191785Y-69940423D01*
X150039057Y-69899499D01*
X149880943Y-69899499D01*
X149873347Y-69899499D01*
X149873331Y-69899500D01*
X142880097Y-69899500D01*
X142813058Y-69879815D01*
X142792416Y-69863181D01*
X139413757Y-66484522D01*
X139380272Y-66423199D01*
X139383507Y-66358523D01*
X139397246Y-66316243D01*
X139430500Y-66106287D01*
X139430500Y-65893713D01*
X139397246Y-65683757D01*
X139370725Y-65602135D01*
X146029500Y-65602135D01*
X146029500Y-67397870D01*
X146029501Y-67397876D01*
X146035908Y-67457483D01*
X146086202Y-67592328D01*
X146086206Y-67592335D01*
X146172452Y-67707544D01*
X146172455Y-67707547D01*
X146287664Y-67793793D01*
X146287671Y-67793797D01*
X146422517Y-67844091D01*
X146422516Y-67844091D01*
X146429444Y-67844835D01*
X146482127Y-67850500D01*
X148277872Y-67850499D01*
X148337483Y-67844091D01*
X148472331Y-67793796D01*
X148587546Y-67707546D01*
X148673796Y-67592331D01*
X148724091Y-67457483D01*
X148730500Y-67397873D01*
X148730499Y-67373979D01*
X148733330Y-67360963D01*
X148743940Y-67341525D01*
X148750179Y-67320275D01*
X148766803Y-67299643D01*
X148766808Y-67299636D01*
X148766811Y-67299634D01*
X148766818Y-67299626D01*
X149437037Y-66629408D01*
X149454075Y-66692993D01*
X149519901Y-66807007D01*
X149612993Y-66900099D01*
X149727007Y-66965925D01*
X149790590Y-66982962D01*
X149158282Y-67615269D01*
X149158282Y-67615270D01*
X149212449Y-67654624D01*
X149401782Y-67751095D01*
X149603870Y-67816757D01*
X149813754Y-67850000D01*
X150026246Y-67850000D01*
X150236127Y-67816757D01*
X150236130Y-67816757D01*
X150438217Y-67751095D01*
X150627554Y-67654622D01*
X150681716Y-67615270D01*
X150681717Y-67615270D01*
X150049408Y-66982962D01*
X150112993Y-66965925D01*
X150227007Y-66900099D01*
X150320099Y-66807007D01*
X150385925Y-66692993D01*
X150402962Y-66629408D01*
X151035270Y-67261717D01*
X151035270Y-67261716D01*
X151074622Y-67207555D01*
X151079232Y-67198507D01*
X151127205Y-67147709D01*
X151195025Y-67130912D01*
X151261161Y-67153447D01*
X151300204Y-67198504D01*
X151304949Y-67207817D01*
X151429890Y-67379786D01*
X151580213Y-67530109D01*
X151752179Y-67655048D01*
X151752181Y-67655049D01*
X151752184Y-67655051D01*
X151941588Y-67751557D01*
X152143757Y-67817246D01*
X152353713Y-67850500D01*
X152353714Y-67850500D01*
X152566286Y-67850500D01*
X152566287Y-67850500D01*
X152776243Y-67817246D01*
X152978412Y-67751557D01*
X153167816Y-67655051D01*
X153222572Y-67615269D01*
X153339786Y-67530109D01*
X153339788Y-67530106D01*
X153339792Y-67530104D01*
X153490104Y-67379792D01*
X153490106Y-67379788D01*
X153490109Y-67379786D01*
X153615048Y-67207820D01*
X153615050Y-67207817D01*
X153615051Y-67207816D01*
X153711557Y-67018412D01*
X153777246Y-66816243D01*
X153810500Y-66606287D01*
X153810500Y-66393713D01*
X153808124Y-66378711D01*
X162149500Y-66378711D01*
X162149500Y-66621288D01*
X162180077Y-66853554D01*
X162181162Y-66861789D01*
X162190831Y-66897873D01*
X162243947Y-67096104D01*
X162336773Y-67320205D01*
X162336777Y-67320214D01*
X162353974Y-67350000D01*
X162458064Y-67530289D01*
X162458066Y-67530292D01*
X162458067Y-67530293D01*
X162605733Y-67722736D01*
X162605739Y-67722743D01*
X162777256Y-67894260D01*
X162777262Y-67894265D01*
X162969711Y-68041936D01*
X163179788Y-68163224D01*
X163403900Y-68256054D01*
X163638211Y-68318838D01*
X163818586Y-68342584D01*
X163878711Y-68350500D01*
X163878712Y-68350500D01*
X164121289Y-68350500D01*
X164169388Y-68344167D01*
X164361789Y-68318838D01*
X164596100Y-68256054D01*
X164820212Y-68163224D01*
X165030289Y-68041936D01*
X165222738Y-67894265D01*
X165394265Y-67722738D01*
X165541936Y-67530289D01*
X165663224Y-67320212D01*
X165756054Y-67096100D01*
X165818838Y-66861789D01*
X165850500Y-66621288D01*
X165850500Y-66378712D01*
X165818838Y-66138211D01*
X165756054Y-65903900D01*
X165663224Y-65679788D01*
X165541936Y-65469711D01*
X165446202Y-65344948D01*
X165394266Y-65277263D01*
X165394260Y-65277256D01*
X165222743Y-65105739D01*
X165222736Y-65105733D01*
X165030293Y-64958067D01*
X165030292Y-64958066D01*
X165030289Y-64958064D01*
X164820212Y-64836776D01*
X164820205Y-64836773D01*
X164596104Y-64743947D01*
X164478944Y-64712554D01*
X164361789Y-64681162D01*
X164361788Y-64681161D01*
X164361785Y-64681161D01*
X164121289Y-64649500D01*
X164121288Y-64649500D01*
X163878712Y-64649500D01*
X163878711Y-64649500D01*
X163638214Y-64681161D01*
X163403895Y-64743947D01*
X163179794Y-64836773D01*
X163179785Y-64836777D01*
X162969706Y-64958067D01*
X162777263Y-65105733D01*
X162777256Y-65105739D01*
X162605739Y-65277256D01*
X162605733Y-65277263D01*
X162458067Y-65469706D01*
X162336777Y-65679785D01*
X162336773Y-65679794D01*
X162243947Y-65903895D01*
X162181161Y-66138214D01*
X162149500Y-66378711D01*
X153808124Y-66378711D01*
X153777246Y-66183757D01*
X153711557Y-65981588D01*
X153615051Y-65792184D01*
X153615049Y-65792181D01*
X153615048Y-65792179D01*
X153490109Y-65620213D01*
X153339786Y-65469890D01*
X153167815Y-65344948D01*
X153167814Y-65344947D01*
X153128205Y-65324765D01*
X153077409Y-65276791D01*
X153060500Y-65214281D01*
X153060500Y-64889912D01*
X153080185Y-64822873D01*
X153132989Y-64777118D01*
X153148500Y-64771253D01*
X153153494Y-64769737D01*
X153153497Y-64769737D01*
X153299179Y-64709394D01*
X153430289Y-64621789D01*
X153541789Y-64510289D01*
X153629394Y-64379179D01*
X153689737Y-64233497D01*
X153720500Y-64078842D01*
X153720500Y-63921158D01*
X153720500Y-63921155D01*
X153720499Y-63921153D01*
X153689738Y-63766510D01*
X153689738Y-63766508D01*
X153689737Y-63766503D01*
X153689735Y-63766498D01*
X153629397Y-63620827D01*
X153629390Y-63620814D01*
X153541789Y-63489711D01*
X153541786Y-63489707D01*
X153430292Y-63378213D01*
X153430288Y-63378210D01*
X153299185Y-63290609D01*
X153299172Y-63290602D01*
X153153501Y-63230264D01*
X153153489Y-63230261D01*
X152998845Y-63199500D01*
X152998842Y-63199500D01*
X152841158Y-63199500D01*
X152841155Y-63199500D01*
X152686510Y-63230261D01*
X152686498Y-63230264D01*
X152540827Y-63290602D01*
X152540814Y-63290609D01*
X152409711Y-63378210D01*
X152409707Y-63378213D01*
X152298213Y-63489707D01*
X152298210Y-63489711D01*
X152210609Y-63620814D01*
X152210602Y-63620827D01*
X152150264Y-63766498D01*
X152150261Y-63766508D01*
X152119362Y-63921848D01*
X152086977Y-63983759D01*
X152085427Y-63985337D01*
X151979478Y-64091286D01*
X151929361Y-64178094D01*
X151929359Y-64178096D01*
X151900425Y-64228209D01*
X151900424Y-64228210D01*
X151884544Y-64287472D01*
X151859499Y-64380943D01*
X151859499Y-64380945D01*
X151859499Y-64549046D01*
X151859500Y-64549059D01*
X151859500Y-65214281D01*
X151839815Y-65281320D01*
X151791795Y-65324765D01*
X151752185Y-65344947D01*
X151752184Y-65344948D01*
X151580213Y-65469890D01*
X151429890Y-65620213D01*
X151304949Y-65792182D01*
X151300202Y-65801499D01*
X151252227Y-65852293D01*
X151184405Y-65869087D01*
X151118271Y-65846548D01*
X151079234Y-65801495D01*
X151074626Y-65792452D01*
X151035270Y-65738282D01*
X151035269Y-65738282D01*
X150402962Y-66370590D01*
X150385925Y-66307007D01*
X150320099Y-66192993D01*
X150227007Y-66099901D01*
X150112993Y-66034075D01*
X150049409Y-66017037D01*
X150681716Y-65384728D01*
X150627550Y-65345375D01*
X150438217Y-65248904D01*
X150236129Y-65183242D01*
X150026246Y-65150000D01*
X149813754Y-65150000D01*
X149603872Y-65183242D01*
X149603869Y-65183242D01*
X149401782Y-65248904D01*
X149212439Y-65345380D01*
X149158282Y-65384727D01*
X149158282Y-65384728D01*
X149790591Y-66017037D01*
X149727007Y-66034075D01*
X149612993Y-66099901D01*
X149519901Y-66192993D01*
X149454075Y-66307007D01*
X149437037Y-66370591D01*
X148766818Y-65700372D01*
X148733333Y-65639049D01*
X148733330Y-65639036D01*
X148730499Y-65626015D01*
X148730499Y-65602128D01*
X148724091Y-65542517D01*
X148695926Y-65467002D01*
X148673798Y-65407673D01*
X148673793Y-65407664D01*
X148587547Y-65292455D01*
X148587544Y-65292452D01*
X148472335Y-65206206D01*
X148472328Y-65206202D01*
X148337482Y-65155908D01*
X148337483Y-65155908D01*
X148277883Y-65149501D01*
X148277881Y-65149500D01*
X148277873Y-65149500D01*
X148277864Y-65149500D01*
X146482129Y-65149500D01*
X146482123Y-65149501D01*
X146422516Y-65155908D01*
X146287671Y-65206202D01*
X146287664Y-65206206D01*
X146172455Y-65292452D01*
X146172452Y-65292455D01*
X146086206Y-65407664D01*
X146086202Y-65407671D01*
X146035908Y-65542517D01*
X146029501Y-65602116D01*
X146029500Y-65602135D01*
X139370725Y-65602135D01*
X139331557Y-65481588D01*
X139331555Y-65481585D01*
X139331555Y-65481583D01*
X139262748Y-65346543D01*
X139235051Y-65292184D01*
X139235049Y-65292181D01*
X139235048Y-65292179D01*
X139110109Y-65120213D01*
X138959786Y-64969890D01*
X138787820Y-64844951D01*
X138598414Y-64748444D01*
X138598413Y-64748443D01*
X138598412Y-64748443D01*
X138396243Y-64682754D01*
X138396241Y-64682753D01*
X138396240Y-64682753D01*
X138234957Y-64657208D01*
X138186287Y-64649500D01*
X137973713Y-64649500D01*
X137925042Y-64657208D01*
X137763760Y-64682753D01*
X137561585Y-64748444D01*
X137372179Y-64844951D01*
X137200213Y-64969890D01*
X137049890Y-65120213D01*
X136924949Y-65292182D01*
X136920484Y-65300946D01*
X136872509Y-65351742D01*
X136804688Y-65368536D01*
X136738553Y-65345998D01*
X136699516Y-65300946D01*
X136695050Y-65292182D01*
X136570109Y-65120213D01*
X136419786Y-64969890D01*
X136247820Y-64844951D01*
X136058414Y-64748444D01*
X136058413Y-64748443D01*
X136058412Y-64748443D01*
X135856243Y-64682754D01*
X135856241Y-64682753D01*
X135856240Y-64682753D01*
X135694957Y-64657208D01*
X135646287Y-64649500D01*
X135433713Y-64649500D01*
X135385042Y-64657208D01*
X135223760Y-64682753D01*
X135021585Y-64748444D01*
X134832179Y-64844951D01*
X134660213Y-64969890D01*
X134509890Y-65120213D01*
X134384949Y-65292182D01*
X134380484Y-65300946D01*
X134332509Y-65351742D01*
X134264688Y-65368536D01*
X134198553Y-65345998D01*
X134159516Y-65300946D01*
X134155050Y-65292182D01*
X134030109Y-65120213D01*
X133879786Y-64969890D01*
X133707820Y-64844951D01*
X133518414Y-64748444D01*
X133518413Y-64748443D01*
X133518412Y-64748443D01*
X133316243Y-64682754D01*
X133316241Y-64682753D01*
X133316240Y-64682753D01*
X133154957Y-64657208D01*
X133106287Y-64649500D01*
X132893713Y-64649500D01*
X132845042Y-64657208D01*
X132683760Y-64682753D01*
X132481585Y-64748444D01*
X132292179Y-64844951D01*
X132120213Y-64969890D01*
X131969890Y-65120213D01*
X131844949Y-65292182D01*
X131840484Y-65300946D01*
X131792509Y-65351742D01*
X131724688Y-65368536D01*
X131658553Y-65345998D01*
X131619516Y-65300946D01*
X131615050Y-65292182D01*
X131490109Y-65120213D01*
X131339786Y-64969890D01*
X131167820Y-64844951D01*
X130978414Y-64748444D01*
X130978413Y-64748443D01*
X130978412Y-64748443D01*
X130776243Y-64682754D01*
X130776241Y-64682753D01*
X130776240Y-64682753D01*
X130614957Y-64657208D01*
X130566287Y-64649500D01*
X130353713Y-64649500D01*
X130305042Y-64657208D01*
X130143760Y-64682753D01*
X129941585Y-64748444D01*
X129752179Y-64844951D01*
X129580213Y-64969890D01*
X129429890Y-65120213D01*
X129304949Y-65292182D01*
X129300484Y-65300946D01*
X129252509Y-65351742D01*
X129184688Y-65368536D01*
X129118553Y-65345998D01*
X129079516Y-65300946D01*
X129075050Y-65292182D01*
X128950109Y-65120213D01*
X128799786Y-64969890D01*
X128627820Y-64844951D01*
X128438414Y-64748444D01*
X128438413Y-64748443D01*
X128438412Y-64748443D01*
X128236243Y-64682754D01*
X128236241Y-64682753D01*
X128236240Y-64682753D01*
X128074957Y-64657208D01*
X128026287Y-64649500D01*
X127813713Y-64649500D01*
X127765042Y-64657208D01*
X127603760Y-64682753D01*
X127401585Y-64748444D01*
X127212179Y-64844951D01*
X127040215Y-64969889D01*
X126926673Y-65083431D01*
X126865350Y-65116915D01*
X126795658Y-65111931D01*
X126739725Y-65070059D01*
X126722810Y-65039082D01*
X126673797Y-64907671D01*
X126673793Y-64907664D01*
X126587547Y-64792455D01*
X126587544Y-64792452D01*
X126472335Y-64706206D01*
X126472328Y-64706202D01*
X126337482Y-64655908D01*
X126337483Y-64655908D01*
X126277883Y-64649501D01*
X126277881Y-64649500D01*
X126277873Y-64649500D01*
X126277864Y-64649500D01*
X124482129Y-64649500D01*
X124482123Y-64649501D01*
X124422516Y-64655908D01*
X124287671Y-64706202D01*
X124287664Y-64706206D01*
X124172455Y-64792452D01*
X124172452Y-64792455D01*
X124086206Y-64907664D01*
X124086202Y-64907671D01*
X124035908Y-65042517D01*
X124029501Y-65102116D01*
X124029500Y-65102135D01*
X117234310Y-65102135D01*
X117325320Y-65011125D01*
X117451716Y-64884728D01*
X117397550Y-64845375D01*
X117208217Y-64748904D01*
X117006129Y-64683242D01*
X116796246Y-64650000D01*
X116583754Y-64650000D01*
X116373872Y-64683242D01*
X116373869Y-64683242D01*
X116171782Y-64748904D01*
X115982439Y-64845380D01*
X115928282Y-64884727D01*
X115928282Y-64884728D01*
X116560591Y-65517037D01*
X116497007Y-65534075D01*
X116382993Y-65599901D01*
X116289901Y-65692993D01*
X116224075Y-65807007D01*
X116207037Y-65870591D01*
X115574728Y-65238282D01*
X115574727Y-65238282D01*
X115535380Y-65292440D01*
X115535376Y-65292446D01*
X115530760Y-65301505D01*
X115482781Y-65352297D01*
X115414959Y-65369087D01*
X115348826Y-65346543D01*
X115309794Y-65301493D01*
X115305051Y-65292184D01*
X115305049Y-65292181D01*
X115305048Y-65292179D01*
X115180109Y-65120213D01*
X115029786Y-64969890D01*
X114857820Y-64844951D01*
X114668414Y-64748444D01*
X114668413Y-64748443D01*
X114668412Y-64748443D01*
X114466243Y-64682754D01*
X114466241Y-64682753D01*
X114466240Y-64682753D01*
X114304957Y-64657208D01*
X114256287Y-64649500D01*
X114043713Y-64649500D01*
X113995042Y-64657208D01*
X113833760Y-64682753D01*
X113631585Y-64748444D01*
X113442179Y-64844951D01*
X113270215Y-64969889D01*
X113156673Y-65083431D01*
X113095350Y-65116915D01*
X113025658Y-65111931D01*
X112969725Y-65070059D01*
X112952810Y-65039082D01*
X112903797Y-64907671D01*
X112903793Y-64907664D01*
X112817547Y-64792455D01*
X112817544Y-64792452D01*
X112702335Y-64706206D01*
X112702328Y-64706202D01*
X112567482Y-64655908D01*
X112567483Y-64655908D01*
X112507883Y-64649501D01*
X112507881Y-64649500D01*
X112507873Y-64649500D01*
X112507864Y-64649500D01*
X110712129Y-64649500D01*
X110712123Y-64649501D01*
X110652516Y-64655908D01*
X110517671Y-64706202D01*
X110517664Y-64706206D01*
X110402455Y-64792452D01*
X110402452Y-64792455D01*
X110316206Y-64907664D01*
X110316202Y-64907671D01*
X110265908Y-65042517D01*
X110259501Y-65102116D01*
X110259500Y-65102135D01*
X110259500Y-66897870D01*
X110259501Y-66897876D01*
X110265909Y-66957484D01*
X110286244Y-67012007D01*
X110291228Y-67081699D01*
X110257743Y-67143020D01*
X104787582Y-72613181D01*
X104726259Y-72646666D01*
X104699901Y-72649500D01*
X103352129Y-72649500D01*
X103352123Y-72649501D01*
X103292516Y-72655908D01*
X103157671Y-72706202D01*
X103157664Y-72706206D01*
X103042455Y-72792452D01*
X103042452Y-72792455D01*
X102956206Y-72907664D01*
X102956202Y-72907671D01*
X102905908Y-73042517D01*
X102899501Y-73102116D01*
X102899500Y-73102135D01*
X102899500Y-74897870D01*
X102899501Y-74897876D01*
X102905908Y-74957483D01*
X102956202Y-75092328D01*
X102956206Y-75092335D01*
X103042452Y-75207544D01*
X103042455Y-75207547D01*
X103157664Y-75293793D01*
X103157671Y-75293797D01*
X103299785Y-75346802D01*
X103299066Y-75348729D01*
X103350506Y-75378019D01*
X103382894Y-75439929D01*
X103376668Y-75509520D01*
X103348959Y-75551805D01*
X103261286Y-75639478D01*
X103149481Y-75751282D01*
X103149479Y-75751285D01*
X103133745Y-75778538D01*
X103121067Y-75800498D01*
X103099361Y-75838094D01*
X103099359Y-75838096D01*
X103070425Y-75888209D01*
X103070424Y-75888210D01*
X103067922Y-75897547D01*
X103029499Y-76040943D01*
X103029499Y-76040945D01*
X103029499Y-76209046D01*
X103029500Y-76209059D01*
X103029500Y-79770397D01*
X103009815Y-79837436D01*
X102961800Y-79880879D01*
X102948389Y-79887712D01*
X102782786Y-80008028D01*
X102638028Y-80152786D01*
X102517715Y-80318386D01*
X102424781Y-80500776D01*
X102361522Y-80695465D01*
X102329500Y-80897648D01*
X98715215Y-80897648D01*
X98742934Y-80866487D01*
X98129408Y-80252962D01*
X98192993Y-80235925D01*
X98307007Y-80170099D01*
X98400099Y-80077007D01*
X98465925Y-79962993D01*
X98482962Y-79899409D01*
X99115270Y-80531717D01*
X99115270Y-80531716D01*
X99154622Y-80477554D01*
X99251095Y-80288217D01*
X99316757Y-80086130D01*
X99316757Y-80086127D01*
X99350000Y-79876246D01*
X99350000Y-79663753D01*
X99316757Y-79453872D01*
X99316757Y-79453869D01*
X99251095Y-79251782D01*
X99154624Y-79062449D01*
X99115270Y-79008282D01*
X99115269Y-79008282D01*
X98482962Y-79640590D01*
X98465925Y-79577007D01*
X98400099Y-79462993D01*
X98307007Y-79369901D01*
X98192993Y-79304075D01*
X98129409Y-79287037D01*
X98761716Y-78654728D01*
X98707547Y-78615373D01*
X98707547Y-78615372D01*
X98698500Y-78610763D01*
X98647706Y-78562788D01*
X98630912Y-78494966D01*
X98653451Y-78428832D01*
X98698508Y-78389793D01*
X98707816Y-78385051D01*
X98787007Y-78327515D01*
X98879786Y-78260109D01*
X98879788Y-78260106D01*
X98879792Y-78260104D01*
X99030104Y-78109792D01*
X99030106Y-78109788D01*
X99030109Y-78109786D01*
X99155048Y-77937820D01*
X99155047Y-77937820D01*
X99155051Y-77937816D01*
X99251557Y-77748412D01*
X99317246Y-77546243D01*
X99350500Y-77336287D01*
X99350500Y-77123713D01*
X99317246Y-76913757D01*
X99251557Y-76711588D01*
X99155051Y-76522184D01*
X99155049Y-76522181D01*
X99155048Y-76522179D01*
X99030109Y-76350213D01*
X98916569Y-76236673D01*
X98883084Y-76175350D01*
X98888068Y-76105658D01*
X98929940Y-76049725D01*
X98960915Y-76032810D01*
X99092331Y-75983796D01*
X99207546Y-75897546D01*
X99293796Y-75782331D01*
X99344091Y-75647483D01*
X99350500Y-75587873D01*
X99350499Y-73792128D01*
X99344091Y-73732517D01*
X99304832Y-73627259D01*
X99293797Y-73597671D01*
X99293793Y-73597664D01*
X99207547Y-73482455D01*
X99207544Y-73482452D01*
X99092335Y-73396206D01*
X99092328Y-73396202D01*
X98957482Y-73345908D01*
X98957483Y-73345908D01*
X98897883Y-73339501D01*
X98897881Y-73339500D01*
X98897873Y-73339500D01*
X98897864Y-73339500D01*
X97102129Y-73339500D01*
X97102123Y-73339501D01*
X97042516Y-73345908D01*
X96907671Y-73396202D01*
X96907664Y-73396206D01*
X96792455Y-73482452D01*
X96792452Y-73482455D01*
X96706206Y-73597664D01*
X96706202Y-73597671D01*
X96655908Y-73732517D01*
X96652254Y-73766510D01*
X96649501Y-73792123D01*
X96649500Y-73792135D01*
X94000500Y-73792135D01*
X94000500Y-66878711D01*
X97149500Y-66878711D01*
X97149500Y-67121288D01*
X97181150Y-67361705D01*
X97181162Y-67361789D01*
X97190831Y-67397873D01*
X97243947Y-67596104D01*
X97336773Y-67820205D01*
X97336777Y-67820214D01*
X97353974Y-67850000D01*
X97458064Y-68030289D01*
X97458066Y-68030292D01*
X97458067Y-68030293D01*
X97605733Y-68222736D01*
X97605739Y-68222743D01*
X97777256Y-68394260D01*
X97777263Y-68394266D01*
X97873905Y-68468422D01*
X97969711Y-68541936D01*
X98179788Y-68663224D01*
X98403900Y-68756054D01*
X98638211Y-68818838D01*
X98818586Y-68842584D01*
X98878711Y-68850500D01*
X98878712Y-68850500D01*
X99121289Y-68850500D01*
X99169388Y-68844167D01*
X99361789Y-68818838D01*
X99596100Y-68756054D01*
X99820212Y-68663224D01*
X100030289Y-68541936D01*
X100222738Y-68394265D01*
X100394265Y-68222738D01*
X100541936Y-68030289D01*
X100663224Y-67820212D01*
X100756054Y-67596100D01*
X100818838Y-67361789D01*
X100850500Y-67121288D01*
X100850500Y-66878712D01*
X100818838Y-66638211D01*
X100756054Y-66403900D01*
X100663224Y-66179788D01*
X100541936Y-65969711D01*
X100405715Y-65792184D01*
X100394266Y-65777263D01*
X100394260Y-65777256D01*
X100222743Y-65605739D01*
X100222736Y-65605733D01*
X100030293Y-65458067D01*
X100030292Y-65458066D01*
X100030289Y-65458064D01*
X99820212Y-65336776D01*
X99791215Y-65324765D01*
X99596104Y-65243947D01*
X99455239Y-65206202D01*
X99361789Y-65181162D01*
X99361788Y-65181161D01*
X99361785Y-65181161D01*
X99121289Y-65149500D01*
X99121288Y-65149500D01*
X98878712Y-65149500D01*
X98878711Y-65149500D01*
X98638214Y-65181161D01*
X98403895Y-65243947D01*
X98179794Y-65336773D01*
X98179785Y-65336777D01*
X97969706Y-65458067D01*
X97777263Y-65605733D01*
X97777256Y-65605739D01*
X97605739Y-65777256D01*
X97605733Y-65777263D01*
X97458067Y-65969706D01*
X97336777Y-66179785D01*
X97336773Y-66179794D01*
X97243947Y-66403895D01*
X97181161Y-66638214D01*
X97149500Y-66878711D01*
X94000500Y-66878711D01*
X94000500Y-62124500D01*
X94020185Y-62057461D01*
X94072989Y-62011706D01*
X94124500Y-62000500D01*
X168875500Y-62000500D01*
X168942539Y-62020185D01*
G37*
%TD.AperFunction*%
%TD*%
M02*
