%TF.GenerationSoftware,KiCad,Pcbnew,10.0.6*%
%TF.CreationDate,2026-09-25T21:22:59-04:00*%
%TF.ProjectId,sensing_audio_visual_PCB,73656e73-696e-4675-9f61-7564696f5f76,rev?*%
%TF.SameCoordinates,Original*%
%TF.FileFunction,Soldermask,Bot*%
%TF.FilePolarity,Negative*%
%FSLAX46Y46*%
G04 Gerber Fmt 4.6, Leading zero omitted, Abs format (unit mm)*
G04 Created by KiCad (PCBNEW 10.0.6) date 2026-09-25 21:22:59*
%MOMM*%
%LPD*%
G01*
G04 APERTURE LIST*
G04 Aperture macros list*
%AMRoundRect*
0 Rectangle with rounded corners*
0 $1 Rounding radius*
0 $2 $3 $4 $5 $6 $7 $8 $9 X,Y pos of 4 corners*
0 Add a 4 corners polygon primitive as box body*
4,1,4,$2,$3,$4,$5,$6,$7,$8,$9,$2,$3,0*
0 Add four circle primitives for the rounded corners*
1,1,$1+$1,$2,$3*
1,1,$1+$1,$4,$5*
1,1,$1+$1,$6,$7*
1,1,$1+$1,$8,$9*
0 Add four rect primitives between the rounded corners*
20,1,$1+$1,$2,$3,$4,$5,0*
20,1,$1+$1,$4,$5,$6,$7,0*
20,1,$1+$1,$6,$7,$8,$9,0*
20,1,$1+$1,$8,$9,$2,$3,0*%
G04 Aperture macros list end*
%ADD10R,1.700000X1.700000*%
%ADD11C,1.700000*%
%ADD12C,1.600000*%
%ADD13RoundRect,0.650000X0.650000X0.650000X-0.650000X0.650000X-0.650000X-0.650000X0.650000X-0.650000X0*%
%ADD14C,2.600000*%
%ADD15C,3.200000*%
%ADD16RoundRect,0.650000X-0.650000X-0.650000X0.650000X-0.650000X0.650000X0.650000X-0.650000X0.650000X0*%
%ADD17RoundRect,0.650000X0.650000X-0.650000X0.650000X0.650000X-0.650000X0.650000X-0.650000X-0.650000X0*%
G04 APERTURE END LIST*
D10*
%TO.C,Amplifier*%
X147380000Y-66500000D03*
D11*
X149920000Y-66500000D03*
X152460000Y-66500000D03*
%TD*%
D12*
%TO.C,R_for_emitter*%
X104690000Y-95500000D03*
X112310000Y-95500000D03*
%TD*%
D13*
%TO.C,LED*%
X165500000Y-88500000D03*
D14*
X160420000Y-88500000D03*
%TD*%
D15*
%TO.C,REF\u002A\u002A*%
X99000000Y-67000000D03*
%TD*%
D12*
%TO.C,R_for_PhotoR*%
X138310000Y-74000000D03*
X130690000Y-74000000D03*
%TD*%
%TO.C,R_for_emitter*%
X124750000Y-88250000D03*
X117130000Y-88250000D03*
%TD*%
%TO.C,R_for_PhotoR*%
X158150000Y-74000000D03*
X165770000Y-74000000D03*
%TD*%
D15*
%TO.C,REF\u002A\u002A*%
X164000000Y-103000000D03*
%TD*%
D12*
%TO.C,R_for_emitter*%
X103630000Y-81000000D03*
X111250000Y-81000000D03*
%TD*%
%TO.C,R_for_receiver*%
X152460000Y-88500000D03*
X144840000Y-88500000D03*
%TD*%
%TO.C,R_for_receiver*%
X131190000Y-81000000D03*
X138810000Y-81000000D03*
%TD*%
D13*
%TO.C,IR Emitter*%
X109580000Y-88250000D03*
D14*
X104500000Y-88250000D03*
%TD*%
D13*
%TO.C,IR Receiver 1*%
X127500000Y-104000000D03*
D14*
X122420000Y-104000000D03*
%TD*%
D16*
%TO.C,IR Receiver 4*%
X146270000Y-81000000D03*
D14*
X151350000Y-81000000D03*
%TD*%
D16*
%TO.C,IR Receiver 2*%
X146420000Y-95500000D03*
D14*
X151500000Y-95500000D03*
%TD*%
D12*
%TO.C,R_for_receiver*%
X143810000Y-104000000D03*
X136190000Y-104000000D03*
%TD*%
D13*
%TO.C,LED*%
X155540000Y-104000000D03*
D14*
X150460000Y-104000000D03*
%TD*%
D12*
%TO.C,R_for_LED*%
X158690000Y-81000000D03*
X166310000Y-81000000D03*
%TD*%
%TO.C,R_for_receiver*%
X131190000Y-95500000D03*
X138810000Y-95500000D03*
%TD*%
D10*
%TO.C,Power & GND*%
X111610000Y-66000000D03*
D11*
X114150000Y-66000000D03*
X116690000Y-66000000D03*
%TD*%
D13*
%TO.C,IR Receiver 3*%
X137040000Y-88500000D03*
D14*
X131960000Y-88500000D03*
%TD*%
D15*
%TO.C,REF\u002A\u002A*%
X99000000Y-103000000D03*
%TD*%
D10*
%TO.C,Light Strip*%
X104250000Y-74000000D03*
D11*
X106790000Y-74000000D03*
X109330000Y-74000000D03*
%TD*%
D13*
%TO.C,Photoresistor 6*%
X151040000Y-74000000D03*
D14*
X145960000Y-74000000D03*
%TD*%
D12*
%TO.C,R_for_LED*%
X158500000Y-95500000D03*
X166120000Y-95500000D03*
%TD*%
D10*
%TO.C,GPIO Pins 1\u002C 2\u002C 3\u002C 4\u002C 5\u002C 6*%
X125380000Y-66000000D03*
D11*
X127920000Y-66000000D03*
X130460000Y-66000000D03*
X133000000Y-66000000D03*
X135540000Y-66000000D03*
X138080000Y-66000000D03*
%TD*%
D12*
%TO.C,R_for_emitter*%
X115350000Y-103500000D03*
X107730000Y-103500000D03*
%TD*%
D13*
%TO.C,Photoresistor 5*%
X123500000Y-74000000D03*
D14*
X118420000Y-74000000D03*
%TD*%
D17*
%TO.C,IR Emitter*%
X98000000Y-96040000D03*
D14*
X98000000Y-90960000D03*
%TD*%
D16*
%TO.C,IR Emitter*%
X119120000Y-95500000D03*
D14*
X124200000Y-95500000D03*
%TD*%
D15*
%TO.C,REF\u002A\u002A*%
X164000000Y-66500000D03*
%TD*%
D10*
%TO.C,OLED Display*%
X98000000Y-74690000D03*
D11*
X98000000Y-77230000D03*
X98000000Y-79770000D03*
X98000000Y-82310000D03*
%TD*%
D16*
%TO.C,IR Emitter*%
X119000000Y-81000000D03*
D14*
X124080000Y-81000000D03*
%TD*%
M02*
