%TF.GenerationSoftware,KiCad,Pcbnew,10.0.6*%
%TF.CreationDate,2026-09-25T21:22:59-04:00*%
%TF.ProjectId,sensing_audio_visual_PCB,73656e73-696e-4675-9f61-7564696f5f76,rev?*%
%TF.SameCoordinates,Original*%
%TF.FileFunction,Legend,Top*%
%TF.FilePolarity,Positive*%
%FSLAX46Y46*%
G04 Gerber Fmt 4.6, Leading zero omitted, Abs format (unit mm)*
G04 Created by KiCad (PCBNEW 10.0.6) date 2026-09-25 21:22:59*
%MOMM*%
%LPD*%
G01*
G04 APERTURE LIST*
%ADD10C,0.150000*%
%ADD11C,0.120000*%
G04 APERTURE END LIST*
D10*
X101407200Y-75214285D02*
X101454819Y-75071428D01*
X101454819Y-75071428D02*
X101454819Y-74833333D01*
X101454819Y-74833333D02*
X101407200Y-74738095D01*
X101407200Y-74738095D02*
X101359580Y-74690476D01*
X101359580Y-74690476D02*
X101264342Y-74642857D01*
X101264342Y-74642857D02*
X101169104Y-74642857D01*
X101169104Y-74642857D02*
X101073866Y-74690476D01*
X101073866Y-74690476D02*
X101026247Y-74738095D01*
X101026247Y-74738095D02*
X100978628Y-74833333D01*
X100978628Y-74833333D02*
X100931009Y-75023809D01*
X100931009Y-75023809D02*
X100883390Y-75119047D01*
X100883390Y-75119047D02*
X100835771Y-75166666D01*
X100835771Y-75166666D02*
X100740533Y-75214285D01*
X100740533Y-75214285D02*
X100645295Y-75214285D01*
X100645295Y-75214285D02*
X100550057Y-75166666D01*
X100550057Y-75166666D02*
X100502438Y-75119047D01*
X100502438Y-75119047D02*
X100454819Y-75023809D01*
X100454819Y-75023809D02*
X100454819Y-74785714D01*
X100454819Y-74785714D02*
X100502438Y-74642857D01*
X101454819Y-74214285D02*
X100454819Y-74214285D01*
X100454819Y-74214285D02*
X100454819Y-73976190D01*
X100454819Y-73976190D02*
X100502438Y-73833333D01*
X100502438Y-73833333D02*
X100597676Y-73738095D01*
X100597676Y-73738095D02*
X100692914Y-73690476D01*
X100692914Y-73690476D02*
X100883390Y-73642857D01*
X100883390Y-73642857D02*
X101026247Y-73642857D01*
X101026247Y-73642857D02*
X101216723Y-73690476D01*
X101216723Y-73690476D02*
X101311961Y-73738095D01*
X101311961Y-73738095D02*
X101407200Y-73833333D01*
X101407200Y-73833333D02*
X101454819Y-73976190D01*
X101454819Y-73976190D02*
X101454819Y-74214285D01*
X101169104Y-73261904D02*
X101169104Y-72785714D01*
X101454819Y-73357142D02*
X100454819Y-73023809D01*
X100454819Y-73023809D02*
X101454819Y-72690476D01*
X101407200Y-78690475D02*
X101454819Y-78547618D01*
X101454819Y-78547618D02*
X101454819Y-78309523D01*
X101454819Y-78309523D02*
X101407200Y-78214285D01*
X101407200Y-78214285D02*
X101359580Y-78166666D01*
X101359580Y-78166666D02*
X101264342Y-78119047D01*
X101264342Y-78119047D02*
X101169104Y-78119047D01*
X101169104Y-78119047D02*
X101073866Y-78166666D01*
X101073866Y-78166666D02*
X101026247Y-78214285D01*
X101026247Y-78214285D02*
X100978628Y-78309523D01*
X100978628Y-78309523D02*
X100931009Y-78499999D01*
X100931009Y-78499999D02*
X100883390Y-78595237D01*
X100883390Y-78595237D02*
X100835771Y-78642856D01*
X100835771Y-78642856D02*
X100740533Y-78690475D01*
X100740533Y-78690475D02*
X100645295Y-78690475D01*
X100645295Y-78690475D02*
X100550057Y-78642856D01*
X100550057Y-78642856D02*
X100502438Y-78595237D01*
X100502438Y-78595237D02*
X100454819Y-78499999D01*
X100454819Y-78499999D02*
X100454819Y-78261904D01*
X100454819Y-78261904D02*
X100502438Y-78119047D01*
X101359580Y-77119047D02*
X101407200Y-77166666D01*
X101407200Y-77166666D02*
X101454819Y-77309523D01*
X101454819Y-77309523D02*
X101454819Y-77404761D01*
X101454819Y-77404761D02*
X101407200Y-77547618D01*
X101407200Y-77547618D02*
X101311961Y-77642856D01*
X101311961Y-77642856D02*
X101216723Y-77690475D01*
X101216723Y-77690475D02*
X101026247Y-77738094D01*
X101026247Y-77738094D02*
X100883390Y-77738094D01*
X100883390Y-77738094D02*
X100692914Y-77690475D01*
X100692914Y-77690475D02*
X100597676Y-77642856D01*
X100597676Y-77642856D02*
X100502438Y-77547618D01*
X100502438Y-77547618D02*
X100454819Y-77404761D01*
X100454819Y-77404761D02*
X100454819Y-77309523D01*
X100454819Y-77309523D02*
X100502438Y-77166666D01*
X100502438Y-77166666D02*
X100550057Y-77119047D01*
X101454819Y-76214285D02*
X101454819Y-76690475D01*
X101454819Y-76690475D02*
X100454819Y-76690475D01*
X102357142Y-106907200D02*
X102499999Y-106954819D01*
X102499999Y-106954819D02*
X102738094Y-106954819D01*
X102738094Y-106954819D02*
X102833332Y-106907200D01*
X102833332Y-106907200D02*
X102880951Y-106859580D01*
X102880951Y-106859580D02*
X102928570Y-106764342D01*
X102928570Y-106764342D02*
X102928570Y-106669104D01*
X102928570Y-106669104D02*
X102880951Y-106573866D01*
X102880951Y-106573866D02*
X102833332Y-106526247D01*
X102833332Y-106526247D02*
X102738094Y-106478628D01*
X102738094Y-106478628D02*
X102547618Y-106431009D01*
X102547618Y-106431009D02*
X102452380Y-106383390D01*
X102452380Y-106383390D02*
X102404761Y-106335771D01*
X102404761Y-106335771D02*
X102357142Y-106240533D01*
X102357142Y-106240533D02*
X102357142Y-106145295D01*
X102357142Y-106145295D02*
X102404761Y-106050057D01*
X102404761Y-106050057D02*
X102452380Y-106002438D01*
X102452380Y-106002438D02*
X102547618Y-105954819D01*
X102547618Y-105954819D02*
X102785713Y-105954819D01*
X102785713Y-105954819D02*
X102928570Y-106002438D01*
X103738094Y-106907200D02*
X103642856Y-106954819D01*
X103642856Y-106954819D02*
X103452380Y-106954819D01*
X103452380Y-106954819D02*
X103357142Y-106907200D01*
X103357142Y-106907200D02*
X103309523Y-106811961D01*
X103309523Y-106811961D02*
X103309523Y-106431009D01*
X103309523Y-106431009D02*
X103357142Y-106335771D01*
X103357142Y-106335771D02*
X103452380Y-106288152D01*
X103452380Y-106288152D02*
X103642856Y-106288152D01*
X103642856Y-106288152D02*
X103738094Y-106335771D01*
X103738094Y-106335771D02*
X103785713Y-106431009D01*
X103785713Y-106431009D02*
X103785713Y-106526247D01*
X103785713Y-106526247D02*
X103309523Y-106621485D01*
X104642856Y-106907200D02*
X104547618Y-106954819D01*
X104547618Y-106954819D02*
X104357142Y-106954819D01*
X104357142Y-106954819D02*
X104261904Y-106907200D01*
X104261904Y-106907200D02*
X104214285Y-106859580D01*
X104214285Y-106859580D02*
X104166666Y-106764342D01*
X104166666Y-106764342D02*
X104166666Y-106478628D01*
X104166666Y-106478628D02*
X104214285Y-106383390D01*
X104214285Y-106383390D02*
X104261904Y-106335771D01*
X104261904Y-106335771D02*
X104357142Y-106288152D01*
X104357142Y-106288152D02*
X104547618Y-106288152D01*
X104547618Y-106288152D02*
X104642856Y-106335771D01*
X105023809Y-106669104D02*
X105499999Y-106669104D01*
X104928571Y-106954819D02*
X105261904Y-105954819D01*
X105261904Y-105954819D02*
X105595237Y-106954819D01*
X105690476Y-107050057D02*
X106452380Y-107050057D01*
X106547619Y-105954819D02*
X107119047Y-105954819D01*
X106833333Y-106954819D02*
X106833333Y-105954819D01*
X107833333Y-106907200D02*
X107738095Y-106954819D01*
X107738095Y-106954819D02*
X107547619Y-106954819D01*
X107547619Y-106954819D02*
X107452381Y-106907200D01*
X107452381Y-106907200D02*
X107404762Y-106811961D01*
X107404762Y-106811961D02*
X107404762Y-106431009D01*
X107404762Y-106431009D02*
X107452381Y-106335771D01*
X107452381Y-106335771D02*
X107547619Y-106288152D01*
X107547619Y-106288152D02*
X107738095Y-106288152D01*
X107738095Y-106288152D02*
X107833333Y-106335771D01*
X107833333Y-106335771D02*
X107880952Y-106431009D01*
X107880952Y-106431009D02*
X107880952Y-106526247D01*
X107880952Y-106526247D02*
X107404762Y-106621485D01*
X108738095Y-106954819D02*
X108738095Y-106431009D01*
X108738095Y-106431009D02*
X108690476Y-106335771D01*
X108690476Y-106335771D02*
X108595238Y-106288152D01*
X108595238Y-106288152D02*
X108404762Y-106288152D01*
X108404762Y-106288152D02*
X108309524Y-106335771D01*
X108738095Y-106907200D02*
X108642857Y-106954819D01*
X108642857Y-106954819D02*
X108404762Y-106954819D01*
X108404762Y-106954819D02*
X108309524Y-106907200D01*
X108309524Y-106907200D02*
X108261905Y-106811961D01*
X108261905Y-106811961D02*
X108261905Y-106716723D01*
X108261905Y-106716723D02*
X108309524Y-106621485D01*
X108309524Y-106621485D02*
X108404762Y-106573866D01*
X108404762Y-106573866D02*
X108642857Y-106573866D01*
X108642857Y-106573866D02*
X108738095Y-106526247D01*
X109214286Y-106954819D02*
X109214286Y-106288152D01*
X109214286Y-106383390D02*
X109261905Y-106335771D01*
X109261905Y-106335771D02*
X109357143Y-106288152D01*
X109357143Y-106288152D02*
X109500000Y-106288152D01*
X109500000Y-106288152D02*
X109595238Y-106335771D01*
X109595238Y-106335771D02*
X109642857Y-106431009D01*
X109642857Y-106431009D02*
X109642857Y-106954819D01*
X109642857Y-106431009D02*
X109690476Y-106335771D01*
X109690476Y-106335771D02*
X109785714Y-106288152D01*
X109785714Y-106288152D02*
X109928571Y-106288152D01*
X109928571Y-106288152D02*
X110023810Y-106335771D01*
X110023810Y-106335771D02*
X110071429Y-106431009D01*
X110071429Y-106431009D02*
X110071429Y-106954819D01*
X111452381Y-106383390D02*
X111357143Y-106335771D01*
X111357143Y-106335771D02*
X111309524Y-106288152D01*
X111309524Y-106288152D02*
X111261905Y-106192914D01*
X111261905Y-106192914D02*
X111261905Y-106145295D01*
X111261905Y-106145295D02*
X111309524Y-106050057D01*
X111309524Y-106050057D02*
X111357143Y-106002438D01*
X111357143Y-106002438D02*
X111452381Y-105954819D01*
X111452381Y-105954819D02*
X111642857Y-105954819D01*
X111642857Y-105954819D02*
X111738095Y-106002438D01*
X111738095Y-106002438D02*
X111785714Y-106050057D01*
X111785714Y-106050057D02*
X111833333Y-106145295D01*
X111833333Y-106145295D02*
X111833333Y-106192914D01*
X111833333Y-106192914D02*
X111785714Y-106288152D01*
X111785714Y-106288152D02*
X111738095Y-106335771D01*
X111738095Y-106335771D02*
X111642857Y-106383390D01*
X111642857Y-106383390D02*
X111452381Y-106383390D01*
X111452381Y-106383390D02*
X111357143Y-106431009D01*
X111357143Y-106431009D02*
X111309524Y-106478628D01*
X111309524Y-106478628D02*
X111261905Y-106573866D01*
X111261905Y-106573866D02*
X111261905Y-106764342D01*
X111261905Y-106764342D02*
X111309524Y-106859580D01*
X111309524Y-106859580D02*
X111357143Y-106907200D01*
X111357143Y-106907200D02*
X111452381Y-106954819D01*
X111452381Y-106954819D02*
X111642857Y-106954819D01*
X111642857Y-106954819D02*
X111738095Y-106907200D01*
X111738095Y-106907200D02*
X111785714Y-106859580D01*
X111785714Y-106859580D02*
X111833333Y-106764342D01*
X111833333Y-106764342D02*
X111833333Y-106573866D01*
X111833333Y-106573866D02*
X111785714Y-106478628D01*
X111785714Y-106478628D02*
X111738095Y-106431009D01*
X111738095Y-106431009D02*
X111642857Y-106383390D01*
X113357143Y-106431009D02*
X113500000Y-106478628D01*
X113500000Y-106478628D02*
X113547619Y-106526247D01*
X113547619Y-106526247D02*
X113595238Y-106621485D01*
X113595238Y-106621485D02*
X113595238Y-106764342D01*
X113595238Y-106764342D02*
X113547619Y-106859580D01*
X113547619Y-106859580D02*
X113500000Y-106907200D01*
X113500000Y-106907200D02*
X113404762Y-106954819D01*
X113404762Y-106954819D02*
X113023810Y-106954819D01*
X113023810Y-106954819D02*
X113023810Y-105954819D01*
X113023810Y-105954819D02*
X113357143Y-105954819D01*
X113357143Y-105954819D02*
X113452381Y-106002438D01*
X113452381Y-106002438D02*
X113500000Y-106050057D01*
X113500000Y-106050057D02*
X113547619Y-106145295D01*
X113547619Y-106145295D02*
X113547619Y-106240533D01*
X113547619Y-106240533D02*
X113500000Y-106335771D01*
X113500000Y-106335771D02*
X113452381Y-106383390D01*
X113452381Y-106383390D02*
X113357143Y-106431009D01*
X113357143Y-106431009D02*
X113023810Y-106431009D01*
X114452381Y-106288152D02*
X114452381Y-106954819D01*
X114023810Y-106288152D02*
X114023810Y-106811961D01*
X114023810Y-106811961D02*
X114071429Y-106907200D01*
X114071429Y-106907200D02*
X114166667Y-106954819D01*
X114166667Y-106954819D02*
X114309524Y-106954819D01*
X114309524Y-106954819D02*
X114404762Y-106907200D01*
X114404762Y-106907200D02*
X114452381Y-106859580D01*
X114833334Y-106288152D02*
X115357143Y-106288152D01*
X115357143Y-106288152D02*
X114833334Y-106954819D01*
X114833334Y-106954819D02*
X115357143Y-106954819D01*
X115642858Y-106288152D02*
X116166667Y-106288152D01*
X116166667Y-106288152D02*
X115642858Y-106954819D01*
X115642858Y-106954819D02*
X116166667Y-106954819D01*
X116547620Y-106954819D02*
X116547620Y-105954819D01*
X117119048Y-106954819D02*
X116690477Y-106383390D01*
X117119048Y-105954819D02*
X116547620Y-106526247D01*
X117547620Y-106954819D02*
X117547620Y-106288152D01*
X117547620Y-105954819D02*
X117500001Y-106002438D01*
X117500001Y-106002438D02*
X117547620Y-106050057D01*
X117547620Y-106050057D02*
X117595239Y-106002438D01*
X117595239Y-106002438D02*
X117547620Y-105954819D01*
X117547620Y-105954819D02*
X117547620Y-106050057D01*
X118166667Y-106954819D02*
X118071429Y-106907200D01*
X118071429Y-106907200D02*
X118023810Y-106811961D01*
X118023810Y-106811961D02*
X118023810Y-105954819D01*
X118690477Y-106954819D02*
X118595239Y-106907200D01*
X118595239Y-106907200D02*
X118547620Y-106811961D01*
X118547620Y-106811961D02*
X118547620Y-105954819D01*
X146880952Y-63669104D02*
X147357142Y-63669104D01*
X146785714Y-63954819D02*
X147119047Y-62954819D01*
X147119047Y-62954819D02*
X147452380Y-63954819D01*
X147785714Y-63954819D02*
X147785714Y-63288152D01*
X147785714Y-63383390D02*
X147833333Y-63335771D01*
X147833333Y-63335771D02*
X147928571Y-63288152D01*
X147928571Y-63288152D02*
X148071428Y-63288152D01*
X148071428Y-63288152D02*
X148166666Y-63335771D01*
X148166666Y-63335771D02*
X148214285Y-63431009D01*
X148214285Y-63431009D02*
X148214285Y-63954819D01*
X148214285Y-63431009D02*
X148261904Y-63335771D01*
X148261904Y-63335771D02*
X148357142Y-63288152D01*
X148357142Y-63288152D02*
X148499999Y-63288152D01*
X148499999Y-63288152D02*
X148595238Y-63335771D01*
X148595238Y-63335771D02*
X148642857Y-63431009D01*
X148642857Y-63431009D02*
X148642857Y-63954819D01*
X149119047Y-63288152D02*
X149119047Y-64288152D01*
X149119047Y-63335771D02*
X149214285Y-63288152D01*
X149214285Y-63288152D02*
X149404761Y-63288152D01*
X149404761Y-63288152D02*
X149499999Y-63335771D01*
X149499999Y-63335771D02*
X149547618Y-63383390D01*
X149547618Y-63383390D02*
X149595237Y-63478628D01*
X149595237Y-63478628D02*
X149595237Y-63764342D01*
X149595237Y-63764342D02*
X149547618Y-63859580D01*
X149547618Y-63859580D02*
X149499999Y-63907200D01*
X149499999Y-63907200D02*
X149404761Y-63954819D01*
X149404761Y-63954819D02*
X149214285Y-63954819D01*
X149214285Y-63954819D02*
X149119047Y-63907200D01*
X150166666Y-63954819D02*
X150071428Y-63907200D01*
X150071428Y-63907200D02*
X150023809Y-63811961D01*
X150023809Y-63811961D02*
X150023809Y-62954819D01*
X150547619Y-63954819D02*
X150547619Y-63288152D01*
X150547619Y-62954819D02*
X150500000Y-63002438D01*
X150500000Y-63002438D02*
X150547619Y-63050057D01*
X150547619Y-63050057D02*
X150595238Y-63002438D01*
X150595238Y-63002438D02*
X150547619Y-62954819D01*
X150547619Y-62954819D02*
X150547619Y-63050057D01*
X150880952Y-63288152D02*
X151261904Y-63288152D01*
X151023809Y-63954819D02*
X151023809Y-63097676D01*
X151023809Y-63097676D02*
X151071428Y-63002438D01*
X151071428Y-63002438D02*
X151166666Y-62954819D01*
X151166666Y-62954819D02*
X151261904Y-62954819D01*
X151595238Y-63954819D02*
X151595238Y-63288152D01*
X151595238Y-62954819D02*
X151547619Y-63002438D01*
X151547619Y-63002438D02*
X151595238Y-63050057D01*
X151595238Y-63050057D02*
X151642857Y-63002438D01*
X151642857Y-63002438D02*
X151595238Y-62954819D01*
X151595238Y-62954819D02*
X151595238Y-63050057D01*
X152452380Y-63907200D02*
X152357142Y-63954819D01*
X152357142Y-63954819D02*
X152166666Y-63954819D01*
X152166666Y-63954819D02*
X152071428Y-63907200D01*
X152071428Y-63907200D02*
X152023809Y-63811961D01*
X152023809Y-63811961D02*
X152023809Y-63431009D01*
X152023809Y-63431009D02*
X152071428Y-63335771D01*
X152071428Y-63335771D02*
X152166666Y-63288152D01*
X152166666Y-63288152D02*
X152357142Y-63288152D01*
X152357142Y-63288152D02*
X152452380Y-63335771D01*
X152452380Y-63335771D02*
X152499999Y-63431009D01*
X152499999Y-63431009D02*
X152499999Y-63526247D01*
X152499999Y-63526247D02*
X152023809Y-63621485D01*
X152928571Y-63954819D02*
X152928571Y-63288152D01*
X152928571Y-63478628D02*
X152976190Y-63383390D01*
X152976190Y-63383390D02*
X153023809Y-63335771D01*
X153023809Y-63335771D02*
X153119047Y-63288152D01*
X153119047Y-63288152D02*
X153214285Y-63288152D01*
X104357141Y-93584819D02*
X104023808Y-93108628D01*
X103785713Y-93584819D02*
X103785713Y-92584819D01*
X103785713Y-92584819D02*
X104166665Y-92584819D01*
X104166665Y-92584819D02*
X104261903Y-92632438D01*
X104261903Y-92632438D02*
X104309522Y-92680057D01*
X104309522Y-92680057D02*
X104357141Y-92775295D01*
X104357141Y-92775295D02*
X104357141Y-92918152D01*
X104357141Y-92918152D02*
X104309522Y-93013390D01*
X104309522Y-93013390D02*
X104261903Y-93061009D01*
X104261903Y-93061009D02*
X104166665Y-93108628D01*
X104166665Y-93108628D02*
X103785713Y-93108628D01*
X104547618Y-93680057D02*
X105309522Y-93680057D01*
X105404761Y-92918152D02*
X105785713Y-92918152D01*
X105547618Y-93584819D02*
X105547618Y-92727676D01*
X105547618Y-92727676D02*
X105595237Y-92632438D01*
X105595237Y-92632438D02*
X105690475Y-92584819D01*
X105690475Y-92584819D02*
X105785713Y-92584819D01*
X106261904Y-93584819D02*
X106166666Y-93537200D01*
X106166666Y-93537200D02*
X106119047Y-93489580D01*
X106119047Y-93489580D02*
X106071428Y-93394342D01*
X106071428Y-93394342D02*
X106071428Y-93108628D01*
X106071428Y-93108628D02*
X106119047Y-93013390D01*
X106119047Y-93013390D02*
X106166666Y-92965771D01*
X106166666Y-92965771D02*
X106261904Y-92918152D01*
X106261904Y-92918152D02*
X106404761Y-92918152D01*
X106404761Y-92918152D02*
X106499999Y-92965771D01*
X106499999Y-92965771D02*
X106547618Y-93013390D01*
X106547618Y-93013390D02*
X106595237Y-93108628D01*
X106595237Y-93108628D02*
X106595237Y-93394342D01*
X106595237Y-93394342D02*
X106547618Y-93489580D01*
X106547618Y-93489580D02*
X106499999Y-93537200D01*
X106499999Y-93537200D02*
X106404761Y-93584819D01*
X106404761Y-93584819D02*
X106261904Y-93584819D01*
X107023809Y-93584819D02*
X107023809Y-92918152D01*
X107023809Y-93108628D02*
X107071428Y-93013390D01*
X107071428Y-93013390D02*
X107119047Y-92965771D01*
X107119047Y-92965771D02*
X107214285Y-92918152D01*
X107214285Y-92918152D02*
X107309523Y-92918152D01*
X107404762Y-93680057D02*
X108166666Y-93680057D01*
X108785714Y-93537200D02*
X108690476Y-93584819D01*
X108690476Y-93584819D02*
X108500000Y-93584819D01*
X108500000Y-93584819D02*
X108404762Y-93537200D01*
X108404762Y-93537200D02*
X108357143Y-93441961D01*
X108357143Y-93441961D02*
X108357143Y-93061009D01*
X108357143Y-93061009D02*
X108404762Y-92965771D01*
X108404762Y-92965771D02*
X108500000Y-92918152D01*
X108500000Y-92918152D02*
X108690476Y-92918152D01*
X108690476Y-92918152D02*
X108785714Y-92965771D01*
X108785714Y-92965771D02*
X108833333Y-93061009D01*
X108833333Y-93061009D02*
X108833333Y-93156247D01*
X108833333Y-93156247D02*
X108357143Y-93251485D01*
X109261905Y-93584819D02*
X109261905Y-92918152D01*
X109261905Y-93013390D02*
X109309524Y-92965771D01*
X109309524Y-92965771D02*
X109404762Y-92918152D01*
X109404762Y-92918152D02*
X109547619Y-92918152D01*
X109547619Y-92918152D02*
X109642857Y-92965771D01*
X109642857Y-92965771D02*
X109690476Y-93061009D01*
X109690476Y-93061009D02*
X109690476Y-93584819D01*
X109690476Y-93061009D02*
X109738095Y-92965771D01*
X109738095Y-92965771D02*
X109833333Y-92918152D01*
X109833333Y-92918152D02*
X109976190Y-92918152D01*
X109976190Y-92918152D02*
X110071429Y-92965771D01*
X110071429Y-92965771D02*
X110119048Y-93061009D01*
X110119048Y-93061009D02*
X110119048Y-93584819D01*
X110595238Y-93584819D02*
X110595238Y-92918152D01*
X110595238Y-92584819D02*
X110547619Y-92632438D01*
X110547619Y-92632438D02*
X110595238Y-92680057D01*
X110595238Y-92680057D02*
X110642857Y-92632438D01*
X110642857Y-92632438D02*
X110595238Y-92584819D01*
X110595238Y-92584819D02*
X110595238Y-92680057D01*
X110928571Y-92918152D02*
X111309523Y-92918152D01*
X111071428Y-92584819D02*
X111071428Y-93441961D01*
X111071428Y-93441961D02*
X111119047Y-93537200D01*
X111119047Y-93537200D02*
X111214285Y-93584819D01*
X111214285Y-93584819D02*
X111309523Y-93584819D01*
X111500000Y-92918152D02*
X111880952Y-92918152D01*
X111642857Y-92584819D02*
X111642857Y-93441961D01*
X111642857Y-93441961D02*
X111690476Y-93537200D01*
X111690476Y-93537200D02*
X111785714Y-93584819D01*
X111785714Y-93584819D02*
X111880952Y-93584819D01*
X112595238Y-93537200D02*
X112500000Y-93584819D01*
X112500000Y-93584819D02*
X112309524Y-93584819D01*
X112309524Y-93584819D02*
X112214286Y-93537200D01*
X112214286Y-93537200D02*
X112166667Y-93441961D01*
X112166667Y-93441961D02*
X112166667Y-93061009D01*
X112166667Y-93061009D02*
X112214286Y-92965771D01*
X112214286Y-92965771D02*
X112309524Y-92918152D01*
X112309524Y-92918152D02*
X112500000Y-92918152D01*
X112500000Y-92918152D02*
X112595238Y-92965771D01*
X112595238Y-92965771D02*
X112642857Y-93061009D01*
X112642857Y-93061009D02*
X112642857Y-93156247D01*
X112642857Y-93156247D02*
X112166667Y-93251485D01*
X113071429Y-93584819D02*
X113071429Y-92918152D01*
X113071429Y-93108628D02*
X113119048Y-93013390D01*
X113119048Y-93013390D02*
X113166667Y-92965771D01*
X113166667Y-92965771D02*
X113261905Y-92918152D01*
X113261905Y-92918152D02*
X113357143Y-92918152D01*
X162317142Y-85954819D02*
X161840952Y-85954819D01*
X161840952Y-85954819D02*
X161840952Y-84954819D01*
X162650476Y-85431009D02*
X162983809Y-85431009D01*
X163126666Y-85954819D02*
X162650476Y-85954819D01*
X162650476Y-85954819D02*
X162650476Y-84954819D01*
X162650476Y-84954819D02*
X163126666Y-84954819D01*
X163555238Y-85954819D02*
X163555238Y-84954819D01*
X163555238Y-84954819D02*
X163793333Y-84954819D01*
X163793333Y-84954819D02*
X163936190Y-85002438D01*
X163936190Y-85002438D02*
X164031428Y-85097676D01*
X164031428Y-85097676D02*
X164079047Y-85192914D01*
X164079047Y-85192914D02*
X164126666Y-85383390D01*
X164126666Y-85383390D02*
X164126666Y-85526247D01*
X164126666Y-85526247D02*
X164079047Y-85716723D01*
X164079047Y-85716723D02*
X164031428Y-85811961D01*
X164031428Y-85811961D02*
X163936190Y-85907200D01*
X163936190Y-85907200D02*
X163793333Y-85954819D01*
X163793333Y-85954819D02*
X163555238Y-85954819D01*
X130357141Y-71954819D02*
X130023808Y-71478628D01*
X129785713Y-71954819D02*
X129785713Y-70954819D01*
X129785713Y-70954819D02*
X130166665Y-70954819D01*
X130166665Y-70954819D02*
X130261903Y-71002438D01*
X130261903Y-71002438D02*
X130309522Y-71050057D01*
X130309522Y-71050057D02*
X130357141Y-71145295D01*
X130357141Y-71145295D02*
X130357141Y-71288152D01*
X130357141Y-71288152D02*
X130309522Y-71383390D01*
X130309522Y-71383390D02*
X130261903Y-71431009D01*
X130261903Y-71431009D02*
X130166665Y-71478628D01*
X130166665Y-71478628D02*
X129785713Y-71478628D01*
X130547618Y-72050057D02*
X131309522Y-72050057D01*
X131404761Y-71288152D02*
X131785713Y-71288152D01*
X131547618Y-71954819D02*
X131547618Y-71097676D01*
X131547618Y-71097676D02*
X131595237Y-71002438D01*
X131595237Y-71002438D02*
X131690475Y-70954819D01*
X131690475Y-70954819D02*
X131785713Y-70954819D01*
X132261904Y-71954819D02*
X132166666Y-71907200D01*
X132166666Y-71907200D02*
X132119047Y-71859580D01*
X132119047Y-71859580D02*
X132071428Y-71764342D01*
X132071428Y-71764342D02*
X132071428Y-71478628D01*
X132071428Y-71478628D02*
X132119047Y-71383390D01*
X132119047Y-71383390D02*
X132166666Y-71335771D01*
X132166666Y-71335771D02*
X132261904Y-71288152D01*
X132261904Y-71288152D02*
X132404761Y-71288152D01*
X132404761Y-71288152D02*
X132499999Y-71335771D01*
X132499999Y-71335771D02*
X132547618Y-71383390D01*
X132547618Y-71383390D02*
X132595237Y-71478628D01*
X132595237Y-71478628D02*
X132595237Y-71764342D01*
X132595237Y-71764342D02*
X132547618Y-71859580D01*
X132547618Y-71859580D02*
X132499999Y-71907200D01*
X132499999Y-71907200D02*
X132404761Y-71954819D01*
X132404761Y-71954819D02*
X132261904Y-71954819D01*
X133023809Y-71954819D02*
X133023809Y-71288152D01*
X133023809Y-71478628D02*
X133071428Y-71383390D01*
X133071428Y-71383390D02*
X133119047Y-71335771D01*
X133119047Y-71335771D02*
X133214285Y-71288152D01*
X133214285Y-71288152D02*
X133309523Y-71288152D01*
X133404762Y-72050057D02*
X134166666Y-72050057D01*
X134404762Y-71954819D02*
X134404762Y-70954819D01*
X134404762Y-70954819D02*
X134785714Y-70954819D01*
X134785714Y-70954819D02*
X134880952Y-71002438D01*
X134880952Y-71002438D02*
X134928571Y-71050057D01*
X134928571Y-71050057D02*
X134976190Y-71145295D01*
X134976190Y-71145295D02*
X134976190Y-71288152D01*
X134976190Y-71288152D02*
X134928571Y-71383390D01*
X134928571Y-71383390D02*
X134880952Y-71431009D01*
X134880952Y-71431009D02*
X134785714Y-71478628D01*
X134785714Y-71478628D02*
X134404762Y-71478628D01*
X135404762Y-71954819D02*
X135404762Y-70954819D01*
X135833333Y-71954819D02*
X135833333Y-71431009D01*
X135833333Y-71431009D02*
X135785714Y-71335771D01*
X135785714Y-71335771D02*
X135690476Y-71288152D01*
X135690476Y-71288152D02*
X135547619Y-71288152D01*
X135547619Y-71288152D02*
X135452381Y-71335771D01*
X135452381Y-71335771D02*
X135404762Y-71383390D01*
X136452381Y-71954819D02*
X136357143Y-71907200D01*
X136357143Y-71907200D02*
X136309524Y-71859580D01*
X136309524Y-71859580D02*
X136261905Y-71764342D01*
X136261905Y-71764342D02*
X136261905Y-71478628D01*
X136261905Y-71478628D02*
X136309524Y-71383390D01*
X136309524Y-71383390D02*
X136357143Y-71335771D01*
X136357143Y-71335771D02*
X136452381Y-71288152D01*
X136452381Y-71288152D02*
X136595238Y-71288152D01*
X136595238Y-71288152D02*
X136690476Y-71335771D01*
X136690476Y-71335771D02*
X136738095Y-71383390D01*
X136738095Y-71383390D02*
X136785714Y-71478628D01*
X136785714Y-71478628D02*
X136785714Y-71764342D01*
X136785714Y-71764342D02*
X136738095Y-71859580D01*
X136738095Y-71859580D02*
X136690476Y-71907200D01*
X136690476Y-71907200D02*
X136595238Y-71954819D01*
X136595238Y-71954819D02*
X136452381Y-71954819D01*
X137071429Y-71288152D02*
X137452381Y-71288152D01*
X137214286Y-70954819D02*
X137214286Y-71811961D01*
X137214286Y-71811961D02*
X137261905Y-71907200D01*
X137261905Y-71907200D02*
X137357143Y-71954819D01*
X137357143Y-71954819D02*
X137452381Y-71954819D01*
X137928572Y-71954819D02*
X137833334Y-71907200D01*
X137833334Y-71907200D02*
X137785715Y-71859580D01*
X137785715Y-71859580D02*
X137738096Y-71764342D01*
X137738096Y-71764342D02*
X137738096Y-71478628D01*
X137738096Y-71478628D02*
X137785715Y-71383390D01*
X137785715Y-71383390D02*
X137833334Y-71335771D01*
X137833334Y-71335771D02*
X137928572Y-71288152D01*
X137928572Y-71288152D02*
X138071429Y-71288152D01*
X138071429Y-71288152D02*
X138166667Y-71335771D01*
X138166667Y-71335771D02*
X138214286Y-71383390D01*
X138214286Y-71383390D02*
X138261905Y-71478628D01*
X138261905Y-71478628D02*
X138261905Y-71764342D01*
X138261905Y-71764342D02*
X138214286Y-71859580D01*
X138214286Y-71859580D02*
X138166667Y-71907200D01*
X138166667Y-71907200D02*
X138071429Y-71954819D01*
X138071429Y-71954819D02*
X137928572Y-71954819D01*
X139261905Y-71954819D02*
X138928572Y-71478628D01*
X138690477Y-71954819D02*
X138690477Y-70954819D01*
X138690477Y-70954819D02*
X139071429Y-70954819D01*
X139071429Y-70954819D02*
X139166667Y-71002438D01*
X139166667Y-71002438D02*
X139214286Y-71050057D01*
X139214286Y-71050057D02*
X139261905Y-71145295D01*
X139261905Y-71145295D02*
X139261905Y-71288152D01*
X139261905Y-71288152D02*
X139214286Y-71383390D01*
X139214286Y-71383390D02*
X139166667Y-71431009D01*
X139166667Y-71431009D02*
X139071429Y-71478628D01*
X139071429Y-71478628D02*
X138690477Y-71478628D01*
X117357141Y-85954819D02*
X117023808Y-85478628D01*
X116785713Y-85954819D02*
X116785713Y-84954819D01*
X116785713Y-84954819D02*
X117166665Y-84954819D01*
X117166665Y-84954819D02*
X117261903Y-85002438D01*
X117261903Y-85002438D02*
X117309522Y-85050057D01*
X117309522Y-85050057D02*
X117357141Y-85145295D01*
X117357141Y-85145295D02*
X117357141Y-85288152D01*
X117357141Y-85288152D02*
X117309522Y-85383390D01*
X117309522Y-85383390D02*
X117261903Y-85431009D01*
X117261903Y-85431009D02*
X117166665Y-85478628D01*
X117166665Y-85478628D02*
X116785713Y-85478628D01*
X117547618Y-86050057D02*
X118309522Y-86050057D01*
X118404761Y-85288152D02*
X118785713Y-85288152D01*
X118547618Y-85954819D02*
X118547618Y-85097676D01*
X118547618Y-85097676D02*
X118595237Y-85002438D01*
X118595237Y-85002438D02*
X118690475Y-84954819D01*
X118690475Y-84954819D02*
X118785713Y-84954819D01*
X119261904Y-85954819D02*
X119166666Y-85907200D01*
X119166666Y-85907200D02*
X119119047Y-85859580D01*
X119119047Y-85859580D02*
X119071428Y-85764342D01*
X119071428Y-85764342D02*
X119071428Y-85478628D01*
X119071428Y-85478628D02*
X119119047Y-85383390D01*
X119119047Y-85383390D02*
X119166666Y-85335771D01*
X119166666Y-85335771D02*
X119261904Y-85288152D01*
X119261904Y-85288152D02*
X119404761Y-85288152D01*
X119404761Y-85288152D02*
X119499999Y-85335771D01*
X119499999Y-85335771D02*
X119547618Y-85383390D01*
X119547618Y-85383390D02*
X119595237Y-85478628D01*
X119595237Y-85478628D02*
X119595237Y-85764342D01*
X119595237Y-85764342D02*
X119547618Y-85859580D01*
X119547618Y-85859580D02*
X119499999Y-85907200D01*
X119499999Y-85907200D02*
X119404761Y-85954819D01*
X119404761Y-85954819D02*
X119261904Y-85954819D01*
X120023809Y-85954819D02*
X120023809Y-85288152D01*
X120023809Y-85478628D02*
X120071428Y-85383390D01*
X120071428Y-85383390D02*
X120119047Y-85335771D01*
X120119047Y-85335771D02*
X120214285Y-85288152D01*
X120214285Y-85288152D02*
X120309523Y-85288152D01*
X120404762Y-86050057D02*
X121166666Y-86050057D01*
X121785714Y-85907200D02*
X121690476Y-85954819D01*
X121690476Y-85954819D02*
X121500000Y-85954819D01*
X121500000Y-85954819D02*
X121404762Y-85907200D01*
X121404762Y-85907200D02*
X121357143Y-85811961D01*
X121357143Y-85811961D02*
X121357143Y-85431009D01*
X121357143Y-85431009D02*
X121404762Y-85335771D01*
X121404762Y-85335771D02*
X121500000Y-85288152D01*
X121500000Y-85288152D02*
X121690476Y-85288152D01*
X121690476Y-85288152D02*
X121785714Y-85335771D01*
X121785714Y-85335771D02*
X121833333Y-85431009D01*
X121833333Y-85431009D02*
X121833333Y-85526247D01*
X121833333Y-85526247D02*
X121357143Y-85621485D01*
X122261905Y-85954819D02*
X122261905Y-85288152D01*
X122261905Y-85383390D02*
X122309524Y-85335771D01*
X122309524Y-85335771D02*
X122404762Y-85288152D01*
X122404762Y-85288152D02*
X122547619Y-85288152D01*
X122547619Y-85288152D02*
X122642857Y-85335771D01*
X122642857Y-85335771D02*
X122690476Y-85431009D01*
X122690476Y-85431009D02*
X122690476Y-85954819D01*
X122690476Y-85431009D02*
X122738095Y-85335771D01*
X122738095Y-85335771D02*
X122833333Y-85288152D01*
X122833333Y-85288152D02*
X122976190Y-85288152D01*
X122976190Y-85288152D02*
X123071429Y-85335771D01*
X123071429Y-85335771D02*
X123119048Y-85431009D01*
X123119048Y-85431009D02*
X123119048Y-85954819D01*
X123595238Y-85954819D02*
X123595238Y-85288152D01*
X123595238Y-84954819D02*
X123547619Y-85002438D01*
X123547619Y-85002438D02*
X123595238Y-85050057D01*
X123595238Y-85050057D02*
X123642857Y-85002438D01*
X123642857Y-85002438D02*
X123595238Y-84954819D01*
X123595238Y-84954819D02*
X123595238Y-85050057D01*
X123928571Y-85288152D02*
X124309523Y-85288152D01*
X124071428Y-84954819D02*
X124071428Y-85811961D01*
X124071428Y-85811961D02*
X124119047Y-85907200D01*
X124119047Y-85907200D02*
X124214285Y-85954819D01*
X124214285Y-85954819D02*
X124309523Y-85954819D01*
X124500000Y-85288152D02*
X124880952Y-85288152D01*
X124642857Y-84954819D02*
X124642857Y-85811961D01*
X124642857Y-85811961D02*
X124690476Y-85907200D01*
X124690476Y-85907200D02*
X124785714Y-85954819D01*
X124785714Y-85954819D02*
X124880952Y-85954819D01*
X125595238Y-85907200D02*
X125500000Y-85954819D01*
X125500000Y-85954819D02*
X125309524Y-85954819D01*
X125309524Y-85954819D02*
X125214286Y-85907200D01*
X125214286Y-85907200D02*
X125166667Y-85811961D01*
X125166667Y-85811961D02*
X125166667Y-85431009D01*
X125166667Y-85431009D02*
X125214286Y-85335771D01*
X125214286Y-85335771D02*
X125309524Y-85288152D01*
X125309524Y-85288152D02*
X125500000Y-85288152D01*
X125500000Y-85288152D02*
X125595238Y-85335771D01*
X125595238Y-85335771D02*
X125642857Y-85431009D01*
X125642857Y-85431009D02*
X125642857Y-85526247D01*
X125642857Y-85526247D02*
X125166667Y-85621485D01*
X126071429Y-85954819D02*
X126071429Y-85288152D01*
X126071429Y-85478628D02*
X126119048Y-85383390D01*
X126119048Y-85383390D02*
X126166667Y-85335771D01*
X126166667Y-85335771D02*
X126261905Y-85288152D01*
X126261905Y-85288152D02*
X126357143Y-85288152D01*
X157817141Y-72084819D02*
X157483808Y-71608628D01*
X157245713Y-72084819D02*
X157245713Y-71084819D01*
X157245713Y-71084819D02*
X157626665Y-71084819D01*
X157626665Y-71084819D02*
X157721903Y-71132438D01*
X157721903Y-71132438D02*
X157769522Y-71180057D01*
X157769522Y-71180057D02*
X157817141Y-71275295D01*
X157817141Y-71275295D02*
X157817141Y-71418152D01*
X157817141Y-71418152D02*
X157769522Y-71513390D01*
X157769522Y-71513390D02*
X157721903Y-71561009D01*
X157721903Y-71561009D02*
X157626665Y-71608628D01*
X157626665Y-71608628D02*
X157245713Y-71608628D01*
X158007618Y-72180057D02*
X158769522Y-72180057D01*
X158864761Y-71418152D02*
X159245713Y-71418152D01*
X159007618Y-72084819D02*
X159007618Y-71227676D01*
X159007618Y-71227676D02*
X159055237Y-71132438D01*
X159055237Y-71132438D02*
X159150475Y-71084819D01*
X159150475Y-71084819D02*
X159245713Y-71084819D01*
X159721904Y-72084819D02*
X159626666Y-72037200D01*
X159626666Y-72037200D02*
X159579047Y-71989580D01*
X159579047Y-71989580D02*
X159531428Y-71894342D01*
X159531428Y-71894342D02*
X159531428Y-71608628D01*
X159531428Y-71608628D02*
X159579047Y-71513390D01*
X159579047Y-71513390D02*
X159626666Y-71465771D01*
X159626666Y-71465771D02*
X159721904Y-71418152D01*
X159721904Y-71418152D02*
X159864761Y-71418152D01*
X159864761Y-71418152D02*
X159959999Y-71465771D01*
X159959999Y-71465771D02*
X160007618Y-71513390D01*
X160007618Y-71513390D02*
X160055237Y-71608628D01*
X160055237Y-71608628D02*
X160055237Y-71894342D01*
X160055237Y-71894342D02*
X160007618Y-71989580D01*
X160007618Y-71989580D02*
X159959999Y-72037200D01*
X159959999Y-72037200D02*
X159864761Y-72084819D01*
X159864761Y-72084819D02*
X159721904Y-72084819D01*
X160483809Y-72084819D02*
X160483809Y-71418152D01*
X160483809Y-71608628D02*
X160531428Y-71513390D01*
X160531428Y-71513390D02*
X160579047Y-71465771D01*
X160579047Y-71465771D02*
X160674285Y-71418152D01*
X160674285Y-71418152D02*
X160769523Y-71418152D01*
X160864762Y-72180057D02*
X161626666Y-72180057D01*
X161864762Y-72084819D02*
X161864762Y-71084819D01*
X161864762Y-71084819D02*
X162245714Y-71084819D01*
X162245714Y-71084819D02*
X162340952Y-71132438D01*
X162340952Y-71132438D02*
X162388571Y-71180057D01*
X162388571Y-71180057D02*
X162436190Y-71275295D01*
X162436190Y-71275295D02*
X162436190Y-71418152D01*
X162436190Y-71418152D02*
X162388571Y-71513390D01*
X162388571Y-71513390D02*
X162340952Y-71561009D01*
X162340952Y-71561009D02*
X162245714Y-71608628D01*
X162245714Y-71608628D02*
X161864762Y-71608628D01*
X162864762Y-72084819D02*
X162864762Y-71084819D01*
X163293333Y-72084819D02*
X163293333Y-71561009D01*
X163293333Y-71561009D02*
X163245714Y-71465771D01*
X163245714Y-71465771D02*
X163150476Y-71418152D01*
X163150476Y-71418152D02*
X163007619Y-71418152D01*
X163007619Y-71418152D02*
X162912381Y-71465771D01*
X162912381Y-71465771D02*
X162864762Y-71513390D01*
X163912381Y-72084819D02*
X163817143Y-72037200D01*
X163817143Y-72037200D02*
X163769524Y-71989580D01*
X163769524Y-71989580D02*
X163721905Y-71894342D01*
X163721905Y-71894342D02*
X163721905Y-71608628D01*
X163721905Y-71608628D02*
X163769524Y-71513390D01*
X163769524Y-71513390D02*
X163817143Y-71465771D01*
X163817143Y-71465771D02*
X163912381Y-71418152D01*
X163912381Y-71418152D02*
X164055238Y-71418152D01*
X164055238Y-71418152D02*
X164150476Y-71465771D01*
X164150476Y-71465771D02*
X164198095Y-71513390D01*
X164198095Y-71513390D02*
X164245714Y-71608628D01*
X164245714Y-71608628D02*
X164245714Y-71894342D01*
X164245714Y-71894342D02*
X164198095Y-71989580D01*
X164198095Y-71989580D02*
X164150476Y-72037200D01*
X164150476Y-72037200D02*
X164055238Y-72084819D01*
X164055238Y-72084819D02*
X163912381Y-72084819D01*
X164531429Y-71418152D02*
X164912381Y-71418152D01*
X164674286Y-71084819D02*
X164674286Y-71941961D01*
X164674286Y-71941961D02*
X164721905Y-72037200D01*
X164721905Y-72037200D02*
X164817143Y-72084819D01*
X164817143Y-72084819D02*
X164912381Y-72084819D01*
X165388572Y-72084819D02*
X165293334Y-72037200D01*
X165293334Y-72037200D02*
X165245715Y-71989580D01*
X165245715Y-71989580D02*
X165198096Y-71894342D01*
X165198096Y-71894342D02*
X165198096Y-71608628D01*
X165198096Y-71608628D02*
X165245715Y-71513390D01*
X165245715Y-71513390D02*
X165293334Y-71465771D01*
X165293334Y-71465771D02*
X165388572Y-71418152D01*
X165388572Y-71418152D02*
X165531429Y-71418152D01*
X165531429Y-71418152D02*
X165626667Y-71465771D01*
X165626667Y-71465771D02*
X165674286Y-71513390D01*
X165674286Y-71513390D02*
X165721905Y-71608628D01*
X165721905Y-71608628D02*
X165721905Y-71894342D01*
X165721905Y-71894342D02*
X165674286Y-71989580D01*
X165674286Y-71989580D02*
X165626667Y-72037200D01*
X165626667Y-72037200D02*
X165531429Y-72084819D01*
X165531429Y-72084819D02*
X165388572Y-72084819D01*
X166721905Y-72084819D02*
X166388572Y-71608628D01*
X166150477Y-72084819D02*
X166150477Y-71084819D01*
X166150477Y-71084819D02*
X166531429Y-71084819D01*
X166531429Y-71084819D02*
X166626667Y-71132438D01*
X166626667Y-71132438D02*
X166674286Y-71180057D01*
X166674286Y-71180057D02*
X166721905Y-71275295D01*
X166721905Y-71275295D02*
X166721905Y-71418152D01*
X166721905Y-71418152D02*
X166674286Y-71513390D01*
X166674286Y-71513390D02*
X166626667Y-71561009D01*
X166626667Y-71561009D02*
X166531429Y-71608628D01*
X166531429Y-71608628D02*
X166150477Y-71608628D01*
X103297141Y-79084819D02*
X102963808Y-78608628D01*
X102725713Y-79084819D02*
X102725713Y-78084819D01*
X102725713Y-78084819D02*
X103106665Y-78084819D01*
X103106665Y-78084819D02*
X103201903Y-78132438D01*
X103201903Y-78132438D02*
X103249522Y-78180057D01*
X103249522Y-78180057D02*
X103297141Y-78275295D01*
X103297141Y-78275295D02*
X103297141Y-78418152D01*
X103297141Y-78418152D02*
X103249522Y-78513390D01*
X103249522Y-78513390D02*
X103201903Y-78561009D01*
X103201903Y-78561009D02*
X103106665Y-78608628D01*
X103106665Y-78608628D02*
X102725713Y-78608628D01*
X103487618Y-79180057D02*
X104249522Y-79180057D01*
X104344761Y-78418152D02*
X104725713Y-78418152D01*
X104487618Y-79084819D02*
X104487618Y-78227676D01*
X104487618Y-78227676D02*
X104535237Y-78132438D01*
X104535237Y-78132438D02*
X104630475Y-78084819D01*
X104630475Y-78084819D02*
X104725713Y-78084819D01*
X105201904Y-79084819D02*
X105106666Y-79037200D01*
X105106666Y-79037200D02*
X105059047Y-78989580D01*
X105059047Y-78989580D02*
X105011428Y-78894342D01*
X105011428Y-78894342D02*
X105011428Y-78608628D01*
X105011428Y-78608628D02*
X105059047Y-78513390D01*
X105059047Y-78513390D02*
X105106666Y-78465771D01*
X105106666Y-78465771D02*
X105201904Y-78418152D01*
X105201904Y-78418152D02*
X105344761Y-78418152D01*
X105344761Y-78418152D02*
X105439999Y-78465771D01*
X105439999Y-78465771D02*
X105487618Y-78513390D01*
X105487618Y-78513390D02*
X105535237Y-78608628D01*
X105535237Y-78608628D02*
X105535237Y-78894342D01*
X105535237Y-78894342D02*
X105487618Y-78989580D01*
X105487618Y-78989580D02*
X105439999Y-79037200D01*
X105439999Y-79037200D02*
X105344761Y-79084819D01*
X105344761Y-79084819D02*
X105201904Y-79084819D01*
X105963809Y-79084819D02*
X105963809Y-78418152D01*
X105963809Y-78608628D02*
X106011428Y-78513390D01*
X106011428Y-78513390D02*
X106059047Y-78465771D01*
X106059047Y-78465771D02*
X106154285Y-78418152D01*
X106154285Y-78418152D02*
X106249523Y-78418152D01*
X106344762Y-79180057D02*
X107106666Y-79180057D01*
X107725714Y-79037200D02*
X107630476Y-79084819D01*
X107630476Y-79084819D02*
X107440000Y-79084819D01*
X107440000Y-79084819D02*
X107344762Y-79037200D01*
X107344762Y-79037200D02*
X107297143Y-78941961D01*
X107297143Y-78941961D02*
X107297143Y-78561009D01*
X107297143Y-78561009D02*
X107344762Y-78465771D01*
X107344762Y-78465771D02*
X107440000Y-78418152D01*
X107440000Y-78418152D02*
X107630476Y-78418152D01*
X107630476Y-78418152D02*
X107725714Y-78465771D01*
X107725714Y-78465771D02*
X107773333Y-78561009D01*
X107773333Y-78561009D02*
X107773333Y-78656247D01*
X107773333Y-78656247D02*
X107297143Y-78751485D01*
X108201905Y-79084819D02*
X108201905Y-78418152D01*
X108201905Y-78513390D02*
X108249524Y-78465771D01*
X108249524Y-78465771D02*
X108344762Y-78418152D01*
X108344762Y-78418152D02*
X108487619Y-78418152D01*
X108487619Y-78418152D02*
X108582857Y-78465771D01*
X108582857Y-78465771D02*
X108630476Y-78561009D01*
X108630476Y-78561009D02*
X108630476Y-79084819D01*
X108630476Y-78561009D02*
X108678095Y-78465771D01*
X108678095Y-78465771D02*
X108773333Y-78418152D01*
X108773333Y-78418152D02*
X108916190Y-78418152D01*
X108916190Y-78418152D02*
X109011429Y-78465771D01*
X109011429Y-78465771D02*
X109059048Y-78561009D01*
X109059048Y-78561009D02*
X109059048Y-79084819D01*
X109535238Y-79084819D02*
X109535238Y-78418152D01*
X109535238Y-78084819D02*
X109487619Y-78132438D01*
X109487619Y-78132438D02*
X109535238Y-78180057D01*
X109535238Y-78180057D02*
X109582857Y-78132438D01*
X109582857Y-78132438D02*
X109535238Y-78084819D01*
X109535238Y-78084819D02*
X109535238Y-78180057D01*
X109868571Y-78418152D02*
X110249523Y-78418152D01*
X110011428Y-78084819D02*
X110011428Y-78941961D01*
X110011428Y-78941961D02*
X110059047Y-79037200D01*
X110059047Y-79037200D02*
X110154285Y-79084819D01*
X110154285Y-79084819D02*
X110249523Y-79084819D01*
X110440000Y-78418152D02*
X110820952Y-78418152D01*
X110582857Y-78084819D02*
X110582857Y-78941961D01*
X110582857Y-78941961D02*
X110630476Y-79037200D01*
X110630476Y-79037200D02*
X110725714Y-79084819D01*
X110725714Y-79084819D02*
X110820952Y-79084819D01*
X111535238Y-79037200D02*
X111440000Y-79084819D01*
X111440000Y-79084819D02*
X111249524Y-79084819D01*
X111249524Y-79084819D02*
X111154286Y-79037200D01*
X111154286Y-79037200D02*
X111106667Y-78941961D01*
X111106667Y-78941961D02*
X111106667Y-78561009D01*
X111106667Y-78561009D02*
X111154286Y-78465771D01*
X111154286Y-78465771D02*
X111249524Y-78418152D01*
X111249524Y-78418152D02*
X111440000Y-78418152D01*
X111440000Y-78418152D02*
X111535238Y-78465771D01*
X111535238Y-78465771D02*
X111582857Y-78561009D01*
X111582857Y-78561009D02*
X111582857Y-78656247D01*
X111582857Y-78656247D02*
X111106667Y-78751485D01*
X112011429Y-79084819D02*
X112011429Y-78418152D01*
X112011429Y-78608628D02*
X112059048Y-78513390D01*
X112059048Y-78513390D02*
X112106667Y-78465771D01*
X112106667Y-78465771D02*
X112201905Y-78418152D01*
X112201905Y-78418152D02*
X112297143Y-78418152D01*
X144197617Y-85954819D02*
X143864284Y-85478628D01*
X143626189Y-85954819D02*
X143626189Y-84954819D01*
X143626189Y-84954819D02*
X144007141Y-84954819D01*
X144007141Y-84954819D02*
X144102379Y-85002438D01*
X144102379Y-85002438D02*
X144149998Y-85050057D01*
X144149998Y-85050057D02*
X144197617Y-85145295D01*
X144197617Y-85145295D02*
X144197617Y-85288152D01*
X144197617Y-85288152D02*
X144149998Y-85383390D01*
X144149998Y-85383390D02*
X144102379Y-85431009D01*
X144102379Y-85431009D02*
X144007141Y-85478628D01*
X144007141Y-85478628D02*
X143626189Y-85478628D01*
X144388094Y-86050057D02*
X145149998Y-86050057D01*
X145245237Y-85288152D02*
X145626189Y-85288152D01*
X145388094Y-85954819D02*
X145388094Y-85097676D01*
X145388094Y-85097676D02*
X145435713Y-85002438D01*
X145435713Y-85002438D02*
X145530951Y-84954819D01*
X145530951Y-84954819D02*
X145626189Y-84954819D01*
X146102380Y-85954819D02*
X146007142Y-85907200D01*
X146007142Y-85907200D02*
X145959523Y-85859580D01*
X145959523Y-85859580D02*
X145911904Y-85764342D01*
X145911904Y-85764342D02*
X145911904Y-85478628D01*
X145911904Y-85478628D02*
X145959523Y-85383390D01*
X145959523Y-85383390D02*
X146007142Y-85335771D01*
X146007142Y-85335771D02*
X146102380Y-85288152D01*
X146102380Y-85288152D02*
X146245237Y-85288152D01*
X146245237Y-85288152D02*
X146340475Y-85335771D01*
X146340475Y-85335771D02*
X146388094Y-85383390D01*
X146388094Y-85383390D02*
X146435713Y-85478628D01*
X146435713Y-85478628D02*
X146435713Y-85764342D01*
X146435713Y-85764342D02*
X146388094Y-85859580D01*
X146388094Y-85859580D02*
X146340475Y-85907200D01*
X146340475Y-85907200D02*
X146245237Y-85954819D01*
X146245237Y-85954819D02*
X146102380Y-85954819D01*
X146864285Y-85954819D02*
X146864285Y-85288152D01*
X146864285Y-85478628D02*
X146911904Y-85383390D01*
X146911904Y-85383390D02*
X146959523Y-85335771D01*
X146959523Y-85335771D02*
X147054761Y-85288152D01*
X147054761Y-85288152D02*
X147149999Y-85288152D01*
X147245238Y-86050057D02*
X148007142Y-86050057D01*
X148245238Y-85954819D02*
X148245238Y-85288152D01*
X148245238Y-85478628D02*
X148292857Y-85383390D01*
X148292857Y-85383390D02*
X148340476Y-85335771D01*
X148340476Y-85335771D02*
X148435714Y-85288152D01*
X148435714Y-85288152D02*
X148530952Y-85288152D01*
X149245238Y-85907200D02*
X149150000Y-85954819D01*
X149150000Y-85954819D02*
X148959524Y-85954819D01*
X148959524Y-85954819D02*
X148864286Y-85907200D01*
X148864286Y-85907200D02*
X148816667Y-85811961D01*
X148816667Y-85811961D02*
X148816667Y-85431009D01*
X148816667Y-85431009D02*
X148864286Y-85335771D01*
X148864286Y-85335771D02*
X148959524Y-85288152D01*
X148959524Y-85288152D02*
X149150000Y-85288152D01*
X149150000Y-85288152D02*
X149245238Y-85335771D01*
X149245238Y-85335771D02*
X149292857Y-85431009D01*
X149292857Y-85431009D02*
X149292857Y-85526247D01*
X149292857Y-85526247D02*
X148816667Y-85621485D01*
X150150000Y-85907200D02*
X150054762Y-85954819D01*
X150054762Y-85954819D02*
X149864286Y-85954819D01*
X149864286Y-85954819D02*
X149769048Y-85907200D01*
X149769048Y-85907200D02*
X149721429Y-85859580D01*
X149721429Y-85859580D02*
X149673810Y-85764342D01*
X149673810Y-85764342D02*
X149673810Y-85478628D01*
X149673810Y-85478628D02*
X149721429Y-85383390D01*
X149721429Y-85383390D02*
X149769048Y-85335771D01*
X149769048Y-85335771D02*
X149864286Y-85288152D01*
X149864286Y-85288152D02*
X150054762Y-85288152D01*
X150054762Y-85288152D02*
X150150000Y-85335771D01*
X150959524Y-85907200D02*
X150864286Y-85954819D01*
X150864286Y-85954819D02*
X150673810Y-85954819D01*
X150673810Y-85954819D02*
X150578572Y-85907200D01*
X150578572Y-85907200D02*
X150530953Y-85811961D01*
X150530953Y-85811961D02*
X150530953Y-85431009D01*
X150530953Y-85431009D02*
X150578572Y-85335771D01*
X150578572Y-85335771D02*
X150673810Y-85288152D01*
X150673810Y-85288152D02*
X150864286Y-85288152D01*
X150864286Y-85288152D02*
X150959524Y-85335771D01*
X150959524Y-85335771D02*
X151007143Y-85431009D01*
X151007143Y-85431009D02*
X151007143Y-85526247D01*
X151007143Y-85526247D02*
X150530953Y-85621485D01*
X151435715Y-85954819D02*
X151435715Y-85288152D01*
X151435715Y-84954819D02*
X151388096Y-85002438D01*
X151388096Y-85002438D02*
X151435715Y-85050057D01*
X151435715Y-85050057D02*
X151483334Y-85002438D01*
X151483334Y-85002438D02*
X151435715Y-84954819D01*
X151435715Y-84954819D02*
X151435715Y-85050057D01*
X151816667Y-85288152D02*
X152054762Y-85954819D01*
X152054762Y-85954819D02*
X152292857Y-85288152D01*
X153054762Y-85907200D02*
X152959524Y-85954819D01*
X152959524Y-85954819D02*
X152769048Y-85954819D01*
X152769048Y-85954819D02*
X152673810Y-85907200D01*
X152673810Y-85907200D02*
X152626191Y-85811961D01*
X152626191Y-85811961D02*
X152626191Y-85431009D01*
X152626191Y-85431009D02*
X152673810Y-85335771D01*
X152673810Y-85335771D02*
X152769048Y-85288152D01*
X152769048Y-85288152D02*
X152959524Y-85288152D01*
X152959524Y-85288152D02*
X153054762Y-85335771D01*
X153054762Y-85335771D02*
X153102381Y-85431009D01*
X153102381Y-85431009D02*
X153102381Y-85526247D01*
X153102381Y-85526247D02*
X152626191Y-85621485D01*
X153530953Y-85954819D02*
X153530953Y-85288152D01*
X153530953Y-85478628D02*
X153578572Y-85383390D01*
X153578572Y-85383390D02*
X153626191Y-85335771D01*
X153626191Y-85335771D02*
X153721429Y-85288152D01*
X153721429Y-85288152D02*
X153816667Y-85288152D01*
X130547617Y-79084819D02*
X130214284Y-78608628D01*
X129976189Y-79084819D02*
X129976189Y-78084819D01*
X129976189Y-78084819D02*
X130357141Y-78084819D01*
X130357141Y-78084819D02*
X130452379Y-78132438D01*
X130452379Y-78132438D02*
X130499998Y-78180057D01*
X130499998Y-78180057D02*
X130547617Y-78275295D01*
X130547617Y-78275295D02*
X130547617Y-78418152D01*
X130547617Y-78418152D02*
X130499998Y-78513390D01*
X130499998Y-78513390D02*
X130452379Y-78561009D01*
X130452379Y-78561009D02*
X130357141Y-78608628D01*
X130357141Y-78608628D02*
X129976189Y-78608628D01*
X130738094Y-79180057D02*
X131499998Y-79180057D01*
X131595237Y-78418152D02*
X131976189Y-78418152D01*
X131738094Y-79084819D02*
X131738094Y-78227676D01*
X131738094Y-78227676D02*
X131785713Y-78132438D01*
X131785713Y-78132438D02*
X131880951Y-78084819D01*
X131880951Y-78084819D02*
X131976189Y-78084819D01*
X132452380Y-79084819D02*
X132357142Y-79037200D01*
X132357142Y-79037200D02*
X132309523Y-78989580D01*
X132309523Y-78989580D02*
X132261904Y-78894342D01*
X132261904Y-78894342D02*
X132261904Y-78608628D01*
X132261904Y-78608628D02*
X132309523Y-78513390D01*
X132309523Y-78513390D02*
X132357142Y-78465771D01*
X132357142Y-78465771D02*
X132452380Y-78418152D01*
X132452380Y-78418152D02*
X132595237Y-78418152D01*
X132595237Y-78418152D02*
X132690475Y-78465771D01*
X132690475Y-78465771D02*
X132738094Y-78513390D01*
X132738094Y-78513390D02*
X132785713Y-78608628D01*
X132785713Y-78608628D02*
X132785713Y-78894342D01*
X132785713Y-78894342D02*
X132738094Y-78989580D01*
X132738094Y-78989580D02*
X132690475Y-79037200D01*
X132690475Y-79037200D02*
X132595237Y-79084819D01*
X132595237Y-79084819D02*
X132452380Y-79084819D01*
X133214285Y-79084819D02*
X133214285Y-78418152D01*
X133214285Y-78608628D02*
X133261904Y-78513390D01*
X133261904Y-78513390D02*
X133309523Y-78465771D01*
X133309523Y-78465771D02*
X133404761Y-78418152D01*
X133404761Y-78418152D02*
X133499999Y-78418152D01*
X133595238Y-79180057D02*
X134357142Y-79180057D01*
X134595238Y-79084819D02*
X134595238Y-78418152D01*
X134595238Y-78608628D02*
X134642857Y-78513390D01*
X134642857Y-78513390D02*
X134690476Y-78465771D01*
X134690476Y-78465771D02*
X134785714Y-78418152D01*
X134785714Y-78418152D02*
X134880952Y-78418152D01*
X135595238Y-79037200D02*
X135500000Y-79084819D01*
X135500000Y-79084819D02*
X135309524Y-79084819D01*
X135309524Y-79084819D02*
X135214286Y-79037200D01*
X135214286Y-79037200D02*
X135166667Y-78941961D01*
X135166667Y-78941961D02*
X135166667Y-78561009D01*
X135166667Y-78561009D02*
X135214286Y-78465771D01*
X135214286Y-78465771D02*
X135309524Y-78418152D01*
X135309524Y-78418152D02*
X135500000Y-78418152D01*
X135500000Y-78418152D02*
X135595238Y-78465771D01*
X135595238Y-78465771D02*
X135642857Y-78561009D01*
X135642857Y-78561009D02*
X135642857Y-78656247D01*
X135642857Y-78656247D02*
X135166667Y-78751485D01*
X136500000Y-79037200D02*
X136404762Y-79084819D01*
X136404762Y-79084819D02*
X136214286Y-79084819D01*
X136214286Y-79084819D02*
X136119048Y-79037200D01*
X136119048Y-79037200D02*
X136071429Y-78989580D01*
X136071429Y-78989580D02*
X136023810Y-78894342D01*
X136023810Y-78894342D02*
X136023810Y-78608628D01*
X136023810Y-78608628D02*
X136071429Y-78513390D01*
X136071429Y-78513390D02*
X136119048Y-78465771D01*
X136119048Y-78465771D02*
X136214286Y-78418152D01*
X136214286Y-78418152D02*
X136404762Y-78418152D01*
X136404762Y-78418152D02*
X136500000Y-78465771D01*
X137309524Y-79037200D02*
X137214286Y-79084819D01*
X137214286Y-79084819D02*
X137023810Y-79084819D01*
X137023810Y-79084819D02*
X136928572Y-79037200D01*
X136928572Y-79037200D02*
X136880953Y-78941961D01*
X136880953Y-78941961D02*
X136880953Y-78561009D01*
X136880953Y-78561009D02*
X136928572Y-78465771D01*
X136928572Y-78465771D02*
X137023810Y-78418152D01*
X137023810Y-78418152D02*
X137214286Y-78418152D01*
X137214286Y-78418152D02*
X137309524Y-78465771D01*
X137309524Y-78465771D02*
X137357143Y-78561009D01*
X137357143Y-78561009D02*
X137357143Y-78656247D01*
X137357143Y-78656247D02*
X136880953Y-78751485D01*
X137785715Y-79084819D02*
X137785715Y-78418152D01*
X137785715Y-78084819D02*
X137738096Y-78132438D01*
X137738096Y-78132438D02*
X137785715Y-78180057D01*
X137785715Y-78180057D02*
X137833334Y-78132438D01*
X137833334Y-78132438D02*
X137785715Y-78084819D01*
X137785715Y-78084819D02*
X137785715Y-78180057D01*
X138166667Y-78418152D02*
X138404762Y-79084819D01*
X138404762Y-79084819D02*
X138642857Y-78418152D01*
X139404762Y-79037200D02*
X139309524Y-79084819D01*
X139309524Y-79084819D02*
X139119048Y-79084819D01*
X139119048Y-79084819D02*
X139023810Y-79037200D01*
X139023810Y-79037200D02*
X138976191Y-78941961D01*
X138976191Y-78941961D02*
X138976191Y-78561009D01*
X138976191Y-78561009D02*
X139023810Y-78465771D01*
X139023810Y-78465771D02*
X139119048Y-78418152D01*
X139119048Y-78418152D02*
X139309524Y-78418152D01*
X139309524Y-78418152D02*
X139404762Y-78465771D01*
X139404762Y-78465771D02*
X139452381Y-78561009D01*
X139452381Y-78561009D02*
X139452381Y-78656247D01*
X139452381Y-78656247D02*
X138976191Y-78751485D01*
X139880953Y-79084819D02*
X139880953Y-78418152D01*
X139880953Y-78608628D02*
X139928572Y-78513390D01*
X139928572Y-78513390D02*
X139976191Y-78465771D01*
X139976191Y-78465771D02*
X140071429Y-78418152D01*
X140071429Y-78418152D02*
X140166667Y-78418152D01*
X103492381Y-85954819D02*
X103492381Y-84954819D01*
X104539999Y-85954819D02*
X104206666Y-85478628D01*
X103968571Y-85954819D02*
X103968571Y-84954819D01*
X103968571Y-84954819D02*
X104349523Y-84954819D01*
X104349523Y-84954819D02*
X104444761Y-85002438D01*
X104444761Y-85002438D02*
X104492380Y-85050057D01*
X104492380Y-85050057D02*
X104539999Y-85145295D01*
X104539999Y-85145295D02*
X104539999Y-85288152D01*
X104539999Y-85288152D02*
X104492380Y-85383390D01*
X104492380Y-85383390D02*
X104444761Y-85431009D01*
X104444761Y-85431009D02*
X104349523Y-85478628D01*
X104349523Y-85478628D02*
X103968571Y-85478628D01*
X105730476Y-85431009D02*
X106063809Y-85431009D01*
X106206666Y-85954819D02*
X105730476Y-85954819D01*
X105730476Y-85954819D02*
X105730476Y-84954819D01*
X105730476Y-84954819D02*
X106206666Y-84954819D01*
X106635238Y-85954819D02*
X106635238Y-85288152D01*
X106635238Y-85383390D02*
X106682857Y-85335771D01*
X106682857Y-85335771D02*
X106778095Y-85288152D01*
X106778095Y-85288152D02*
X106920952Y-85288152D01*
X106920952Y-85288152D02*
X107016190Y-85335771D01*
X107016190Y-85335771D02*
X107063809Y-85431009D01*
X107063809Y-85431009D02*
X107063809Y-85954819D01*
X107063809Y-85431009D02*
X107111428Y-85335771D01*
X107111428Y-85335771D02*
X107206666Y-85288152D01*
X107206666Y-85288152D02*
X107349523Y-85288152D01*
X107349523Y-85288152D02*
X107444762Y-85335771D01*
X107444762Y-85335771D02*
X107492381Y-85431009D01*
X107492381Y-85431009D02*
X107492381Y-85954819D01*
X107968571Y-85954819D02*
X107968571Y-85288152D01*
X107968571Y-84954819D02*
X107920952Y-85002438D01*
X107920952Y-85002438D02*
X107968571Y-85050057D01*
X107968571Y-85050057D02*
X108016190Y-85002438D01*
X108016190Y-85002438D02*
X107968571Y-84954819D01*
X107968571Y-84954819D02*
X107968571Y-85050057D01*
X108301904Y-85288152D02*
X108682856Y-85288152D01*
X108444761Y-84954819D02*
X108444761Y-85811961D01*
X108444761Y-85811961D02*
X108492380Y-85907200D01*
X108492380Y-85907200D02*
X108587618Y-85954819D01*
X108587618Y-85954819D02*
X108682856Y-85954819D01*
X108873333Y-85288152D02*
X109254285Y-85288152D01*
X109016190Y-84954819D02*
X109016190Y-85811961D01*
X109016190Y-85811961D02*
X109063809Y-85907200D01*
X109063809Y-85907200D02*
X109159047Y-85954819D01*
X109159047Y-85954819D02*
X109254285Y-85954819D01*
X109968571Y-85907200D02*
X109873333Y-85954819D01*
X109873333Y-85954819D02*
X109682857Y-85954819D01*
X109682857Y-85954819D02*
X109587619Y-85907200D01*
X109587619Y-85907200D02*
X109540000Y-85811961D01*
X109540000Y-85811961D02*
X109540000Y-85431009D01*
X109540000Y-85431009D02*
X109587619Y-85335771D01*
X109587619Y-85335771D02*
X109682857Y-85288152D01*
X109682857Y-85288152D02*
X109873333Y-85288152D01*
X109873333Y-85288152D02*
X109968571Y-85335771D01*
X109968571Y-85335771D02*
X110016190Y-85431009D01*
X110016190Y-85431009D02*
X110016190Y-85526247D01*
X110016190Y-85526247D02*
X109540000Y-85621485D01*
X110444762Y-85954819D02*
X110444762Y-85288152D01*
X110444762Y-85478628D02*
X110492381Y-85383390D01*
X110492381Y-85383390D02*
X110540000Y-85335771D01*
X110540000Y-85335771D02*
X110635238Y-85288152D01*
X110635238Y-85288152D02*
X110730476Y-85288152D01*
X121619047Y-101454819D02*
X121619047Y-100454819D01*
X122666665Y-101454819D02*
X122333332Y-100978628D01*
X122095237Y-101454819D02*
X122095237Y-100454819D01*
X122095237Y-100454819D02*
X122476189Y-100454819D01*
X122476189Y-100454819D02*
X122571427Y-100502438D01*
X122571427Y-100502438D02*
X122619046Y-100550057D01*
X122619046Y-100550057D02*
X122666665Y-100645295D01*
X122666665Y-100645295D02*
X122666665Y-100788152D01*
X122666665Y-100788152D02*
X122619046Y-100883390D01*
X122619046Y-100883390D02*
X122571427Y-100931009D01*
X122571427Y-100931009D02*
X122476189Y-100978628D01*
X122476189Y-100978628D02*
X122095237Y-100978628D01*
X124428570Y-101454819D02*
X124095237Y-100978628D01*
X123857142Y-101454819D02*
X123857142Y-100454819D01*
X123857142Y-100454819D02*
X124238094Y-100454819D01*
X124238094Y-100454819D02*
X124333332Y-100502438D01*
X124333332Y-100502438D02*
X124380951Y-100550057D01*
X124380951Y-100550057D02*
X124428570Y-100645295D01*
X124428570Y-100645295D02*
X124428570Y-100788152D01*
X124428570Y-100788152D02*
X124380951Y-100883390D01*
X124380951Y-100883390D02*
X124333332Y-100931009D01*
X124333332Y-100931009D02*
X124238094Y-100978628D01*
X124238094Y-100978628D02*
X123857142Y-100978628D01*
X125238094Y-101407200D02*
X125142856Y-101454819D01*
X125142856Y-101454819D02*
X124952380Y-101454819D01*
X124952380Y-101454819D02*
X124857142Y-101407200D01*
X124857142Y-101407200D02*
X124809523Y-101311961D01*
X124809523Y-101311961D02*
X124809523Y-100931009D01*
X124809523Y-100931009D02*
X124857142Y-100835771D01*
X124857142Y-100835771D02*
X124952380Y-100788152D01*
X124952380Y-100788152D02*
X125142856Y-100788152D01*
X125142856Y-100788152D02*
X125238094Y-100835771D01*
X125238094Y-100835771D02*
X125285713Y-100931009D01*
X125285713Y-100931009D02*
X125285713Y-101026247D01*
X125285713Y-101026247D02*
X124809523Y-101121485D01*
X126142856Y-101407200D02*
X126047618Y-101454819D01*
X126047618Y-101454819D02*
X125857142Y-101454819D01*
X125857142Y-101454819D02*
X125761904Y-101407200D01*
X125761904Y-101407200D02*
X125714285Y-101359580D01*
X125714285Y-101359580D02*
X125666666Y-101264342D01*
X125666666Y-101264342D02*
X125666666Y-100978628D01*
X125666666Y-100978628D02*
X125714285Y-100883390D01*
X125714285Y-100883390D02*
X125761904Y-100835771D01*
X125761904Y-100835771D02*
X125857142Y-100788152D01*
X125857142Y-100788152D02*
X126047618Y-100788152D01*
X126047618Y-100788152D02*
X126142856Y-100835771D01*
X126952380Y-101407200D02*
X126857142Y-101454819D01*
X126857142Y-101454819D02*
X126666666Y-101454819D01*
X126666666Y-101454819D02*
X126571428Y-101407200D01*
X126571428Y-101407200D02*
X126523809Y-101311961D01*
X126523809Y-101311961D02*
X126523809Y-100931009D01*
X126523809Y-100931009D02*
X126571428Y-100835771D01*
X126571428Y-100835771D02*
X126666666Y-100788152D01*
X126666666Y-100788152D02*
X126857142Y-100788152D01*
X126857142Y-100788152D02*
X126952380Y-100835771D01*
X126952380Y-100835771D02*
X126999999Y-100931009D01*
X126999999Y-100931009D02*
X126999999Y-101026247D01*
X126999999Y-101026247D02*
X126523809Y-101121485D01*
X127428571Y-101454819D02*
X127428571Y-100788152D01*
X127428571Y-100454819D02*
X127380952Y-100502438D01*
X127380952Y-100502438D02*
X127428571Y-100550057D01*
X127428571Y-100550057D02*
X127476190Y-100502438D01*
X127476190Y-100502438D02*
X127428571Y-100454819D01*
X127428571Y-100454819D02*
X127428571Y-100550057D01*
X127809523Y-100788152D02*
X128047618Y-101454819D01*
X128047618Y-101454819D02*
X128285713Y-100788152D01*
X129047618Y-101407200D02*
X128952380Y-101454819D01*
X128952380Y-101454819D02*
X128761904Y-101454819D01*
X128761904Y-101454819D02*
X128666666Y-101407200D01*
X128666666Y-101407200D02*
X128619047Y-101311961D01*
X128619047Y-101311961D02*
X128619047Y-100931009D01*
X128619047Y-100931009D02*
X128666666Y-100835771D01*
X128666666Y-100835771D02*
X128761904Y-100788152D01*
X128761904Y-100788152D02*
X128952380Y-100788152D01*
X128952380Y-100788152D02*
X129047618Y-100835771D01*
X129047618Y-100835771D02*
X129095237Y-100931009D01*
X129095237Y-100931009D02*
X129095237Y-101026247D01*
X129095237Y-101026247D02*
X128619047Y-101121485D01*
X129523809Y-101454819D02*
X129523809Y-100788152D01*
X129523809Y-100978628D02*
X129571428Y-100883390D01*
X129571428Y-100883390D02*
X129619047Y-100835771D01*
X129619047Y-100835771D02*
X129714285Y-100788152D01*
X129714285Y-100788152D02*
X129809523Y-100788152D01*
X131428571Y-101454819D02*
X130857143Y-101454819D01*
X131142857Y-101454819D02*
X131142857Y-100454819D01*
X131142857Y-100454819D02*
X131047619Y-100597676D01*
X131047619Y-100597676D02*
X130952381Y-100692914D01*
X130952381Y-100692914D02*
X130857143Y-100740533D01*
X143929047Y-78954819D02*
X143929047Y-77954819D01*
X144976665Y-78954819D02*
X144643332Y-78478628D01*
X144405237Y-78954819D02*
X144405237Y-77954819D01*
X144405237Y-77954819D02*
X144786189Y-77954819D01*
X144786189Y-77954819D02*
X144881427Y-78002438D01*
X144881427Y-78002438D02*
X144929046Y-78050057D01*
X144929046Y-78050057D02*
X144976665Y-78145295D01*
X144976665Y-78145295D02*
X144976665Y-78288152D01*
X144976665Y-78288152D02*
X144929046Y-78383390D01*
X144929046Y-78383390D02*
X144881427Y-78431009D01*
X144881427Y-78431009D02*
X144786189Y-78478628D01*
X144786189Y-78478628D02*
X144405237Y-78478628D01*
X146738570Y-78954819D02*
X146405237Y-78478628D01*
X146167142Y-78954819D02*
X146167142Y-77954819D01*
X146167142Y-77954819D02*
X146548094Y-77954819D01*
X146548094Y-77954819D02*
X146643332Y-78002438D01*
X146643332Y-78002438D02*
X146690951Y-78050057D01*
X146690951Y-78050057D02*
X146738570Y-78145295D01*
X146738570Y-78145295D02*
X146738570Y-78288152D01*
X146738570Y-78288152D02*
X146690951Y-78383390D01*
X146690951Y-78383390D02*
X146643332Y-78431009D01*
X146643332Y-78431009D02*
X146548094Y-78478628D01*
X146548094Y-78478628D02*
X146167142Y-78478628D01*
X147548094Y-78907200D02*
X147452856Y-78954819D01*
X147452856Y-78954819D02*
X147262380Y-78954819D01*
X147262380Y-78954819D02*
X147167142Y-78907200D01*
X147167142Y-78907200D02*
X147119523Y-78811961D01*
X147119523Y-78811961D02*
X147119523Y-78431009D01*
X147119523Y-78431009D02*
X147167142Y-78335771D01*
X147167142Y-78335771D02*
X147262380Y-78288152D01*
X147262380Y-78288152D02*
X147452856Y-78288152D01*
X147452856Y-78288152D02*
X147548094Y-78335771D01*
X147548094Y-78335771D02*
X147595713Y-78431009D01*
X147595713Y-78431009D02*
X147595713Y-78526247D01*
X147595713Y-78526247D02*
X147119523Y-78621485D01*
X148452856Y-78907200D02*
X148357618Y-78954819D01*
X148357618Y-78954819D02*
X148167142Y-78954819D01*
X148167142Y-78954819D02*
X148071904Y-78907200D01*
X148071904Y-78907200D02*
X148024285Y-78859580D01*
X148024285Y-78859580D02*
X147976666Y-78764342D01*
X147976666Y-78764342D02*
X147976666Y-78478628D01*
X147976666Y-78478628D02*
X148024285Y-78383390D01*
X148024285Y-78383390D02*
X148071904Y-78335771D01*
X148071904Y-78335771D02*
X148167142Y-78288152D01*
X148167142Y-78288152D02*
X148357618Y-78288152D01*
X148357618Y-78288152D02*
X148452856Y-78335771D01*
X149262380Y-78907200D02*
X149167142Y-78954819D01*
X149167142Y-78954819D02*
X148976666Y-78954819D01*
X148976666Y-78954819D02*
X148881428Y-78907200D01*
X148881428Y-78907200D02*
X148833809Y-78811961D01*
X148833809Y-78811961D02*
X148833809Y-78431009D01*
X148833809Y-78431009D02*
X148881428Y-78335771D01*
X148881428Y-78335771D02*
X148976666Y-78288152D01*
X148976666Y-78288152D02*
X149167142Y-78288152D01*
X149167142Y-78288152D02*
X149262380Y-78335771D01*
X149262380Y-78335771D02*
X149309999Y-78431009D01*
X149309999Y-78431009D02*
X149309999Y-78526247D01*
X149309999Y-78526247D02*
X148833809Y-78621485D01*
X149738571Y-78954819D02*
X149738571Y-78288152D01*
X149738571Y-77954819D02*
X149690952Y-78002438D01*
X149690952Y-78002438D02*
X149738571Y-78050057D01*
X149738571Y-78050057D02*
X149786190Y-78002438D01*
X149786190Y-78002438D02*
X149738571Y-77954819D01*
X149738571Y-77954819D02*
X149738571Y-78050057D01*
X150119523Y-78288152D02*
X150357618Y-78954819D01*
X150357618Y-78954819D02*
X150595713Y-78288152D01*
X151357618Y-78907200D02*
X151262380Y-78954819D01*
X151262380Y-78954819D02*
X151071904Y-78954819D01*
X151071904Y-78954819D02*
X150976666Y-78907200D01*
X150976666Y-78907200D02*
X150929047Y-78811961D01*
X150929047Y-78811961D02*
X150929047Y-78431009D01*
X150929047Y-78431009D02*
X150976666Y-78335771D01*
X150976666Y-78335771D02*
X151071904Y-78288152D01*
X151071904Y-78288152D02*
X151262380Y-78288152D01*
X151262380Y-78288152D02*
X151357618Y-78335771D01*
X151357618Y-78335771D02*
X151405237Y-78431009D01*
X151405237Y-78431009D02*
X151405237Y-78526247D01*
X151405237Y-78526247D02*
X150929047Y-78621485D01*
X151833809Y-78954819D02*
X151833809Y-78288152D01*
X151833809Y-78478628D02*
X151881428Y-78383390D01*
X151881428Y-78383390D02*
X151929047Y-78335771D01*
X151929047Y-78335771D02*
X152024285Y-78288152D01*
X152024285Y-78288152D02*
X152119523Y-78288152D01*
X153643333Y-78288152D02*
X153643333Y-78954819D01*
X153405238Y-77907200D02*
X153167143Y-78621485D01*
X153167143Y-78621485D02*
X153786190Y-78621485D01*
X144119047Y-93454819D02*
X144119047Y-92454819D01*
X145166665Y-93454819D02*
X144833332Y-92978628D01*
X144595237Y-93454819D02*
X144595237Y-92454819D01*
X144595237Y-92454819D02*
X144976189Y-92454819D01*
X144976189Y-92454819D02*
X145071427Y-92502438D01*
X145071427Y-92502438D02*
X145119046Y-92550057D01*
X145119046Y-92550057D02*
X145166665Y-92645295D01*
X145166665Y-92645295D02*
X145166665Y-92788152D01*
X145166665Y-92788152D02*
X145119046Y-92883390D01*
X145119046Y-92883390D02*
X145071427Y-92931009D01*
X145071427Y-92931009D02*
X144976189Y-92978628D01*
X144976189Y-92978628D02*
X144595237Y-92978628D01*
X146928570Y-93454819D02*
X146595237Y-92978628D01*
X146357142Y-93454819D02*
X146357142Y-92454819D01*
X146357142Y-92454819D02*
X146738094Y-92454819D01*
X146738094Y-92454819D02*
X146833332Y-92502438D01*
X146833332Y-92502438D02*
X146880951Y-92550057D01*
X146880951Y-92550057D02*
X146928570Y-92645295D01*
X146928570Y-92645295D02*
X146928570Y-92788152D01*
X146928570Y-92788152D02*
X146880951Y-92883390D01*
X146880951Y-92883390D02*
X146833332Y-92931009D01*
X146833332Y-92931009D02*
X146738094Y-92978628D01*
X146738094Y-92978628D02*
X146357142Y-92978628D01*
X147738094Y-93407200D02*
X147642856Y-93454819D01*
X147642856Y-93454819D02*
X147452380Y-93454819D01*
X147452380Y-93454819D02*
X147357142Y-93407200D01*
X147357142Y-93407200D02*
X147309523Y-93311961D01*
X147309523Y-93311961D02*
X147309523Y-92931009D01*
X147309523Y-92931009D02*
X147357142Y-92835771D01*
X147357142Y-92835771D02*
X147452380Y-92788152D01*
X147452380Y-92788152D02*
X147642856Y-92788152D01*
X147642856Y-92788152D02*
X147738094Y-92835771D01*
X147738094Y-92835771D02*
X147785713Y-92931009D01*
X147785713Y-92931009D02*
X147785713Y-93026247D01*
X147785713Y-93026247D02*
X147309523Y-93121485D01*
X148642856Y-93407200D02*
X148547618Y-93454819D01*
X148547618Y-93454819D02*
X148357142Y-93454819D01*
X148357142Y-93454819D02*
X148261904Y-93407200D01*
X148261904Y-93407200D02*
X148214285Y-93359580D01*
X148214285Y-93359580D02*
X148166666Y-93264342D01*
X148166666Y-93264342D02*
X148166666Y-92978628D01*
X148166666Y-92978628D02*
X148214285Y-92883390D01*
X148214285Y-92883390D02*
X148261904Y-92835771D01*
X148261904Y-92835771D02*
X148357142Y-92788152D01*
X148357142Y-92788152D02*
X148547618Y-92788152D01*
X148547618Y-92788152D02*
X148642856Y-92835771D01*
X149452380Y-93407200D02*
X149357142Y-93454819D01*
X149357142Y-93454819D02*
X149166666Y-93454819D01*
X149166666Y-93454819D02*
X149071428Y-93407200D01*
X149071428Y-93407200D02*
X149023809Y-93311961D01*
X149023809Y-93311961D02*
X149023809Y-92931009D01*
X149023809Y-92931009D02*
X149071428Y-92835771D01*
X149071428Y-92835771D02*
X149166666Y-92788152D01*
X149166666Y-92788152D02*
X149357142Y-92788152D01*
X149357142Y-92788152D02*
X149452380Y-92835771D01*
X149452380Y-92835771D02*
X149499999Y-92931009D01*
X149499999Y-92931009D02*
X149499999Y-93026247D01*
X149499999Y-93026247D02*
X149023809Y-93121485D01*
X149928571Y-93454819D02*
X149928571Y-92788152D01*
X149928571Y-92454819D02*
X149880952Y-92502438D01*
X149880952Y-92502438D02*
X149928571Y-92550057D01*
X149928571Y-92550057D02*
X149976190Y-92502438D01*
X149976190Y-92502438D02*
X149928571Y-92454819D01*
X149928571Y-92454819D02*
X149928571Y-92550057D01*
X150309523Y-92788152D02*
X150547618Y-93454819D01*
X150547618Y-93454819D02*
X150785713Y-92788152D01*
X151547618Y-93407200D02*
X151452380Y-93454819D01*
X151452380Y-93454819D02*
X151261904Y-93454819D01*
X151261904Y-93454819D02*
X151166666Y-93407200D01*
X151166666Y-93407200D02*
X151119047Y-93311961D01*
X151119047Y-93311961D02*
X151119047Y-92931009D01*
X151119047Y-92931009D02*
X151166666Y-92835771D01*
X151166666Y-92835771D02*
X151261904Y-92788152D01*
X151261904Y-92788152D02*
X151452380Y-92788152D01*
X151452380Y-92788152D02*
X151547618Y-92835771D01*
X151547618Y-92835771D02*
X151595237Y-92931009D01*
X151595237Y-92931009D02*
X151595237Y-93026247D01*
X151595237Y-93026247D02*
X151119047Y-93121485D01*
X152023809Y-93454819D02*
X152023809Y-92788152D01*
X152023809Y-92978628D02*
X152071428Y-92883390D01*
X152071428Y-92883390D02*
X152119047Y-92835771D01*
X152119047Y-92835771D02*
X152214285Y-92788152D01*
X152214285Y-92788152D02*
X152309523Y-92788152D01*
X153357143Y-92550057D02*
X153404762Y-92502438D01*
X153404762Y-92502438D02*
X153500000Y-92454819D01*
X153500000Y-92454819D02*
X153738095Y-92454819D01*
X153738095Y-92454819D02*
X153833333Y-92502438D01*
X153833333Y-92502438D02*
X153880952Y-92550057D01*
X153880952Y-92550057D02*
X153928571Y-92645295D01*
X153928571Y-92645295D02*
X153928571Y-92740533D01*
X153928571Y-92740533D02*
X153880952Y-92883390D01*
X153880952Y-92883390D02*
X153309524Y-93454819D01*
X153309524Y-93454819D02*
X153928571Y-93454819D01*
X136047617Y-101954819D02*
X135714284Y-101478628D01*
X135476189Y-101954819D02*
X135476189Y-100954819D01*
X135476189Y-100954819D02*
X135857141Y-100954819D01*
X135857141Y-100954819D02*
X135952379Y-101002438D01*
X135952379Y-101002438D02*
X135999998Y-101050057D01*
X135999998Y-101050057D02*
X136047617Y-101145295D01*
X136047617Y-101145295D02*
X136047617Y-101288152D01*
X136047617Y-101288152D02*
X135999998Y-101383390D01*
X135999998Y-101383390D02*
X135952379Y-101431009D01*
X135952379Y-101431009D02*
X135857141Y-101478628D01*
X135857141Y-101478628D02*
X135476189Y-101478628D01*
X136238094Y-102050057D02*
X136999998Y-102050057D01*
X137095237Y-101288152D02*
X137476189Y-101288152D01*
X137238094Y-101954819D02*
X137238094Y-101097676D01*
X137238094Y-101097676D02*
X137285713Y-101002438D01*
X137285713Y-101002438D02*
X137380951Y-100954819D01*
X137380951Y-100954819D02*
X137476189Y-100954819D01*
X137952380Y-101954819D02*
X137857142Y-101907200D01*
X137857142Y-101907200D02*
X137809523Y-101859580D01*
X137809523Y-101859580D02*
X137761904Y-101764342D01*
X137761904Y-101764342D02*
X137761904Y-101478628D01*
X137761904Y-101478628D02*
X137809523Y-101383390D01*
X137809523Y-101383390D02*
X137857142Y-101335771D01*
X137857142Y-101335771D02*
X137952380Y-101288152D01*
X137952380Y-101288152D02*
X138095237Y-101288152D01*
X138095237Y-101288152D02*
X138190475Y-101335771D01*
X138190475Y-101335771D02*
X138238094Y-101383390D01*
X138238094Y-101383390D02*
X138285713Y-101478628D01*
X138285713Y-101478628D02*
X138285713Y-101764342D01*
X138285713Y-101764342D02*
X138238094Y-101859580D01*
X138238094Y-101859580D02*
X138190475Y-101907200D01*
X138190475Y-101907200D02*
X138095237Y-101954819D01*
X138095237Y-101954819D02*
X137952380Y-101954819D01*
X138714285Y-101954819D02*
X138714285Y-101288152D01*
X138714285Y-101478628D02*
X138761904Y-101383390D01*
X138761904Y-101383390D02*
X138809523Y-101335771D01*
X138809523Y-101335771D02*
X138904761Y-101288152D01*
X138904761Y-101288152D02*
X138999999Y-101288152D01*
X139095238Y-102050057D02*
X139857142Y-102050057D01*
X140095238Y-101954819D02*
X140095238Y-101288152D01*
X140095238Y-101478628D02*
X140142857Y-101383390D01*
X140142857Y-101383390D02*
X140190476Y-101335771D01*
X140190476Y-101335771D02*
X140285714Y-101288152D01*
X140285714Y-101288152D02*
X140380952Y-101288152D01*
X141095238Y-101907200D02*
X141000000Y-101954819D01*
X141000000Y-101954819D02*
X140809524Y-101954819D01*
X140809524Y-101954819D02*
X140714286Y-101907200D01*
X140714286Y-101907200D02*
X140666667Y-101811961D01*
X140666667Y-101811961D02*
X140666667Y-101431009D01*
X140666667Y-101431009D02*
X140714286Y-101335771D01*
X140714286Y-101335771D02*
X140809524Y-101288152D01*
X140809524Y-101288152D02*
X141000000Y-101288152D01*
X141000000Y-101288152D02*
X141095238Y-101335771D01*
X141095238Y-101335771D02*
X141142857Y-101431009D01*
X141142857Y-101431009D02*
X141142857Y-101526247D01*
X141142857Y-101526247D02*
X140666667Y-101621485D01*
X142000000Y-101907200D02*
X141904762Y-101954819D01*
X141904762Y-101954819D02*
X141714286Y-101954819D01*
X141714286Y-101954819D02*
X141619048Y-101907200D01*
X141619048Y-101907200D02*
X141571429Y-101859580D01*
X141571429Y-101859580D02*
X141523810Y-101764342D01*
X141523810Y-101764342D02*
X141523810Y-101478628D01*
X141523810Y-101478628D02*
X141571429Y-101383390D01*
X141571429Y-101383390D02*
X141619048Y-101335771D01*
X141619048Y-101335771D02*
X141714286Y-101288152D01*
X141714286Y-101288152D02*
X141904762Y-101288152D01*
X141904762Y-101288152D02*
X142000000Y-101335771D01*
X142809524Y-101907200D02*
X142714286Y-101954819D01*
X142714286Y-101954819D02*
X142523810Y-101954819D01*
X142523810Y-101954819D02*
X142428572Y-101907200D01*
X142428572Y-101907200D02*
X142380953Y-101811961D01*
X142380953Y-101811961D02*
X142380953Y-101431009D01*
X142380953Y-101431009D02*
X142428572Y-101335771D01*
X142428572Y-101335771D02*
X142523810Y-101288152D01*
X142523810Y-101288152D02*
X142714286Y-101288152D01*
X142714286Y-101288152D02*
X142809524Y-101335771D01*
X142809524Y-101335771D02*
X142857143Y-101431009D01*
X142857143Y-101431009D02*
X142857143Y-101526247D01*
X142857143Y-101526247D02*
X142380953Y-101621485D01*
X143285715Y-101954819D02*
X143285715Y-101288152D01*
X143285715Y-100954819D02*
X143238096Y-101002438D01*
X143238096Y-101002438D02*
X143285715Y-101050057D01*
X143285715Y-101050057D02*
X143333334Y-101002438D01*
X143333334Y-101002438D02*
X143285715Y-100954819D01*
X143285715Y-100954819D02*
X143285715Y-101050057D01*
X143666667Y-101288152D02*
X143904762Y-101954819D01*
X143904762Y-101954819D02*
X144142857Y-101288152D01*
X144904762Y-101907200D02*
X144809524Y-101954819D01*
X144809524Y-101954819D02*
X144619048Y-101954819D01*
X144619048Y-101954819D02*
X144523810Y-101907200D01*
X144523810Y-101907200D02*
X144476191Y-101811961D01*
X144476191Y-101811961D02*
X144476191Y-101431009D01*
X144476191Y-101431009D02*
X144523810Y-101335771D01*
X144523810Y-101335771D02*
X144619048Y-101288152D01*
X144619048Y-101288152D02*
X144809524Y-101288152D01*
X144809524Y-101288152D02*
X144904762Y-101335771D01*
X144904762Y-101335771D02*
X144952381Y-101431009D01*
X144952381Y-101431009D02*
X144952381Y-101526247D01*
X144952381Y-101526247D02*
X144476191Y-101621485D01*
X145380953Y-101954819D02*
X145380953Y-101288152D01*
X145380953Y-101478628D02*
X145428572Y-101383390D01*
X145428572Y-101383390D02*
X145476191Y-101335771D01*
X145476191Y-101335771D02*
X145571429Y-101288152D01*
X145571429Y-101288152D02*
X145666667Y-101288152D01*
X152357142Y-101454819D02*
X151880952Y-101454819D01*
X151880952Y-101454819D02*
X151880952Y-100454819D01*
X152690476Y-100931009D02*
X153023809Y-100931009D01*
X153166666Y-101454819D02*
X152690476Y-101454819D01*
X152690476Y-101454819D02*
X152690476Y-100454819D01*
X152690476Y-100454819D02*
X153166666Y-100454819D01*
X153595238Y-101454819D02*
X153595238Y-100454819D01*
X153595238Y-100454819D02*
X153833333Y-100454819D01*
X153833333Y-100454819D02*
X153976190Y-100502438D01*
X153976190Y-100502438D02*
X154071428Y-100597676D01*
X154071428Y-100597676D02*
X154119047Y-100692914D01*
X154119047Y-100692914D02*
X154166666Y-100883390D01*
X154166666Y-100883390D02*
X154166666Y-101026247D01*
X154166666Y-101026247D02*
X154119047Y-101216723D01*
X154119047Y-101216723D02*
X154071428Y-101311961D01*
X154071428Y-101311961D02*
X153976190Y-101407200D01*
X153976190Y-101407200D02*
X153833333Y-101454819D01*
X153833333Y-101454819D02*
X153595238Y-101454819D01*
X159642856Y-79084819D02*
X159309523Y-78608628D01*
X159071428Y-79084819D02*
X159071428Y-78084819D01*
X159071428Y-78084819D02*
X159452380Y-78084819D01*
X159452380Y-78084819D02*
X159547618Y-78132438D01*
X159547618Y-78132438D02*
X159595237Y-78180057D01*
X159595237Y-78180057D02*
X159642856Y-78275295D01*
X159642856Y-78275295D02*
X159642856Y-78418152D01*
X159642856Y-78418152D02*
X159595237Y-78513390D01*
X159595237Y-78513390D02*
X159547618Y-78561009D01*
X159547618Y-78561009D02*
X159452380Y-78608628D01*
X159452380Y-78608628D02*
X159071428Y-78608628D01*
X159833333Y-79180057D02*
X160595237Y-79180057D01*
X160690476Y-78418152D02*
X161071428Y-78418152D01*
X160833333Y-79084819D02*
X160833333Y-78227676D01*
X160833333Y-78227676D02*
X160880952Y-78132438D01*
X160880952Y-78132438D02*
X160976190Y-78084819D01*
X160976190Y-78084819D02*
X161071428Y-78084819D01*
X161547619Y-79084819D02*
X161452381Y-79037200D01*
X161452381Y-79037200D02*
X161404762Y-78989580D01*
X161404762Y-78989580D02*
X161357143Y-78894342D01*
X161357143Y-78894342D02*
X161357143Y-78608628D01*
X161357143Y-78608628D02*
X161404762Y-78513390D01*
X161404762Y-78513390D02*
X161452381Y-78465771D01*
X161452381Y-78465771D02*
X161547619Y-78418152D01*
X161547619Y-78418152D02*
X161690476Y-78418152D01*
X161690476Y-78418152D02*
X161785714Y-78465771D01*
X161785714Y-78465771D02*
X161833333Y-78513390D01*
X161833333Y-78513390D02*
X161880952Y-78608628D01*
X161880952Y-78608628D02*
X161880952Y-78894342D01*
X161880952Y-78894342D02*
X161833333Y-78989580D01*
X161833333Y-78989580D02*
X161785714Y-79037200D01*
X161785714Y-79037200D02*
X161690476Y-79084819D01*
X161690476Y-79084819D02*
X161547619Y-79084819D01*
X162309524Y-79084819D02*
X162309524Y-78418152D01*
X162309524Y-78608628D02*
X162357143Y-78513390D01*
X162357143Y-78513390D02*
X162404762Y-78465771D01*
X162404762Y-78465771D02*
X162500000Y-78418152D01*
X162500000Y-78418152D02*
X162595238Y-78418152D01*
X162690477Y-79180057D02*
X163452381Y-79180057D01*
X164166667Y-79084819D02*
X163690477Y-79084819D01*
X163690477Y-79084819D02*
X163690477Y-78084819D01*
X164500001Y-78561009D02*
X164833334Y-78561009D01*
X164976191Y-79084819D02*
X164500001Y-79084819D01*
X164500001Y-79084819D02*
X164500001Y-78084819D01*
X164500001Y-78084819D02*
X164976191Y-78084819D01*
X165404763Y-79084819D02*
X165404763Y-78084819D01*
X165404763Y-78084819D02*
X165642858Y-78084819D01*
X165642858Y-78084819D02*
X165785715Y-78132438D01*
X165785715Y-78132438D02*
X165880953Y-78227676D01*
X165880953Y-78227676D02*
X165928572Y-78322914D01*
X165928572Y-78322914D02*
X165976191Y-78513390D01*
X165976191Y-78513390D02*
X165976191Y-78656247D01*
X165976191Y-78656247D02*
X165928572Y-78846723D01*
X165928572Y-78846723D02*
X165880953Y-78941961D01*
X165880953Y-78941961D02*
X165785715Y-79037200D01*
X165785715Y-79037200D02*
X165642858Y-79084819D01*
X165642858Y-79084819D02*
X165404763Y-79084819D01*
X131047617Y-92954819D02*
X130714284Y-92478628D01*
X130476189Y-92954819D02*
X130476189Y-91954819D01*
X130476189Y-91954819D02*
X130857141Y-91954819D01*
X130857141Y-91954819D02*
X130952379Y-92002438D01*
X130952379Y-92002438D02*
X130999998Y-92050057D01*
X130999998Y-92050057D02*
X131047617Y-92145295D01*
X131047617Y-92145295D02*
X131047617Y-92288152D01*
X131047617Y-92288152D02*
X130999998Y-92383390D01*
X130999998Y-92383390D02*
X130952379Y-92431009D01*
X130952379Y-92431009D02*
X130857141Y-92478628D01*
X130857141Y-92478628D02*
X130476189Y-92478628D01*
X131238094Y-93050057D02*
X131999998Y-93050057D01*
X132095237Y-92288152D02*
X132476189Y-92288152D01*
X132238094Y-92954819D02*
X132238094Y-92097676D01*
X132238094Y-92097676D02*
X132285713Y-92002438D01*
X132285713Y-92002438D02*
X132380951Y-91954819D01*
X132380951Y-91954819D02*
X132476189Y-91954819D01*
X132952380Y-92954819D02*
X132857142Y-92907200D01*
X132857142Y-92907200D02*
X132809523Y-92859580D01*
X132809523Y-92859580D02*
X132761904Y-92764342D01*
X132761904Y-92764342D02*
X132761904Y-92478628D01*
X132761904Y-92478628D02*
X132809523Y-92383390D01*
X132809523Y-92383390D02*
X132857142Y-92335771D01*
X132857142Y-92335771D02*
X132952380Y-92288152D01*
X132952380Y-92288152D02*
X133095237Y-92288152D01*
X133095237Y-92288152D02*
X133190475Y-92335771D01*
X133190475Y-92335771D02*
X133238094Y-92383390D01*
X133238094Y-92383390D02*
X133285713Y-92478628D01*
X133285713Y-92478628D02*
X133285713Y-92764342D01*
X133285713Y-92764342D02*
X133238094Y-92859580D01*
X133238094Y-92859580D02*
X133190475Y-92907200D01*
X133190475Y-92907200D02*
X133095237Y-92954819D01*
X133095237Y-92954819D02*
X132952380Y-92954819D01*
X133714285Y-92954819D02*
X133714285Y-92288152D01*
X133714285Y-92478628D02*
X133761904Y-92383390D01*
X133761904Y-92383390D02*
X133809523Y-92335771D01*
X133809523Y-92335771D02*
X133904761Y-92288152D01*
X133904761Y-92288152D02*
X133999999Y-92288152D01*
X134095238Y-93050057D02*
X134857142Y-93050057D01*
X135095238Y-92954819D02*
X135095238Y-92288152D01*
X135095238Y-92478628D02*
X135142857Y-92383390D01*
X135142857Y-92383390D02*
X135190476Y-92335771D01*
X135190476Y-92335771D02*
X135285714Y-92288152D01*
X135285714Y-92288152D02*
X135380952Y-92288152D01*
X136095238Y-92907200D02*
X136000000Y-92954819D01*
X136000000Y-92954819D02*
X135809524Y-92954819D01*
X135809524Y-92954819D02*
X135714286Y-92907200D01*
X135714286Y-92907200D02*
X135666667Y-92811961D01*
X135666667Y-92811961D02*
X135666667Y-92431009D01*
X135666667Y-92431009D02*
X135714286Y-92335771D01*
X135714286Y-92335771D02*
X135809524Y-92288152D01*
X135809524Y-92288152D02*
X136000000Y-92288152D01*
X136000000Y-92288152D02*
X136095238Y-92335771D01*
X136095238Y-92335771D02*
X136142857Y-92431009D01*
X136142857Y-92431009D02*
X136142857Y-92526247D01*
X136142857Y-92526247D02*
X135666667Y-92621485D01*
X137000000Y-92907200D02*
X136904762Y-92954819D01*
X136904762Y-92954819D02*
X136714286Y-92954819D01*
X136714286Y-92954819D02*
X136619048Y-92907200D01*
X136619048Y-92907200D02*
X136571429Y-92859580D01*
X136571429Y-92859580D02*
X136523810Y-92764342D01*
X136523810Y-92764342D02*
X136523810Y-92478628D01*
X136523810Y-92478628D02*
X136571429Y-92383390D01*
X136571429Y-92383390D02*
X136619048Y-92335771D01*
X136619048Y-92335771D02*
X136714286Y-92288152D01*
X136714286Y-92288152D02*
X136904762Y-92288152D01*
X136904762Y-92288152D02*
X137000000Y-92335771D01*
X137809524Y-92907200D02*
X137714286Y-92954819D01*
X137714286Y-92954819D02*
X137523810Y-92954819D01*
X137523810Y-92954819D02*
X137428572Y-92907200D01*
X137428572Y-92907200D02*
X137380953Y-92811961D01*
X137380953Y-92811961D02*
X137380953Y-92431009D01*
X137380953Y-92431009D02*
X137428572Y-92335771D01*
X137428572Y-92335771D02*
X137523810Y-92288152D01*
X137523810Y-92288152D02*
X137714286Y-92288152D01*
X137714286Y-92288152D02*
X137809524Y-92335771D01*
X137809524Y-92335771D02*
X137857143Y-92431009D01*
X137857143Y-92431009D02*
X137857143Y-92526247D01*
X137857143Y-92526247D02*
X137380953Y-92621485D01*
X138285715Y-92954819D02*
X138285715Y-92288152D01*
X138285715Y-91954819D02*
X138238096Y-92002438D01*
X138238096Y-92002438D02*
X138285715Y-92050057D01*
X138285715Y-92050057D02*
X138333334Y-92002438D01*
X138333334Y-92002438D02*
X138285715Y-91954819D01*
X138285715Y-91954819D02*
X138285715Y-92050057D01*
X138666667Y-92288152D02*
X138904762Y-92954819D01*
X138904762Y-92954819D02*
X139142857Y-92288152D01*
X139904762Y-92907200D02*
X139809524Y-92954819D01*
X139809524Y-92954819D02*
X139619048Y-92954819D01*
X139619048Y-92954819D02*
X139523810Y-92907200D01*
X139523810Y-92907200D02*
X139476191Y-92811961D01*
X139476191Y-92811961D02*
X139476191Y-92431009D01*
X139476191Y-92431009D02*
X139523810Y-92335771D01*
X139523810Y-92335771D02*
X139619048Y-92288152D01*
X139619048Y-92288152D02*
X139809524Y-92288152D01*
X139809524Y-92288152D02*
X139904762Y-92335771D01*
X139904762Y-92335771D02*
X139952381Y-92431009D01*
X139952381Y-92431009D02*
X139952381Y-92526247D01*
X139952381Y-92526247D02*
X139476191Y-92621485D01*
X140380953Y-92954819D02*
X140380953Y-92288152D01*
X140380953Y-92478628D02*
X140428572Y-92383390D01*
X140428572Y-92383390D02*
X140476191Y-92335771D01*
X140476191Y-92335771D02*
X140571429Y-92288152D01*
X140571429Y-92288152D02*
X140666667Y-92288152D01*
X108619047Y-63954819D02*
X108619047Y-62954819D01*
X108619047Y-62954819D02*
X108999999Y-62954819D01*
X108999999Y-62954819D02*
X109095237Y-63002438D01*
X109095237Y-63002438D02*
X109142856Y-63050057D01*
X109142856Y-63050057D02*
X109190475Y-63145295D01*
X109190475Y-63145295D02*
X109190475Y-63288152D01*
X109190475Y-63288152D02*
X109142856Y-63383390D01*
X109142856Y-63383390D02*
X109095237Y-63431009D01*
X109095237Y-63431009D02*
X108999999Y-63478628D01*
X108999999Y-63478628D02*
X108619047Y-63478628D01*
X109761904Y-63954819D02*
X109666666Y-63907200D01*
X109666666Y-63907200D02*
X109619047Y-63859580D01*
X109619047Y-63859580D02*
X109571428Y-63764342D01*
X109571428Y-63764342D02*
X109571428Y-63478628D01*
X109571428Y-63478628D02*
X109619047Y-63383390D01*
X109619047Y-63383390D02*
X109666666Y-63335771D01*
X109666666Y-63335771D02*
X109761904Y-63288152D01*
X109761904Y-63288152D02*
X109904761Y-63288152D01*
X109904761Y-63288152D02*
X109999999Y-63335771D01*
X109999999Y-63335771D02*
X110047618Y-63383390D01*
X110047618Y-63383390D02*
X110095237Y-63478628D01*
X110095237Y-63478628D02*
X110095237Y-63764342D01*
X110095237Y-63764342D02*
X110047618Y-63859580D01*
X110047618Y-63859580D02*
X109999999Y-63907200D01*
X109999999Y-63907200D02*
X109904761Y-63954819D01*
X109904761Y-63954819D02*
X109761904Y-63954819D01*
X110428571Y-63288152D02*
X110619047Y-63954819D01*
X110619047Y-63954819D02*
X110809523Y-63478628D01*
X110809523Y-63478628D02*
X110999999Y-63954819D01*
X110999999Y-63954819D02*
X111190475Y-63288152D01*
X111952380Y-63907200D02*
X111857142Y-63954819D01*
X111857142Y-63954819D02*
X111666666Y-63954819D01*
X111666666Y-63954819D02*
X111571428Y-63907200D01*
X111571428Y-63907200D02*
X111523809Y-63811961D01*
X111523809Y-63811961D02*
X111523809Y-63431009D01*
X111523809Y-63431009D02*
X111571428Y-63335771D01*
X111571428Y-63335771D02*
X111666666Y-63288152D01*
X111666666Y-63288152D02*
X111857142Y-63288152D01*
X111857142Y-63288152D02*
X111952380Y-63335771D01*
X111952380Y-63335771D02*
X111999999Y-63431009D01*
X111999999Y-63431009D02*
X111999999Y-63526247D01*
X111999999Y-63526247D02*
X111523809Y-63621485D01*
X112428571Y-63954819D02*
X112428571Y-63288152D01*
X112428571Y-63478628D02*
X112476190Y-63383390D01*
X112476190Y-63383390D02*
X112523809Y-63335771D01*
X112523809Y-63335771D02*
X112619047Y-63288152D01*
X112619047Y-63288152D02*
X112714285Y-63288152D01*
X114619048Y-63954819D02*
X114571429Y-63954819D01*
X114571429Y-63954819D02*
X114476190Y-63907200D01*
X114476190Y-63907200D02*
X114333333Y-63764342D01*
X114333333Y-63764342D02*
X114095238Y-63478628D01*
X114095238Y-63478628D02*
X114000000Y-63335771D01*
X114000000Y-63335771D02*
X113952381Y-63192914D01*
X113952381Y-63192914D02*
X113952381Y-63097676D01*
X113952381Y-63097676D02*
X114000000Y-63002438D01*
X114000000Y-63002438D02*
X114095238Y-62954819D01*
X114095238Y-62954819D02*
X114142857Y-62954819D01*
X114142857Y-62954819D02*
X114238095Y-63002438D01*
X114238095Y-63002438D02*
X114285714Y-63097676D01*
X114285714Y-63097676D02*
X114285714Y-63145295D01*
X114285714Y-63145295D02*
X114238095Y-63240533D01*
X114238095Y-63240533D02*
X114190476Y-63288152D01*
X114190476Y-63288152D02*
X113904762Y-63478628D01*
X113904762Y-63478628D02*
X113857143Y-63526247D01*
X113857143Y-63526247D02*
X113809524Y-63621485D01*
X113809524Y-63621485D02*
X113809524Y-63764342D01*
X113809524Y-63764342D02*
X113857143Y-63859580D01*
X113857143Y-63859580D02*
X113904762Y-63907200D01*
X113904762Y-63907200D02*
X114000000Y-63954819D01*
X114000000Y-63954819D02*
X114142857Y-63954819D01*
X114142857Y-63954819D02*
X114238095Y-63907200D01*
X114238095Y-63907200D02*
X114285714Y-63859580D01*
X114285714Y-63859580D02*
X114428571Y-63669104D01*
X114428571Y-63669104D02*
X114476190Y-63526247D01*
X114476190Y-63526247D02*
X114476190Y-63431009D01*
X116333333Y-63002438D02*
X116238095Y-62954819D01*
X116238095Y-62954819D02*
X116095238Y-62954819D01*
X116095238Y-62954819D02*
X115952381Y-63002438D01*
X115952381Y-63002438D02*
X115857143Y-63097676D01*
X115857143Y-63097676D02*
X115809524Y-63192914D01*
X115809524Y-63192914D02*
X115761905Y-63383390D01*
X115761905Y-63383390D02*
X115761905Y-63526247D01*
X115761905Y-63526247D02*
X115809524Y-63716723D01*
X115809524Y-63716723D02*
X115857143Y-63811961D01*
X115857143Y-63811961D02*
X115952381Y-63907200D01*
X115952381Y-63907200D02*
X116095238Y-63954819D01*
X116095238Y-63954819D02*
X116190476Y-63954819D01*
X116190476Y-63954819D02*
X116333333Y-63907200D01*
X116333333Y-63907200D02*
X116380952Y-63859580D01*
X116380952Y-63859580D02*
X116380952Y-63526247D01*
X116380952Y-63526247D02*
X116190476Y-63526247D01*
X116809524Y-63954819D02*
X116809524Y-62954819D01*
X116809524Y-62954819D02*
X117380952Y-63954819D01*
X117380952Y-63954819D02*
X117380952Y-62954819D01*
X117857143Y-63954819D02*
X117857143Y-62954819D01*
X117857143Y-62954819D02*
X118095238Y-62954819D01*
X118095238Y-62954819D02*
X118238095Y-63002438D01*
X118238095Y-63002438D02*
X118333333Y-63097676D01*
X118333333Y-63097676D02*
X118380952Y-63192914D01*
X118380952Y-63192914D02*
X118428571Y-63383390D01*
X118428571Y-63383390D02*
X118428571Y-63526247D01*
X118428571Y-63526247D02*
X118380952Y-63716723D01*
X118380952Y-63716723D02*
X118333333Y-63811961D01*
X118333333Y-63811961D02*
X118238095Y-63907200D01*
X118238095Y-63907200D02*
X118095238Y-63954819D01*
X118095238Y-63954819D02*
X117857143Y-63954819D01*
X130119047Y-85454819D02*
X130119047Y-84454819D01*
X131166665Y-85454819D02*
X130833332Y-84978628D01*
X130595237Y-85454819D02*
X130595237Y-84454819D01*
X130595237Y-84454819D02*
X130976189Y-84454819D01*
X130976189Y-84454819D02*
X131071427Y-84502438D01*
X131071427Y-84502438D02*
X131119046Y-84550057D01*
X131119046Y-84550057D02*
X131166665Y-84645295D01*
X131166665Y-84645295D02*
X131166665Y-84788152D01*
X131166665Y-84788152D02*
X131119046Y-84883390D01*
X131119046Y-84883390D02*
X131071427Y-84931009D01*
X131071427Y-84931009D02*
X130976189Y-84978628D01*
X130976189Y-84978628D02*
X130595237Y-84978628D01*
X132928570Y-85454819D02*
X132595237Y-84978628D01*
X132357142Y-85454819D02*
X132357142Y-84454819D01*
X132357142Y-84454819D02*
X132738094Y-84454819D01*
X132738094Y-84454819D02*
X132833332Y-84502438D01*
X132833332Y-84502438D02*
X132880951Y-84550057D01*
X132880951Y-84550057D02*
X132928570Y-84645295D01*
X132928570Y-84645295D02*
X132928570Y-84788152D01*
X132928570Y-84788152D02*
X132880951Y-84883390D01*
X132880951Y-84883390D02*
X132833332Y-84931009D01*
X132833332Y-84931009D02*
X132738094Y-84978628D01*
X132738094Y-84978628D02*
X132357142Y-84978628D01*
X133738094Y-85407200D02*
X133642856Y-85454819D01*
X133642856Y-85454819D02*
X133452380Y-85454819D01*
X133452380Y-85454819D02*
X133357142Y-85407200D01*
X133357142Y-85407200D02*
X133309523Y-85311961D01*
X133309523Y-85311961D02*
X133309523Y-84931009D01*
X133309523Y-84931009D02*
X133357142Y-84835771D01*
X133357142Y-84835771D02*
X133452380Y-84788152D01*
X133452380Y-84788152D02*
X133642856Y-84788152D01*
X133642856Y-84788152D02*
X133738094Y-84835771D01*
X133738094Y-84835771D02*
X133785713Y-84931009D01*
X133785713Y-84931009D02*
X133785713Y-85026247D01*
X133785713Y-85026247D02*
X133309523Y-85121485D01*
X134642856Y-85407200D02*
X134547618Y-85454819D01*
X134547618Y-85454819D02*
X134357142Y-85454819D01*
X134357142Y-85454819D02*
X134261904Y-85407200D01*
X134261904Y-85407200D02*
X134214285Y-85359580D01*
X134214285Y-85359580D02*
X134166666Y-85264342D01*
X134166666Y-85264342D02*
X134166666Y-84978628D01*
X134166666Y-84978628D02*
X134214285Y-84883390D01*
X134214285Y-84883390D02*
X134261904Y-84835771D01*
X134261904Y-84835771D02*
X134357142Y-84788152D01*
X134357142Y-84788152D02*
X134547618Y-84788152D01*
X134547618Y-84788152D02*
X134642856Y-84835771D01*
X135452380Y-85407200D02*
X135357142Y-85454819D01*
X135357142Y-85454819D02*
X135166666Y-85454819D01*
X135166666Y-85454819D02*
X135071428Y-85407200D01*
X135071428Y-85407200D02*
X135023809Y-85311961D01*
X135023809Y-85311961D02*
X135023809Y-84931009D01*
X135023809Y-84931009D02*
X135071428Y-84835771D01*
X135071428Y-84835771D02*
X135166666Y-84788152D01*
X135166666Y-84788152D02*
X135357142Y-84788152D01*
X135357142Y-84788152D02*
X135452380Y-84835771D01*
X135452380Y-84835771D02*
X135499999Y-84931009D01*
X135499999Y-84931009D02*
X135499999Y-85026247D01*
X135499999Y-85026247D02*
X135023809Y-85121485D01*
X135928571Y-85454819D02*
X135928571Y-84788152D01*
X135928571Y-84454819D02*
X135880952Y-84502438D01*
X135880952Y-84502438D02*
X135928571Y-84550057D01*
X135928571Y-84550057D02*
X135976190Y-84502438D01*
X135976190Y-84502438D02*
X135928571Y-84454819D01*
X135928571Y-84454819D02*
X135928571Y-84550057D01*
X136309523Y-84788152D02*
X136547618Y-85454819D01*
X136547618Y-85454819D02*
X136785713Y-84788152D01*
X137547618Y-85407200D02*
X137452380Y-85454819D01*
X137452380Y-85454819D02*
X137261904Y-85454819D01*
X137261904Y-85454819D02*
X137166666Y-85407200D01*
X137166666Y-85407200D02*
X137119047Y-85311961D01*
X137119047Y-85311961D02*
X137119047Y-84931009D01*
X137119047Y-84931009D02*
X137166666Y-84835771D01*
X137166666Y-84835771D02*
X137261904Y-84788152D01*
X137261904Y-84788152D02*
X137452380Y-84788152D01*
X137452380Y-84788152D02*
X137547618Y-84835771D01*
X137547618Y-84835771D02*
X137595237Y-84931009D01*
X137595237Y-84931009D02*
X137595237Y-85026247D01*
X137595237Y-85026247D02*
X137119047Y-85121485D01*
X138023809Y-85454819D02*
X138023809Y-84788152D01*
X138023809Y-84978628D02*
X138071428Y-84883390D01*
X138071428Y-84883390D02*
X138119047Y-84835771D01*
X138119047Y-84835771D02*
X138214285Y-84788152D01*
X138214285Y-84788152D02*
X138309523Y-84788152D01*
X139309524Y-84454819D02*
X139928571Y-84454819D01*
X139928571Y-84454819D02*
X139595238Y-84835771D01*
X139595238Y-84835771D02*
X139738095Y-84835771D01*
X139738095Y-84835771D02*
X139833333Y-84883390D01*
X139833333Y-84883390D02*
X139880952Y-84931009D01*
X139880952Y-84931009D02*
X139928571Y-85026247D01*
X139928571Y-85026247D02*
X139928571Y-85264342D01*
X139928571Y-85264342D02*
X139880952Y-85359580D01*
X139880952Y-85359580D02*
X139833333Y-85407200D01*
X139833333Y-85407200D02*
X139738095Y-85454819D01*
X139738095Y-85454819D02*
X139452381Y-85454819D01*
X139452381Y-85454819D02*
X139357143Y-85407200D01*
X139357143Y-85407200D02*
X139309524Y-85359580D01*
X103738094Y-71454819D02*
X103261904Y-71454819D01*
X103261904Y-71454819D02*
X103261904Y-70454819D01*
X104071428Y-71454819D02*
X104071428Y-70788152D01*
X104071428Y-70454819D02*
X104023809Y-70502438D01*
X104023809Y-70502438D02*
X104071428Y-70550057D01*
X104071428Y-70550057D02*
X104119047Y-70502438D01*
X104119047Y-70502438D02*
X104071428Y-70454819D01*
X104071428Y-70454819D02*
X104071428Y-70550057D01*
X104976189Y-70788152D02*
X104976189Y-71597676D01*
X104976189Y-71597676D02*
X104928570Y-71692914D01*
X104928570Y-71692914D02*
X104880951Y-71740533D01*
X104880951Y-71740533D02*
X104785713Y-71788152D01*
X104785713Y-71788152D02*
X104642856Y-71788152D01*
X104642856Y-71788152D02*
X104547618Y-71740533D01*
X104976189Y-71407200D02*
X104880951Y-71454819D01*
X104880951Y-71454819D02*
X104690475Y-71454819D01*
X104690475Y-71454819D02*
X104595237Y-71407200D01*
X104595237Y-71407200D02*
X104547618Y-71359580D01*
X104547618Y-71359580D02*
X104499999Y-71264342D01*
X104499999Y-71264342D02*
X104499999Y-70978628D01*
X104499999Y-70978628D02*
X104547618Y-70883390D01*
X104547618Y-70883390D02*
X104595237Y-70835771D01*
X104595237Y-70835771D02*
X104690475Y-70788152D01*
X104690475Y-70788152D02*
X104880951Y-70788152D01*
X104880951Y-70788152D02*
X104976189Y-70835771D01*
X105452380Y-71454819D02*
X105452380Y-70454819D01*
X105880951Y-71454819D02*
X105880951Y-70931009D01*
X105880951Y-70931009D02*
X105833332Y-70835771D01*
X105833332Y-70835771D02*
X105738094Y-70788152D01*
X105738094Y-70788152D02*
X105595237Y-70788152D01*
X105595237Y-70788152D02*
X105499999Y-70835771D01*
X105499999Y-70835771D02*
X105452380Y-70883390D01*
X106214285Y-70788152D02*
X106595237Y-70788152D01*
X106357142Y-70454819D02*
X106357142Y-71311961D01*
X106357142Y-71311961D02*
X106404761Y-71407200D01*
X106404761Y-71407200D02*
X106499999Y-71454819D01*
X106499999Y-71454819D02*
X106595237Y-71454819D01*
X107642857Y-71407200D02*
X107785714Y-71454819D01*
X107785714Y-71454819D02*
X108023809Y-71454819D01*
X108023809Y-71454819D02*
X108119047Y-71407200D01*
X108119047Y-71407200D02*
X108166666Y-71359580D01*
X108166666Y-71359580D02*
X108214285Y-71264342D01*
X108214285Y-71264342D02*
X108214285Y-71169104D01*
X108214285Y-71169104D02*
X108166666Y-71073866D01*
X108166666Y-71073866D02*
X108119047Y-71026247D01*
X108119047Y-71026247D02*
X108023809Y-70978628D01*
X108023809Y-70978628D02*
X107833333Y-70931009D01*
X107833333Y-70931009D02*
X107738095Y-70883390D01*
X107738095Y-70883390D02*
X107690476Y-70835771D01*
X107690476Y-70835771D02*
X107642857Y-70740533D01*
X107642857Y-70740533D02*
X107642857Y-70645295D01*
X107642857Y-70645295D02*
X107690476Y-70550057D01*
X107690476Y-70550057D02*
X107738095Y-70502438D01*
X107738095Y-70502438D02*
X107833333Y-70454819D01*
X107833333Y-70454819D02*
X108071428Y-70454819D01*
X108071428Y-70454819D02*
X108214285Y-70502438D01*
X108500000Y-70788152D02*
X108880952Y-70788152D01*
X108642857Y-70454819D02*
X108642857Y-71311961D01*
X108642857Y-71311961D02*
X108690476Y-71407200D01*
X108690476Y-71407200D02*
X108785714Y-71454819D01*
X108785714Y-71454819D02*
X108880952Y-71454819D01*
X109214286Y-71454819D02*
X109214286Y-70788152D01*
X109214286Y-70978628D02*
X109261905Y-70883390D01*
X109261905Y-70883390D02*
X109309524Y-70835771D01*
X109309524Y-70835771D02*
X109404762Y-70788152D01*
X109404762Y-70788152D02*
X109500000Y-70788152D01*
X109833334Y-71454819D02*
X109833334Y-70788152D01*
X109833334Y-70454819D02*
X109785715Y-70502438D01*
X109785715Y-70502438D02*
X109833334Y-70550057D01*
X109833334Y-70550057D02*
X109880953Y-70502438D01*
X109880953Y-70502438D02*
X109833334Y-70454819D01*
X109833334Y-70454819D02*
X109833334Y-70550057D01*
X110309524Y-70788152D02*
X110309524Y-71788152D01*
X110309524Y-70835771D02*
X110404762Y-70788152D01*
X110404762Y-70788152D02*
X110595238Y-70788152D01*
X110595238Y-70788152D02*
X110690476Y-70835771D01*
X110690476Y-70835771D02*
X110738095Y-70883390D01*
X110738095Y-70883390D02*
X110785714Y-70978628D01*
X110785714Y-70978628D02*
X110785714Y-71264342D01*
X110785714Y-71264342D02*
X110738095Y-71359580D01*
X110738095Y-71359580D02*
X110690476Y-71407200D01*
X110690476Y-71407200D02*
X110595238Y-71454819D01*
X110595238Y-71454819D02*
X110404762Y-71454819D01*
X110404762Y-71454819D02*
X110309524Y-71407200D01*
X143404761Y-71454819D02*
X143404761Y-70454819D01*
X143404761Y-70454819D02*
X143785713Y-70454819D01*
X143785713Y-70454819D02*
X143880951Y-70502438D01*
X143880951Y-70502438D02*
X143928570Y-70550057D01*
X143928570Y-70550057D02*
X143976189Y-70645295D01*
X143976189Y-70645295D02*
X143976189Y-70788152D01*
X143976189Y-70788152D02*
X143928570Y-70883390D01*
X143928570Y-70883390D02*
X143880951Y-70931009D01*
X143880951Y-70931009D02*
X143785713Y-70978628D01*
X143785713Y-70978628D02*
X143404761Y-70978628D01*
X144404761Y-71454819D02*
X144404761Y-70454819D01*
X144833332Y-71454819D02*
X144833332Y-70931009D01*
X144833332Y-70931009D02*
X144785713Y-70835771D01*
X144785713Y-70835771D02*
X144690475Y-70788152D01*
X144690475Y-70788152D02*
X144547618Y-70788152D01*
X144547618Y-70788152D02*
X144452380Y-70835771D01*
X144452380Y-70835771D02*
X144404761Y-70883390D01*
X145452380Y-71454819D02*
X145357142Y-71407200D01*
X145357142Y-71407200D02*
X145309523Y-71359580D01*
X145309523Y-71359580D02*
X145261904Y-71264342D01*
X145261904Y-71264342D02*
X145261904Y-70978628D01*
X145261904Y-70978628D02*
X145309523Y-70883390D01*
X145309523Y-70883390D02*
X145357142Y-70835771D01*
X145357142Y-70835771D02*
X145452380Y-70788152D01*
X145452380Y-70788152D02*
X145595237Y-70788152D01*
X145595237Y-70788152D02*
X145690475Y-70835771D01*
X145690475Y-70835771D02*
X145738094Y-70883390D01*
X145738094Y-70883390D02*
X145785713Y-70978628D01*
X145785713Y-70978628D02*
X145785713Y-71264342D01*
X145785713Y-71264342D02*
X145738094Y-71359580D01*
X145738094Y-71359580D02*
X145690475Y-71407200D01*
X145690475Y-71407200D02*
X145595237Y-71454819D01*
X145595237Y-71454819D02*
X145452380Y-71454819D01*
X146071428Y-70788152D02*
X146452380Y-70788152D01*
X146214285Y-70454819D02*
X146214285Y-71311961D01*
X146214285Y-71311961D02*
X146261904Y-71407200D01*
X146261904Y-71407200D02*
X146357142Y-71454819D01*
X146357142Y-71454819D02*
X146452380Y-71454819D01*
X146928571Y-71454819D02*
X146833333Y-71407200D01*
X146833333Y-71407200D02*
X146785714Y-71359580D01*
X146785714Y-71359580D02*
X146738095Y-71264342D01*
X146738095Y-71264342D02*
X146738095Y-70978628D01*
X146738095Y-70978628D02*
X146785714Y-70883390D01*
X146785714Y-70883390D02*
X146833333Y-70835771D01*
X146833333Y-70835771D02*
X146928571Y-70788152D01*
X146928571Y-70788152D02*
X147071428Y-70788152D01*
X147071428Y-70788152D02*
X147166666Y-70835771D01*
X147166666Y-70835771D02*
X147214285Y-70883390D01*
X147214285Y-70883390D02*
X147261904Y-70978628D01*
X147261904Y-70978628D02*
X147261904Y-71264342D01*
X147261904Y-71264342D02*
X147214285Y-71359580D01*
X147214285Y-71359580D02*
X147166666Y-71407200D01*
X147166666Y-71407200D02*
X147071428Y-71454819D01*
X147071428Y-71454819D02*
X146928571Y-71454819D01*
X147690476Y-71454819D02*
X147690476Y-70788152D01*
X147690476Y-70978628D02*
X147738095Y-70883390D01*
X147738095Y-70883390D02*
X147785714Y-70835771D01*
X147785714Y-70835771D02*
X147880952Y-70788152D01*
X147880952Y-70788152D02*
X147976190Y-70788152D01*
X148690476Y-71407200D02*
X148595238Y-71454819D01*
X148595238Y-71454819D02*
X148404762Y-71454819D01*
X148404762Y-71454819D02*
X148309524Y-71407200D01*
X148309524Y-71407200D02*
X148261905Y-71311961D01*
X148261905Y-71311961D02*
X148261905Y-70931009D01*
X148261905Y-70931009D02*
X148309524Y-70835771D01*
X148309524Y-70835771D02*
X148404762Y-70788152D01*
X148404762Y-70788152D02*
X148595238Y-70788152D01*
X148595238Y-70788152D02*
X148690476Y-70835771D01*
X148690476Y-70835771D02*
X148738095Y-70931009D01*
X148738095Y-70931009D02*
X148738095Y-71026247D01*
X148738095Y-71026247D02*
X148261905Y-71121485D01*
X149119048Y-71407200D02*
X149214286Y-71454819D01*
X149214286Y-71454819D02*
X149404762Y-71454819D01*
X149404762Y-71454819D02*
X149500000Y-71407200D01*
X149500000Y-71407200D02*
X149547619Y-71311961D01*
X149547619Y-71311961D02*
X149547619Y-71264342D01*
X149547619Y-71264342D02*
X149500000Y-71169104D01*
X149500000Y-71169104D02*
X149404762Y-71121485D01*
X149404762Y-71121485D02*
X149261905Y-71121485D01*
X149261905Y-71121485D02*
X149166667Y-71073866D01*
X149166667Y-71073866D02*
X149119048Y-70978628D01*
X149119048Y-70978628D02*
X149119048Y-70931009D01*
X149119048Y-70931009D02*
X149166667Y-70835771D01*
X149166667Y-70835771D02*
X149261905Y-70788152D01*
X149261905Y-70788152D02*
X149404762Y-70788152D01*
X149404762Y-70788152D02*
X149500000Y-70835771D01*
X149976191Y-71454819D02*
X149976191Y-70788152D01*
X149976191Y-70454819D02*
X149928572Y-70502438D01*
X149928572Y-70502438D02*
X149976191Y-70550057D01*
X149976191Y-70550057D02*
X150023810Y-70502438D01*
X150023810Y-70502438D02*
X149976191Y-70454819D01*
X149976191Y-70454819D02*
X149976191Y-70550057D01*
X150404762Y-71407200D02*
X150500000Y-71454819D01*
X150500000Y-71454819D02*
X150690476Y-71454819D01*
X150690476Y-71454819D02*
X150785714Y-71407200D01*
X150785714Y-71407200D02*
X150833333Y-71311961D01*
X150833333Y-71311961D02*
X150833333Y-71264342D01*
X150833333Y-71264342D02*
X150785714Y-71169104D01*
X150785714Y-71169104D02*
X150690476Y-71121485D01*
X150690476Y-71121485D02*
X150547619Y-71121485D01*
X150547619Y-71121485D02*
X150452381Y-71073866D01*
X150452381Y-71073866D02*
X150404762Y-70978628D01*
X150404762Y-70978628D02*
X150404762Y-70931009D01*
X150404762Y-70931009D02*
X150452381Y-70835771D01*
X150452381Y-70835771D02*
X150547619Y-70788152D01*
X150547619Y-70788152D02*
X150690476Y-70788152D01*
X150690476Y-70788152D02*
X150785714Y-70835771D01*
X151119048Y-70788152D02*
X151500000Y-70788152D01*
X151261905Y-70454819D02*
X151261905Y-71311961D01*
X151261905Y-71311961D02*
X151309524Y-71407200D01*
X151309524Y-71407200D02*
X151404762Y-71454819D01*
X151404762Y-71454819D02*
X151500000Y-71454819D01*
X151976191Y-71454819D02*
X151880953Y-71407200D01*
X151880953Y-71407200D02*
X151833334Y-71359580D01*
X151833334Y-71359580D02*
X151785715Y-71264342D01*
X151785715Y-71264342D02*
X151785715Y-70978628D01*
X151785715Y-70978628D02*
X151833334Y-70883390D01*
X151833334Y-70883390D02*
X151880953Y-70835771D01*
X151880953Y-70835771D02*
X151976191Y-70788152D01*
X151976191Y-70788152D02*
X152119048Y-70788152D01*
X152119048Y-70788152D02*
X152214286Y-70835771D01*
X152214286Y-70835771D02*
X152261905Y-70883390D01*
X152261905Y-70883390D02*
X152309524Y-70978628D01*
X152309524Y-70978628D02*
X152309524Y-71264342D01*
X152309524Y-71264342D02*
X152261905Y-71359580D01*
X152261905Y-71359580D02*
X152214286Y-71407200D01*
X152214286Y-71407200D02*
X152119048Y-71454819D01*
X152119048Y-71454819D02*
X151976191Y-71454819D01*
X152738096Y-71454819D02*
X152738096Y-70788152D01*
X152738096Y-70978628D02*
X152785715Y-70883390D01*
X152785715Y-70883390D02*
X152833334Y-70835771D01*
X152833334Y-70835771D02*
X152928572Y-70788152D01*
X152928572Y-70788152D02*
X153023810Y-70788152D01*
X154547620Y-70454819D02*
X154357144Y-70454819D01*
X154357144Y-70454819D02*
X154261906Y-70502438D01*
X154261906Y-70502438D02*
X154214287Y-70550057D01*
X154214287Y-70550057D02*
X154119049Y-70692914D01*
X154119049Y-70692914D02*
X154071430Y-70883390D01*
X154071430Y-70883390D02*
X154071430Y-71264342D01*
X154071430Y-71264342D02*
X154119049Y-71359580D01*
X154119049Y-71359580D02*
X154166668Y-71407200D01*
X154166668Y-71407200D02*
X154261906Y-71454819D01*
X154261906Y-71454819D02*
X154452382Y-71454819D01*
X154452382Y-71454819D02*
X154547620Y-71407200D01*
X154547620Y-71407200D02*
X154595239Y-71359580D01*
X154595239Y-71359580D02*
X154642858Y-71264342D01*
X154642858Y-71264342D02*
X154642858Y-71026247D01*
X154642858Y-71026247D02*
X154595239Y-70931009D01*
X154595239Y-70931009D02*
X154547620Y-70883390D01*
X154547620Y-70883390D02*
X154452382Y-70835771D01*
X154452382Y-70835771D02*
X154261906Y-70835771D01*
X154261906Y-70835771D02*
X154166668Y-70883390D01*
X154166668Y-70883390D02*
X154119049Y-70931009D01*
X154119049Y-70931009D02*
X154071430Y-71026247D01*
X159452856Y-93584819D02*
X159119523Y-93108628D01*
X158881428Y-93584819D02*
X158881428Y-92584819D01*
X158881428Y-92584819D02*
X159262380Y-92584819D01*
X159262380Y-92584819D02*
X159357618Y-92632438D01*
X159357618Y-92632438D02*
X159405237Y-92680057D01*
X159405237Y-92680057D02*
X159452856Y-92775295D01*
X159452856Y-92775295D02*
X159452856Y-92918152D01*
X159452856Y-92918152D02*
X159405237Y-93013390D01*
X159405237Y-93013390D02*
X159357618Y-93061009D01*
X159357618Y-93061009D02*
X159262380Y-93108628D01*
X159262380Y-93108628D02*
X158881428Y-93108628D01*
X159643333Y-93680057D02*
X160405237Y-93680057D01*
X160500476Y-92918152D02*
X160881428Y-92918152D01*
X160643333Y-93584819D02*
X160643333Y-92727676D01*
X160643333Y-92727676D02*
X160690952Y-92632438D01*
X160690952Y-92632438D02*
X160786190Y-92584819D01*
X160786190Y-92584819D02*
X160881428Y-92584819D01*
X161357619Y-93584819D02*
X161262381Y-93537200D01*
X161262381Y-93537200D02*
X161214762Y-93489580D01*
X161214762Y-93489580D02*
X161167143Y-93394342D01*
X161167143Y-93394342D02*
X161167143Y-93108628D01*
X161167143Y-93108628D02*
X161214762Y-93013390D01*
X161214762Y-93013390D02*
X161262381Y-92965771D01*
X161262381Y-92965771D02*
X161357619Y-92918152D01*
X161357619Y-92918152D02*
X161500476Y-92918152D01*
X161500476Y-92918152D02*
X161595714Y-92965771D01*
X161595714Y-92965771D02*
X161643333Y-93013390D01*
X161643333Y-93013390D02*
X161690952Y-93108628D01*
X161690952Y-93108628D02*
X161690952Y-93394342D01*
X161690952Y-93394342D02*
X161643333Y-93489580D01*
X161643333Y-93489580D02*
X161595714Y-93537200D01*
X161595714Y-93537200D02*
X161500476Y-93584819D01*
X161500476Y-93584819D02*
X161357619Y-93584819D01*
X162119524Y-93584819D02*
X162119524Y-92918152D01*
X162119524Y-93108628D02*
X162167143Y-93013390D01*
X162167143Y-93013390D02*
X162214762Y-92965771D01*
X162214762Y-92965771D02*
X162310000Y-92918152D01*
X162310000Y-92918152D02*
X162405238Y-92918152D01*
X162500477Y-93680057D02*
X163262381Y-93680057D01*
X163976667Y-93584819D02*
X163500477Y-93584819D01*
X163500477Y-93584819D02*
X163500477Y-92584819D01*
X164310001Y-93061009D02*
X164643334Y-93061009D01*
X164786191Y-93584819D02*
X164310001Y-93584819D01*
X164310001Y-93584819D02*
X164310001Y-92584819D01*
X164310001Y-92584819D02*
X164786191Y-92584819D01*
X165214763Y-93584819D02*
X165214763Y-92584819D01*
X165214763Y-92584819D02*
X165452858Y-92584819D01*
X165452858Y-92584819D02*
X165595715Y-92632438D01*
X165595715Y-92632438D02*
X165690953Y-92727676D01*
X165690953Y-92727676D02*
X165738572Y-92822914D01*
X165738572Y-92822914D02*
X165786191Y-93013390D01*
X165786191Y-93013390D02*
X165786191Y-93156247D01*
X165786191Y-93156247D02*
X165738572Y-93346723D01*
X165738572Y-93346723D02*
X165690953Y-93441961D01*
X165690953Y-93441961D02*
X165595715Y-93537200D01*
X165595715Y-93537200D02*
X165452858Y-93584819D01*
X165452858Y-93584819D02*
X165214763Y-93584819D01*
X122690476Y-63002438D02*
X122595238Y-62954819D01*
X122595238Y-62954819D02*
X122452381Y-62954819D01*
X122452381Y-62954819D02*
X122309524Y-63002438D01*
X122309524Y-63002438D02*
X122214286Y-63097676D01*
X122214286Y-63097676D02*
X122166667Y-63192914D01*
X122166667Y-63192914D02*
X122119048Y-63383390D01*
X122119048Y-63383390D02*
X122119048Y-63526247D01*
X122119048Y-63526247D02*
X122166667Y-63716723D01*
X122166667Y-63716723D02*
X122214286Y-63811961D01*
X122214286Y-63811961D02*
X122309524Y-63907200D01*
X122309524Y-63907200D02*
X122452381Y-63954819D01*
X122452381Y-63954819D02*
X122547619Y-63954819D01*
X122547619Y-63954819D02*
X122690476Y-63907200D01*
X122690476Y-63907200D02*
X122738095Y-63859580D01*
X122738095Y-63859580D02*
X122738095Y-63526247D01*
X122738095Y-63526247D02*
X122547619Y-63526247D01*
X123166667Y-63954819D02*
X123166667Y-62954819D01*
X123166667Y-62954819D02*
X123547619Y-62954819D01*
X123547619Y-62954819D02*
X123642857Y-63002438D01*
X123642857Y-63002438D02*
X123690476Y-63050057D01*
X123690476Y-63050057D02*
X123738095Y-63145295D01*
X123738095Y-63145295D02*
X123738095Y-63288152D01*
X123738095Y-63288152D02*
X123690476Y-63383390D01*
X123690476Y-63383390D02*
X123642857Y-63431009D01*
X123642857Y-63431009D02*
X123547619Y-63478628D01*
X123547619Y-63478628D02*
X123166667Y-63478628D01*
X124166667Y-63954819D02*
X124166667Y-62954819D01*
X124833333Y-62954819D02*
X125023809Y-62954819D01*
X125023809Y-62954819D02*
X125119047Y-63002438D01*
X125119047Y-63002438D02*
X125214285Y-63097676D01*
X125214285Y-63097676D02*
X125261904Y-63288152D01*
X125261904Y-63288152D02*
X125261904Y-63621485D01*
X125261904Y-63621485D02*
X125214285Y-63811961D01*
X125214285Y-63811961D02*
X125119047Y-63907200D01*
X125119047Y-63907200D02*
X125023809Y-63954819D01*
X125023809Y-63954819D02*
X124833333Y-63954819D01*
X124833333Y-63954819D02*
X124738095Y-63907200D01*
X124738095Y-63907200D02*
X124642857Y-63811961D01*
X124642857Y-63811961D02*
X124595238Y-63621485D01*
X124595238Y-63621485D02*
X124595238Y-63288152D01*
X124595238Y-63288152D02*
X124642857Y-63097676D01*
X124642857Y-63097676D02*
X124738095Y-63002438D01*
X124738095Y-63002438D02*
X124833333Y-62954819D01*
X126452381Y-63954819D02*
X126452381Y-62954819D01*
X126452381Y-62954819D02*
X126833333Y-62954819D01*
X126833333Y-62954819D02*
X126928571Y-63002438D01*
X126928571Y-63002438D02*
X126976190Y-63050057D01*
X126976190Y-63050057D02*
X127023809Y-63145295D01*
X127023809Y-63145295D02*
X127023809Y-63288152D01*
X127023809Y-63288152D02*
X126976190Y-63383390D01*
X126976190Y-63383390D02*
X126928571Y-63431009D01*
X126928571Y-63431009D02*
X126833333Y-63478628D01*
X126833333Y-63478628D02*
X126452381Y-63478628D01*
X127452381Y-63954819D02*
X127452381Y-63288152D01*
X127452381Y-62954819D02*
X127404762Y-63002438D01*
X127404762Y-63002438D02*
X127452381Y-63050057D01*
X127452381Y-63050057D02*
X127500000Y-63002438D01*
X127500000Y-63002438D02*
X127452381Y-62954819D01*
X127452381Y-62954819D02*
X127452381Y-63050057D01*
X127928571Y-63288152D02*
X127928571Y-63954819D01*
X127928571Y-63383390D02*
X127976190Y-63335771D01*
X127976190Y-63335771D02*
X128071428Y-63288152D01*
X128071428Y-63288152D02*
X128214285Y-63288152D01*
X128214285Y-63288152D02*
X128309523Y-63335771D01*
X128309523Y-63335771D02*
X128357142Y-63431009D01*
X128357142Y-63431009D02*
X128357142Y-63954819D01*
X128785714Y-63907200D02*
X128880952Y-63954819D01*
X128880952Y-63954819D02*
X129071428Y-63954819D01*
X129071428Y-63954819D02*
X129166666Y-63907200D01*
X129166666Y-63907200D02*
X129214285Y-63811961D01*
X129214285Y-63811961D02*
X129214285Y-63764342D01*
X129214285Y-63764342D02*
X129166666Y-63669104D01*
X129166666Y-63669104D02*
X129071428Y-63621485D01*
X129071428Y-63621485D02*
X128928571Y-63621485D01*
X128928571Y-63621485D02*
X128833333Y-63573866D01*
X128833333Y-63573866D02*
X128785714Y-63478628D01*
X128785714Y-63478628D02*
X128785714Y-63431009D01*
X128785714Y-63431009D02*
X128833333Y-63335771D01*
X128833333Y-63335771D02*
X128928571Y-63288152D01*
X128928571Y-63288152D02*
X129071428Y-63288152D01*
X129071428Y-63288152D02*
X129166666Y-63335771D01*
X130928571Y-63954819D02*
X130357143Y-63954819D01*
X130642857Y-63954819D02*
X130642857Y-62954819D01*
X130642857Y-62954819D02*
X130547619Y-63097676D01*
X130547619Y-63097676D02*
X130452381Y-63192914D01*
X130452381Y-63192914D02*
X130357143Y-63240533D01*
X131404762Y-63907200D02*
X131404762Y-63954819D01*
X131404762Y-63954819D02*
X131357143Y-64050057D01*
X131357143Y-64050057D02*
X131309524Y-64097676D01*
X132547619Y-63050057D02*
X132595238Y-63002438D01*
X132595238Y-63002438D02*
X132690476Y-62954819D01*
X132690476Y-62954819D02*
X132928571Y-62954819D01*
X132928571Y-62954819D02*
X133023809Y-63002438D01*
X133023809Y-63002438D02*
X133071428Y-63050057D01*
X133071428Y-63050057D02*
X133119047Y-63145295D01*
X133119047Y-63145295D02*
X133119047Y-63240533D01*
X133119047Y-63240533D02*
X133071428Y-63383390D01*
X133071428Y-63383390D02*
X132500000Y-63954819D01*
X132500000Y-63954819D02*
X133119047Y-63954819D01*
X133595238Y-63907200D02*
X133595238Y-63954819D01*
X133595238Y-63954819D02*
X133547619Y-64050057D01*
X133547619Y-64050057D02*
X133500000Y-64097676D01*
X134690476Y-62954819D02*
X135309523Y-62954819D01*
X135309523Y-62954819D02*
X134976190Y-63335771D01*
X134976190Y-63335771D02*
X135119047Y-63335771D01*
X135119047Y-63335771D02*
X135214285Y-63383390D01*
X135214285Y-63383390D02*
X135261904Y-63431009D01*
X135261904Y-63431009D02*
X135309523Y-63526247D01*
X135309523Y-63526247D02*
X135309523Y-63764342D01*
X135309523Y-63764342D02*
X135261904Y-63859580D01*
X135261904Y-63859580D02*
X135214285Y-63907200D01*
X135214285Y-63907200D02*
X135119047Y-63954819D01*
X135119047Y-63954819D02*
X134833333Y-63954819D01*
X134833333Y-63954819D02*
X134738095Y-63907200D01*
X134738095Y-63907200D02*
X134690476Y-63859580D01*
X135785714Y-63907200D02*
X135785714Y-63954819D01*
X135785714Y-63954819D02*
X135738095Y-64050057D01*
X135738095Y-64050057D02*
X135690476Y-64097676D01*
X137404761Y-63288152D02*
X137404761Y-63954819D01*
X137166666Y-62907200D02*
X136928571Y-63621485D01*
X136928571Y-63621485D02*
X137547618Y-63621485D01*
X137976190Y-63907200D02*
X137976190Y-63954819D01*
X137976190Y-63954819D02*
X137928571Y-64050057D01*
X137928571Y-64050057D02*
X137880952Y-64097676D01*
X139642856Y-62954819D02*
X139166666Y-62954819D01*
X139166666Y-62954819D02*
X139119047Y-63431009D01*
X139119047Y-63431009D02*
X139166666Y-63383390D01*
X139166666Y-63383390D02*
X139261904Y-63335771D01*
X139261904Y-63335771D02*
X139499999Y-63335771D01*
X139499999Y-63335771D02*
X139595237Y-63383390D01*
X139595237Y-63383390D02*
X139642856Y-63431009D01*
X139642856Y-63431009D02*
X139690475Y-63526247D01*
X139690475Y-63526247D02*
X139690475Y-63764342D01*
X139690475Y-63764342D02*
X139642856Y-63859580D01*
X139642856Y-63859580D02*
X139595237Y-63907200D01*
X139595237Y-63907200D02*
X139499999Y-63954819D01*
X139499999Y-63954819D02*
X139261904Y-63954819D01*
X139261904Y-63954819D02*
X139166666Y-63907200D01*
X139166666Y-63907200D02*
X139119047Y-63859580D01*
X140166666Y-63907200D02*
X140166666Y-63954819D01*
X140166666Y-63954819D02*
X140119047Y-64050057D01*
X140119047Y-64050057D02*
X140071428Y-64097676D01*
X141785713Y-62954819D02*
X141595237Y-62954819D01*
X141595237Y-62954819D02*
X141499999Y-63002438D01*
X141499999Y-63002438D02*
X141452380Y-63050057D01*
X141452380Y-63050057D02*
X141357142Y-63192914D01*
X141357142Y-63192914D02*
X141309523Y-63383390D01*
X141309523Y-63383390D02*
X141309523Y-63764342D01*
X141309523Y-63764342D02*
X141357142Y-63859580D01*
X141357142Y-63859580D02*
X141404761Y-63907200D01*
X141404761Y-63907200D02*
X141499999Y-63954819D01*
X141499999Y-63954819D02*
X141690475Y-63954819D01*
X141690475Y-63954819D02*
X141785713Y-63907200D01*
X141785713Y-63907200D02*
X141833332Y-63859580D01*
X141833332Y-63859580D02*
X141880951Y-63764342D01*
X141880951Y-63764342D02*
X141880951Y-63526247D01*
X141880951Y-63526247D02*
X141833332Y-63431009D01*
X141833332Y-63431009D02*
X141785713Y-63383390D01*
X141785713Y-63383390D02*
X141690475Y-63335771D01*
X141690475Y-63335771D02*
X141499999Y-63335771D01*
X141499999Y-63335771D02*
X141404761Y-63383390D01*
X141404761Y-63383390D02*
X141357142Y-63431009D01*
X141357142Y-63431009D02*
X141309523Y-63526247D01*
X107397141Y-100454819D02*
X107063808Y-99978628D01*
X106825713Y-100454819D02*
X106825713Y-99454819D01*
X106825713Y-99454819D02*
X107206665Y-99454819D01*
X107206665Y-99454819D02*
X107301903Y-99502438D01*
X107301903Y-99502438D02*
X107349522Y-99550057D01*
X107349522Y-99550057D02*
X107397141Y-99645295D01*
X107397141Y-99645295D02*
X107397141Y-99788152D01*
X107397141Y-99788152D02*
X107349522Y-99883390D01*
X107349522Y-99883390D02*
X107301903Y-99931009D01*
X107301903Y-99931009D02*
X107206665Y-99978628D01*
X107206665Y-99978628D02*
X106825713Y-99978628D01*
X107587618Y-100550057D02*
X108349522Y-100550057D01*
X108444761Y-99788152D02*
X108825713Y-99788152D01*
X108587618Y-100454819D02*
X108587618Y-99597676D01*
X108587618Y-99597676D02*
X108635237Y-99502438D01*
X108635237Y-99502438D02*
X108730475Y-99454819D01*
X108730475Y-99454819D02*
X108825713Y-99454819D01*
X109301904Y-100454819D02*
X109206666Y-100407200D01*
X109206666Y-100407200D02*
X109159047Y-100359580D01*
X109159047Y-100359580D02*
X109111428Y-100264342D01*
X109111428Y-100264342D02*
X109111428Y-99978628D01*
X109111428Y-99978628D02*
X109159047Y-99883390D01*
X109159047Y-99883390D02*
X109206666Y-99835771D01*
X109206666Y-99835771D02*
X109301904Y-99788152D01*
X109301904Y-99788152D02*
X109444761Y-99788152D01*
X109444761Y-99788152D02*
X109539999Y-99835771D01*
X109539999Y-99835771D02*
X109587618Y-99883390D01*
X109587618Y-99883390D02*
X109635237Y-99978628D01*
X109635237Y-99978628D02*
X109635237Y-100264342D01*
X109635237Y-100264342D02*
X109587618Y-100359580D01*
X109587618Y-100359580D02*
X109539999Y-100407200D01*
X109539999Y-100407200D02*
X109444761Y-100454819D01*
X109444761Y-100454819D02*
X109301904Y-100454819D01*
X110063809Y-100454819D02*
X110063809Y-99788152D01*
X110063809Y-99978628D02*
X110111428Y-99883390D01*
X110111428Y-99883390D02*
X110159047Y-99835771D01*
X110159047Y-99835771D02*
X110254285Y-99788152D01*
X110254285Y-99788152D02*
X110349523Y-99788152D01*
X110444762Y-100550057D02*
X111206666Y-100550057D01*
X111825714Y-100407200D02*
X111730476Y-100454819D01*
X111730476Y-100454819D02*
X111540000Y-100454819D01*
X111540000Y-100454819D02*
X111444762Y-100407200D01*
X111444762Y-100407200D02*
X111397143Y-100311961D01*
X111397143Y-100311961D02*
X111397143Y-99931009D01*
X111397143Y-99931009D02*
X111444762Y-99835771D01*
X111444762Y-99835771D02*
X111540000Y-99788152D01*
X111540000Y-99788152D02*
X111730476Y-99788152D01*
X111730476Y-99788152D02*
X111825714Y-99835771D01*
X111825714Y-99835771D02*
X111873333Y-99931009D01*
X111873333Y-99931009D02*
X111873333Y-100026247D01*
X111873333Y-100026247D02*
X111397143Y-100121485D01*
X112301905Y-100454819D02*
X112301905Y-99788152D01*
X112301905Y-99883390D02*
X112349524Y-99835771D01*
X112349524Y-99835771D02*
X112444762Y-99788152D01*
X112444762Y-99788152D02*
X112587619Y-99788152D01*
X112587619Y-99788152D02*
X112682857Y-99835771D01*
X112682857Y-99835771D02*
X112730476Y-99931009D01*
X112730476Y-99931009D02*
X112730476Y-100454819D01*
X112730476Y-99931009D02*
X112778095Y-99835771D01*
X112778095Y-99835771D02*
X112873333Y-99788152D01*
X112873333Y-99788152D02*
X113016190Y-99788152D01*
X113016190Y-99788152D02*
X113111429Y-99835771D01*
X113111429Y-99835771D02*
X113159048Y-99931009D01*
X113159048Y-99931009D02*
X113159048Y-100454819D01*
X113635238Y-100454819D02*
X113635238Y-99788152D01*
X113635238Y-99454819D02*
X113587619Y-99502438D01*
X113587619Y-99502438D02*
X113635238Y-99550057D01*
X113635238Y-99550057D02*
X113682857Y-99502438D01*
X113682857Y-99502438D02*
X113635238Y-99454819D01*
X113635238Y-99454819D02*
X113635238Y-99550057D01*
X113968571Y-99788152D02*
X114349523Y-99788152D01*
X114111428Y-99454819D02*
X114111428Y-100311961D01*
X114111428Y-100311961D02*
X114159047Y-100407200D01*
X114159047Y-100407200D02*
X114254285Y-100454819D01*
X114254285Y-100454819D02*
X114349523Y-100454819D01*
X114540000Y-99788152D02*
X114920952Y-99788152D01*
X114682857Y-99454819D02*
X114682857Y-100311961D01*
X114682857Y-100311961D02*
X114730476Y-100407200D01*
X114730476Y-100407200D02*
X114825714Y-100454819D01*
X114825714Y-100454819D02*
X114920952Y-100454819D01*
X115635238Y-100407200D02*
X115540000Y-100454819D01*
X115540000Y-100454819D02*
X115349524Y-100454819D01*
X115349524Y-100454819D02*
X115254286Y-100407200D01*
X115254286Y-100407200D02*
X115206667Y-100311961D01*
X115206667Y-100311961D02*
X115206667Y-99931009D01*
X115206667Y-99931009D02*
X115254286Y-99835771D01*
X115254286Y-99835771D02*
X115349524Y-99788152D01*
X115349524Y-99788152D02*
X115540000Y-99788152D01*
X115540000Y-99788152D02*
X115635238Y-99835771D01*
X115635238Y-99835771D02*
X115682857Y-99931009D01*
X115682857Y-99931009D02*
X115682857Y-100026247D01*
X115682857Y-100026247D02*
X115206667Y-100121485D01*
X116111429Y-100454819D02*
X116111429Y-99788152D01*
X116111429Y-99978628D02*
X116159048Y-99883390D01*
X116159048Y-99883390D02*
X116206667Y-99835771D01*
X116206667Y-99835771D02*
X116301905Y-99788152D01*
X116301905Y-99788152D02*
X116397143Y-99788152D01*
X115364761Y-71454819D02*
X115364761Y-70454819D01*
X115364761Y-70454819D02*
X115745713Y-70454819D01*
X115745713Y-70454819D02*
X115840951Y-70502438D01*
X115840951Y-70502438D02*
X115888570Y-70550057D01*
X115888570Y-70550057D02*
X115936189Y-70645295D01*
X115936189Y-70645295D02*
X115936189Y-70788152D01*
X115936189Y-70788152D02*
X115888570Y-70883390D01*
X115888570Y-70883390D02*
X115840951Y-70931009D01*
X115840951Y-70931009D02*
X115745713Y-70978628D01*
X115745713Y-70978628D02*
X115364761Y-70978628D01*
X116364761Y-71454819D02*
X116364761Y-70454819D01*
X116793332Y-71454819D02*
X116793332Y-70931009D01*
X116793332Y-70931009D02*
X116745713Y-70835771D01*
X116745713Y-70835771D02*
X116650475Y-70788152D01*
X116650475Y-70788152D02*
X116507618Y-70788152D01*
X116507618Y-70788152D02*
X116412380Y-70835771D01*
X116412380Y-70835771D02*
X116364761Y-70883390D01*
X117412380Y-71454819D02*
X117317142Y-71407200D01*
X117317142Y-71407200D02*
X117269523Y-71359580D01*
X117269523Y-71359580D02*
X117221904Y-71264342D01*
X117221904Y-71264342D02*
X117221904Y-70978628D01*
X117221904Y-70978628D02*
X117269523Y-70883390D01*
X117269523Y-70883390D02*
X117317142Y-70835771D01*
X117317142Y-70835771D02*
X117412380Y-70788152D01*
X117412380Y-70788152D02*
X117555237Y-70788152D01*
X117555237Y-70788152D02*
X117650475Y-70835771D01*
X117650475Y-70835771D02*
X117698094Y-70883390D01*
X117698094Y-70883390D02*
X117745713Y-70978628D01*
X117745713Y-70978628D02*
X117745713Y-71264342D01*
X117745713Y-71264342D02*
X117698094Y-71359580D01*
X117698094Y-71359580D02*
X117650475Y-71407200D01*
X117650475Y-71407200D02*
X117555237Y-71454819D01*
X117555237Y-71454819D02*
X117412380Y-71454819D01*
X118031428Y-70788152D02*
X118412380Y-70788152D01*
X118174285Y-70454819D02*
X118174285Y-71311961D01*
X118174285Y-71311961D02*
X118221904Y-71407200D01*
X118221904Y-71407200D02*
X118317142Y-71454819D01*
X118317142Y-71454819D02*
X118412380Y-71454819D01*
X118888571Y-71454819D02*
X118793333Y-71407200D01*
X118793333Y-71407200D02*
X118745714Y-71359580D01*
X118745714Y-71359580D02*
X118698095Y-71264342D01*
X118698095Y-71264342D02*
X118698095Y-70978628D01*
X118698095Y-70978628D02*
X118745714Y-70883390D01*
X118745714Y-70883390D02*
X118793333Y-70835771D01*
X118793333Y-70835771D02*
X118888571Y-70788152D01*
X118888571Y-70788152D02*
X119031428Y-70788152D01*
X119031428Y-70788152D02*
X119126666Y-70835771D01*
X119126666Y-70835771D02*
X119174285Y-70883390D01*
X119174285Y-70883390D02*
X119221904Y-70978628D01*
X119221904Y-70978628D02*
X119221904Y-71264342D01*
X119221904Y-71264342D02*
X119174285Y-71359580D01*
X119174285Y-71359580D02*
X119126666Y-71407200D01*
X119126666Y-71407200D02*
X119031428Y-71454819D01*
X119031428Y-71454819D02*
X118888571Y-71454819D01*
X119650476Y-71454819D02*
X119650476Y-70788152D01*
X119650476Y-70978628D02*
X119698095Y-70883390D01*
X119698095Y-70883390D02*
X119745714Y-70835771D01*
X119745714Y-70835771D02*
X119840952Y-70788152D01*
X119840952Y-70788152D02*
X119936190Y-70788152D01*
X120650476Y-71407200D02*
X120555238Y-71454819D01*
X120555238Y-71454819D02*
X120364762Y-71454819D01*
X120364762Y-71454819D02*
X120269524Y-71407200D01*
X120269524Y-71407200D02*
X120221905Y-71311961D01*
X120221905Y-71311961D02*
X120221905Y-70931009D01*
X120221905Y-70931009D02*
X120269524Y-70835771D01*
X120269524Y-70835771D02*
X120364762Y-70788152D01*
X120364762Y-70788152D02*
X120555238Y-70788152D01*
X120555238Y-70788152D02*
X120650476Y-70835771D01*
X120650476Y-70835771D02*
X120698095Y-70931009D01*
X120698095Y-70931009D02*
X120698095Y-71026247D01*
X120698095Y-71026247D02*
X120221905Y-71121485D01*
X121079048Y-71407200D02*
X121174286Y-71454819D01*
X121174286Y-71454819D02*
X121364762Y-71454819D01*
X121364762Y-71454819D02*
X121460000Y-71407200D01*
X121460000Y-71407200D02*
X121507619Y-71311961D01*
X121507619Y-71311961D02*
X121507619Y-71264342D01*
X121507619Y-71264342D02*
X121460000Y-71169104D01*
X121460000Y-71169104D02*
X121364762Y-71121485D01*
X121364762Y-71121485D02*
X121221905Y-71121485D01*
X121221905Y-71121485D02*
X121126667Y-71073866D01*
X121126667Y-71073866D02*
X121079048Y-70978628D01*
X121079048Y-70978628D02*
X121079048Y-70931009D01*
X121079048Y-70931009D02*
X121126667Y-70835771D01*
X121126667Y-70835771D02*
X121221905Y-70788152D01*
X121221905Y-70788152D02*
X121364762Y-70788152D01*
X121364762Y-70788152D02*
X121460000Y-70835771D01*
X121936191Y-71454819D02*
X121936191Y-70788152D01*
X121936191Y-70454819D02*
X121888572Y-70502438D01*
X121888572Y-70502438D02*
X121936191Y-70550057D01*
X121936191Y-70550057D02*
X121983810Y-70502438D01*
X121983810Y-70502438D02*
X121936191Y-70454819D01*
X121936191Y-70454819D02*
X121936191Y-70550057D01*
X122364762Y-71407200D02*
X122460000Y-71454819D01*
X122460000Y-71454819D02*
X122650476Y-71454819D01*
X122650476Y-71454819D02*
X122745714Y-71407200D01*
X122745714Y-71407200D02*
X122793333Y-71311961D01*
X122793333Y-71311961D02*
X122793333Y-71264342D01*
X122793333Y-71264342D02*
X122745714Y-71169104D01*
X122745714Y-71169104D02*
X122650476Y-71121485D01*
X122650476Y-71121485D02*
X122507619Y-71121485D01*
X122507619Y-71121485D02*
X122412381Y-71073866D01*
X122412381Y-71073866D02*
X122364762Y-70978628D01*
X122364762Y-70978628D02*
X122364762Y-70931009D01*
X122364762Y-70931009D02*
X122412381Y-70835771D01*
X122412381Y-70835771D02*
X122507619Y-70788152D01*
X122507619Y-70788152D02*
X122650476Y-70788152D01*
X122650476Y-70788152D02*
X122745714Y-70835771D01*
X123079048Y-70788152D02*
X123460000Y-70788152D01*
X123221905Y-70454819D02*
X123221905Y-71311961D01*
X123221905Y-71311961D02*
X123269524Y-71407200D01*
X123269524Y-71407200D02*
X123364762Y-71454819D01*
X123364762Y-71454819D02*
X123460000Y-71454819D01*
X123936191Y-71454819D02*
X123840953Y-71407200D01*
X123840953Y-71407200D02*
X123793334Y-71359580D01*
X123793334Y-71359580D02*
X123745715Y-71264342D01*
X123745715Y-71264342D02*
X123745715Y-70978628D01*
X123745715Y-70978628D02*
X123793334Y-70883390D01*
X123793334Y-70883390D02*
X123840953Y-70835771D01*
X123840953Y-70835771D02*
X123936191Y-70788152D01*
X123936191Y-70788152D02*
X124079048Y-70788152D01*
X124079048Y-70788152D02*
X124174286Y-70835771D01*
X124174286Y-70835771D02*
X124221905Y-70883390D01*
X124221905Y-70883390D02*
X124269524Y-70978628D01*
X124269524Y-70978628D02*
X124269524Y-71264342D01*
X124269524Y-71264342D02*
X124221905Y-71359580D01*
X124221905Y-71359580D02*
X124174286Y-71407200D01*
X124174286Y-71407200D02*
X124079048Y-71454819D01*
X124079048Y-71454819D02*
X123936191Y-71454819D01*
X124698096Y-71454819D02*
X124698096Y-70788152D01*
X124698096Y-70978628D02*
X124745715Y-70883390D01*
X124745715Y-70883390D02*
X124793334Y-70835771D01*
X124793334Y-70835771D02*
X124888572Y-70788152D01*
X124888572Y-70788152D02*
X124983810Y-70788152D01*
X126555239Y-70454819D02*
X126079049Y-70454819D01*
X126079049Y-70454819D02*
X126031430Y-70931009D01*
X126031430Y-70931009D02*
X126079049Y-70883390D01*
X126079049Y-70883390D02*
X126174287Y-70835771D01*
X126174287Y-70835771D02*
X126412382Y-70835771D01*
X126412382Y-70835771D02*
X126507620Y-70883390D01*
X126507620Y-70883390D02*
X126555239Y-70931009D01*
X126555239Y-70931009D02*
X126602858Y-71026247D01*
X126602858Y-71026247D02*
X126602858Y-71264342D01*
X126602858Y-71264342D02*
X126555239Y-71359580D01*
X126555239Y-71359580D02*
X126507620Y-71407200D01*
X126507620Y-71407200D02*
X126412382Y-71454819D01*
X126412382Y-71454819D02*
X126174287Y-71454819D01*
X126174287Y-71454819D02*
X126079049Y-71407200D01*
X126079049Y-71407200D02*
X126031430Y-71359580D01*
X95954819Y-97047618D02*
X94954819Y-97047618D01*
X95954819Y-96000000D02*
X95478628Y-96333333D01*
X95954819Y-96571428D02*
X94954819Y-96571428D01*
X94954819Y-96571428D02*
X94954819Y-96190476D01*
X94954819Y-96190476D02*
X95002438Y-96095238D01*
X95002438Y-96095238D02*
X95050057Y-96047619D01*
X95050057Y-96047619D02*
X95145295Y-96000000D01*
X95145295Y-96000000D02*
X95288152Y-96000000D01*
X95288152Y-96000000D02*
X95383390Y-96047619D01*
X95383390Y-96047619D02*
X95431009Y-96095238D01*
X95431009Y-96095238D02*
X95478628Y-96190476D01*
X95478628Y-96190476D02*
X95478628Y-96571428D01*
X95431009Y-94809523D02*
X95431009Y-94476190D01*
X95954819Y-94333333D02*
X95954819Y-94809523D01*
X95954819Y-94809523D02*
X94954819Y-94809523D01*
X94954819Y-94809523D02*
X94954819Y-94333333D01*
X95954819Y-93904761D02*
X95288152Y-93904761D01*
X95383390Y-93904761D02*
X95335771Y-93857142D01*
X95335771Y-93857142D02*
X95288152Y-93761904D01*
X95288152Y-93761904D02*
X95288152Y-93619047D01*
X95288152Y-93619047D02*
X95335771Y-93523809D01*
X95335771Y-93523809D02*
X95431009Y-93476190D01*
X95431009Y-93476190D02*
X95954819Y-93476190D01*
X95431009Y-93476190D02*
X95335771Y-93428571D01*
X95335771Y-93428571D02*
X95288152Y-93333333D01*
X95288152Y-93333333D02*
X95288152Y-93190476D01*
X95288152Y-93190476D02*
X95335771Y-93095237D01*
X95335771Y-93095237D02*
X95431009Y-93047618D01*
X95431009Y-93047618D02*
X95954819Y-93047618D01*
X95954819Y-92571428D02*
X95288152Y-92571428D01*
X94954819Y-92571428D02*
X95002438Y-92619047D01*
X95002438Y-92619047D02*
X95050057Y-92571428D01*
X95050057Y-92571428D02*
X95002438Y-92523809D01*
X95002438Y-92523809D02*
X94954819Y-92571428D01*
X94954819Y-92571428D02*
X95050057Y-92571428D01*
X95288152Y-92238095D02*
X95288152Y-91857143D01*
X94954819Y-92095238D02*
X95811961Y-92095238D01*
X95811961Y-92095238D02*
X95907200Y-92047619D01*
X95907200Y-92047619D02*
X95954819Y-91952381D01*
X95954819Y-91952381D02*
X95954819Y-91857143D01*
X95288152Y-91666666D02*
X95288152Y-91285714D01*
X94954819Y-91523809D02*
X95811961Y-91523809D01*
X95811961Y-91523809D02*
X95907200Y-91476190D01*
X95907200Y-91476190D02*
X95954819Y-91380952D01*
X95954819Y-91380952D02*
X95954819Y-91285714D01*
X95907200Y-90571428D02*
X95954819Y-90666666D01*
X95954819Y-90666666D02*
X95954819Y-90857142D01*
X95954819Y-90857142D02*
X95907200Y-90952380D01*
X95907200Y-90952380D02*
X95811961Y-90999999D01*
X95811961Y-90999999D02*
X95431009Y-90999999D01*
X95431009Y-90999999D02*
X95335771Y-90952380D01*
X95335771Y-90952380D02*
X95288152Y-90857142D01*
X95288152Y-90857142D02*
X95288152Y-90666666D01*
X95288152Y-90666666D02*
X95335771Y-90571428D01*
X95335771Y-90571428D02*
X95431009Y-90523809D01*
X95431009Y-90523809D02*
X95526247Y-90523809D01*
X95526247Y-90523809D02*
X95621485Y-90999999D01*
X95954819Y-90095237D02*
X95288152Y-90095237D01*
X95478628Y-90095237D02*
X95383390Y-90047618D01*
X95383390Y-90047618D02*
X95335771Y-89999999D01*
X95335771Y-89999999D02*
X95288152Y-89904761D01*
X95288152Y-89904761D02*
X95288152Y-89809523D01*
X118112381Y-93454819D02*
X118112381Y-92454819D01*
X119159999Y-93454819D02*
X118826666Y-92978628D01*
X118588571Y-93454819D02*
X118588571Y-92454819D01*
X118588571Y-92454819D02*
X118969523Y-92454819D01*
X118969523Y-92454819D02*
X119064761Y-92502438D01*
X119064761Y-92502438D02*
X119112380Y-92550057D01*
X119112380Y-92550057D02*
X119159999Y-92645295D01*
X119159999Y-92645295D02*
X119159999Y-92788152D01*
X119159999Y-92788152D02*
X119112380Y-92883390D01*
X119112380Y-92883390D02*
X119064761Y-92931009D01*
X119064761Y-92931009D02*
X118969523Y-92978628D01*
X118969523Y-92978628D02*
X118588571Y-92978628D01*
X120350476Y-92931009D02*
X120683809Y-92931009D01*
X120826666Y-93454819D02*
X120350476Y-93454819D01*
X120350476Y-93454819D02*
X120350476Y-92454819D01*
X120350476Y-92454819D02*
X120826666Y-92454819D01*
X121255238Y-93454819D02*
X121255238Y-92788152D01*
X121255238Y-92883390D02*
X121302857Y-92835771D01*
X121302857Y-92835771D02*
X121398095Y-92788152D01*
X121398095Y-92788152D02*
X121540952Y-92788152D01*
X121540952Y-92788152D02*
X121636190Y-92835771D01*
X121636190Y-92835771D02*
X121683809Y-92931009D01*
X121683809Y-92931009D02*
X121683809Y-93454819D01*
X121683809Y-92931009D02*
X121731428Y-92835771D01*
X121731428Y-92835771D02*
X121826666Y-92788152D01*
X121826666Y-92788152D02*
X121969523Y-92788152D01*
X121969523Y-92788152D02*
X122064762Y-92835771D01*
X122064762Y-92835771D02*
X122112381Y-92931009D01*
X122112381Y-92931009D02*
X122112381Y-93454819D01*
X122588571Y-93454819D02*
X122588571Y-92788152D01*
X122588571Y-92454819D02*
X122540952Y-92502438D01*
X122540952Y-92502438D02*
X122588571Y-92550057D01*
X122588571Y-92550057D02*
X122636190Y-92502438D01*
X122636190Y-92502438D02*
X122588571Y-92454819D01*
X122588571Y-92454819D02*
X122588571Y-92550057D01*
X122921904Y-92788152D02*
X123302856Y-92788152D01*
X123064761Y-92454819D02*
X123064761Y-93311961D01*
X123064761Y-93311961D02*
X123112380Y-93407200D01*
X123112380Y-93407200D02*
X123207618Y-93454819D01*
X123207618Y-93454819D02*
X123302856Y-93454819D01*
X123493333Y-92788152D02*
X123874285Y-92788152D01*
X123636190Y-92454819D02*
X123636190Y-93311961D01*
X123636190Y-93311961D02*
X123683809Y-93407200D01*
X123683809Y-93407200D02*
X123779047Y-93454819D01*
X123779047Y-93454819D02*
X123874285Y-93454819D01*
X124588571Y-93407200D02*
X124493333Y-93454819D01*
X124493333Y-93454819D02*
X124302857Y-93454819D01*
X124302857Y-93454819D02*
X124207619Y-93407200D01*
X124207619Y-93407200D02*
X124160000Y-93311961D01*
X124160000Y-93311961D02*
X124160000Y-92931009D01*
X124160000Y-92931009D02*
X124207619Y-92835771D01*
X124207619Y-92835771D02*
X124302857Y-92788152D01*
X124302857Y-92788152D02*
X124493333Y-92788152D01*
X124493333Y-92788152D02*
X124588571Y-92835771D01*
X124588571Y-92835771D02*
X124636190Y-92931009D01*
X124636190Y-92931009D02*
X124636190Y-93026247D01*
X124636190Y-93026247D02*
X124160000Y-93121485D01*
X125064762Y-93454819D02*
X125064762Y-92788152D01*
X125064762Y-92978628D02*
X125112381Y-92883390D01*
X125112381Y-92883390D02*
X125160000Y-92835771D01*
X125160000Y-92835771D02*
X125255238Y-92788152D01*
X125255238Y-92788152D02*
X125350476Y-92788152D01*
X94454819Y-83023809D02*
X94454819Y-82833333D01*
X94454819Y-82833333D02*
X94502438Y-82738095D01*
X94502438Y-82738095D02*
X94597676Y-82642857D01*
X94597676Y-82642857D02*
X94788152Y-82595238D01*
X94788152Y-82595238D02*
X95121485Y-82595238D01*
X95121485Y-82595238D02*
X95311961Y-82642857D01*
X95311961Y-82642857D02*
X95407200Y-82738095D01*
X95407200Y-82738095D02*
X95454819Y-82833333D01*
X95454819Y-82833333D02*
X95454819Y-83023809D01*
X95454819Y-83023809D02*
X95407200Y-83119047D01*
X95407200Y-83119047D02*
X95311961Y-83214285D01*
X95311961Y-83214285D02*
X95121485Y-83261904D01*
X95121485Y-83261904D02*
X94788152Y-83261904D01*
X94788152Y-83261904D02*
X94597676Y-83214285D01*
X94597676Y-83214285D02*
X94502438Y-83119047D01*
X94502438Y-83119047D02*
X94454819Y-83023809D01*
X95454819Y-81690476D02*
X95454819Y-82166666D01*
X95454819Y-82166666D02*
X94454819Y-82166666D01*
X94931009Y-81357142D02*
X94931009Y-81023809D01*
X95454819Y-80880952D02*
X95454819Y-81357142D01*
X95454819Y-81357142D02*
X94454819Y-81357142D01*
X94454819Y-81357142D02*
X94454819Y-80880952D01*
X95454819Y-80452380D02*
X94454819Y-80452380D01*
X94454819Y-80452380D02*
X94454819Y-80214285D01*
X94454819Y-80214285D02*
X94502438Y-80071428D01*
X94502438Y-80071428D02*
X94597676Y-79976190D01*
X94597676Y-79976190D02*
X94692914Y-79928571D01*
X94692914Y-79928571D02*
X94883390Y-79880952D01*
X94883390Y-79880952D02*
X95026247Y-79880952D01*
X95026247Y-79880952D02*
X95216723Y-79928571D01*
X95216723Y-79928571D02*
X95311961Y-79976190D01*
X95311961Y-79976190D02*
X95407200Y-80071428D01*
X95407200Y-80071428D02*
X95454819Y-80214285D01*
X95454819Y-80214285D02*
X95454819Y-80452380D01*
X95454819Y-78690475D02*
X94454819Y-78690475D01*
X94454819Y-78690475D02*
X94454819Y-78452380D01*
X94454819Y-78452380D02*
X94502438Y-78309523D01*
X94502438Y-78309523D02*
X94597676Y-78214285D01*
X94597676Y-78214285D02*
X94692914Y-78166666D01*
X94692914Y-78166666D02*
X94883390Y-78119047D01*
X94883390Y-78119047D02*
X95026247Y-78119047D01*
X95026247Y-78119047D02*
X95216723Y-78166666D01*
X95216723Y-78166666D02*
X95311961Y-78214285D01*
X95311961Y-78214285D02*
X95407200Y-78309523D01*
X95407200Y-78309523D02*
X95454819Y-78452380D01*
X95454819Y-78452380D02*
X95454819Y-78690475D01*
X95454819Y-77690475D02*
X94788152Y-77690475D01*
X94454819Y-77690475D02*
X94502438Y-77738094D01*
X94502438Y-77738094D02*
X94550057Y-77690475D01*
X94550057Y-77690475D02*
X94502438Y-77642856D01*
X94502438Y-77642856D02*
X94454819Y-77690475D01*
X94454819Y-77690475D02*
X94550057Y-77690475D01*
X95407200Y-77261904D02*
X95454819Y-77166666D01*
X95454819Y-77166666D02*
X95454819Y-76976190D01*
X95454819Y-76976190D02*
X95407200Y-76880952D01*
X95407200Y-76880952D02*
X95311961Y-76833333D01*
X95311961Y-76833333D02*
X95264342Y-76833333D01*
X95264342Y-76833333D02*
X95169104Y-76880952D01*
X95169104Y-76880952D02*
X95121485Y-76976190D01*
X95121485Y-76976190D02*
X95121485Y-77119047D01*
X95121485Y-77119047D02*
X95073866Y-77214285D01*
X95073866Y-77214285D02*
X94978628Y-77261904D01*
X94978628Y-77261904D02*
X94931009Y-77261904D01*
X94931009Y-77261904D02*
X94835771Y-77214285D01*
X94835771Y-77214285D02*
X94788152Y-77119047D01*
X94788152Y-77119047D02*
X94788152Y-76976190D01*
X94788152Y-76976190D02*
X94835771Y-76880952D01*
X94788152Y-76404761D02*
X95788152Y-76404761D01*
X94835771Y-76404761D02*
X94788152Y-76309523D01*
X94788152Y-76309523D02*
X94788152Y-76119047D01*
X94788152Y-76119047D02*
X94835771Y-76023809D01*
X94835771Y-76023809D02*
X94883390Y-75976190D01*
X94883390Y-75976190D02*
X94978628Y-75928571D01*
X94978628Y-75928571D02*
X95264342Y-75928571D01*
X95264342Y-75928571D02*
X95359580Y-75976190D01*
X95359580Y-75976190D02*
X95407200Y-76023809D01*
X95407200Y-76023809D02*
X95454819Y-76119047D01*
X95454819Y-76119047D02*
X95454819Y-76309523D01*
X95454819Y-76309523D02*
X95407200Y-76404761D01*
X95454819Y-75357142D02*
X95407200Y-75452380D01*
X95407200Y-75452380D02*
X95311961Y-75499999D01*
X95311961Y-75499999D02*
X94454819Y-75499999D01*
X95454819Y-74547618D02*
X94931009Y-74547618D01*
X94931009Y-74547618D02*
X94835771Y-74595237D01*
X94835771Y-74595237D02*
X94788152Y-74690475D01*
X94788152Y-74690475D02*
X94788152Y-74880951D01*
X94788152Y-74880951D02*
X94835771Y-74976189D01*
X95407200Y-74547618D02*
X95454819Y-74642856D01*
X95454819Y-74642856D02*
X95454819Y-74880951D01*
X95454819Y-74880951D02*
X95407200Y-74976189D01*
X95407200Y-74976189D02*
X95311961Y-75023808D01*
X95311961Y-75023808D02*
X95216723Y-75023808D01*
X95216723Y-75023808D02*
X95121485Y-74976189D01*
X95121485Y-74976189D02*
X95073866Y-74880951D01*
X95073866Y-74880951D02*
X95073866Y-74642856D01*
X95073866Y-74642856D02*
X95026247Y-74547618D01*
X94788152Y-74166665D02*
X95454819Y-73928570D01*
X94788152Y-73690475D02*
X95454819Y-73928570D01*
X95454819Y-73928570D02*
X95692914Y-74023808D01*
X95692914Y-74023808D02*
X95740533Y-74071427D01*
X95740533Y-74071427D02*
X95788152Y-74166665D01*
X117992381Y-78954819D02*
X117992381Y-77954819D01*
X119039999Y-78954819D02*
X118706666Y-78478628D01*
X118468571Y-78954819D02*
X118468571Y-77954819D01*
X118468571Y-77954819D02*
X118849523Y-77954819D01*
X118849523Y-77954819D02*
X118944761Y-78002438D01*
X118944761Y-78002438D02*
X118992380Y-78050057D01*
X118992380Y-78050057D02*
X119039999Y-78145295D01*
X119039999Y-78145295D02*
X119039999Y-78288152D01*
X119039999Y-78288152D02*
X118992380Y-78383390D01*
X118992380Y-78383390D02*
X118944761Y-78431009D01*
X118944761Y-78431009D02*
X118849523Y-78478628D01*
X118849523Y-78478628D02*
X118468571Y-78478628D01*
X120230476Y-78431009D02*
X120563809Y-78431009D01*
X120706666Y-78954819D02*
X120230476Y-78954819D01*
X120230476Y-78954819D02*
X120230476Y-77954819D01*
X120230476Y-77954819D02*
X120706666Y-77954819D01*
X121135238Y-78954819D02*
X121135238Y-78288152D01*
X121135238Y-78383390D02*
X121182857Y-78335771D01*
X121182857Y-78335771D02*
X121278095Y-78288152D01*
X121278095Y-78288152D02*
X121420952Y-78288152D01*
X121420952Y-78288152D02*
X121516190Y-78335771D01*
X121516190Y-78335771D02*
X121563809Y-78431009D01*
X121563809Y-78431009D02*
X121563809Y-78954819D01*
X121563809Y-78431009D02*
X121611428Y-78335771D01*
X121611428Y-78335771D02*
X121706666Y-78288152D01*
X121706666Y-78288152D02*
X121849523Y-78288152D01*
X121849523Y-78288152D02*
X121944762Y-78335771D01*
X121944762Y-78335771D02*
X121992381Y-78431009D01*
X121992381Y-78431009D02*
X121992381Y-78954819D01*
X122468571Y-78954819D02*
X122468571Y-78288152D01*
X122468571Y-77954819D02*
X122420952Y-78002438D01*
X122420952Y-78002438D02*
X122468571Y-78050057D01*
X122468571Y-78050057D02*
X122516190Y-78002438D01*
X122516190Y-78002438D02*
X122468571Y-77954819D01*
X122468571Y-77954819D02*
X122468571Y-78050057D01*
X122801904Y-78288152D02*
X123182856Y-78288152D01*
X122944761Y-77954819D02*
X122944761Y-78811961D01*
X122944761Y-78811961D02*
X122992380Y-78907200D01*
X122992380Y-78907200D02*
X123087618Y-78954819D01*
X123087618Y-78954819D02*
X123182856Y-78954819D01*
X123373333Y-78288152D02*
X123754285Y-78288152D01*
X123516190Y-77954819D02*
X123516190Y-78811961D01*
X123516190Y-78811961D02*
X123563809Y-78907200D01*
X123563809Y-78907200D02*
X123659047Y-78954819D01*
X123659047Y-78954819D02*
X123754285Y-78954819D01*
X124468571Y-78907200D02*
X124373333Y-78954819D01*
X124373333Y-78954819D02*
X124182857Y-78954819D01*
X124182857Y-78954819D02*
X124087619Y-78907200D01*
X124087619Y-78907200D02*
X124040000Y-78811961D01*
X124040000Y-78811961D02*
X124040000Y-78431009D01*
X124040000Y-78431009D02*
X124087619Y-78335771D01*
X124087619Y-78335771D02*
X124182857Y-78288152D01*
X124182857Y-78288152D02*
X124373333Y-78288152D01*
X124373333Y-78288152D02*
X124468571Y-78335771D01*
X124468571Y-78335771D02*
X124516190Y-78431009D01*
X124516190Y-78431009D02*
X124516190Y-78526247D01*
X124516190Y-78526247D02*
X124040000Y-78621485D01*
X124944762Y-78954819D02*
X124944762Y-78288152D01*
X124944762Y-78478628D02*
X124992381Y-78383390D01*
X124992381Y-78383390D02*
X125040000Y-78335771D01*
X125040000Y-78335771D02*
X125135238Y-78288152D01*
X125135238Y-78288152D02*
X125230476Y-78288152D01*
%TO.C,Amplifier*%
D11*
X146000000Y-67880000D02*
X146000000Y-66500000D01*
X147380000Y-67880000D02*
X146000000Y-67880000D01*
X148650000Y-65120000D02*
X153840000Y-65120000D01*
X148650000Y-67880000D02*
X148650000Y-65120000D01*
X148650000Y-67880000D02*
X153840000Y-67880000D01*
X153840000Y-67880000D02*
X153840000Y-65120000D01*
%TO.C,R_for_emitter*%
X105230000Y-94130000D02*
X111770000Y-94130000D01*
X105230000Y-94460000D02*
X105230000Y-94130000D01*
X105230000Y-96540000D02*
X105230000Y-96870000D01*
X105230000Y-96870000D02*
X111770000Y-96870000D01*
X111770000Y-94130000D02*
X111770000Y-94460000D01*
X111770000Y-96870000D02*
X111770000Y-96540000D01*
%TO.C,LED*%
X158900000Y-87000000D02*
X158900000Y-90000000D01*
X158900000Y-87000000D02*
X167000000Y-87000000D01*
X167000000Y-90000000D02*
X158900000Y-90000000D01*
X167000000Y-90000000D02*
X167000000Y-87000000D01*
%TO.C,R_for_PhotoR*%
X131230000Y-72630000D02*
X131230000Y-72960000D01*
X131230000Y-75370000D02*
X131230000Y-75040000D01*
X137770000Y-72630000D02*
X131230000Y-72630000D01*
X137770000Y-72960000D02*
X137770000Y-72630000D01*
X137770000Y-75040000D02*
X137770000Y-75370000D01*
X137770000Y-75370000D02*
X131230000Y-75370000D01*
%TO.C,R_for_emitter*%
X117670000Y-86880000D02*
X117670000Y-87210000D01*
X117670000Y-89620000D02*
X117670000Y-89290000D01*
X124210000Y-86880000D02*
X117670000Y-86880000D01*
X124210000Y-87210000D02*
X124210000Y-86880000D01*
X124210000Y-89290000D02*
X124210000Y-89620000D01*
X124210000Y-89620000D02*
X117670000Y-89620000D01*
%TO.C,R_for_PhotoR*%
X158690000Y-72630000D02*
X165230000Y-72630000D01*
X158690000Y-72960000D02*
X158690000Y-72630000D01*
X158690000Y-75040000D02*
X158690000Y-75370000D01*
X158690000Y-75370000D02*
X165230000Y-75370000D01*
X165230000Y-72630000D02*
X165230000Y-72960000D01*
X165230000Y-75370000D02*
X165230000Y-75040000D01*
%TO.C,R_for_emitter*%
X104170000Y-79630000D02*
X110710000Y-79630000D01*
X104170000Y-79960000D02*
X104170000Y-79630000D01*
X104170000Y-82040000D02*
X104170000Y-82370000D01*
X104170000Y-82370000D02*
X110710000Y-82370000D01*
X110710000Y-79630000D02*
X110710000Y-79960000D01*
X110710000Y-82370000D02*
X110710000Y-82040000D01*
%TO.C,R_for_receiver*%
X145380000Y-87130000D02*
X145380000Y-87460000D01*
X145380000Y-89870000D02*
X145380000Y-89540000D01*
X151920000Y-87130000D02*
X145380000Y-87130000D01*
X151920000Y-87460000D02*
X151920000Y-87130000D01*
X151920000Y-89540000D02*
X151920000Y-89870000D01*
X151920000Y-89870000D02*
X145380000Y-89870000D01*
X131730000Y-79630000D02*
X138270000Y-79630000D01*
X131730000Y-79960000D02*
X131730000Y-79630000D01*
X131730000Y-82040000D02*
X131730000Y-82370000D01*
X131730000Y-82370000D02*
X138270000Y-82370000D01*
X138270000Y-79630000D02*
X138270000Y-79960000D01*
X138270000Y-82370000D02*
X138270000Y-82040000D01*
%TO.C,IR Emitter*%
X102980000Y-86750000D02*
X102980000Y-89750000D01*
X102980000Y-86750000D02*
X111080000Y-86750000D01*
X111080000Y-89750000D02*
X102980000Y-89750000D01*
X111080000Y-89750000D02*
X111080000Y-86750000D01*
%TO.C,IR Receiver 1*%
X120900000Y-102500000D02*
X120900000Y-105500000D01*
X120900000Y-102500000D02*
X129000000Y-102500000D01*
X129000000Y-105500000D02*
X120900000Y-105500000D01*
X129000000Y-105500000D02*
X129000000Y-102500000D01*
%TO.C,IR Receiver 4*%
X144770000Y-79500000D02*
X144770000Y-82500000D01*
X144770000Y-79500000D02*
X152870000Y-79500000D01*
X152870000Y-82500000D02*
X144770000Y-82500000D01*
X152870000Y-82500000D02*
X152870000Y-79500000D01*
%TO.C,IR Receiver 2*%
X144920000Y-94000000D02*
X144920000Y-97000000D01*
X144920000Y-94000000D02*
X153020000Y-94000000D01*
X153020000Y-97000000D02*
X144920000Y-97000000D01*
X153020000Y-97000000D02*
X153020000Y-94000000D01*
%TO.C,R_for_receiver*%
X136730000Y-102630000D02*
X136730000Y-102960000D01*
X136730000Y-105370000D02*
X136730000Y-105040000D01*
X143270000Y-102630000D02*
X136730000Y-102630000D01*
X143270000Y-102960000D02*
X143270000Y-102630000D01*
X143270000Y-105040000D02*
X143270000Y-105370000D01*
X143270000Y-105370000D02*
X136730000Y-105370000D01*
%TO.C,LED*%
X148940000Y-102500000D02*
X148940000Y-105500000D01*
X148940000Y-102500000D02*
X157040000Y-102500000D01*
X157040000Y-105500000D02*
X148940000Y-105500000D01*
X157040000Y-105500000D02*
X157040000Y-102500000D01*
%TO.C,R_for_LED*%
X159230000Y-79630000D02*
X165770000Y-79630000D01*
X159230000Y-79960000D02*
X159230000Y-79630000D01*
X159230000Y-82040000D02*
X159230000Y-82370000D01*
X159230000Y-82370000D02*
X165770000Y-82370000D01*
X165770000Y-79630000D02*
X165770000Y-79960000D01*
X165770000Y-82370000D02*
X165770000Y-82040000D01*
%TO.C,R_for_receiver*%
X131730000Y-94130000D02*
X138270000Y-94130000D01*
X131730000Y-94460000D02*
X131730000Y-94130000D01*
X131730000Y-96540000D02*
X131730000Y-96870000D01*
X131730000Y-96870000D02*
X138270000Y-96870000D01*
X138270000Y-94130000D02*
X138270000Y-94460000D01*
X138270000Y-96870000D02*
X138270000Y-96540000D01*
%TO.C,Power & GND*%
X110230000Y-67380000D02*
X110230000Y-66000000D01*
X111610000Y-67380000D02*
X110230000Y-67380000D01*
X112880000Y-64620000D02*
X118070000Y-64620000D01*
X112880000Y-67380000D02*
X112880000Y-64620000D01*
X112880000Y-67380000D02*
X118070000Y-67380000D01*
X118070000Y-67380000D02*
X118070000Y-64620000D01*
%TO.C,IR Receiver 3*%
X130440000Y-87000000D02*
X130440000Y-90000000D01*
X130440000Y-87000000D02*
X138540000Y-87000000D01*
X138540000Y-90000000D02*
X130440000Y-90000000D01*
X138540000Y-90000000D02*
X138540000Y-87000000D01*
%TO.C,Light Strip*%
X102870000Y-75380000D02*
X102870000Y-74000000D01*
X104250000Y-75380000D02*
X102870000Y-75380000D01*
X105520000Y-72620000D02*
X110710000Y-72620000D01*
X105520000Y-75380000D02*
X105520000Y-72620000D01*
X105520000Y-75380000D02*
X110710000Y-75380000D01*
X110710000Y-75380000D02*
X110710000Y-72620000D01*
%TO.C,Photoresistor 6*%
X144440000Y-72500000D02*
X144440000Y-75500000D01*
X144440000Y-72500000D02*
X152540000Y-72500000D01*
X152540000Y-75500000D02*
X144440000Y-75500000D01*
X152540000Y-75500000D02*
X152540000Y-72500000D01*
%TO.C,R_for_LED*%
X159040000Y-94130000D02*
X165580000Y-94130000D01*
X159040000Y-94460000D02*
X159040000Y-94130000D01*
X159040000Y-96540000D02*
X159040000Y-96870000D01*
X159040000Y-96870000D02*
X165580000Y-96870000D01*
X165580000Y-94130000D02*
X165580000Y-94460000D01*
X165580000Y-96870000D02*
X165580000Y-96540000D01*
%TO.C,GPIO Pins 1\u002C 2\u002C 3\u002C 4\u002C 5\u002C 6*%
X124000000Y-67380000D02*
X124000000Y-66000000D01*
X125380000Y-67380000D02*
X124000000Y-67380000D01*
X126650000Y-64620000D02*
X139460000Y-64620000D01*
X126650000Y-67380000D02*
X126650000Y-64620000D01*
X126650000Y-67380000D02*
X139460000Y-67380000D01*
X139460000Y-67380000D02*
X139460000Y-64620000D01*
%TO.C,R_for_emitter*%
X108270000Y-102130000D02*
X108270000Y-102460000D01*
X108270000Y-104870000D02*
X108270000Y-104540000D01*
X114810000Y-102130000D02*
X108270000Y-102130000D01*
X114810000Y-102460000D02*
X114810000Y-102130000D01*
X114810000Y-104540000D02*
X114810000Y-104870000D01*
X114810000Y-104870000D02*
X108270000Y-104870000D01*
%TO.C,Photoresistor 5*%
X116900000Y-72500000D02*
X116900000Y-75500000D01*
X116900000Y-72500000D02*
X125000000Y-72500000D01*
X125000000Y-75500000D02*
X116900000Y-75500000D01*
X125000000Y-75500000D02*
X125000000Y-72500000D01*
%TO.C,IR Emitter*%
X96500000Y-97540000D02*
X96500000Y-89440000D01*
X96500000Y-97540000D02*
X99500000Y-97540000D01*
X99500000Y-89440000D02*
X96500000Y-89440000D01*
X99500000Y-89440000D02*
X99500000Y-97540000D01*
X117620000Y-94000000D02*
X117620000Y-97000000D01*
X117620000Y-94000000D02*
X125720000Y-94000000D01*
X125720000Y-97000000D02*
X117620000Y-97000000D01*
X125720000Y-97000000D02*
X125720000Y-94000000D01*
%TO.C,OLED Display*%
X96620000Y-73310000D02*
X98000000Y-73310000D01*
X96620000Y-74690000D02*
X96620000Y-73310000D01*
X96620000Y-75960000D02*
X96620000Y-83690000D01*
X96620000Y-75960000D02*
X99380000Y-75960000D01*
X96620000Y-83690000D02*
X99380000Y-83690000D01*
X99380000Y-75960000D02*
X99380000Y-83690000D01*
%TO.C,IR Emitter*%
X117500000Y-79500000D02*
X117500000Y-82500000D01*
X117500000Y-79500000D02*
X125600000Y-79500000D01*
X125600000Y-82500000D02*
X117500000Y-82500000D01*
X125600000Y-82500000D02*
X125600000Y-79500000D01*
%TD*%
M02*
